<svg width="24" height="24" viewBox="0 0 24 24" fill="none" xmlns="http://www.w3.org/2000/svg">
<g clip-path="url(#clip0_1_26467)">
<path d="M14.4966 16.9559C15.0485 16.9585 15.5802 16.7483 15.9811 16.3689C16.382 15.9896 16.6212 15.4703 16.6491 14.9191C16.6491 14.9099 16.6491 14.9007 16.6491 14.8897L18.7374 12.5441C18.9494 12.2983 19.248 12.1435 19.5711 12.1121C19.8943 12.0806 20.2171 12.1747 20.4727 12.375C20.5991 12.4796 20.7034 12.6085 20.7793 12.7541C20.8552 12.8996 20.9012 13.0589 20.9145 13.2225C20.9279 13.3861 20.9084 13.5508 20.8571 13.7067C20.8058 13.8626 20.7239 14.0068 20.616 14.1305L16.4469 18.9099C16.1722 19.2248 15.8331 19.4772 15.4526 19.65C15.0721 19.8228 14.659 19.9121 14.241 19.9118H7.97449L6.88626 21L3.00391 17.2151L5.78516 14.4577C6.34995 13.8964 7.06139 13.5054 7.83804 13.3295C8.61469 13.1536 9.42516 13.2 10.1767 13.4632L10.787 13.6783H14.5462C14.7048 13.6782 14.8618 13.71 15.0079 13.7718C15.1539 13.8336 15.2861 13.9241 15.3965 14.0379C15.507 14.1518 15.5934 14.2867 15.6507 14.4346C15.708 14.5825 15.7349 14.7404 15.73 14.8989C15.7098 15.2106 15.5704 15.5026 15.3408 15.7144C15.1112 15.9263 14.8089 16.0417 14.4966 16.0368H12.241C12.1192 16.0368 12.0023 16.0852 11.9161 16.1714C11.8299 16.2575 11.7815 16.3744 11.7815 16.4963C11.7815 16.6182 11.8299 16.7351 11.9161 16.8213C12.0023 16.9075 12.1192 16.9559 12.241 16.9559H14.4966ZM12.2208 8.16176C12.5242 8.33371 12.8407 8.48123 13.1675 8.60294C13.3072 8.65809 13.4469 8.71507 13.5848 8.77574C13.7494 8.84604 13.9034 8.93884 14.0425 9.05147C14.1235 9.1069 14.1875 9.18374 14.2273 9.27342C14.2671 9.36309 14.2813 9.46208 14.2681 9.55932C14.255 9.65657 14.215 9.74824 14.1528 9.82411C14.0906 9.89998 14.0085 9.95705 13.9157 9.98897C13.6663 10.0939 13.3932 10.1294 13.1252 10.0919C12.683 10.0435 12.2532 9.91516 11.8568 9.71323C11.774 9.66208 11.68 9.6318 11.5829 9.625C11.3624 9.625 11.2943 9.84743 11.2557 9.96691C11.1841 10.1967 11.1197 10.4283 11.0572 10.6599C10.9543 11.0386 11.0186 11.1801 11.3734 11.3529C11.7633 11.53 12.177 11.6489 12.6013 11.7059C12.6688 11.7133 12.7353 11.7275 12.7999 11.7482C12.8138 11.819 12.8194 11.8911 12.8164 11.9632V12.4173C12.8127 12.4752 12.8213 12.5333 12.8416 12.5877C12.8619 12.6421 12.8935 12.6915 12.9343 12.7329C12.9751 12.7742 13.0242 12.8064 13.0783 12.8274C13.1324 12.8484 13.1904 12.8577 13.2484 12.8548H13.5609H13.9285C13.9852 12.8579 14.0418 12.8488 14.0947 12.8281C14.1475 12.8074 14.1952 12.7755 14.2346 12.7347C14.2741 12.6939 14.3042 12.6451 14.3231 12.5916C14.342 12.5381 14.3491 12.4811 14.344 12.4246C14.344 12.3566 14.344 12.2868 14.344 12.2187C14.344 12.079 14.344 11.9375 14.344 11.7978C14.344 11.6581 14.3771 11.614 14.5278 11.5717C15.015 11.4438 15.4492 11.1652 15.7686 10.7757C15.9747 10.5271 16.1234 10.2361 16.2041 9.92348C16.2848 9.61081 16.2955 9.2842 16.2355 8.96691C16.168 8.62871 16.0268 8.30955 15.8218 8.03217C15.6169 7.75478 15.3533 7.52601 15.0499 7.36213C14.7042 7.17977 14.3482 7.01773 13.9837 6.87684L13.844 6.81985C13.6305 6.73421 13.43 6.61912 13.2484 6.47794C13.1856 6.43246 13.1356 6.37146 13.1034 6.3009C13.0712 6.23035 13.0578 6.15264 13.0646 6.07537C13.0792 5.99643 13.1143 5.9227 13.1662 5.86144C13.2181 5.80019 13.2851 5.75354 13.3605 5.7261C13.4706 5.68242 13.5877 5.65937 13.7061 5.65809C14.1923 5.62863 14.6778 5.72485 15.116 5.9375C15.5682 6.15625 15.6675 5.82721 15.7043 5.6875C15.7649 5.50368 15.8182 5.31985 15.8716 5.12684L15.9341 4.90625C15.9531 4.85441 15.9615 4.79927 15.9589 4.74411C15.9562 4.68894 15.9424 4.63488 15.9184 4.58514C15.8944 4.53541 15.8606 4.49101 15.8191 4.45459C15.7776 4.41817 15.7291 4.39048 15.6767 4.37316C15.3653 4.23574 15.0371 4.13994 14.7006 4.08824C14.3973 4.04044 14.3973 4.04044 14.3973 3.73529C14.3973 3.09375 14.3477 3 13.7208 3H13.3826C13.0149 3.01103 12.9157 3.11949 12.9065 3.47978C12.9065 3.56434 12.9065 3.64706 12.9065 3.72978V3.86397C12.9065 4.13419 12.9065 4.13419 12.6381 4.23162C11.6602 4.5864 11.1344 5.25551 11.0756 6.21875C11.0223 7.02941 11.3991 7.66912 12.2208 8.16176Z" fill="#A1AEBE"/>
</g>
<defs>
<clipPath id="clip0_1_26467">
<rect width="24" height="24" fill="white"/>
</clipPath>
</defs>
</svg>
