<svg width="21" height="22" viewBox="0 0 21 22" fill="none" xmlns="http://www.w3.org/2000/svg">
<path d="M13.7015 0.950553C9.33774 -0.494919 4.5237 1.26158 1.87868 4.93814C-0.788968 8.64621 -0.562639 13.8606 2.22051 17.4271C5.01065 21.0024 9.94509 22.3841 14.191 20.7858C18.2623 19.2533 20.9701 15.2879 20.9997 10.9548C20.9687 6.40625 18.0148 2.37923 13.7015 0.950553ZM12.0388 19.8647C7.77723 20.661 3.43918 18.0568 1.97971 14.0205C0.483375 9.88262 2.28141 5.2312 6.0751 3.06521C9.91429 0.873088 14.8011 1.95877 17.5663 5.31894C18.8604 6.89134 19.5195 8.93413 19.5335 10.9548C19.5029 15.3413 16.339 19.0608 12.0388 19.8647ZM15.8203 8.46864C15.4932 8.79554 15.1661 9.12243 14.8392 9.44932C13.3706 10.9172 11.902 12.3851 10.4334 13.8529C10.0718 14.2144 9.71036 14.5758 9.3487 14.9372C9.26167 15.0243 9.16531 15.0849 9.06474 15.1243C8.41026 15.434 7.8183 14.6269 7.39901 14.2078C6.69039 13.4997 5.982 12.7915 5.27362 12.0834C4.99852 11.8087 4.62963 11.4511 4.80649 11.0164C5.07599 10.3535 5.79137 10.209 6.29536 10.713C6.94588 11.3631 7.59594 12.0131 8.24646 12.6632C8.41049 12.8272 8.57452 12.9913 8.73855 13.1553C9.91733 11.9772 11.0961 10.7989 12.2746 9.62082C12.9308 8.96493 13.5869 8.30905 14.2432 7.65316C14.6786 7.21777 15.2571 6.45175 15.9391 6.97207C15.9736 6.99844 16.0053 7.02784 16.0343 7.05864C16.0655 7.08757 16.0945 7.1193 16.1211 7.15407C16.4977 7.64709 16.1754 8.11375 15.8203 8.46864Z" fill="#1BB003"/>
</svg>
