<svg width="13" height="13" viewBox="0 0 13 13" fill="none" xmlns="http://www.w3.org/2000/svg">
<path d="M6.5 0.25C5.26387 0.25 4.0555 0.616556 3.02769 1.30331C1.99988 1.99007 1.1988 2.96619 0.725756 4.10823C0.252708 5.25027 0.128937 6.50693 0.370095 7.71931C0.611252 8.93169 1.20651 10.0453 2.08059 10.9194C2.95466 11.7935 4.06831 12.3887 5.28069 12.6299C6.49307 12.8711 7.74973 12.7473 8.89177 12.2742C10.0338 11.8012 11.0099 11.0001 11.6967 9.97231C12.3834 8.9445 12.75 7.73613 12.75 6.5C12.7483 4.84293 12.0892 3.25424 10.9175 2.08251C9.74576 0.910792 8.15707 0.25175 6.5 0.25ZM6.5 11.7885C5.45404 11.7885 4.43157 11.4783 3.56189 10.8972C2.69221 10.3161 2.01437 9.49014 1.6141 8.52381C1.21383 7.55747 1.1091 6.49413 1.31316 5.46827C1.51721 4.44241 2.02089 3.5001 2.7605 2.76049C3.5001 2.02089 4.44241 1.51721 5.46827 1.31315C6.49413 1.1091 7.55747 1.21383 8.52381 1.6141C9.49015 2.01437 10.3161 2.6922 10.8972 3.56189C11.4783 4.43157 11.7885 5.45404 11.7885 6.5C11.7869 7.9021 11.2292 9.24631 10.2378 10.2377C9.24632 11.2292 7.9021 11.7869 6.5 11.7885ZM8.90385 7.70192C8.90385 8.1482 8.72656 8.5762 8.411 8.89176C8.09543 9.20733 7.66743 9.38461 7.22116 9.38461H6.98077V9.86538C6.98077 9.99289 6.93012 10.1152 6.83996 10.2053C6.74979 10.2955 6.62751 10.3462 6.5 10.3462C6.37249 10.3462 6.25021 10.2955 6.16005 10.2053C6.06988 10.1152 6.01923 9.99289 6.01923 9.86538V9.38461H5.05769C4.93019 9.38461 4.8079 9.33396 4.71774 9.2438C4.62758 9.15364 4.57692 9.03135 4.57692 8.90384C4.57692 8.77634 4.62758 8.65405 4.71774 8.56389C4.8079 8.47373 4.93019 8.42307 5.05769 8.42307H7.22116C7.41242 8.42307 7.59584 8.3471 7.73109 8.21185C7.86633 8.07661 7.94231 7.89318 7.94231 7.70192C7.94231 7.51066 7.86633 7.32723 7.73109 7.19199C7.59584 7.05675 7.41242 6.98077 7.22116 6.98077H5.77885C5.33257 6.98077 4.90457 6.80348 4.589 6.48792C4.27344 6.17235 4.09616 5.74435 4.09616 5.29808C4.09616 4.8518 4.27344 4.4238 4.589 4.10823C4.90457 3.79267 5.33257 3.61538 5.77885 3.61538H6.01923V3.13461C6.01923 3.00711 6.06988 2.88482 6.16005 2.79466C6.25021 2.7045 6.37249 2.65385 6.5 2.65385C6.62751 2.65385 6.74979 2.7045 6.83996 2.79466C6.93012 2.88482 6.98077 3.00711 6.98077 3.13461V3.61538H7.94231C8.06982 3.61538 8.1921 3.66604 8.28226 3.7562C8.37243 3.84636 8.42308 3.96865 8.42308 4.09615C8.42308 4.22366 8.37243 4.34595 8.28226 4.43611C8.1921 4.52627 8.06982 4.57692 7.94231 4.57692H5.77885C5.58759 4.57692 5.40416 4.6529 5.26892 4.78814C5.13367 4.92339 5.05769 5.10681 5.05769 5.29808C5.05769 5.48934 5.13367 5.67277 5.26892 5.80801C5.40416 5.94325 5.58759 6.01923 5.77885 6.01923H7.22116C7.66743 6.01923 8.09543 6.19651 8.411 6.51208C8.72656 6.82764 8.90385 7.25564 8.90385 7.70192Z" fill="#FD813B"/>
</svg>
