<svg width="22" height="22" viewBox="0 0 22 22" fill="none" xmlns="http://www.w3.org/2000/svg">
<path d="M11 21C16.5228 21 21 16.5228 21 11C21 5.47715 16.5228 1 11 1C5.47715 1 1 5.47715 1 11C1 16.5228 5.47715 21 11 21Z" stroke="#FD813B"/>
<path fill-rule="evenodd" clip-rule="evenodd" d="M6.80078 13.4583V15.3333H8.67575L14.2056 9.80335L12.3307 7.92839L6.80078 13.4583ZM15.6558 8.35325C15.8508 8.15825 15.8508 7.84325 15.6558 7.64826L14.4859 6.47828C14.2909 6.28328 13.9759 6.28328 13.7809 6.47828L12.8659 7.39326L14.7409 9.26823L15.6558 8.35325H15.6558Z" fill="#FD813B"/>
</svg>
