<svg width="53" height="51" viewBox="0 0 53 51" fill="none" xmlns="http://www.w3.org/2000/svg">
<path d="M5.82171 22.1514C2.81519 22.1514 0.367188 24.5994 0.367188 27.6059V45.0605C0.367188 48.067 2.81519 50.515 5.82171 50.515H12.3672C13.5956 50.515 14.7257 50.1005 15.6399 49.411V22.1514H5.82171Z" fill="#B46609"/>
<path d="M52.7294 30.333C52.7294 29.0218 52.2102 27.7999 51.3091 26.8988C52.328 25.7839 52.8472 24.2893 52.7054 22.7337C52.4501 19.9606 49.9519 17.7875 47.0152 17.7875H33.5381C34.2058 15.7606 35.2748 12.045 35.2748 9.06026C35.2748 4.32789 31.2538 0.333008 28.7294 0.333008C26.4625 0.333008 24.8435 1.60937 24.7737 1.66174C24.5163 1.86904 24.3658 2.18323 24.3658 2.51479V9.91332L18.0821 23.5257L17.8203 23.6588V47.0436C19.5963 47.8814 21.8435 48.333 23.2748 48.333H43.3018C45.6778 48.333 47.7571 46.7315 48.2458 44.5214C48.4967 43.3847 48.3505 42.2392 47.8509 41.2443C49.4632 40.4327 50.5476 38.7723 50.5476 36.8785C50.5476 36.1061 50.3709 35.3665 50.0349 34.6967C51.6473 33.8851 52.7294 32.2247 52.7294 30.333Z" fill="#B46609"/>
</svg>
