<svg width="13" height="13" viewBox="0 0 13 13" fill="none" xmlns="http://www.w3.org/2000/svg">
<path d="M11.3536 6.5C11.3536 6.32142 11.4992 6.17681 11.6768 6.17681C11.8554 6.17681 12 6.32239 12 6.5C12 9.53873 9.53873 12 6.5 12C3.46127 12 1 9.53873 1 6.5C1 3.46127 3.46127 1 6.5 1C7.96938 1 9.35724 1.58232 10.3821 2.60623V1.85019C10.3821 1.67161 10.5277 1.527 10.7053 1.527C10.8839 1.527 11.0285 1.67258 11.0285 1.85019V3.46612C11.0285 3.6447 10.8829 3.78931 10.7053 3.78931H9.08841C8.90983 3.78931 8.76522 3.64373 8.76522 3.46612C8.76522 3.28754 8.9108 3.14293 9.08841 3.14293H10.0056C9.09326 2.19084 7.83351 1.64734 6.49903 1.64734C3.81745 1.64734 1.64637 3.81939 1.64637 6.5C1.64637 9.18158 3.81842 11.3527 6.49903 11.3527C9.18061 11.3527 11.3517 9.18061 11.3517 6.5H11.3536Z" fill="#202020" stroke="#202020" stroke-width="0.4"/>
<path d="M6.18066 3.91206C6.18066 3.73445 6.32527 3.58984 6.50287 3.58984C6.68048 3.58984 6.82509 3.73445 6.82509 3.91206L6.82315 6.34906L8.21198 7.50497C8.34882 7.61852 8.36726 7.82233 8.25371 7.9582C8.14016 8.09505 7.93635 8.11349 7.80047 7.99994L6.29615 6.74698C6.2253 6.68778 6.17969 6.59849 6.17969 6.4995L6.18163 3.91109L6.18066 3.91206Z" fill="#202020" stroke="#202020" stroke-width="0.4"/>
</svg>
