<svg width="24" height="24" viewBox="0 0 24 24" fill="none" xmlns="http://www.w3.org/2000/svg">
<g clip-path="url(#clip0_1_26462)">
<path d="M11.7872 1C9.9006 1.05425 8.11349 1.85506 6.81794 3.22668C5.5224 4.59835 4.82442 6.42907 4.87786 8.31497C4.87786 11.2 8.41066 16.5028 10.4228 19.2842C10.7321 19.7328 11.2422 20 11.7872 20C12.3321 20 12.8422 19.7328 13.1515 19.2842C15.1645 16.4947 18.6965 11.2 18.6965 8.31497C18.7499 6.42913 18.0519 4.5983 16.7564 3.22668C15.4608 1.85502 13.674 1.05431 11.7872 1ZM11.7872 10.1377C10.3168 10.0955 9.15719 8.87044 9.19616 7.4C9.1751 6.69149 9.43665 6.00485 9.92247 5.48989C10.4083 4.9741 11.0795 4.6737 11.7872 4.65344C12.495 4.67369 13.1662 4.9741 13.652 5.48989C14.1379 6.00488 14.3994 6.69152 14.3783 7.4C14.4172 8.87046 13.2577 10.0956 11.7872 10.1377Z" fill="#A1AEBE"/>
</g>
<defs>
<clipPath id="clip0_1_26462">
<rect width="24" height="24" fill="white"/>
</clipPath>
</defs>
</svg>
