<svg width="24" height="24" viewBox="0 0 24 24" fill="none" xmlns="http://www.w3.org/2000/svg">
<g clip-path="url(#clip0_1_26457)">
<path d="M15.9322 18.9999C13.0743 18.9962 10.3346 17.8593 8.31378 15.8384C6.29297 13.8176 5.15605 11.0779 5.15234 8.22003C5.15234 7.36605 5.49159 6.54704 6.09545 5.94318C6.6993 5.33932 7.51831 5.00008 8.3723 5.00008C8.55313 4.9987 8.73367 5.01511 8.91129 5.04908C9.083 5.07449 9.25181 5.11669 9.41528 5.17508C9.53025 5.21542 9.6327 5.28507 9.7125 5.37715C9.7923 5.46922 9.84668 5.58053 9.87027 5.70007L10.8293 9.90001C10.8551 10.014 10.852 10.1327 10.8202 10.2452C10.7884 10.3577 10.729 10.4604 10.6473 10.544C10.5563 10.642 10.5493 10.649 9.68828 11.097C10.3778 12.6096 11.5875 13.8243 13.0972 14.5199C13.5522 13.652 13.5592 13.645 13.6572 13.554C13.7408 13.4723 13.8436 13.4128 13.9561 13.381C14.0685 13.3492 14.1872 13.3461 14.3012 13.372L18.5011 14.3309C18.6169 14.3578 18.7238 14.4136 18.812 14.4932C18.9002 14.5728 18.9666 14.6736 19.0051 14.7859C19.0642 14.9521 19.1087 15.1231 19.1381 15.2969C19.1663 15.4729 19.1804 15.6508 19.1801 15.8289C19.1672 16.6793 18.8184 17.49 18.2099 18.084C17.6014 18.6781 16.7826 19.0074 15.9322 18.9999Z" fill="#A1AEBE"/>
</g>
<defs>
<clipPath id="clip0_1_26457">
<rect width="24" height="24" fill="white"/>
</clipPath>
</defs>
</svg>
