<svg width="22" height="23" viewBox="0 0 22 23" fill="none" xmlns="http://www.w3.org/2000/svg">
<path d="M12.2964 11.4453L15.2141 14.3631C15.5716 14.7205 15.5737 15.298 15.2132 15.6585C14.8552 16.0165 14.2749 16.0166 13.9178 15.6595L11 12.7417L8.08221 15.6595C7.72477 16.0169 7.1473 16.019 6.78682 15.6585C6.42884 15.3005 6.4287 14.7203 6.78585 14.3631L9.70364 11.4453L6.78585 8.52753C6.42841 8.17008 6.42635 7.59261 6.78682 7.23213C7.1448 6.87415 7.72506 6.87401 8.08221 7.23116L11 10.149L13.9178 7.23116C14.2752 6.87372 14.8527 6.87166 15.2132 7.23213C15.5712 7.59012 15.5713 8.17037 15.2141 8.52753L12.2964 11.4453ZM11 22.4453C4.92487 22.4453 0 17.5204 0 11.4453C0 5.37018 4.92487 0.445312 11 0.445312C17.0751 0.445312 22 5.37018 22 11.4453C22 17.5204 17.0751 22.4453 11 22.4453ZM11 20.612C16.0626 20.612 20.1667 16.5079 20.1667 11.4453C20.1667 6.3827 16.0626 2.27865 11 2.27865C5.93739 2.27865 1.83333 6.3827 1.83333 11.4453C1.83333 16.5079 5.93739 20.612 11 20.612Z" fill="#F76F6C"/>
</svg>
