<svg width="12" height="8" viewBox="0 0 12 8" fill="none" xmlns="http://www.w3.org/2000/svg">
<path fill-rule="evenodd" clip-rule="evenodd" d="M0 0.886936V7.10916C0 7.34494 0.0933334 7.57094 0.26 7.7376C0.426667 7.90449 0.653333 7.99805 0.888889 7.99805H11.1111C11.3467 7.99805 11.5733 7.90449 11.74 7.7376C11.9067 7.57094 12 7.34494 12 7.10916V0.886936C12 0.651158 11.9067 0.425158 11.74 0.258491C11.5733 0.0916024 11.3467 -0.00195312 11.1111 -0.00195312H0.888889C0.653333 -0.00195312 0.426667 0.0916024 0.26 0.258491C0.0933334 0.425158 0 0.651158 0 0.886936ZM2.52222 0.886936H0.888889V7.10916H2.52222C1.78222 6.28338 1.33333 5.19271 1.33333 3.99805C1.33333 2.80338 1.78222 1.71271 2.52222 0.886936ZM9.47778 0.886936C10.2178 1.71271 10.6667 2.80338 10.6667 3.99805C10.6667 5.19271 10.2178 6.28338 9.47778 7.10916H11.1111V0.886936H9.47778ZM7.11111 1.33138H4.88889C4.64444 1.33138 4.44444 1.53049 4.44444 1.77582C4.44444 2.02116 4.64444 2.22027 4.88889 2.22027H5.55556C5.84667 2.22027 6.09333 2.40583 6.18444 2.66471H4.88889C4.64444 2.66471 4.44444 2.86383 4.44444 3.10916C4.44444 3.35449 4.64444 3.5536 4.88889 3.5536H6.18444C6.09333 3.81249 5.84667 3.99805 5.55556 3.99805C5.19556 3.99805 4.88889 3.99805 4.88889 3.99805C4.71556 3.99805 4.55556 4.10005 4.48444 4.25894C4.41111 4.4176 4.44 4.60383 4.55556 4.73516L6.11111 6.51294C6.27111 6.6976 6.55333 6.71627 6.73778 6.55471C6.92222 6.39316 6.94 6.11227 6.78 5.9276L5.84444 4.86005C6.49333 4.73805 7.00222 4.21227 7.09556 3.5536H7.11111C7.35556 3.5536 7.55556 3.35449 7.55556 3.10916C7.55556 2.86383 7.35556 2.66471 7.11111 2.66471H7.09556C7.07333 2.50783 7.02667 2.35849 6.96222 2.22027H7.11111C7.35556 2.22027 7.55556 2.02116 7.55556 1.77582C7.55556 1.53049 7.35556 1.33138 7.11111 1.33138Z" fill="#A1AEBE"/>
</svg>
