<svg width="24" height="24" viewBox="0 0 24 24" fill="none" xmlns="http://www.w3.org/2000/svg">
<g clip-path="url(#clip0_1_26452)">
<path d="M12.5 4C8.36316 4 5 7.36316 5 11.5C5 15.6368 8.36316 19 12.5 19C16.6368 19 20 15.6368 20 11.5C20 7.36316 16.6368 4 12.5 4ZM12.5 8.29474C13.7947 8.29474 14.8526 9.35263 14.8526 10.6474C14.8526 11.9421 13.7947 13 12.5 13C11.2053 13 10.1474 11.9421 10.1474 10.6474C10.1474 9.35263 11.2053 8.29474 12.5 8.29474ZM8.39474 16.0474V15.7C8.39474 14.7053 9.2 13.8842 10.2105 13.8842H14.7895C15.7842 13.8842 16.6053 14.6895 16.6053 15.7V16.0474C15.5158 17.0263 14.0789 17.6263 12.5 17.6263C10.9211 17.6263 9.48421 17.0263 8.39474 16.0474Z" fill="#A1AEBE"/>
</g>
<defs>
<clipPath id="clip0_1_26452">
<rect width="24" height="24" fill="white"/>
</clipPath>
</defs>
</svg>
