<svg width="140" height="142" viewBox="0 0 140 142" fill="none" xmlns="http://www.w3.org/2000/svg">
<path fill-rule="evenodd" clip-rule="evenodd" d="M106.509 50.0562C107.44 50.003 108.132 49.8033 108.132 49.5639C108.132 49.3245 107.44 49.1215 106.509 49.0678C106.455 48.1429 106.253 47.4541 106.012 47.4541C105.77 47.4541 105.568 48.1429 105.514 49.0678C104.583 49.121 103.891 49.324 103.891 49.5639C103.891 49.8038 104.583 50.003 105.514 50.0562C105.568 50.9812 105.77 51.67 106.012 51.67C106.253 51.67 106.455 50.9812 106.509 50.0562Z" fill="white"/>
<path fill-rule="evenodd" clip-rule="evenodd" d="M97.9771 67.1367C97.4913 67.1087 97.1296 67.0047 97.1296 66.8796C97.1296 66.7545 97.4913 66.6486 97.9771 66.6206C98.0056 66.1371 98.111 65.7773 98.237 65.7773C98.363 65.7773 98.469 66.1371 98.497 66.6206C98.9828 66.6486 99.3444 66.7545 99.3444 66.8796C99.3444 67.0047 98.9828 67.1092 98.497 67.1367C98.4685 67.6202 98.363 67.98 98.237 67.98C98.111 67.98 98.0051 67.6202 97.9771 67.1367Z" fill="white"/>
<path fill-rule="evenodd" clip-rule="evenodd" d="M96.7796 23.2311C96.7437 23.8593 96.6088 24.3264 96.4474 24.3264C96.2859 24.3264 96.1487 23.8593 96.1128 23.2311C95.4884 23.1947 95.0236 23.058 95.0236 22.8951C95.0236 22.7323 95.4884 22.5955 96.1128 22.5591C96.1487 21.931 96.2859 21.4639 96.4474 21.4639C96.6088 21.4639 96.7437 21.931 96.7796 22.5591C97.404 22.5955 97.8688 22.7323 97.8688 22.8951C97.8688 23.058 97.404 23.1947 96.7796 23.2311Z" fill="white"/>
<path fill-rule="evenodd" clip-rule="evenodd" d="M89.5019 42.1913C89.4776 42.6117 89.3876 42.9249 89.2793 42.9249C89.171 42.9249 89.0791 42.6117 89.0553 42.1913C88.6372 42.167 88.3254 42.0751 88.3254 41.9663C88.3254 41.8576 88.6367 41.7657 89.0553 41.7414C89.0796 41.3209 89.171 41.0078 89.2793 41.0078C89.3876 41.0078 89.4781 41.3209 89.5019 41.7414C89.92 41.7657 90.2318 41.8576 90.2318 41.9663C90.2318 42.0751 89.9205 42.167 89.5019 42.1913Z" fill="white"/>
<path fill-rule="evenodd" clip-rule="evenodd" d="M112.834 51.9471C114.272 51.865 115.34 51.5565 115.34 51.1865C115.34 50.8164 114.271 50.5028 112.834 50.4207C112.751 48.9917 112.438 47.9277 112.065 47.9277C111.693 47.9277 111.38 48.9917 111.296 50.4207C109.859 50.5028 108.79 50.8164 108.79 51.1865C108.79 51.5565 109.859 51.865 111.296 51.9471C111.38 53.3761 111.693 54.4401 112.065 54.4401C112.438 54.4401 112.751 53.3761 112.834 51.9471Z" fill="white"/>
<path fill-rule="evenodd" clip-rule="evenodd" d="M99.5419 69.64C98.791 69.5971 98.2324 69.4361 98.2324 69.2424C98.2324 69.0488 98.791 68.8854 99.5419 68.8425C99.5858 68.0958 99.7491 67.54 99.9437 67.54C100.138 67.54 100.302 68.0958 100.345 68.8425C101.096 68.8854 101.655 69.0492 101.655 69.2424C101.655 69.4356 101.096 69.5966 100.345 69.64C100.302 70.3867 100.138 70.9425 99.9437 70.9425C99.7491 70.9425 99.5858 70.3867 99.5419 69.64Z" fill="white"/>
<path fill-rule="evenodd" clip-rule="evenodd" d="M100.015 21.2041C99.9591 22.1743 99.7509 22.8958 99.5013 22.8958C99.2516 22.8958 99.0397 22.1743 98.9842 21.2041C98.0196 21.1477 97.3014 20.9367 97.3014 20.6852C97.3014 20.4337 98.0196 20.2227 98.9842 20.1663C99.0397 19.1961 99.2511 18.4746 99.5013 18.4746C99.7514 18.4746 99.9591 19.1961 100.015 20.1663C100.979 20.2227 101.697 20.4337 101.697 20.6852C101.697 20.9367 100.979 21.1477 100.015 21.2041Z" fill="white"/>
<path fill-rule="evenodd" clip-rule="evenodd" d="M88.145 40.3196C88.1076 40.9692 87.9686 41.4527 87.801 41.4527C87.6335 41.4527 87.4921 40.9692 87.4548 40.3196C86.8084 40.2818 86.3278 40.1404 86.3278 39.9719C86.3278 39.8035 86.8089 39.6621 87.4548 39.6243C87.4921 38.9747 87.6335 38.4912 87.801 38.4912C87.9686 38.4912 88.1076 38.9747 88.145 39.6243C88.7913 39.6621 89.272 39.8035 89.272 39.9719C89.272 40.1404 88.7908 40.2818 88.145 40.3196Z" fill="white"/>
<path fill-rule="evenodd" clip-rule="evenodd" d="M29.8265 36.2881L29.7518 34.3337L54.7376 33.118C54.7563 33.1171 54.775 33.1161 54.7983 33.1161C57.953 33.0634 59.213 35.218 59.213 35.218C59.3296 35.4023 59.4183 35.6058 59.4696 35.8195C59.4696 35.8195 60.165 38.6891 61.2383 43.1723L83.1576 42.1937C85.925 42.064 88.8183 44.3665 89.5085 47.4722L93.8998 67.2136C94.6698 70.6711 92.6212 73.5486 89.5645 73.7969C89.5552 73.7978 89.5505 73.7983 89.5412 73.7987L81.0712 74.3942C83.2645 80.7311 84.2025 90.6291 84.0392 95.2822C84.0158 95.9458 83.9645 96.517 83.8992 96.9781L129.763 138.559C130.361 139.099 130.561 139.95 130.272 140.7C129.983 141.45 129.264 141.945 128.457 141.945H84.2678C83.5398 141.945 82.8772 141.541 82.5412 140.897C82.5412 140.897 77.3985 130.993 71.4718 124.042C69.181 121.361 66.8192 119.097 64.5745 118.235C63.1325 118.003 54.6578 116.534 49.0532 113.25C44.1065 110.351 40.7652 107.006 39.6265 105.786C38.2358 105.421 34.7358 104.426 32.3512 103.119C30.4565 102.083 29.2852 100.686 29.1172 99.4453C28.5992 95.551 30.7178 92.2204 34.0914 92.0043C34.1194 92.0025 34.152 92.0011 34.1805 92.0006C34.1805 92.0006 34.8432 91.9889 35.6365 91.8695C32.0992 89.7013 25.8925 85.7911 24.6745 84.3879C23.4705 83.0023 23.0272 80.9107 23.4425 78.9521C23.8625 76.987 25.1178 75.2085 27.0685 74.4147C27.2925 74.3228 27.5258 74.2509 27.7643 74.1973C27.1152 73.5276 26.4763 72.8015 25.9252 72.0235C24.3898 69.8615 23.5078 67.3331 24.2643 64.5242C25.0063 61.7592 26.3596 60.2327 27.755 59.4035C25.7063 58.0641 23.1023 56.2035 21.301 54.3485C19.4903 52.4809 18.5476 50.4878 18.753 48.9259C19.0936 46.3732 20.7736 45.1127 22.981 44.7651C24.115 44.5868 25.4118 44.7039 26.6485 45.0031L25.5285 39.8949C25.501 39.7582 25.4865 39.6187 25.4865 39.4782C25.4865 36.0403 28.7298 34.6253 29.1405 34.4699L29.7514 34.3341L29.826 36.2993C29.1214 36.6801 27.4274 37.7903 27.4274 39.4782L29.35 48.2483C27.0209 46.5431 21.1974 45.3017 20.6794 49.1821C20.18 52.9303 30.918 59.1123 31.8514 59.6419L32.0614 60.5958C30.2138 60.1697 27.3107 60.6677 26.1394 65.0291C24.954 69.4373 29.1774 72.9051 31.548 75.1329C33.802 77.2525 35.4494 76.8008 35.6038 76.7523L36.3314 80.0735L34.5072 78.562C34.5072 78.562 30.4798 75.1255 27.8012 76.2156C25.1225 77.3057 24.4832 81.2033 26.1398 83.1125C27.6518 84.8531 37.1765 90.5497 38.8472 91.5423L39.0245 92.3543C38.3525 93.8663 34.2178 93.9447 34.2178 93.9447C31.9078 94.0931 30.6898 96.5221 31.0445 99.1887C31.4038 101.855 40.6765 104.047 40.6765 104.047C40.6765 104.047 44.1718 108.136 50.0378 111.572C55.9038 115.009 65.0645 116.344 65.0645 116.344C73.5392 119.352 84.2678 140 84.2678 140H128.457L81.7105 97.6155C82.7605 96.3835 81.8132 79.6059 78.238 72.6442L89.4054 71.8588C91.328 71.7025 92.4854 69.8101 92.0047 67.6359L87.6087 47.8945C87.128 45.7283 85.1727 44.0441 83.2454 44.1365L59.7207 45.1869C58.4327 39.8212 57.5787 36.2764 57.5787 36.2764C57.5787 36.2764 56.7714 35.0285 54.83 35.0607L29.8494 36.2764C29.8494 36.2764 29.84 36.2806 29.826 36.2885L29.8265 36.2881ZM39.6172 95.0577L39.7847 95.8226C39.752 95.8184 39.738 95.8165 39.738 95.8165L39.6172 95.0577ZM96.6714 56.1209L97.1987 55.0126C97.9174 53.5081 101.147 53.5473 104.404 55.0994C107.661 56.652 109.729 59.1337 109.01 60.6378L108.483 61.7461L108.179 62.3841C107.461 63.8886 104.236 63.8494 100.974 62.2973C97.7167 60.7451 95.654 58.2634 96.368 56.7589L96.6714 56.1209L95.444 54.1763L94.6134 55.9226C94.1794 56.8321 94.1509 57.9209 94.6409 59.0805C95.3367 60.7311 97.3382 62.7177 100.138 64.0529C102.943 65.3875 105.748 65.689 107.465 65.1892C108.674 64.8383 109.5 64.1294 109.934 63.2203L110.764 61.4741C111.198 60.565 111.227 59.4758 110.741 58.3161C110.046 56.666 108.044 54.6789 105.239 53.3438C102.439 52.0091 99.6342 51.7077 97.9122 52.2075C96.7036 52.5584 95.8776 53.2673 95.4436 54.1763L96.6709 56.1209H96.6714ZM93.3114 43.8719L95.892 46.4521C97.1847 47.7452 99.252 48.2371 101.758 47.6668C104.619 47.0163 108.203 44.9475 111.395 41.7537C114.587 38.5598 116.659 34.9795 117.307 32.1184C117.877 29.6091 117.387 27.5427 116.094 26.2496L113.513 23.6694C112.221 22.3763 110.153 21.8844 107.643 22.4547C104.782 23.1052 101.203 25.1739 98.006 28.3678C94.814 31.5617 92.7467 35.1419 92.0934 38.0031C91.524 40.5123 92.0187 42.5787 93.3109 43.8719H93.3114ZM94.6838 42.4971C92.4625 40.2739 94.5672 34.5591 99.3832 29.7431C104.199 24.9271 109.916 22.8219 112.137 25.0447L114.718 27.6249C116.939 29.8481 114.835 35.5629 110.019 40.3789C105.203 45.1949 99.491 47.3 97.2645 45.0773L94.6838 42.4971ZM67.6498 36.0202L68.0745 35.1298C68.4992 34.2366 70.4125 34.2599 72.3492 35.1811C74.2858 36.1023 75.5085 37.5756 75.0838 38.4688L74.5892 39.5053C74.1645 40.3985 72.2512 40.3751 70.3145 39.4539C68.3778 38.5323 67.1552 37.0595 67.5798 36.1663L67.6498 36.0202L66.6652 34.4583L66.171 35.4947C65.8676 36.1303 65.835 36.8919 66.1803 37.703C66.619 38.7469 67.8696 40.0195 69.643 40.8637C71.4163 41.7079 73.1943 41.8778 74.2816 41.5619C75.1263 41.3164 75.6956 40.8124 75.999 40.1768L76.4936 39.1403C76.797 38.5047 76.8296 37.7431 76.4843 36.9321C76.0452 35.8881 74.795 34.6155 73.0216 33.7713C71.2483 32.9267 69.4703 32.7573 68.383 33.0732C67.5383 33.3187 66.9643 33.8227 66.6656 34.4583L67.6503 36.0202H67.6498ZM91.6318 24.676L90.2225 23.2671C89.5038 22.5443 88.4678 22.1485 87.1938 22.2227C85.3645 22.3291 82.7605 23.5835 80.5112 25.8324C78.2618 28.0813 77.0065 30.6834 76.9038 32.5155C76.8292 33.7909 77.2258 34.8232 77.9445 35.5461L79.3538 36.9549C80.0772 37.6778 81.108 38.0735 82.3872 37.9993C84.2165 37.8929 86.8205 36.6385 89.0698 34.3897C91.3192 32.1408 92.5698 29.5387 92.6772 27.707C92.7514 26.4316 92.3547 25.3993 91.6314 24.6765L91.6318 24.676ZM90.2598 26.0508L88.8505 24.6419C87.6372 23.4281 84.5147 24.5775 81.8878 27.2072C79.2558 29.8369 78.1078 32.957 79.3212 34.1708L80.7305 35.5797C81.9438 36.7935 85.0658 35.6441 87.6932 33.0144C90.3252 30.3847 91.4732 27.2646 90.2598 26.0508Z" fill="white"/>
<path fill-rule="evenodd" clip-rule="evenodd" d="M29.8412 36.2803C29.8412 36.2803 27.4146 37.1203 27.4146 39.4769C27.4146 39.4769 38.9412 91.8929 41.0412 101.502C41.2745 102.528 41.9279 103.396 42.8612 103.854C43.4679 104.129 44.0279 104.339 44.5879 104.372L29.8412 36.2803Z" fill="#DF5500"/>
<path fill-rule="evenodd" clip-rule="evenodd" d="M29.0475 38.7815L42.9542 104.073C42.9542 104.073 42.9542 105.127 47.8542 104.833L69.9742 101.319C69.9742 101.319 72.1208 100.61 71.4675 95.9155C70.8608 91.2255 57.5608 36.2755 57.5608 36.2755C57.5608 36.2755 56.7675 35.0295 54.8075 35.0622L29.8408 36.2755C29.8408 36.2755 28.7208 36.9382 29.0475 38.7815Z" fill="#8A3A00"/>
<mask id="mask0_51_2285" style="mask-type:luminance" maskUnits="userSpaceOnUse" x="28" y="35" width="44" height="70">
<path d="M29.0482 38.7825L42.9549 104.074C42.9549 104.074 42.9549 105.128 47.8549 104.834L69.9749 101.32C69.9749 101.32 72.1216 100.611 71.4682 95.9165C70.8616 91.2265 57.5616 36.2765 57.5616 36.2765C57.5616 36.2765 56.7682 35.0305 54.8082 35.0631L29.8416 36.2765C29.8416 36.2765 28.7216 36.9391 29.0482 38.7825Z" fill="white"/>
</mask>
<g mask="url(#mask0_51_2285)">
<path fill-rule="evenodd" clip-rule="evenodd" d="M71.9759 100.775C66.8892 78.2535 61.6626 55.7835 56.7626 33.1875L61.7092 48.9982L68.8492 67.3942L72.4892 96.8875L71.9759 100.775Z" fill="#DF5500"/>
</g>
<path fill-rule="evenodd" clip-rule="evenodd" d="M57.1146 38.7302C56.9022 37.7778 56.1173 37.102 55.2605 37.137C50.9396 37.312 38.0526 37.8352 32.7569 38.0498C32.2002 38.0722 31.6892 38.3588 31.3588 38.8348C31.0284 39.3112 30.9126 39.9291 31.0433 40.5246C33.3015 50.8332 42.2522 91.6899 44.2355 100.742C44.459 101.762 45.3051 102.4 46.2277 102.248C50.7875 101.494 63.5046 99.3927 68.3799 98.5868C68.8816 98.5037 69.3347 98.1635 69.6203 97.6558C69.9054 97.1494 69.9955 96.526 69.8676 95.9501C67.6538 86.0176 59.0046 47.2096 57.1146 38.7298" fill="white"/>
<mask id="mask1_51_2285" style="mask-type:luminance" maskUnits="userSpaceOnUse" x="30" y="37" width="40" height="66">
<path d="M57.1112 38.7312C56.8988 37.7788 56.1139 37.103 55.2571 37.138C50.9362 37.313 38.0492 37.8362 32.7535 38.0508C32.1967 38.0732 31.6857 38.3598 31.3553 38.8358C31.0249 39.3122 30.9092 39.9301 31.0399 40.5255C33.2981 50.8342 42.2488 91.6909 44.2321 100.743C44.4556 101.763 45.3017 102.401 46.2243 102.249C50.7841 101.495 63.5012 99.3937 68.3765 98.5877C68.8781 98.5047 69.3313 98.1645 69.6169 97.6567C69.902 97.1504 69.9921 96.5269 69.8642 95.9511C67.6504 86.0185 59.0012 47.2106 57.1112 38.7308" fill="white"/>
</mask>
<g mask="url(#mask1_51_2285)">
<path d="M94.9542 42.7076L20.5641 117.098L26.1467 122.68L100.537 48.2902L94.9542 42.7076Z" fill="#FCFCFC"/>
<path d="M77.1378 24.8921L2.74768 99.2822L8.33033 104.865L82.7204 30.4748L77.1378 24.8921Z" fill="#FCFCFC"/>
<path d="M62.1778 9.93706L-12.2123 84.3271L-6.62962 89.9098L67.7605 15.5197L62.1778 9.93706Z" fill="#FCFCFC"/>
<path d="M90.3261 38.0875L15.936 112.478L19.1125 115.654L93.5025 41.2639L90.3261 38.0875Z" fill="#FCFCFC"/>
<path d="M107.275 55.0328L32.8846 129.423L36.0611 132.599L110.451 58.2092L107.275 55.0328Z" fill="#FCFCFC"/>
<path d="M72.5097 20.2711L-1.88037 94.6611L1.29605 97.8376L75.6861 23.4475L72.5097 20.2711Z" fill="#FCFCFC"/>
<path d="M57.5588 5.315L-16.8313 79.7051L-13.6549 82.8815L60.7352 8.49142L57.5588 5.315Z" fill="#FCFCFC"/>
<path fill-rule="evenodd" clip-rule="evenodd" d="M85.35 50.2123C84.868 48.0456 82.9154 46.3619 80.9844 46.4538L42.685 48.1641C40.6074 48.2631 39.3157 50.1792 39.8118 52.4407L44.3328 73.0505C44.8308 75.3209 46.9214 77.0279 48.9892 76.8604L87.1462 74.1771C89.068 74.0207 90.2281 72.1284 89.7442 69.9542L85.3496 50.2128L85.35 50.2123Z" fill="#E8E8E8"/>
</g>
<path fill-rule="evenodd" clip-rule="evenodd" d="M63.5629 84.1603C63.3632 83.2731 62.5545 82.617 61.7546 82.6959L45.8893 84.2167C45.0288 84.3017 44.4935 85.123 44.6993 86.0493L45.1772 88.2949C45.3835 89.225 46.2496 89.8877 47.1059 89.7743L62.9124 87.8535C63.7085 87.748 64.1892 86.9393 63.9885 86.0489L63.5629 84.1603Z" fill="#E8E8E8"/>
<path fill-rule="evenodd" clip-rule="evenodd" d="M64.4167 83.338C64.217 82.4509 63.4083 81.7947 62.6084 81.8736L46.7431 83.3945C45.8826 83.4794 45.3473 84.3008 45.5527 85.2271L46.0305 87.4727C46.2368 88.4027 47.1029 89.0654 47.9593 88.952L63.7657 87.0312C64.5619 86.9257 65.0425 86.117 64.8419 85.2266L64.4163 83.338H64.4167Z" fill="#2D2D2D"/>
<mask id="mask2_51_2285" style="mask-type:luminance" maskUnits="userSpaceOnUse" x="45" y="81" width="20" height="8">
<path d="M64.4245 83.338C64.2248 82.4509 63.4161 81.7947 62.6162 81.8736L46.7509 83.3945C45.8904 83.4794 45.3551 84.3008 45.5605 85.2271L46.0383 87.4727C46.2446 88.4027 47.1107 89.0654 47.9671 88.952L63.7735 87.0312C64.5697 86.9257 65.0503 86.117 64.8497 85.2266L64.4241 83.338H64.4245Z" fill="white"/>
</mask>
<g mask="url(#mask2_51_2285)">
<path d="M94.9692 42.7118L20.5795 117.102L26.1621 122.684L100.552 48.2945L94.9692 42.7118Z" fill="#3C3C3C"/>
<path d="M90.3502 38.0927L15.9604 112.482L19.1369 115.659L93.5266 41.2691L90.3502 38.0927Z" fill="#3C3C3C"/>
</g>
<path d="M48.3679 86.3567L48.5457 87.3307L47.8089 87.4282L47.3693 84.722L48.4141 84.6119C48.6143 84.6067 48.7959 84.6389 48.9639 84.7094C49.1361 84.7789 49.2756 84.8811 49.3871 85.0155C49.5029 85.1499 49.5743 85.3035 49.6107 85.4766C49.6643 85.7323 49.6158 85.9395 49.4693 86.0968C49.3185 86.2545 49.0819 86.3376 48.7688 86.3455L48.3684 86.3558L48.3679 86.3567ZM48.2657 85.8681L48.675 85.8579C48.7968 85.8546 48.8817 85.8219 48.9345 85.7589C48.9867 85.6959 48.9993 85.6082 48.976 85.4967C48.9503 85.3739 48.8953 85.2769 48.8145 85.2055C48.7338 85.1341 48.6391 85.0991 48.5257 85.1005L48.1075 85.1112L48.2662 85.8681H48.2657Z" fill="white"/>
<path d="M51.3597 86.5195L50.5011 86.5788L50.4693 87.1308L49.7917 87.2041L50.0918 84.4643L50.6901 84.4102L52.2987 86.9306L51.6435 87.0048L51.3593 86.5195H51.3597ZM50.5258 86.0869L51.0881 86.0481L50.5748 85.1694L50.5263 86.0869H50.5258Z" fill="white"/>
<path d="M52.8453 85.3865L53.0366 84.2291L53.7058 84.1582L53.3003 85.8993L53.5327 86.7893L52.8943 86.8602L52.6637 85.9432L51.4098 84.3556L52.0771 84.2949L52.8443 85.386L52.8453 85.3865Z" fill="white"/>
<path d="M57.7023 86.3316L57.0868 86.4049L55.7292 85.0039L56.1222 86.5024L55.4782 86.5701L54.8538 84.0911L55.4763 84.0263L56.8002 85.5042L56.3956 83.9427L57.0205 83.8867L57.7028 86.3321L57.7023 86.3316Z" fill="white"/>
<path d="M59.9885 84.9175C60.0491 85.1513 60.0547 85.3618 60.0057 85.5489C59.9609 85.7356 59.862 85.884 59.7127 85.9936C59.5633 86.1033 59.38 86.1663 59.1578 86.1822C58.9357 86.198 58.7271 86.1649 58.5283 86.0837C58.3342 86.002 58.1638 85.8774 58.0229 85.7099C57.8819 85.5424 57.7774 85.3459 57.7144 85.1196L57.6794 84.9847C57.6183 84.75 57.6127 84.539 57.6617 84.3528C57.7065 84.1666 57.8059 84.0182 57.9548 83.9081C58.1036 83.798 58.2917 83.7345 58.5138 83.7186C58.736 83.7028 58.945 83.7368 59.1443 83.8213C59.3436 83.9053 59.5101 84.0336 59.6525 84.2049C59.799 84.3762 59.9003 84.5773 59.96 84.8078L59.9889 84.9184L59.9885 84.9175ZM59.3216 84.8629C59.2596 84.6244 59.169 84.4466 59.05 84.3295C58.9352 84.2114 58.7929 84.1592 58.6314 84.1704C58.3178 84.1928 58.2086 84.4224 58.3038 84.8587L58.3453 85.0356C58.4065 85.2703 58.497 85.4481 58.6127 85.5685C58.7327 85.6884 58.8755 85.7426 59.0412 85.7304C59.198 85.7192 59.3085 85.6483 59.3589 85.5181C59.414 85.3874 59.4112 85.2059 59.3505 84.973L59.3221 84.8629H59.3216Z" fill="white"/>
<path d="M62.4313 84.8733L62.4154 83.4667L63.0365 83.4023L63.0319 85.7828L62.3874 85.8589L61.6729 84.4001L61.6925 85.9298L61.0541 85.9947L59.9248 83.6613L60.573 83.6002L61.1764 84.9498L61.2212 83.5563L61.7532 83.5073L62.4313 84.8737V84.8733Z" fill="white"/>
<path fill-rule="evenodd" clip-rule="evenodd" d="M50.4463 36.5173C50.3492 36.0805 49.9525 35.7379 49.5605 35.7524L37.4967 36.2041C37.0856 36.2195 36.8313 36.5957 36.9297 37.0441L37.4165 39.2566C37.5154 39.7051 37.9293 40.0541 38.3405 40.0359L50.3912 39.4965C50.7832 39.4787 51.0217 39.1096 50.9246 38.6728L50.4463 36.5173Z" fill="#8A3A00"/>
<path fill-rule="evenodd" clip-rule="evenodd" d="M34.4951 78.5602L43.6418 86.1436C43.6418 86.1436 45.6018 89.7976 42.2885 91.6922C42.2885 91.6922 40.8418 92.3829 39.0685 91.6922L39.7218 95.8176C39.7218 95.8176 44.0618 96.2562 44.3885 99.1869C44.7151 102.122 42.8485 103.354 42.8485 103.354C42.8485 103.354 43.7818 104.857 47.4685 104.68C51.1085 104.502 69.2151 101.124 69.2151 101.124C69.2151 101.124 72.2951 100.176 71.0818 95.2296C69.8685 90.2829 60.9551 50.7376 60.9551 50.7376C60.9551 50.7376 61.4218 48.9969 63.3818 49.1836C63.3818 49.1836 65.4351 50.7376 68.0485 56.4776C68.0485 56.4776 74.3485 66.5902 77.6618 71.6396C81.6751 77.8136 82.7951 96.3169 81.6751 97.6142L128.435 140.002H84.2418C84.2418 140.002 73.5085 119.352 65.0618 116.342C65.0618 116.342 55.8685 115.007 50.0351 111.572C44.1551 108.133 40.6551 104.045 40.6551 104.045C40.6551 104.045 31.3685 101.856 31.0418 99.1869C30.6685 96.5222 31.8818 94.0909 34.2151 93.9462C34.2151 93.9462 39.4885 93.8436 39.0685 91.6922C39.0685 91.6922 27.7751 85.0189 26.1418 83.1102C24.4618 81.2016 25.1151 77.3049 27.7751 76.2129C30.4818 75.1256 34.4951 78.5602 34.4951 78.5602ZM35.6151 76.7542C35.6151 76.8569 35.6151 76.7496 35.6151 76.7496V76.7542ZM31.8818 59.6789C31.8818 59.6789 20.1685 53.0989 20.6818 49.1836C21.1951 45.2636 27.1218 46.5656 29.4085 48.2969L33.0951 65.0269L38.4618 71.6396C39.3485 73.2216 38.6951 75.2983 35.6151 76.7449V76.7496C35.6151 76.7496 33.8885 77.3609 31.5551 75.1302C29.1751 72.9042 24.9285 69.4369 26.1418 65.0269C27.3085 60.6216 30.2485 60.1596 32.1151 60.6076L31.8818 59.6789Z" fill="#F5B5A3"/>
<mask id="mask3_51_2285" style="mask-type:luminance" maskUnits="userSpaceOnUse" x="20" y="46" width="109" height="95">
<path d="M34.4888 78.5602L43.6354 86.1436C43.6354 86.1436 45.5954 89.7976 42.2821 91.6922C42.2821 91.6922 40.8354 92.3829 39.0621 91.6922L39.7154 95.8176C39.7154 95.8176 44.0554 96.2562 44.3821 99.1869C44.7088 102.122 42.8421 103.354 42.8421 103.354C42.8421 103.354 43.7754 104.857 47.4621 104.68C51.1021 104.502 69.2088 101.124 69.2088 101.124C69.2088 101.124 72.2888 100.176 71.0754 95.2296C69.8621 90.2829 60.9488 50.7376 60.9488 50.7376C60.9488 50.7376 61.4154 48.9969 63.3754 49.1836C63.3754 49.1836 65.4288 50.7376 68.0421 56.4776C68.0421 56.4776 74.3421 66.5902 77.6554 71.6396C81.6688 77.8136 82.7888 96.3169 81.6688 97.6142L128.429 140.002H84.2354C84.2354 140.002 73.5021 119.352 65.0554 116.342C65.0554 116.342 55.8621 115.007 50.0288 111.572C44.1488 108.133 40.6488 104.045 40.6488 104.045C40.6488 104.045 31.3621 101.856 31.0354 99.1869C30.6621 96.5222 31.8754 94.0909 34.2088 93.9462C34.2088 93.9462 39.4821 93.8436 39.0621 91.6922C39.0621 91.6922 27.7688 85.0189 26.1354 83.1102C24.4555 81.2016 25.1088 77.3049 27.7688 76.2129C30.4754 75.1256 34.4888 78.5602 34.4888 78.5602ZM35.6088 76.7542C35.6088 76.8569 35.6088 76.7496 35.6088 76.7496V76.7542ZM31.8754 59.6789C31.8754 59.6789 20.1621 53.0989 20.6755 49.1836C21.1888 45.2636 27.1154 46.5656 29.4021 48.2969L33.0888 65.0269L38.4554 71.6396C39.3421 73.2216 38.6888 75.2983 35.6088 76.7449V76.7496C35.6088 76.7496 33.8821 77.3609 31.5488 75.1302C29.1688 72.9042 24.9221 69.4369 26.1354 65.0269C27.3021 60.6216 30.2421 60.1596 32.1088 60.6076L31.8754 59.6789Z" fill="white"/>
</mask>
<g mask="url(#mask3_51_2285)">
<path fill-rule="evenodd" clip-rule="evenodd" d="M31.9337 60.5592V65.1792L38.6537 71.6378L33.007 59.8965L31.9337 60.5592Z" fill="#E48182"/>
<path fill-rule="evenodd" clip-rule="evenodd" d="M59.5125 115.183C63.5258 116.21 68.7525 111.767 74.5391 104.805C74.5391 104.805 73.2791 111.823 74.5391 113.163C75.8458 114.502 100.812 143.883 100.812 143.883L77.8058 146.884L59.5125 115.183Z" fill="#E48182"/>
<path fill-rule="evenodd" clip-rule="evenodd" d="M40.1956 104.071C40.1956 104.071 42.3889 104.319 44.5822 102.326C44.5822 102.326 44.6756 103.861 49.5289 103.362C54.3356 102.867 70.6689 98.8818 70.6689 98.8818C70.6689 98.8818 72.5822 102.326 61.8489 104.071C53.3556 105.448 46.8222 110.852 49.5289 112.719C49.5289 112.719 44.5822 113.213 40.1956 104.071Z" fill="#E48182"/>
<path fill-rule="evenodd" clip-rule="evenodd" d="M60.9608 50.2285C60.9608 50.2285 65.8141 68.2512 68.8475 73.1372C69.4075 73.9772 69.0808 79.0312 69.5941 81.7565C71.2275 90.2358 71.9741 97.8798 70.9941 99.0932C70.9941 99.0932 51.5808 61.0225 60.9608 50.2285Z" fill="#E48182"/>
<path fill-rule="evenodd" clip-rule="evenodd" d="M69.0154 74.4018L78.947 73.1106V70.1006L68.0546 71.1879V74.4018H69.0154Z" fill="#E48182"/>
<path fill-rule="evenodd" clip-rule="evenodd" d="M29.4166 47.1525C29.1833 46.5878 27.97 46.3591 28.1566 47.1525C29.8366 54.2411 30.8166 57.2651 32.4966 61.1805L29.4166 47.1525Z" fill="#E48182"/>
<path fill-rule="evenodd" clip-rule="evenodd" d="M29.4659 75.4883L36.2326 79.0209L45.9393 88.2003L29.4659 75.4883Z" fill="#E48182"/>
<path fill-rule="evenodd" clip-rule="evenodd" d="M43.8316 97.795L37.9049 96.325L33.1449 93.3056L39.1649 91.6396L43.8316 97.795Z" fill="#E48182"/>
<path fill-rule="evenodd" clip-rule="evenodd" d="M34.0123 69.8086C35.361 70.6528 36.4296 72.0206 37.4516 73.3217C37.4516 73.3217 36.593 76.1296 34.213 76.0129L31.4083 73.3217C31.4083 73.3217 29.4856 70.5497 34.0123 69.8086Z" fill="#FDD5D5"/>
<path fill-rule="evenodd" clip-rule="evenodd" d="M38.6516 84.8008C40.1389 85.3654 41.4544 86.498 42.7107 87.5746C42.7107 87.5746 42.4167 90.496 40.06 90.8465L36.784 88.7544C36.784 88.7544 34.3569 86.4112 38.6521 84.8008H38.6516Z" fill="#FDD5D5"/>
<path fill-rule="evenodd" clip-rule="evenodd" d="M39.3518 98.4688C40.5105 98.5177 41.6968 99.0073 42.8289 99.4716C42.8289 99.4716 43.2844 102.004 41.7677 102.805L38.999 102.099C38.999 102.099 36.8369 100.613 39.3518 98.4688Z" fill="#FDD5D5"/>
</g>
<path fill-rule="evenodd" clip-rule="evenodd" d="M57.5084 29.9745C57.3912 30.1262 57.2032 30.1901 57.0137 30.1374C56.8247 30.0846 56.6828 29.925 56.6576 29.7351L55.2726 19.1525C55.2525 18.9985 55.308 18.8454 55.4317 18.7432C55.5549 18.6424 55.7019 18.6088 55.8592 18.6499C57.542 19.1114 61.9454 20.3108 63.6441 20.7765C63.7864 20.819 63.9222 20.9324 63.9726 21.0831C64.0226 21.2324 63.9983 21.3972 63.9082 21.5204C62.666 23.1537 59.047 27.9478 57.5079 29.9745H57.5084Z" fill="white"/>
<path fill-rule="evenodd" clip-rule="evenodd" d="M59.6133 31.7768C59.4304 31.8589 59.1961 31.7922 59.0547 31.6162C58.9315 31.4412 58.9366 31.2014 59.0664 31.0357C60.4785 29.3226 62.7446 26.5688 63.5991 25.5337C63.692 25.4296 63.8198 25.3685 63.9463 25.3652C64.0914 25.3648 64.217 25.4208 64.3238 25.523C64.9263 26.18 66.1322 27.4802 66.7878 28.1956C66.8947 28.3104 66.9451 28.4681 66.9059 28.6179C66.8854 28.7686 66.7738 28.89 66.6273 28.9483C65.2208 29.5158 61.7502 30.919 59.6128 31.7768H59.6133Z" fill="white"/>
<path fill-rule="evenodd" clip-rule="evenodd" d="M54.4114 29.8853C54.4595 30.0864 54.3508 30.2978 54.1753 30.3874C53.984 30.4854 53.7586 30.4448 53.6139 30.2918C51.8751 28.5198 48.6224 25.1626 47.3456 23.8634C47.2383 23.7426 47.1902 23.5783 47.2266 23.421C47.2635 23.2638 47.3783 23.1378 47.5174 23.0939C48.705 22.6935 51.1 21.8885 52.1504 21.5352C52.2881 21.4881 52.4216 21.5086 52.5406 21.5782C52.661 21.6491 52.7445 21.7658 52.7767 21.8997C53.0763 23.3865 53.9359 27.5879 54.4114 29.8848V29.8853Z" fill="white"/>
<path fill-rule="evenodd" clip-rule="evenodd" d="M87.6175 47.8959C87.1354 45.7292 85.1829 44.0454 83.2518 44.1374L44.953 45.8477C42.8754 45.9466 41.5836 47.8628 42.0797 50.1242L46.6008 70.7341C47.0987 73.0044 49.1894 74.7115 51.2572 74.544L89.4142 71.8606C91.3359 71.7043 92.496 69.812 92.0121 67.6378L87.6175 47.8964V47.8959Z" fill="#FD8236"/>
<mask id="mask4_51_2285" style="mask-type:luminance" maskUnits="userSpaceOnUse" x="41" y="44" width="52" height="31">
<path d="M87.617 47.8959C87.135 45.7292 85.1824 44.0454 83.2514 44.1374L44.9525 45.8477C42.8749 45.9466 41.5832 47.8628 42.0792 50.1242L46.6003 70.7341C47.0982 73.0044 49.1889 74.7115 51.2567 74.544L89.4137 71.8606C91.3354 71.7043 92.4955 69.812 92.0116 67.6378L87.617 47.8964V47.8959Z" fill="white"/>
</mask>
<g mask="url(#mask4_51_2285)">
<path d="M105.359 32.3238L30.9688 106.714L36.5514 112.297L110.941 37.9064L105.359 32.3238Z" fill="#FF9C5F"/>
<path d="M101.969 28.939L27.579 103.329L30.0077 105.758L104.398 31.3677L101.969 28.939Z" fill="#FF9C5F"/>
<path d="M90.9141 11.4849L16.524 85.875L19.3154 88.6663L93.7055 14.2762L90.9141 11.4849Z" fill="#FF9C5F"/>
<path d="M88.6181 9.18511L14.228 83.5752L15.4919 84.839L89.8819 10.4489L88.6181 9.18511Z" fill="#FF9C5F"/>
<path fill-rule="evenodd" clip-rule="evenodd" d="M42.8761 55.7992L91.2228 53.073L90.9003 47.3848L39.7117 50.2716L40.0337 55.9598L42.8761 55.7992Z" fill="#2D2D2D"/>
<mask id="mask5_51_2285" style="mask-type:luminance" maskUnits="userSpaceOnUse" x="39" y="47" width="53" height="9">
<path d="M42.88 55.7992L91.2267 53.073L90.9043 47.3848L39.7156 50.2716L40.0376 55.9598L42.88 55.7992Z" fill="white"/>
</mask>
<g mask="url(#mask5_51_2285)">
<path d="M105.382 32.3231L30.9926 106.713L36.5752 112.296L110.965 37.9058L105.382 32.3231Z" fill="#3C3C3C"/>
<path d="M101.993 28.9364L27.6028 103.326L30.0315 105.755L104.421 31.3651L101.993 28.9364Z" fill="#3C3C3C"/>
<path d="M90.9376 11.4872L16.5479 85.877L19.3392 88.6683L93.7289 14.2785L90.9376 11.4872Z" fill="#3C3C3C"/>
<path d="M88.6416 9.18642L14.2518 83.5762L15.5157 84.84L89.9054 10.4503L88.6416 9.18642Z" fill="#3C3C3C"/>
</g>
</g>
<path fill-rule="evenodd" clip-rule="evenodd" d="M59.4989 61.4248C59.3967 60.9651 58.9823 60.6081 58.573 60.6277L50.4493 60.9903C50.0087 61.0113 49.7348 61.4178 49.8398 61.8975L50.7988 66.2693C50.9043 66.7509 51.3481 67.113 51.7863 67.0775L59.8797 66.5082C60.2871 66.4751 60.5335 66.0737 60.4308 65.6127L59.4989 61.4253V61.4248Z" fill="#D3F4B6"/>
<mask id="mask6_51_2285" style="mask-type:luminance" maskUnits="userSpaceOnUse" x="49" y="60" width="12" height="8">
<path d="M59.5027 61.4228C59.4005 60.9632 58.986 60.6062 58.5768 60.6258L50.453 60.9884C50.0125 61.0094 49.7386 61.4158 49.8436 61.8956L50.8026 66.2673C50.908 66.7489 51.3519 67.111 51.7901 67.0756L59.8834 66.5062C60.2908 66.4731 60.5373 66.0718 60.4346 65.6107L59.5027 61.4233V61.4228Z" fill="white"/>
</mask>
<g mask="url(#mask6_51_2285)">
<path fill-rule="evenodd" clip-rule="evenodd" d="M55.2818 66.0509C55.2463 65.3336 54.6364 64.7816 53.9201 64.817L44.9988 65.259C44.2825 65.2944 43.7299 65.9044 43.7654 66.6216C43.8009 67.338 44.4113 67.891 45.1276 67.8555L54.0489 67.4131C54.7652 67.3776 55.3173 66.7668 55.2818 66.0504V66.0509ZM54.8968 66.0701C54.9215 66.5722 54.5365 66.9996 54.0293 67.0248L45.108 67.4668C44.6082 67.4915 44.1756 67.1046 44.1504 66.6025C44.1257 66.1004 44.5177 65.6715 45.0175 65.6468L53.9387 65.2048C54.4455 65.1796 54.8716 65.5679 54.8963 66.0701H54.8968Z" fill="#FD8236"/>
<path fill-rule="evenodd" clip-rule="evenodd" d="M54.7395 63.8859C54.704 63.1686 54.0941 62.6165 53.3777 62.652L44.4564 63.0939C43.7401 63.1294 43.1876 63.7393 43.2231 64.4566C43.2585 65.1729 43.8689 65.7259 44.5852 65.6905L53.5065 65.2485C54.2229 65.2131 54.7749 64.6022 54.7395 63.8859ZM54.3545 63.905C54.3792 64.4071 53.9942 64.8346 53.4869 64.8598L44.5657 65.3017C44.0659 65.3265 43.6333 64.9396 43.6081 64.4375C43.5833 63.9353 43.9753 63.5065 44.4751 63.4817L53.3964 63.0398C53.9032 63.0146 54.3293 63.4029 54.354 63.905H54.3545Z" fill="#FD8236"/>
<path fill-rule="evenodd" clip-rule="evenodd" d="M54.3056 61.7199C54.2701 61.0026 53.6602 60.4505 52.9439 60.486L44.0226 60.9284C43.3063 60.9639 42.7537 61.5738 42.7892 62.2911C42.8247 63.0074 43.4351 63.5604 44.1514 63.5249L53.0727 63.083C53.789 63.0475 54.3411 62.4367 54.3056 61.7203V61.7199ZM53.9206 61.739C53.9453 62.2411 53.5604 62.6686 53.0531 62.6938L44.1318 63.1362C43.632 63.1609 43.1994 62.7741 43.1742 62.2719C43.1495 61.7698 43.5415 61.3409 44.0413 61.3162L52.9625 60.8738C53.4693 60.8486 53.8954 61.2369 53.9201 61.739H53.9206Z" fill="#FD8236"/>
<path fill-rule="evenodd" clip-rule="evenodd" d="M67.973 65.466C67.9375 64.7487 67.3276 64.1966 66.6112 64.2321L57.69 64.674C56.9736 64.7095 56.4211 65.3194 56.4566 66.0367C56.492 66.753 57.1024 67.306 57.8188 67.2706L66.74 66.8282C67.4564 66.7927 68.0084 66.1818 67.973 65.4655V65.466ZM67.588 65.4851C67.6127 65.9872 67.2277 66.4147 66.7204 66.4399L57.7992 66.8818C57.2989 66.9066 56.8668 66.5197 56.8416 66.0176C56.8168 65.5154 57.2088 65.0866 57.7086 65.0618L66.6299 64.6194C67.1367 64.5942 67.5628 64.9825 67.5875 65.4846L67.588 65.4851Z" fill="#FD8236"/>
<path fill-rule="evenodd" clip-rule="evenodd" d="M67.4306 63.2999C67.3951 62.5827 66.7852 62.0306 66.0689 62.0661L57.1476 62.5085C56.4313 62.5439 55.8787 63.1539 55.9142 63.8711C55.9497 64.5875 56.5601 65.1405 57.2764 65.105L66.1977 64.6626C66.914 64.6271 67.4661 64.0163 67.4306 63.2999ZM67.0456 63.3191C67.0703 63.8212 66.6853 64.2487 66.1781 64.2739L57.2568 64.7158C56.7565 64.7405 56.3244 64.3537 56.2992 63.8515C56.2745 63.3494 56.6665 62.9205 57.1663 62.8958L66.0875 62.4534C66.5943 62.4282 67.0204 62.8165 67.0451 63.3186L67.0456 63.3191Z" fill="#FD8236"/>
</g>
<path fill-rule="evenodd" clip-rule="evenodd" d="M60.4856 62.5067C60.4613 62.9272 60.3712 63.2403 60.263 63.2403C60.1547 63.2403 60.0628 62.9272 60.039 62.5067C59.6208 62.4824 59.3091 62.3905 59.3091 62.2818C59.3091 62.173 59.6204 62.0811 60.039 62.0568C60.0632 61.6364 60.1547 61.3232 60.263 61.3232C60.3712 61.3232 60.4618 61.6364 60.4856 62.0568C60.9037 62.0811 61.2154 62.173 61.2154 62.2818C61.2154 62.3905 60.9042 62.4824 60.4856 62.5067Z" fill="white"/>
<path fill-rule="evenodd" clip-rule="evenodd" d="M61.3781 60.9974C61.3613 61.2947 61.2974 61.5154 61.2209 61.5154C61.1443 61.5154 61.0795 61.2942 61.0627 60.9974C60.7673 60.9801 60.5475 60.9153 60.5475 60.8383C60.5475 60.7613 60.7673 60.6964 61.0627 60.6791C61.0795 60.3819 61.1443 60.1611 61.2209 60.1611C61.2974 60.1611 61.3613 60.3823 61.3781 60.6791C61.6735 60.6964 61.8933 60.7613 61.8933 60.8383C61.8933 60.9153 61.6735 60.9801 61.3781 60.9974Z" fill="white"/>
<path fill-rule="evenodd" clip-rule="evenodd" d="M59.1467 60.6331C59.1093 61.2827 58.9703 61.7662 58.8027 61.7662C58.6352 61.7662 58.4938 61.2827 58.4565 60.6331C57.8101 60.5953 57.3295 60.4539 57.3295 60.2854C57.3295 60.117 57.8106 59.9756 58.4565 59.9378C58.4938 59.2882 58.6352 58.8047 58.8027 58.8047C58.9703 58.8047 59.1093 59.2882 59.1467 59.9378C59.793 59.9756 60.2737 60.117 60.2737 60.2854C60.2737 60.4539 59.7925 60.5953 59.1467 60.6331Z" fill="white"/>
<path fill-rule="evenodd" clip-rule="evenodd" d="M96.7164 40.494C97.4192 37.996 99.2704 35.0303 101.96 32.34C104.651 29.6496 107.613 27.8016 110.114 27.096L112.142 25.0684L114.712 27.6378C116.94 29.8666 114.826 35.5721 110.009 40.389C105.192 45.206 99.4865 47.3204 97.2577 45.0916L94.6882 42.5222L96.7159 40.4945L96.7164 40.494Z" fill="#FD990C"/>
<mask id="mask7_51_2285" style="mask-type:luminance" maskUnits="userSpaceOnUse" x="94" y="25" width="22" height="21">
<path d="M96.7223 40.495C97.4251 37.9969 99.2764 35.0313 101.966 32.3409C104.657 29.6506 107.619 27.8026 110.12 27.097L112.148 25.0693L114.717 27.6388C116.946 29.8676 114.832 35.5731 110.015 40.39C105.198 45.2069 99.4925 47.3214 97.2637 45.0926L94.6942 42.5231L96.7219 40.4955L96.7223 40.495Z" fill="white"/>
</mask>
<g mask="url(#mask7_51_2285)">
<path fill-rule="evenodd" clip-rule="evenodd" d="M114.556 30.3439L117.143 32.9553L115.467 35.3904L113.483 33.3893C114.015 32.3146 114.375 31.2847 114.556 30.3439ZM114.678 28.7577L116.623 30.7195L116.366 31.6692L114.628 29.9099C114.679 29.5062 114.7 29.1193 114.678 28.7577ZM111.652 25.7043C111.57 25.6991 111.488 25.6945 111.403 25.6935L111.157 25.2021L111.652 25.7047V25.7043Z" fill="#FCBC12"/>
</g>
<path d="M107.428 37.8207C112.248 33.0014 114.351 27.2913 112.127 25.0668C109.902 22.8424 104.192 24.9459 99.3728 29.7651C94.5535 34.5844 92.45 40.2945 94.6745 42.519C96.899 44.7435 102.609 42.64 107.428 37.8207Z" fill="#FCBC12"/>
<mask id="mask8_51_2285" style="mask-type:luminance" maskUnits="userSpaceOnUse" x="93" y="24" width="21" height="20">
<path d="M107.431 37.8217C112.25 33.0024 114.354 27.2923 112.129 25.0678C109.905 22.8433 104.195 24.9468 99.3755 29.7661C94.5562 34.5854 92.4527 40.2955 94.6772 42.52C96.9017 44.7444 102.612 42.6409 107.431 37.8217Z" fill="white"/>
</mask>
<g mask="url(#mask8_51_2285)">
<path fill-rule="evenodd" clip-rule="evenodd" d="M112.787 31.4789L91.5171 41.1081L92.9171 37.7537L114.186 28.124L112.787 31.4789Z" fill="#FFDC80"/>
<path fill-rule="evenodd" clip-rule="evenodd" d="M114.413 27.5866L93.1442 37.2163L93.7317 35.8084L115.001 26.1787L114.413 27.5866Z" fill="#FFDC80"/>
</g>
<path d="M105.979 36.3654C109.897 32.4477 111.709 27.9078 110.026 26.2253C108.344 24.5428 103.804 26.3548 99.8861 30.2726C95.9684 34.1903 94.1564 38.7301 95.8389 40.4126C97.5214 42.0951 102.061 40.2831 105.979 36.3654Z" fill="#E54A03"/>
<path d="M106.208 36.5979C110.011 32.7941 111.771 28.3861 110.137 26.7525C108.503 25.1188 104.095 26.8781 100.292 30.6819C96.4878 34.4857 94.7285 38.8937 96.3621 40.5273C97.9958 42.1609 102.404 40.4017 106.208 36.5979Z" fill="#FD990C"/>
<mask id="mask9_51_2285" style="mask-type:luminance" maskUnits="userSpaceOnUse" x="95" y="26" width="16" height="16">
<path d="M106.192 36.5998C109.996 32.796 111.755 28.3881 110.122 26.7544C108.488 25.1208 104.08 26.8801 100.276 30.6839C96.4726 34.4877 94.7134 38.8956 96.347 40.5293C97.9806 42.1629 102.389 40.4036 106.192 36.5998Z" fill="white"/>
</mask>
<g mask="url(#mask9_51_2285)">
<path d="M101.852 36.7169C101.393 36.982 101.001 37.0216 100.676 36.8891C100.348 36.7318 100.145 36.3688 100.068 35.7733L99.1289 36.3151V35.4882L100.044 34.9599C100.065 34.5207 100.137 34.1059 100.26 33.6616C100.382 33.2174 100.535 32.8095 100.713 32.4931L101.735 32.3568C101.578 32.6611 101.447 32.9765 101.34 33.3312C101.233 33.6863 101.167 34.0182 101.14 34.3266L102.537 33.5198C102.634 33.0643 102.738 32.6844 102.855 32.3232C102.972 31.9886 103.146 31.6489 103.37 31.3595C103.596 31.0422 103.898 30.7613 104.271 30.5457C104.735 30.2778 105.133 30.2349 105.463 30.3642C105.796 30.5182 105.999 30.8812 106.071 31.48L106.999 30.9442V31.7712L106.087 32.2976C106.031 33.0232 105.861 33.6817 105.578 34.2986L104.549 34.4662C104.789 33.9276 104.933 33.4175 104.983 32.935L103.559 33.7573C103.471 34.2081 103.367 34.5884 103.255 34.9463C103.14 35.2791 102.97 35.5913 102.743 35.9086C102.516 36.2259 102.22 36.5036 101.852 36.7164V36.7169ZM104.337 31.8682C104.199 31.9485 104.084 32.068 103.993 32.2271C103.905 32.3844 103.831 32.5612 103.769 32.81L104.956 32.1249C104.908 31.9391 104.828 31.8253 104.719 31.7819C104.609 31.7651 104.484 31.7842 104.337 31.8687V31.8682ZM101.172 35.1358C101.217 35.323 101.289 35.4415 101.391 35.463C101.492 35.511 101.612 35.4951 101.751 35.4149C101.889 35.3346 102.004 35.2152 102.095 35.0565C102.183 34.8992 102.26 34.721 102.329 34.4676L101.172 35.1358Z" fill="#FFDC80"/>
</g>
<path fill-rule="evenodd" clip-rule="evenodd" d="M107.633 59.9899C106.84 58.8666 105.389 57.713 103.569 56.846C101.748 55.9789 99.9408 55.5808 98.566 55.6714L97.194 55.0176L96.3657 56.7564C95.6475 58.2646 97.7143 60.7403 100.974 62.2929C104.234 63.8455 107.459 63.8908 108.177 62.382L109.006 60.6432L107.634 59.9894L107.633 59.9899Z" fill="#FD990C"/>
<mask id="mask10_51_2285" style="mask-type:luminance" maskUnits="userSpaceOnUse" x="96" y="55" width="13" height="9">
<path d="M107.623 59.9889C106.829 58.8657 105.379 57.7121 103.559 56.845C101.738 55.9779 99.9307 55.5799 98.5559 55.6704L97.1839 55.0166L96.3555 56.7554C95.6373 58.2637 97.7042 60.7393 100.964 62.2919C104.224 63.8445 107.449 63.8898 108.167 62.3811L108.996 60.6423L107.624 59.9885L107.623 59.9889Z" fill="white"/>
</mask>
<g mask="url(#mask10_51_2285)">
<path fill-rule="evenodd" clip-rule="evenodd" d="M96.9167 58.0807L96.087 59.8438L97.3558 60.7631L97.9924 59.4121C97.5364 58.9692 97.1738 58.5189 96.9167 58.0807ZM96.5746 57.3098L95.9512 58.6342L96.2475 59.063L96.8042 57.8763C96.7067 57.684 96.6278 57.4941 96.5746 57.3098ZM97.5453 55.2485C97.5854 55.2312 97.6256 55.2144 97.6676 55.199L97.703 54.9102L97.5448 55.249L97.5453 55.2485Z" fill="#FCBC12"/>
</g>
<path d="M109.013 60.6458C109.73 59.1403 107.667 56.6606 104.406 55.1071C101.145 53.5536 97.9196 53.5147 97.2025 55.0202C96.4854 56.5257 98.5479 59.0054 101.809 60.5589C105.07 62.1124 108.296 62.1513 109.013 60.6458Z" fill="#FCBC12"/>
<mask id="mask11_51_2285" style="mask-type:luminance" maskUnits="userSpaceOnUse" x="97" y="53" width="13" height="9">
<path d="M109.009 60.6448C109.726 59.1394 107.664 56.6596 104.403 55.1061C101.141 53.5527 97.9163 53.5138 97.1992 55.0192C96.4821 56.5247 98.5446 59.0044 101.806 60.5579C105.067 62.1114 108.292 62.1503 109.009 60.6448Z" fill="white"/>
</mask>
<g mask="url(#mask11_51_2285)">
<path fill-rule="evenodd" clip-rule="evenodd" d="M98.0108 58.3357L110.341 59.3769L109.048 57.9493L96.7167 56.9082L98.0108 58.3357Z" fill="#FFDC80"/>
<path fill-rule="evenodd" clip-rule="evenodd" d="M96.5096 56.6793L108.84 57.7204L108.298 57.1212L95.9664 56.0801L96.5096 56.6793Z" fill="#FFDC80"/>
</g>
<path d="M108.061 59.8018C108.604 58.6632 106.894 56.7165 104.243 55.4537C101.592 54.1908 99.0029 54.09 98.4606 55.2286C97.9183 56.3671 99.6279 58.3138 102.279 59.5766C104.93 60.8395 107.519 60.9403 108.061 59.8018Z" fill="#E54A03"/>
<path d="M107.817 59.9504C108.344 58.8449 106.684 56.9548 104.11 55.7286C101.536 54.5024 99.0219 54.4046 98.4953 55.5101C97.9687 56.6155 99.6287 58.5057 102.203 59.7319C104.777 60.9581 107.291 61.0559 107.817 59.9504Z" fill="#FD990C"/>
<path d="M104.955 57.8462C105.154 58.0454 105.228 58.241 105.205 58.4262C105.169 58.6162 105.011 58.7702 104.716 58.892L105.123 59.2994L104.699 59.4132L104.302 59.0161C104.074 59.0656 103.851 59.0856 103.606 59.0838C103.361 59.0819 103.13 59.06 102.943 59.0119L102.733 58.5065C102.911 58.5452 103.09 58.569 103.287 58.5751C103.484 58.5812 103.664 58.5695 103.826 58.541L103.22 57.9348C102.973 57.9484 102.763 57.947 102.562 57.9367C102.374 57.9222 102.175 57.8802 101.996 57.8051C101.802 57.7323 101.616 57.6161 101.454 57.4542C101.253 57.253 101.176 57.0547 101.197 56.8671C101.23 56.6748 101.389 56.5208 101.686 56.4014L101.283 55.9986L101.708 55.8848L102.103 56.2805C102.484 56.2096 102.845 56.2063 103.2 56.267L103.428 56.7724C103.119 56.7234 102.837 56.7196 102.583 56.7598L103.2 57.3776C103.444 57.3608 103.654 57.3618 103.852 57.3702C104.039 57.3832 104.222 57.428 104.417 57.5008C104.611 57.5736 104.794 57.6875 104.954 57.8471L104.955 57.8462ZM102.124 57.2372C102.184 57.2974 102.261 57.3398 102.355 57.3646C102.448 57.3879 102.549 57.4024 102.685 57.3996L102.171 56.8848C102.082 56.9352 102.034 56.9917 102.027 57.0538C102.034 57.1121 102.061 57.1737 102.124 57.2376L102.124 57.2372ZM104.236 58.4127C104.327 58.3637 104.377 58.3105 104.374 58.2554C104.385 58.1966 104.36 58.1374 104.3 58.0772C104.24 58.017 104.163 57.9745 104.068 57.9498C103.976 57.9264 103.873 57.911 103.734 57.9101L104.236 58.4122L104.236 58.4127Z" fill="#FFDC80"/>
<path fill-rule="evenodd" clip-rule="evenodd" d="M74.2723 38.0879C73.801 37.4211 72.9405 36.7365 71.8597 36.2217C70.7789 35.707 69.706 35.4709 68.8903 35.5245L68.0759 35.1367L67.5845 36.169C67.158 37.0645 68.3853 38.5336 70.3201 39.4553C72.2549 40.3769 74.1692 40.4035 74.5957 39.5085L75.0871 38.4762L74.2728 38.0884L74.2723 38.0879Z" fill="#FD990C"/>
<mask id="mask12_51_2285" style="mask-type:luminance" maskUnits="userSpaceOnUse" x="67" y="35" width="9" height="6">
<path d="M74.2709 38.0879C73.7995 37.4211 72.939 36.7365 71.8582 36.2217C70.7774 35.707 69.7045 35.4709 68.8888 35.5245L68.0745 35.1367L67.5831 36.169C67.1565 37.0645 68.3839 38.5336 70.3187 39.4553C72.2535 40.3769 74.1677 40.4035 74.5943 39.5085L75.0857 38.4762L74.2713 38.0884L74.2709 38.0879Z" fill="white"/>
</mask>
<g mask="url(#mask12_51_2285)">
<path fill-rule="evenodd" clip-rule="evenodd" d="M67.9123 36.9543L67.42 38.0006L68.1732 38.5461L68.5512 37.7439C68.2805 37.4812 68.0654 37.2138 67.9128 36.9539L67.9123 36.9543ZM67.7093 36.497L67.3392 37.2833L67.5152 37.5381L67.8456 36.8335C67.7877 36.7191 67.741 36.6067 67.7093 36.497ZM68.2856 35.2734C68.3094 35.2631 68.3332 35.2533 68.3584 35.244L68.3794 35.0723L68.2856 35.2734Z" fill="#FCBC12"/>
</g>
<path d="M75.1056 38.4764C75.5312 37.5829 74.3068 36.1111 72.3709 35.1889C70.435 34.2668 68.5206 34.2435 68.095 35.137C67.6694 36.0305 68.8937 37.5024 70.8297 38.4246C72.7656 39.3467 74.68 39.3699 75.1056 38.4764Z" fill="#FCBC12"/>
<mask id="mask13_51_2285" style="mask-type:luminance" maskUnits="userSpaceOnUse" x="68" y="34" width="8" height="6">
<path d="M75.1196 38.4755C75.5452 37.5819 74.3209 36.1101 72.3849 35.1879C70.449 34.2658 68.5346 34.2426 68.109 35.1361C67.6834 36.0296 68.9078 37.5015 70.8437 38.4236C72.7796 39.3457 74.694 39.369 75.1196 38.4755Z" fill="white"/>
</mask>
<g mask="url(#mask13_51_2285)">
<path fill-rule="evenodd" clip-rule="evenodd" d="M68.5802 37.1043L75.8998 37.7226L75.1317 36.8752L67.8125 36.2568L68.5802 37.1043Z" fill="#FFDC80"/>
<path fill-rule="evenodd" clip-rule="evenodd" d="M67.6916 36.1212L75.0113 36.7391L74.6888 36.3835L67.3696 35.7656L67.6916 36.1212Z" fill="#FFDC80"/>
</g>
<path d="M74.5348 37.9749C74.8568 37.299 73.8421 36.1434 72.2685 35.3938C70.6948 34.6442 69.1581 34.5845 68.8362 35.2605C68.5142 35.9364 69.5289 37.092 71.1025 37.8416C72.6761 38.5912 74.2128 38.6509 74.5348 37.9749Z" fill="#E54A03"/>
<path d="M74.3887 38.0649C74.7013 37.4087 73.716 36.2867 72.1879 35.5589C70.6599 34.831 69.1678 34.7729 68.8552 35.4291C68.5427 36.0853 69.528 37.2072 71.0561 37.9351C72.5841 38.6629 74.0762 38.7211 74.3887 38.0649Z" fill="#FD990C"/>
<path d="M72.691 36.8152C72.809 36.9333 72.8534 37.0495 72.8394 37.1596C72.8184 37.2725 72.7241 37.364 72.5491 37.4359L72.7908 37.6776L72.5388 37.7453L72.3032 37.5096C72.1678 37.539 72.0353 37.5507 71.8902 37.5497C71.745 37.5488 71.6083 37.5357 71.4972 37.5068L71.3722 37.2067C71.4776 37.2301 71.5845 37.2441 71.7012 37.2473C71.8178 37.2511 71.9247 37.2441 72.0208 37.2268L71.661 36.867C71.5145 36.8749 71.3899 36.8745 71.2704 36.8679C71.1589 36.8595 71.0413 36.8343 70.9349 36.79C70.8196 36.7471 70.7095 36.678 70.6134 36.5819C70.4939 36.4624 70.4482 36.3448 70.4608 36.2333C70.4804 36.1189 70.5746 36.0279 70.751 35.957L70.5121 35.7181L70.7641 35.6504L70.9988 35.8851C71.2247 35.8431 71.4389 35.8413 71.6503 35.8772L71.7856 36.1773C71.6018 36.1483 71.4347 36.146 71.2835 36.1698L71.6503 36.5366C71.795 36.5268 71.9191 36.5273 72.0372 36.5324C72.1478 36.5403 72.257 36.5669 72.3722 36.6099C72.4875 36.6528 72.5962 36.7205 72.691 36.8152ZM71.0105 36.4535C71.0464 36.4895 71.0922 36.5142 71.1477 36.5291C71.2028 36.5431 71.2625 36.5515 71.3437 36.5497L71.038 36.244C70.9853 36.2739 70.9573 36.3075 70.9531 36.3443C70.9568 36.3789 70.9727 36.4157 71.0105 36.4535ZM72.2644 37.1512C72.3176 37.1223 72.348 37.0905 72.3461 37.0579C72.3526 37.0229 72.3377 36.9879 72.3022 36.9519C72.2668 36.916 72.2206 36.8913 72.165 36.8763C72.11 36.8623 72.0493 36.8535 71.9662 36.853L72.2644 37.1512Z" fill="#FFDC80"/>
<path fill-rule="evenodd" clip-rule="evenodd" d="M90.2896 26.0543L88.8794 24.6441C87.6842 23.4321 84.5529 24.5797 81.9237 27.2089C79.2945 29.8404 78.1469 32.9601 79.3659 34.1739L80.7761 35.5818C81.9713 36.7961 85.1026 35.6462 87.7318 33.017C90.361 30.3878 91.5085 27.2658 90.2896 26.0543Z" fill="#FCBC12"/>
<mask id="mask14_51_2285" style="mask-type:luminance" maskUnits="userSpaceOnUse" x="78" y="24" width="13" height="13">
<path d="M90.2903 26.0553L88.8801 24.645C87.6849 23.4331 84.5536 24.5806 81.9244 27.2098C79.2952 29.8414 78.1477 32.961 79.3666 34.1748L80.7769 35.5828C81.972 36.797 85.1033 35.6472 87.7325 33.018C90.3617 30.3888 91.5093 27.2668 90.2903 26.0553Z" fill="white"/>
</mask>
<g mask="url(#mask14_51_2285)">
<path fill-rule="evenodd" clip-rule="evenodd" d="M81.5098 26.9202L83.7549 29.1648C84.1633 29.5727 84.1628 30.2344 83.754 30.6418C83.348 31.0497 82.6867 31.0497 82.2784 30.6418L80.0333 28.3972C79.6249 27.9893 79.6254 27.3276 80.0342 26.9202C80.4402 26.5123 81.1015 26.5123 81.5098 26.9202Z" fill="#FFDC80"/>
<path fill-rule="evenodd" clip-rule="evenodd" d="M79.8062 28.6285L82.0513 30.8732C82.2553 31.0771 82.2553 31.408 82.0495 31.6115C81.8465 31.8154 81.5156 31.8154 81.3117 31.6115L79.0665 29.3668C78.8626 29.1629 78.8626 28.832 79.0684 28.6285C79.2714 28.4246 79.6023 28.4246 79.8062 28.6285Z" fill="#FFDC80"/>
</g>
<path d="M87.5313 32.8275C89.9355 30.4233 90.9849 27.5748 89.8752 26.4651C88.7655 25.3554 85.917 26.4048 83.5128 28.809C81.1086 31.2131 80.0592 34.0617 81.1689 35.1714C82.2786 36.2811 85.1272 35.2317 87.5313 32.8275Z" fill="#E54A03"/>
<mask id="mask15_51_2285" style="mask-type:luminance" maskUnits="userSpaceOnUse" x="80" y="26" width="11" height="10">
<path d="M87.5235 32.8275C89.9277 30.4233 90.9771 27.5748 89.8674 26.4651C88.7577 25.3554 85.9092 26.4048 83.505 28.809C81.1008 31.2131 80.0514 34.0617 81.1611 35.1714C82.2708 36.2811 85.1194 35.2317 87.5235 32.8275Z" fill="white"/>
</mask>
<g mask="url(#mask15_51_2285)">
<path d="M87.299 32.6088C89.7032 30.2046 90.7526 27.356 89.6429 26.2464C88.5332 25.1367 85.6847 26.1861 83.2805 28.5902C80.8763 30.9944 79.8269 33.8429 80.9366 34.9526C82.0463 36.0623 84.8949 35.0129 87.299 32.6088Z" fill="#FD990C"/>
</g>
</svg>
