<svg width="160" height="103" viewBox="0 0 160 103" fill="none" xmlns="http://www.w3.org/2000/svg">
<path d="M68.0836 12.6H67.1099V20.3674H68.0836V12.6Z" fill="#4E3658"/>
<path d="M91.8131 12.6H90.8394V20.3674H91.8131V12.6Z" fill="#4E3658"/>
<path d="M103.702 19.4981H55.2466V21.2374H103.702V19.4981Z" fill="#4E3658"/>
<path d="M56.9858 91.7562L56.9858 19.499H55.2466L55.2466 91.7562H56.9858Z" fill="#4E3658"/>
<path d="M103.702 91.7562V19.499H101.962V91.7562H103.702Z" fill="#4E3658"/>
<path d="M78.9353 29.8453C77.7917 28.6443 75.0708 26.5829 69.565 26.0294V22.7415C69.565 22.7415 69.2564 22.7391 69.0921 22.7391C68.1623 22.7391 67.4126 21.9536 67.4725 21.0109C67.5235 20.2111 68.1694 19.558 68.9685 19.4981C69.8816 19.4304 70.6496 20.1226 70.7094 21.0062L70.715 21.003H71.4032C71.341 19.719 70.2309 18.7055 68.9111 18.8067C67.7819 18.8937 66.8688 19.8084 66.7835 20.9368C66.6933 22.1298 67.5131 23.1522 68.62 23.3834V26.0294C63.1151 26.5829 60.3941 28.6443 59.2498 29.8453C59.2418 29.8533 59.2346 29.8613 59.2274 29.8692C58.9028 30.2313 59.2673 30.7983 59.7282 30.6436C59.7306 30.6428 59.733 30.642 59.7362 30.6412C59.808 30.6173 59.8622 30.5646 59.9045 30.5016C59.9085 30.4953 59.914 30.4889 59.9196 30.4825C61.0002 29.3485 63.6271 27.3803 69.0929 26.9138C74.5588 27.3795 77.1857 29.3485 78.2662 30.4825C78.3013 30.5192 78.3085 30.5615 78.2886 30.6085C78.2742 30.6428 78.2423 30.6835 78.1753 30.6835H70.1368L70.6679 31.6085H78.1753C78.5948 31.6085 78.9736 31.3589 79.1387 30.9729C79.3053 30.583 79.228 30.1508 78.9361 29.8445L78.9353 29.8453Z" fill="#B7BEB8"/>
<path d="M75.1914 44.4128C75.1914 44.4128 71.263 40.2356 72.9513 27.957C72.9513 27.957 75.1666 26.8094 73.1578 26.6029C73.1578 26.6029 72.9234 27.8334 69.8922 28.193H67.6313C64.6001 27.8334 64.9965 26.6029 64.9965 26.6029C62.9877 26.8094 62.0482 27.6468 62.0482 27.6468C63.7365 39.9262 62.9629 44.4136 62.9629 44.4136C58.5784 52.9768 57.6885 74.0763 57.6885 74.0763C63.8537 75.2406 69.0772 74.6927 69.0772 74.6927C69.0772 74.6927 74.3006 75.2406 80.4658 74.0763C80.4658 74.0763 79.575 52.9768 75.1906 44.4136L75.1914 44.4128Z" fill="#EA781F"/>
<path d="M86.9618 29.8533C85.8183 28.6523 83.0973 26.5909 77.5916 26.0374V22.7495C77.5916 22.7495 77.2829 22.7471 77.1186 22.7471C76.2239 22.7471 75.4958 22.019 75.4958 21.1242C75.4958 20.2295 76.2239 19.5014 77.1186 19.5014C78.0134 19.5014 78.6793 20.1704 78.7359 21.0142L78.7415 21.011H79.4297C79.3699 19.7861 78.3579 18.8076 77.1194 18.8076C75.881 18.8076 74.8028 19.8467 74.8028 21.1242C74.8028 22.2391 75.5947 23.1729 76.6458 23.3914V26.0374C71.1408 26.5909 68.4198 28.6523 67.2755 29.8533C66.9836 30.1596 66.9062 30.5918 67.0729 30.9817C67.2388 31.3677 67.6168 31.6173 68.0363 31.6173H86.2003C86.6197 31.6173 86.9985 31.3677 87.1636 30.9817C87.3303 30.5918 87.2529 30.1596 86.961 29.8533H86.9618ZM86.3143 30.6173C86.2999 30.6516 86.268 30.6923 86.201 30.6923H78.0373H75.8283H68.0371C67.9701 30.6923 67.9382 30.6516 67.9238 30.6173C67.9039 30.5703 67.9111 30.5272 67.9461 30.4913C69.0267 29.3573 71.6536 27.3891 77.1194 26.9226C82.5853 27.3883 85.2122 29.3565 86.2928 30.4913C86.3278 30.528 86.335 30.5703 86.3151 30.6173H86.3143Z" fill="#B7BEB8"/>
<path d="M84.0615 41.7341C84.233 42.2476 84.7465 45.3649 84.7465 45.3649C84.7465 45.3649 88.4117 43.8577 88.5832 42.4877C88.5832 42.4877 88.261 30.8031 86.8702 29.3693C85.7745 28.2393 84.7832 27.7775 83.6516 27.5798C83.6516 27.5798 80.8525 27.5774 77.5685 27.5798C77.1778 27.5798 76.7878 27.5798 76.397 27.5798C73.1131 27.5774 70.5859 27.5798 70.5859 27.5798C69.4543 27.7767 68.4638 28.2385 67.3673 29.3693C65.9765 30.8031 65.6543 42.4877 65.6543 42.4877C65.8258 43.8577 69.4909 45.3649 69.4909 45.3649C69.4909 45.3649 70.0045 42.2476 70.176 41.7341C70.3474 41.2205 70.8267 41.4254 70.8267 41.4254L66.9733 81.5007C70.3642 81.9632 72.8818 79.4456 73.8523 80.5756C74.8228 81.7057 77.1187 81.74 77.1187 81.74C77.1187 81.74 79.4147 81.7057 80.3852 80.5756C81.3557 79.4456 83.8733 81.9632 87.2641 81.5007L83.4108 41.4254C83.4108 41.4254 83.8901 41.2197 84.0615 41.7341Z" fill="#49809E"/>
<path d="M98.2016 29.8453C97.058 28.6443 94.337 26.5829 88.8313 26.0294V22.7414C88.8313 22.7414 88.5227 22.739 88.3584 22.739C87.4637 22.739 86.7356 22.011 86.7356 21.1162C86.7356 20.2214 87.4637 19.4933 88.3584 19.4933C89.2532 19.4933 89.919 20.1624 89.9757 21.0061L89.9813 21.003H90.6695C90.6097 19.778 89.5977 18.7995 88.3592 18.7995C87.1207 18.7995 86.0426 19.8387 86.0426 21.1162C86.0426 22.2311 86.8344 23.1649 87.8855 23.3834V26.0294C82.3806 26.5829 79.6596 28.6443 78.5152 29.8453C78.2234 30.1515 78.146 30.5838 78.3127 30.9737C78.4785 31.3597 78.8565 31.6093 79.276 31.6093H97.44C97.8595 31.6093 98.2383 31.3597 98.4033 30.9737C98.57 30.5838 98.4927 30.1515 98.2008 29.8453H98.2016ZM97.554 30.6093C97.5397 30.6436 97.5078 30.6842 97.4408 30.6842H89.2771H87.0681H79.2768C79.2098 30.6842 79.1779 30.6436 79.1636 30.6093C79.1436 30.5622 79.1508 30.5192 79.1859 30.4833C80.2665 29.3493 82.8934 27.3811 88.3592 26.9146C93.8251 27.3803 96.4519 29.3493 97.5325 30.4833C97.5676 30.52 97.5748 30.5622 97.5548 30.6093H97.554Z" fill="#B7BEB8"/>
<path d="M88.9044 26.0296H88.7592V22.8158C88.5008 22.8142 87.6603 22.7799 87.1228 22.2919C86.8421 22.0367 86.6906 21.6985 86.6714 21.2855C86.6451 20.7137 86.7927 20.2599 87.1101 19.9369C87.6276 19.4106 88.402 19.4258 88.4347 19.4265L88.4307 19.5717C88.4235 19.5717 87.685 19.5573 87.2121 20.039C86.925 20.3317 86.7919 20.7488 86.8158 21.2791C86.8325 21.6515 86.9689 21.9561 87.2193 22.1842C87.8007 22.7129 88.8166 22.6699 88.827 22.6691L88.9028 22.6651V26.0296H88.9044Z" fill="black"/>
<path d="M83.9354 27.8852L83.8589 27.7624C83.9482 27.7026 85.8239 26.98 88.355 26.8421H88.3598H88.3646C88.3893 26.8445 90.8718 27.0646 92.6303 27.6085L92.5872 27.7472C90.8822 27.2201 88.4834 26.9984 88.3566 26.9872C85.784 27.1284 83.9482 27.878 83.9339 27.8852H83.9354Z" fill="black"/>
<path d="M93.092 67.3503L94.1702 74.8123C95.7643 74.6703 98.4359 74.3202 99.7318 74.0754C99.7318 74.0754 98.841 52.9759 94.4573 44.4127C94.4573 44.4127 93.6837 39.9253 95.372 27.6459C95.372 27.6459 94.4326 26.8093 92.4237 26.602C92.4237 26.602 92.5043 33.7768 89.4731 34.1365H87.2123C84.1811 33.7768 84.2616 26.602 84.2616 26.602C82.2528 26.8085 81.3134 27.6459 81.3134 27.6459C83.0016 39.9253 82.2281 44.4127 82.2281 44.4127C77.8436 52.9759 76.9536 74.0754 76.9536 74.0754C81.1196 74.8625 87.241 75.1177 92.6757 74.841L93.092 67.3503Z" fill="#4E3658"/>
<path d="M70.616 27.6755L70.5498 27.5471C70.5753 27.5343 73.0905 26.2504 76.5739 25.9705V23.4481C76.2557 23.3612 74.7317 22.8532 74.7309 21.1242C74.7293 19.2039 76.4343 18.8347 76.4519 18.8315L76.4806 18.9735C76.4152 18.987 74.8745 19.3244 74.8761 21.1242C74.8777 22.9257 76.589 23.3053 76.6616 23.3205L76.719 23.3324V26.1044L76.652 26.1092C73.1631 26.3756 70.6415 27.6619 70.6168 27.6747L70.616 27.6755Z" fill="black"/>
<path d="M66.4532 32.8607L66.3081 32.8591C66.3089 32.741 66.3488 29.9475 67.7994 28.7513L67.8432 28.7154C68.7675 27.953 69.3776 27.449 72.6432 27.4115C76.0827 27.3725 79.4903 27.5041 79.5238 27.5056L79.5182 27.6508C79.4839 27.6492 76.0811 27.5176 72.6448 27.5567C69.431 27.5934 68.8361 28.0846 67.9357 28.8271L67.8919 28.8629C66.4939 30.0161 66.4532 32.8312 66.4532 32.8599V32.8607Z" fill="black"/>
<path d="M71.0253 38.0397L70.1611 47.5719L70.3057 47.585L71.1698 38.0528L71.0253 38.0397Z" fill="black"/>
<path d="M69.3659 29.2455L67.8643 31.1212L67.9776 31.2119L69.4792 29.3362L69.3659 29.2455Z" fill="black"/>
<path d="M69.3659 30.6456L67.8643 32.5213L67.9776 32.612L69.4792 30.7363L69.3659 30.6456Z" fill="black"/>
<path d="M67.5802 46.9847C65.0267 46.7055 62.9461 44.3658 62.9254 44.3426L62.9014 44.3155L62.9086 44.2804C63.2691 42.5619 62.9796 37.8472 62.8401 35.5808C62.6822 33.017 61.9828 27.7066 61.9756 27.6572L62.1191 27.6372C62.1263 27.6875 62.8273 33.0034 62.9844 35.5721C63.1231 37.8289 63.4102 42.5077 63.0578 44.2741C63.2938 44.5316 65.2444 46.5843 67.5954 46.8411L67.5794 46.9855L67.5802 46.9847Z" fill="black"/>
<path d="M69.6385 26.0295H69.4933V22.8157C69.2301 22.8157 68.3537 22.7814 67.8194 22.2734C67.5427 22.0103 67.4023 21.6618 67.4023 21.2375C67.4023 20.6482 67.569 20.1897 67.8984 19.8739C68.3872 19.4041 69.0523 19.4249 69.0802 19.4265L69.0746 19.5716C69.0683 19.5716 68.4414 19.5525 67.9981 19.9799C67.6998 20.267 67.5483 20.6905 67.5483 21.2383C67.5483 21.6211 67.6735 21.9345 67.9199 22.169C68.4957 22.7168 69.5531 22.6706 69.5635 22.6698L69.6393 22.6658V26.0303L69.6385 26.0295Z" fill="black"/>
<path d="M65.0066 26.7616L64.9556 26.626C65.9365 26.2544 68.5027 25.9697 68.612 25.9577L68.6279 26.1021C68.6016 26.1053 65.9708 26.3971 65.0074 26.7624L65.0066 26.7616Z" fill="black"/>
<path d="M46.7383 94.3551V98.2475H48.1315V94.6199C48.1315 93.8726 48.7375 93.2666 49.4848 93.2666H109.605C110.274 93.2666 110.816 93.8088 110.816 94.4771V98.2475H112.209V94.3551C112.209 92.9197 111.046 91.7553 109.609 91.7553H49.338C47.9026 91.7553 46.7383 92.9189 46.7383 94.3551Z" fill="#4E3658"/>
<path d="M51.5246 98.917C51.8907 96.662 50.3594 94.5372 48.1044 94.1711C45.8494 93.8051 43.7246 95.3364 43.3586 97.5914C42.9925 99.8464 44.5238 101.971 46.7788 102.337C49.0338 102.703 51.1586 101.172 51.5246 98.917Z" fill="#050505"/>
<path d="M48.3156 100.373C49.4896 99.8866 50.047 98.5408 49.5608 97.3669C49.0745 96.193 47.7287 95.6355 46.5548 96.1217C45.3808 96.608 44.8234 97.9538 45.3096 99.1278C45.7959 100.302 47.1417 100.859 48.3156 100.373Z" fill="#4E3658"/>
<path d="M115.605 98.917C115.971 96.662 114.439 94.5372 112.184 94.1711C109.929 93.8051 107.805 95.3364 107.439 97.5914C107.073 99.8464 108.604 101.971 110.859 102.337C113.114 102.703 115.239 101.172 115.605 98.917Z" fill="#050505"/>
<path d="M113.743 98.7688C114.035 97.5321 113.269 96.293 112.032 96.0011C110.796 95.7092 109.556 96.4751 109.265 97.7118C108.973 98.9484 109.739 100.188 110.975 100.479C112.212 100.771 113.451 100.005 113.743 98.7688Z" fill="#4E3658"/>
<path d="M92.033 0H66.9159C66.0209 0 65.2954 0.725505 65.2954 1.62046V12.1056C65.2954 13.0006 66.0209 13.7261 66.9159 13.7261H92.033C92.928 13.7261 93.6535 13.0006 93.6535 12.1056V1.62046C93.6535 0.725505 92.928 0 92.033 0Z" fill="#49809E"/>
<path d="M49.2113 37.2746C48.2895 37.1701 45.1857 36.718 45.1857 36.718C43.8468 40.4693 43.6602 42.2923 43.6602 42.2923C46.5709 42.7516 47.2232 42.7102 47.6914 42.7516C48.1595 42.7931 50.1332 37.3791 49.2113 37.2738V37.2746Z" fill="#FE9F73"/>
<path d="M24.9978 42.2778C23.4523 42.915 16.6978 56.1068 16.6978 56.1068L20.5304 58.2264L29.0585 47.4287C29.0585 47.4287 26.5433 41.6415 24.997 42.2778H24.9978Z" fill="#FE9F73"/>
<path d="M14.1395 60.4059C14.2966 60.5654 14.555 60.5654 14.7241 60.4187L15.7775 59.508C15.8102 59.4793 15.858 59.4753 15.8955 59.4968C15.9514 59.5295 15.9633 59.6045 15.9203 59.6523L14.5566 61.1914C14.4003 61.3677 14.4394 61.6093 14.6427 61.7281C14.8461 61.847 15.1403 61.7999 15.2966 61.6237L16.6866 60.0542C16.7185 60.0176 16.7727 60.0096 16.8142 60.0335L16.8437 60.051C16.8924 60.0798 16.9091 60.142 16.8804 60.1906L15.7073 62.1994C15.5949 62.3924 15.6419 62.6468 15.8269 62.772C16.0303 62.9092 16.3038 62.8446 16.4251 62.6357L17.6053 60.6149C17.634 60.5662 17.6962 60.5495 17.7449 60.5782L17.839 60.6332C17.8828 60.6587 17.9012 60.7137 17.8812 60.7608L17.0383 62.7648C16.9514 62.9714 17.0311 63.217 17.2313 63.3167C17.4506 63.4259 17.713 63.3263 17.8071 63.1038C17.8071 63.1038 19.2569 60.1164 19.5216 59.6683L20.044 60.7648C20.103 60.9889 20.3327 61.1236 20.5567 61.0646C20.7808 61.0056 20.9156 60.776 20.8566 60.5519L20.4778 57.8732C20.4395 57.7272 20.178 57.5733 19.9387 57.4999C17.8996 56.09 17.5734 55.8898 16.9889 55.5605L15.7305 57.8923C15.3676 58.5654 14.8851 59.1667 14.3062 59.6667L14.161 59.7927C13.9784 59.9506 13.9649 60.2313 14.1371 60.4059H14.1395Z" fill="#FE9F73"/>
<path d="M47.345 42.6982C50.5947 43.3513 63.3893 41.0578 63.3893 41.0578L62.7896 36.7187L48.2055 37.2754C48.2055 37.2754 42.5474 41.6439 47.345 42.6982Z" fill="#FE9F73"/>
<path d="M68.3648 40.5282C68.3983 40.3073 68.2436 40.1 68.0251 40.0521L66.6646 39.7547C66.6223 39.7451 66.5896 39.71 66.5848 39.667C66.5777 39.6032 66.6303 39.5481 66.6949 39.5537L68.7444 39.7228C68.9788 39.7419 69.1495 39.5665 69.1224 39.3328C69.0953 39.0984 68.8815 38.891 68.6471 38.8719L66.5569 38.6996C66.5083 38.6956 66.4692 38.6582 66.4636 38.6095L66.4596 38.5752C66.4532 38.5194 66.4931 38.4684 66.5497 38.462L68.8608 38.1972C69.0833 38.1717 69.2579 37.9819 69.2468 37.7586C69.2348 37.5138 69.0187 37.3336 68.7795 37.3615L66.454 37.6278C66.3982 37.6342 66.3472 37.5943 66.3408 37.5377L66.3281 37.4293C66.3225 37.3782 66.3552 37.3312 66.4046 37.3184L68.5147 36.7929C68.7316 36.7387 68.8808 36.5273 68.8409 36.3072C68.797 36.0656 68.5602 35.9157 68.3257 35.9739C68.3257 35.9739 65.0657 36.6031 64.5481 36.6597L65.1135 35.5847C65.2578 35.4029 65.2275 35.1389 65.0457 34.9946C64.8639 34.8502 64.5999 34.8806 64.4556 35.0624L62.5377 36.9707C62.4436 37.0887 62.4771 37.3902 62.5616 37.6254C62.6549 40.1032 62.69 40.4836 62.7761 41.1495L65.3974 40.7595C66.1534 40.6471 66.9245 40.6734 67.671 40.8361L67.8584 40.8767C68.0944 40.9286 68.3265 40.7707 68.364 40.5282H68.3648Z" fill="#FE9F73"/>
<path d="M29.2778 78.9129L30.2723 99.8824L35.8099 99.8441L38.046 78.8523L29.2778 78.9129Z" fill="#FE9F73"/>
<path d="M20.063 71.2309L17.5367 73.5116L3.73963 77.7725L2.04102 78.6466L2.33688 82.0972L4.16947 83.48C4.16947 83.48 22.1213 80.7702 23.0735 80.0238C24.0257 79.2774 25.8463 76.936 25.8463 76.936C25.8463 76.936 29.033 72.0834 28.7658 71.1711C28.4987 70.2588 25.8312 68.4445 25.6134 68.4485C25.3957 68.4525 20.0622 71.2309 20.0622 71.2309H20.063Z" fill="#FE9F73"/>
<path d="M24.3428 42.0211C24.3428 42.0211 25.543 45.6034 28.6826 46.4949L34.4555 33.0911C34.4555 33.0911 31.4586 32.658 28.614 36.5513C25.7687 40.4445 24.3436 42.0211 24.3436 42.0211H24.3428Z" fill="#EA781F"/>
<path d="M40.3305 59.9921C40.3305 59.9921 39.407 77.3626 38.655 81.8723C38.655 81.8723 32.7904 83.4146 21.1856 76.1185L23.6378 71.9892L19.7406 74.8234L17.6265 71.1471C17.6265 71.1471 22.0213 64.8192 22.9288 63.8343C22.9288 63.8343 22.574 59.7241 24.9656 56.378C24.9656 56.378 33.6365 54.7511 33.8327 54.7495C34.0288 54.7479 40.332 59.9921 40.332 59.9921H40.3305Z" fill="#4E3658"/>
<path d="M39.277 26.1005C39.277 26.1005 39.328 31.2362 38.5776 31.3781C37.8272 31.5209 39.8424 35.6183 41.4955 32.4675C42.0745 31.3638 41.218 26.3828 39.3679 25.1603C37.5178 23.9385 39.277 26.0997 39.277 26.0997V26.1005Z" fill="#4E3658"/>
<path d="M39.3978 24.7949C39.3978 24.7949 40.6753 29.4976 40.1514 30.425C40.1514 30.425 39.9002 30.9155 39.1553 31.0303L39.5557 33.8366L36.1265 33.8606L35.042 25.8731C35.042 25.8731 35.7661 23.7781 35.7773 23.8595C35.7884 23.9408 39.3978 24.7949 39.3978 24.7949Z" fill="#FE9F73"/>
<path d="M38.853 28.9146C38.8426 28.9162 38.8331 28.9075 38.8283 28.8931C38.8235 28.8772 38.8283 28.8596 38.8402 28.8548C38.9742 28.7934 39.0292 28.5398 39.0436 28.4569C38.8251 28.3349 38.6784 28.157 38.6058 27.929C38.4886 27.5573 38.613 27.1897 38.6185 27.1738C38.6233 27.1594 38.6369 27.1538 38.6481 27.1626C38.6592 27.1714 38.664 27.1897 38.6592 27.2049C38.6576 27.2081 38.538 27.5645 38.6473 27.9098C38.7158 28.1267 38.8602 28.2958 39.0771 28.4114L39.0962 28.4218L39.093 28.4481C39.0906 28.4641 39.0404 28.8309 38.8594 28.9138C38.8578 28.9138 38.8562 28.9146 38.8546 28.9154L38.853 28.9146Z" fill="#F07162"/>
<path d="M39.2851 31.9858L39.1551 31.0304C39.1551 31.0304 37.5274 31.1548 36.4517 30.6651C36.4517 30.6651 37.9716 31.7752 39.2851 31.9858Z" fill="#F07162"/>
<path d="M36.8145 27.5518C36.7993 27.5542 36.7834 27.5502 36.7698 27.5406C36.7427 27.5207 36.7363 27.4824 36.7563 27.4545C36.7627 27.4457 37.4373 26.5382 38.2308 27.0183C38.2603 27.0358 38.2691 27.0741 38.2515 27.1028C38.234 27.1323 38.1957 27.1411 38.167 27.1235C37.47 26.7033 36.8807 27.4936 36.856 27.527C36.8456 27.5414 36.8304 27.5494 36.8145 27.5518Z" fill="#4E3658"/>
<path d="M38.9191 27.13C38.9024 27.1324 38.884 27.1276 38.8705 27.1149C38.845 27.0925 38.8426 27.0535 38.8649 27.0279C38.8848 27.0048 39.3657 26.4657 39.7509 26.7153C39.7796 26.7337 39.7876 26.772 39.7692 26.8007C39.7509 26.8294 39.7126 26.8373 39.6839 26.819C39.388 26.6276 38.9622 27.1053 38.9574 27.1101C38.947 27.122 38.9335 27.1284 38.9191 27.1308V27.13Z" fill="#4E3658"/>
<path d="M38.0815 27.7258C38.0943 27.8199 38.0281 27.906 37.9348 27.9187C37.8407 27.9315 37.7546 27.8653 37.7418 27.772C37.7291 27.6787 37.7952 27.5918 37.8885 27.579C37.9826 27.5663 38.0688 27.6324 38.0815 27.7258Z" fill="black"/>
<path d="M39.6821 27.5088C39.6949 27.6029 39.6287 27.689 39.5354 27.7017C39.4413 27.7145 39.3552 27.6483 39.3424 27.555C39.3296 27.4609 39.3958 27.3748 39.4891 27.362C39.5832 27.3493 39.6694 27.4154 39.6821 27.5088Z" fill="black"/>
<path d="M37.5684 29.0072C37.5875 29.0096 38.7446 29.3342 38.7446 29.3342C38.7446 29.3342 38.4552 29.7648 38.0245 29.646C37.5939 29.5264 37.5684 29.008 37.5684 29.008V29.0072Z" fill="#FBFDFC"/>
<path d="M36.1113 28.7351C36.1831 29.2615 35.8138 29.7471 35.2867 29.8181C34.7604 29.8899 34.2747 29.5206 34.2037 28.9935C34.132 28.4672 34.5012 27.9815 35.0283 27.9106C35.5547 27.8388 36.0403 28.208 36.1113 28.7351Z" fill="#FE9F73"/>
<path d="M35.1669 29.4626C34.9667 29.4897 34.8128 29.3573 34.7482 29.213C34.6717 29.0423 34.7084 28.8613 34.8407 28.752C35.0289 28.5965 35.2267 28.646 35.3368 28.6954C35.2817 28.5997 35.2092 28.5335 35.1199 28.4992C34.9189 28.4219 34.6988 28.5279 34.6964 28.5295C34.6812 28.5367 34.6629 28.5303 34.6549 28.5152C34.6478 28.5 34.6533 28.4817 34.6693 28.4737C34.6797 28.4689 34.9165 28.3549 35.1422 28.441C35.273 28.4913 35.3711 28.5973 35.4349 28.7576L35.4755 28.8605L35.387 28.7935C35.3766 28.7855 35.1215 28.5973 34.879 28.7983C34.745 28.9091 34.7546 29.0766 34.8033 29.1867C34.8543 29.3023 34.9795 29.4267 35.1621 29.3996C35.1789 29.3972 35.1948 29.4084 35.1972 29.4251C35.1996 29.4418 35.1884 29.4578 35.1717 29.4602C35.1701 29.4602 35.1677 29.4602 35.1661 29.461L35.1669 29.4626Z" fill="#F07162"/>
<path d="M37.9423 25.066L36.9829 24.0261C36.9829 24.0261 38.4032 24.6912 38.2971 24.7391C38.1919 24.7861 37.9423 25.066 37.9423 25.066Z" fill="#FE9F73"/>
<path d="M35.4124 24.8253C35.4124 24.8253 35.8646 26.5813 40.1845 26.4234C40.1845 26.4234 40.8576 23.6609 37.6453 23.1554C34.4331 22.649 34.4403 25.0645 34.5001 25.035C34.5599 25.0055 35.4124 24.8253 35.4124 24.8253Z" fill="#4E3658"/>
<path d="M24.9644 56.2551L31.2867 36.0169C31.2867 36.0169 32.6344 32.6309 35.6401 33.0647C38.6458 33.4985 45.9019 34.9411 45.9019 34.9411C45.9019 34.9411 45.874 40.3305 44.7193 43.1958C44.7193 43.1958 42.5438 43.2109 41.4106 43.002C41.4106 43.002 41.2623 59.193 41.1394 60.3198C41.1394 60.3198 31.7468 61.4674 24.9652 56.2551H24.9644Z" fill="#EA781F"/>
<path d="M31.9892 102.383C31.9892 102.383 39.9368 102.331 39.9791 102.323C40.6394 102.182 40.5102 101.594 40.5102 101.594L35.9351 98.6718L33.9582 99.5825C33.9582 99.5825 30.994 100.235 30.2388 99.2292L30.3209 101.64C30.3209 101.64 30.0896 102.414 31.9892 102.383Z" fill="#4E3658"/>
<path d="M0.547185 79.4519L0.54958 87.1332C0.559947 87.2026 0.571106 87.2592 0.583865 87.3006C0.805562 88.024 1.26491 87.7871 1.26491 87.7871L4.1693 83.4792L3.30245 81.4823C3.30245 81.4823 2.80961 78.223 3.73946 77.7717L1.32711 77.7996C1.32711 77.7996 0.557551 77.5508 0.546387 79.4511L0.547185 79.4519Z" fill="#4E3658"/>
<path d="M18.8945 76.1041C18.8339 76.1041 18.7749 76.0722 18.7446 76.0148L17.4933 73.6567C17.4495 73.5746 17.4814 73.4725 17.5635 73.4286C17.6457 73.3848 17.7477 73.4159 17.7916 73.4988L19.0428 75.8569C19.0867 75.9391 19.0548 76.0411 18.9727 76.085C18.9479 76.0986 18.9216 76.1041 18.8953 76.1049L18.8945 76.1041Z" fill="#F07162"/>
<path d="M44.7869 43.3513H44.7191C39.5475 43.3648 36.4645 41.9995 36.4334 41.986C36.3823 41.9629 36.36 41.903 36.3831 41.852C36.4063 41.801 36.4661 41.7786 36.5171 41.8018C36.5474 41.8153 39.5666 43.1503 44.6489 43.1495C44.8172 42.6933 45.814 39.7945 45.8005 35.0352L42.5085 34.3917C42.4535 34.3813 42.4176 34.3279 42.4288 34.2729C42.4391 34.2178 42.4934 34.1827 42.5476 34.1931L46.0022 34.8686V34.9515C46.0301 40.2188 44.8252 43.2587 44.8124 43.2883L44.7869 43.3513Z" fill="black"/>
<path d="M36.872 43.211C36.825 43.211 36.7827 43.1791 36.7724 43.1313C36.7604 43.077 36.7955 43.0228 36.8497 43.0108L38.9526 42.5555C39.0069 42.5435 39.0611 42.5786 39.0731 42.6328C39.085 42.6871 39.0499 42.7413 38.9957 42.7533L36.8928 43.2086C36.8856 43.2102 36.8792 43.211 36.872 43.211Z" fill="black"/>
<path d="M41.1392 60.5661C41.1392 60.5661 41.1376 60.5661 41.1368 60.5661C41.081 60.5653 41.0363 60.5191 41.0371 60.4633L41.3075 43.0537C41.3083 42.9979 41.3561 42.9524 41.4103 42.954C41.4662 42.9548 41.5108 43.0011 41.51 43.0569L41.2397 60.4665C41.2389 60.5215 41.1942 60.5653 41.1392 60.5661Z" fill="black"/>
<path d="M27.1064 49.5883C27.096 49.5883 27.0856 49.5867 27.0753 49.5835C27.0218 49.5668 26.9923 49.5101 27.0091 49.4567L31.0172 36.5568C31.6041 34.6676 32.3282 34.4356 32.3593 34.4268C32.4127 34.4108 32.4694 34.4419 32.4845 34.4954C32.5005 34.5488 32.4702 34.6046 32.4175 34.6206C32.404 34.6253 31.7556 34.8638 31.211 36.6174L27.2029 49.5173C27.1893 49.5604 27.1502 49.5883 27.1072 49.5883H27.1064Z" fill="black"/>
<path d="M26.5752 45.431C26.5497 45.431 26.5233 45.4214 26.5034 45.4023C26.4173 45.3178 24.3965 43.3145 24.2426 42.0338L24.2378 41.9923L24.2641 41.9596L29.419 35.4156C29.4532 35.3717 29.517 35.3637 29.5609 35.3988C29.6048 35.4331 29.6119 35.4969 29.5777 35.5408L24.4491 42.0505C24.6349 43.2651 26.6254 45.2388 26.6454 45.2587C26.6852 45.2978 26.6852 45.3616 26.6461 45.4015C26.6262 45.4214 26.6007 45.4318 26.5752 45.4318V45.431Z" fill="black"/>
<path d="M23.3828 65.3687C23.3397 65.3687 23.2991 65.3416 23.2855 65.2977L22.827 63.8399C22.5486 59.4156 24.8613 56.3461 24.8844 56.3158C24.9187 56.2711 24.9817 56.2632 25.0264 56.2974C25.071 56.3317 25.079 56.3947 25.0447 56.4394C25.0216 56.4689 22.7592 59.4762 23.0279 63.8152L23.4785 65.2371C23.4952 65.2905 23.4657 65.3471 23.4131 65.3639C23.4035 65.3671 23.3932 65.3687 23.3836 65.3687H23.3828Z" fill="black"/>
<path d="M17.6259 71.2484C17.6052 71.2484 17.5844 71.242 17.5661 71.2293C17.5206 71.1966 17.5111 71.1336 17.5438 71.0881L22.8461 63.7753C22.8788 63.7299 22.9418 63.7203 22.9873 63.753C23.0328 63.7857 23.0423 63.8487 23.0096 63.8942L17.7073 71.207C17.6873 71.2341 17.657 71.2484 17.6259 71.2484Z" fill="black"/>
<path d="M37.0204 82.141C33.9836 82.1625 30.2969 80.83 27.5361 79.5939C23.9841 78.0022 21.1587 76.2222 21.1308 76.2047L21.0479 76.152L23.5503 71.9382C23.579 71.8903 23.6412 71.8744 23.6891 71.9031C23.7369 71.9318 23.7529 71.994 23.7242 72.0419L21.323 76.0866C21.815 76.3913 24.4227 77.9782 27.6222 79.4113C30.8799 80.8706 35.4358 82.4656 38.6337 81.775C38.6887 81.763 38.7421 81.7981 38.7541 81.8523C38.766 81.9066 38.731 81.9608 38.6767 81.9728C38.156 82.0852 37.6001 82.1386 37.0212 82.1426L37.0204 82.141Z" fill="black"/>
<path d="M44.0309 37.2745C43.9958 37.2745 43.9615 37.2569 43.9423 37.2242L43.3594 36.2234C43.3315 36.1748 43.3474 36.1134 43.3961 36.0854C43.4447 36.0575 43.5061 36.0735 43.5341 36.1221L44.117 37.1229C44.1449 37.1708 44.129 37.233 44.0803 37.2609C44.0644 37.2705 44.0476 37.2745 44.0301 37.2745H44.0309Z" fill="black"/>
<path d="M43.9861 37.8623C43.9526 37.8623 43.9199 37.8463 43.9 37.816L43.25 36.8032C43.2197 36.7562 43.2333 36.694 43.2804 36.6637C43.3274 36.6334 43.3896 36.6469 43.4199 36.694L44.0698 37.7068C44.1001 37.7538 44.0866 37.816 44.0395 37.8463C44.0228 37.8567 44.0044 37.8623 43.9853 37.8623H43.9861Z" fill="black"/>
<path d="M25.9698 61.1204C25.9348 61.1204 25.9005 61.1028 25.8813 61.0701L25.2984 60.0693C25.2705 60.0206 25.2864 59.9592 25.3351 59.9313C25.3837 59.9034 25.4451 59.9194 25.473 59.968L26.056 60.9688C26.0839 61.0175 26.0679 61.0789 26.0193 61.1068C26.0033 61.1164 25.9866 61.1204 25.969 61.1204H25.9698Z" fill="black"/>
<path d="M25.9251 61.7073C25.8916 61.7073 25.8589 61.6913 25.839 61.661L25.189 60.6482C25.1587 60.6012 25.1723 60.539 25.2193 60.5087C25.2664 60.4784 25.3286 60.4919 25.3589 60.539L26.0088 61.5518C26.0391 61.5988 26.0256 61.661 25.9785 61.6913C25.9618 61.7017 25.9434 61.7073 25.9243 61.7073H25.9251Z" fill="black"/>
<path d="M36.18 25.7479C36.18 25.7479 36.1704 26.3053 35.9064 27.1969C35.9064 27.1969 39.3124 32.7608 34.6744 35.1437L34.1592 35.1987C31.6089 35.473 31.0833 31.6835 33.6153 31.2712C33.6448 31.2664 33.6751 31.2616 33.7054 31.2576C33.7557 31.2504 33.7445 31.1061 33.7668 31.1515C33.8235 31.2648 32.7022 29.748 32.3904 26.8181C32.195 24.9839 34.1927 22.8547 35.7741 23.7949C37.3562 24.7351 36.18 25.7479 36.18 25.7479Z" fill="#4E3658"/>
<path d="M39.2507 26.0613C37.3998 26.0741 36.2825 25.0039 36.233 24.9552C36.1932 24.9161 36.1924 24.8523 36.2315 24.8125C36.2705 24.7726 36.3343 24.7718 36.3742 24.8109C36.387 24.8228 37.6382 26.0175 39.6279 25.8412C39.6821 25.8364 39.7324 25.8771 39.7371 25.9329C39.7419 25.9887 39.7012 26.0374 39.6454 26.0422C39.5107 26.0541 39.3783 26.0605 39.2507 26.0613Z" fill="black"/>
<path d="M118.195 25.8452C117.407 27.5262 118.527 33.1125 118.527 33.1125L119.074 33.0224C119.072 32.8342 119.108 32.2863 119.108 32.2863L119.39 32.9706L121.519 32.6197L121.291 23.9001C121.291 23.9001 118.983 24.1649 118.195 25.846V25.8452Z" fill="#4E3658"/>
<path d="M119.376 26.6443C119.376 26.6443 118.384 31.028 120.745 31.528L120.929 34.5616L124.122 33.6525L123.583 23.8875C123.583 23.8875 122.63 24.0589 122.634 24.1379C122.638 24.2168 119.376 26.6451 119.376 26.6451V26.6443Z" fill="#F9B59D"/>
<path d="M120.597 29.4752C120.61 29.4752 120.622 29.464 120.625 29.4505C120.627 29.4345 120.616 29.4194 120.6 29.417C120.407 29.3867 120.274 29.1586 120.235 29.0836C120.498 28.9241 120.653 28.7272 120.695 28.4975C120.764 28.1235 120.512 27.8021 120.501 27.7885L120.46 27.7838L120.455 27.8252C120.455 27.8252 120.701 28.1394 120.637 28.4863C120.596 28.7048 120.443 28.893 120.181 29.0462L120.158 29.0597L120.169 29.0836C120.176 29.098 120.33 29.4337 120.591 29.4752H120.598H120.597Z" fill="#ED7163"/>
<path d="M120.796 32.4538L120.745 31.5271C120.745 31.5271 122.306 31.3485 123.233 30.6906C123.233 30.6906 121.999 32.016 120.796 32.4538Z" fill="#ED7163"/>
<path d="M121.272 28.1489C121.277 28.2398 121.355 28.31 121.446 28.3044C121.537 28.2996 121.607 28.2215 121.602 28.1306C121.597 28.0397 121.519 27.9695 121.428 27.9751C121.337 27.9798 121.267 28.058 121.272 28.1489Z" fill="black"/>
<path d="M119.607 28.295C119.612 28.3859 119.69 28.4561 119.781 28.4513C119.872 28.4465 119.942 28.3683 119.937 28.2774C119.932 28.1865 119.854 28.1163 119.763 28.1219C119.672 28.1267 119.602 28.2049 119.606 28.2958L119.607 28.295Z" fill="black"/>
<path d="M121.382 29.464C121.364 29.4664 120.261 29.8141 120.261 29.8141C120.261 29.8141 120.553 30.22 120.963 30.0916C121.373 29.964 121.382 29.464 121.382 29.464Z" fill="#FBFDFC"/>
<path d="M120.384 24.9862C120.384 24.9862 120.929 26.9727 122.866 27.6545C124.802 28.3364 123.847 30.9337 123.847 30.9337L125.505 28.1346C125.505 28.1346 125.246 24.5085 123.583 23.8857C122.374 23.4327 120.13 23.853 120.384 24.9854V24.9862Z" fill="#4E3658"/>
<path d="M121.918 27.519C121.901 27.5278 121.881 27.5286 121.863 27.519C121.859 27.5167 121.419 27.2926 121.006 27.4624C120.976 27.4752 120.941 27.4608 120.929 27.4305C120.917 27.4002 120.931 27.3659 120.961 27.354C121.426 27.1626 121.898 27.405 121.918 27.4154C121.946 27.4305 121.957 27.4656 121.942 27.4943L121.918 27.519Z" fill="#4E3658"/>
<path d="M119.402 27.8859C119.383 27.8891 119.363 27.8843 119.349 27.8699C119.326 27.8468 119.326 27.8093 119.349 27.787C119.365 27.771 119.741 27.3986 120.242 27.4417C120.275 27.4441 120.299 27.4728 120.295 27.5055C120.293 27.5382 120.264 27.5621 120.232 27.5589C119.784 27.5206 119.435 27.8659 119.432 27.8699L119.401 27.8859H119.402Z" fill="#4E3658"/>
<path d="M120.564 25.7533L121.323 24.9535L120.776 25.865L120.564 25.7533Z" fill="#EBA086"/>
<path d="M125.896 26.0159C125.328 23.9927 123.04 23.7495 123.04 23.7495L123.362 27.7536C123.362 27.7536 123.892 29.4737 123.844 32.0854L123.818 32.5791C123.818 32.5791 124.632 32.4818 125.556 32.2401C125.6 31.8534 125.676 31.2242 125.676 31.2242L125.978 32.1205C126.182 32.0583 126.386 31.9889 126.583 31.9124C126.583 31.9124 126.358 27.6619 125.896 26.0167V26.0159Z" fill="#4E3658"/>
<path d="M123.111 28.484C123.139 28.9944 123.576 29.3859 124.087 29.358C124.598 29.3301 124.989 28.8931 124.961 28.3819C124.934 27.8715 124.496 27.48 123.985 27.5079C123.475 27.5358 123.083 27.9728 123.111 28.484Z" fill="#F9B59D"/>
<path d="M124.136 29C124.33 28.9896 124.452 28.8365 124.486 28.6882C124.527 28.5128 124.46 28.3485 124.315 28.2695C124.108 28.1571 123.931 28.2392 123.835 28.3062C123.87 28.2057 123.926 28.13 124.004 28.0813C124.18 27.9721 124.408 28.0327 124.41 28.0327C124.426 28.0367 124.442 28.0279 124.447 28.0119C124.451 27.996 124.442 27.98 124.426 27.9753C124.416 27.9721 124.171 27.9075 123.973 28.0303C123.859 28.1013 123.786 28.2201 123.754 28.3828L123.734 28.4872L123.805 28.4083C123.814 28.3987 124.02 28.1746 124.286 28.3206C124.433 28.4011 124.454 28.5614 124.428 28.6738C124.4 28.7919 124.305 28.9322 124.127 28.9402C124.111 28.9402 124.099 28.9545 124.099 28.9713C124.099 28.988 124.113 29.0008 124.13 29H124.135H124.136Z" fill="#ED7163"/>
<path d="M115.663 40.0282C115.663 40.0282 125.103 41.6016 126.688 41.0051C128.273 40.4086 121.437 35.0855 121.437 35.0855L115.449 34.4722L115.664 40.0274L115.663 40.0282Z" fill="#F9B59D"/>
<path d="M117.134 40.1711C115.809 40.6424 104.235 35.9732 104.235 35.9732L105.356 33.0305L116.776 34.6629C116.776 34.6629 118.46 39.699 117.134 40.1711Z" fill="#F9B59D"/>
<path d="M100.517 34.8104C100.525 34.6413 100.67 34.5113 100.839 34.5081L101.89 34.4874C101.923 34.4874 101.952 34.4651 101.962 34.434C101.977 34.3877 101.945 34.3391 101.897 34.3343L100.354 34.1588C100.177 34.1389 100.077 33.9834 100.131 33.8143C100.186 33.6453 100.375 33.5225 100.552 33.5432L102.125 33.7226C102.162 33.7266 102.196 33.7043 102.207 33.6692L102.215 33.6445C102.228 33.6038 102.206 33.5607 102.165 33.548L100.492 33.0129C100.331 32.961 100.23 32.7952 100.27 32.6309C100.315 32.4515 100.502 32.3494 100.675 32.4052L102.358 32.9435C102.399 32.9563 102.442 32.9339 102.455 32.8933L102.48 32.8143C102.492 32.7776 102.474 32.7378 102.439 32.721L100.954 32.0216C100.801 31.9499 100.722 31.7712 100.784 31.6141C100.852 31.4419 101.049 31.3653 101.214 31.4427C101.214 31.4427 103.537 32.3877 103.912 32.5057L103.652 31.6261C103.571 31.4706 103.632 31.2792 103.788 31.1986C103.943 31.1181 104.135 31.1795 104.215 31.335L105.356 33.0296C105.408 33.1309 105.339 33.3494 105.242 33.5113C104.809 35.3327 104.727 35.6094 104.565 36.0903L102.681 35.4165C102.137 35.2219 101.563 35.1286 100.986 35.1397L100.84 35.1429C100.659 35.1461 100.509 34.9962 100.517 34.8112V34.8104Z" fill="#F9B59D"/>
<path d="M129.962 78.8706L129.113 99.8688H123.569L121.184 78.8706H129.962Z" fill="#F9B59D"/>
<path d="M139.133 71.116L141.677 73.3816L155.518 77.5508L157.225 78.4136L156.952 81.8699L155.127 83.2662C155.127 83.2662 137.138 80.6785 136.18 79.9384C135.221 79.1976 133.382 76.8665 133.382 76.8665C133.382 76.8665 130.158 72.0307 130.419 71.116C130.681 70.2013 133.338 68.3663 133.556 68.3687C133.774 68.3711 139.132 71.116 139.132 71.116H139.133Z" fill="#F9B59D"/>
<path d="M127.411 102.384L119.723 102.263C119.653 102.252 119.597 102.24 119.555 102.226C118.835 101.992 119.14 101.171 119.14 101.171L123.436 98.6964L125.421 99.5944C125.421 99.5944 128.676 100.138 129.142 99.2148L129.076 101.629C129.076 101.629 129.313 102.402 127.411 102.384Z" fill="#49809E"/>
<path d="M140.337 75.9862C140.397 75.9862 140.456 75.9535 140.487 75.8953L141.723 73.526C141.766 73.443 141.734 73.3418 141.651 73.2987C141.568 73.2556 141.467 73.2875 141.424 73.3705L140.188 75.7397C140.145 75.8227 140.176 75.924 140.259 75.967C140.284 75.9798 140.311 75.9862 140.338 75.9862H140.337Z" fill="#F07162"/>
<path d="M132.258 50.3132C132.258 50.3132 135.489 62.0663 145.572 71.246C145.572 71.246 140.873 79.0939 129.236 81.8157C119.425 84.1108 117.2 83.2671 117.2 83.2671L117.685 52.763L132.258 50.314L132.258 50.3132Z" fill="#49809E"/>
<path d="M121.626 33.4921L118.445 36.4069L115.287 39.5274L116.786 46.0339L125.481 39.3727L127.364 35.2609C127.364 35.2609 126.203 33.3574 124.827 33.1907C124.292 32.961 123.124 32.4865 121.625 33.4913L121.626 33.4921Z" fill="#F9B59D"/>
<path d="M126.439 35.5249C126.164 34.6724 125.699 34.0951 125.252 33.7115C124.725 33.2609 124.051 33.0201 123.358 33.0089C123.354 33.0089 123.35 33.0089 123.346 33.0089C126.303 32.6174 127.654 35.9436 127.654 35.9436L134.123 56.1587C127.371 61.4236 117.96 60.3406 117.96 60.3406C117.834 59.2449 117.595 46.2988 117.581 45.4455C126.072 38.7499 127.095 37.5561 126.439 35.5257V35.5249Z" fill="#49809E"/>
<g style="mix-blend-mode:multiply" opacity="0.3">
<path d="M143.405 73.9421C143.105 74.2571 142.772 74.5897 142.405 74.9334C138.357 70.8886 135.246 65.4546 133.272 61.3979C130.881 56.4839 129.593 52.4694 129.58 52.4296L130.922 52.0021C130.935 52.0412 132.198 55.9759 134.548 60.8022C136.472 64.7545 139.498 70.0441 143.405 73.9429V73.9421Z" fill="#49809E"/>
</g>
<g style="mix-blend-mode:multiply" opacity="0.3">
<path d="M130.766 65.8646C128.407 59.3916 126.891 53.6091 126.875 53.5517L128.238 53.196C128.289 53.389 132.573 69.6311 138.007 78.2645C137.617 78.5029 137.21 78.7374 136.786 78.9679C134.816 75.8322 132.801 71.4509 130.766 65.8646H130.766Z" fill="#49809E"/>
</g>
<g style="mix-blend-mode:multiply" opacity="0.3">
<path d="M123.065 54.653L124.434 54.3205C124.47 54.472 127.591 67.3017 130.961 81.3611C130.519 81.4911 130.065 81.6131 129.6 81.7279C126.227 67.6566 123.103 54.8053 123.065 54.6538V54.653Z" fill="#49809E"/>
</g>
<g style="mix-blend-mode:multiply" opacity="0.3">
<path d="M121.179 69.8535C120.145 62.2033 119.701 55.5205 119.697 55.4543L121.102 55.3626C121.115 55.5692 122.202 71.706 124.948 82.7175C124.454 82.8076 123.989 82.8873 123.552 82.9575C122.675 79.4263 121.882 75.0506 121.179 69.8535Z" fill="#49809E"/>
</g>
<path d="M132.52 51.1498C132.52 51.1498 124.408 54.0685 117.756 55.1818L117.581 55.2105L117.617 56.3285C117.617 56.3285 123.451 56.3963 132.947 52.4744L132.521 51.1498H132.52Z" fill="#EA781F"/>
<path d="M117.653 60.6363H117.656C117.712 60.6363 117.756 60.5901 117.756 60.5343L117.609 43.1047C117.609 43.0489 117.561 43.0035 117.507 43.0043C117.451 43.0043 117.406 43.0505 117.406 43.1063L117.554 60.5358C117.554 60.5909 117.598 60.6355 117.653 60.6363Z" fill="black"/>
<path d="M122.029 41.2978C122.029 41.2978 117.772 45.6519 116.332 46.2923C114.893 46.9327 101.904 42.7731 101.904 42.7731L103.95 39.9421L114.019 40.5561L118.445 36.4069L122.028 41.2978H122.029Z" fill="#F9B59D"/>
<path d="M130.638 45.6256L130.845 45.5594L127.969 36.5704C127.31 34.5129 126.621 33.9698 125.719 33.4275C124.586 32.7457 123.031 32.6763 122.241 33.0025C121.106 33.4714 114.569 39.966 114.43 40.1127C114.388 40.1566 114.39 40.2252 114.434 40.2666C114.478 40.3081 114.546 40.3065 114.588 40.2626C114.621 40.2268 121.232 33.6548 122.325 33.2034C122.971 32.9371 124.472 32.9307 125.607 33.6141C126.469 34.1317 127.127 34.6516 127.762 36.6373L130.639 45.6264L130.638 45.6256Z" fill="black"/>
<path d="M119.882 43.7268C119.907 43.7268 119.933 43.718 119.953 43.6997L125.335 39.0114C125.381 38.9723 125.386 38.9029 125.346 38.8583C125.306 38.8128 125.237 38.8088 125.193 38.8479L119.811 43.5362C119.765 43.5753 119.76 43.6447 119.8 43.6893C119.822 43.7141 119.852 43.7268 119.882 43.7268H119.882Z" fill="black"/>
<path d="M124.218 39.9484H125.63C125.689 39.9484 125.738 39.8998 125.738 39.84C125.738 39.7802 125.689 39.7315 125.63 39.7315H124.218C124.158 39.7315 124.11 39.7802 124.11 39.84C124.11 39.8998 124.158 39.9484 124.218 39.9484Z" fill="black"/>
<path d="M118.67 83.3986C122.735 83.3986 126.595 82.8508 130.163 81.7646C133.363 80.7909 136.336 79.3858 139.001 77.5883C143.542 74.5252 145.642 71.3361 145.663 71.3042L145.712 71.2292L145.648 71.167C145.597 71.1168 140.482 66.1278 138.341 62.6165C138.31 62.5655 138.243 62.5488 138.192 62.5807C138.141 62.6118 138.124 62.6787 138.156 62.7298C140.179 66.0465 144.826 70.663 145.432 71.2587C145.091 71.7508 142.997 74.6328 138.871 77.4136C134.711 80.2175 127.577 83.4863 117.204 83.157C117.146 83.1506 117.094 83.2016 117.092 83.2623C117.089 83.3221 117.137 83.3723 117.197 83.3747C117.691 83.3906 118.183 83.3986 118.671 83.3986H118.67Z" fill="black"/>
<path d="M122.104 80.8396C122.142 80.8396 122.179 80.8197 122.199 80.7838C122.229 80.7312 122.209 80.665 122.157 80.6363L118.814 78.7758C118.761 78.7463 118.695 78.7654 118.666 78.818C118.637 78.8707 118.656 78.9369 118.708 78.9656L122.051 80.8261C122.068 80.8356 122.087 80.8396 122.104 80.8396Z" fill="black"/>
<path d="M120.432 81.2302C120.467 81.2302 120.502 81.2127 120.523 81.1816C120.555 81.1314 120.542 81.0636 120.492 81.0309L117.815 79.2717C117.765 79.239 117.697 79.2525 117.665 79.3028C117.632 79.353 117.645 79.4208 117.696 79.4535L120.372 81.2127C120.39 81.2247 120.411 81.2302 120.432 81.2302Z" fill="black"/>
<path d="M99.0293 39.6613C98.4806 38.8647 99.2446 38.9452 99.2446 38.9452C98.9942 38.4875 99.117 38.3343 99.2637 38.2857C99.3706 38.2506 99.4886 38.2729 99.5803 38.3383C99.8722 38.5449 100.762 39.1789 101.296 39.6087C101.732 39.6853 101.776 38.9285 101.677 38.5106C101.626 38.2953 101.698 37.9779 102.084 38.4117C102.399 38.7658 102.757 39.7626 102.757 39.7626L105.203 40.1311L104.023 43.3345C104.023 43.3345 101.305 42.6136 100.895 42.5083C100.485 42.4022 99.2263 41.5896 98.9009 41.1239C98.3108 40.2786 98.794 40.3639 98.794 40.3639C98.2637 39.4285 99.0293 39.6621 99.0293 39.6621V39.6613Z" fill="#F9B59D"/>
<path d="M99.9701 39.7044C99.9908 39.7116 100.014 39.7044 100.028 39.6861C100.044 39.6638 100.039 39.6319 100.017 39.6151C99.6997 39.3806 99.2867 38.9157 99.2827 38.9109C99.2643 38.8902 99.2316 38.8878 99.2109 38.907C99.1902 38.9253 99.1878 38.958 99.2069 38.9787C99.2244 38.9979 99.6312 39.4564 99.9573 39.6972C99.9621 39.7004 99.9661 39.7028 99.9717 39.7044H99.9701Z" fill="#F07162"/>
<path d="M99.7655 40.3161C99.7886 40.324 99.8142 40.3145 99.8261 40.2921C99.8397 40.2674 99.8309 40.2363 99.8062 40.2227C99.3867 39.9899 99.0709 39.631 99.0677 39.627C99.0494 39.6055 99.0167 39.6039 98.996 39.6223C98.9744 39.6406 98.9728 39.6733 98.9912 39.694C99.0047 39.7092 99.3213 40.0696 99.7567 40.3113C99.7599 40.3129 99.7623 40.3145 99.7655 40.3153V40.3161Z" fill="#F07162"/>
<path d="M99.4239 40.9772C99.4462 40.9844 99.4709 40.9756 99.4837 40.9549C99.498 40.9309 99.4901 40.8998 99.4661 40.8847C99.1097 40.6726 98.8361 40.3344 98.8329 40.3304C98.8154 40.3081 98.7835 40.3049 98.7612 40.3225C98.7396 40.34 98.7356 40.3719 98.7532 40.3942C98.7652 40.4086 99.0411 40.7507 99.4135 40.9716C99.4167 40.9732 99.4199 40.9748 99.4231 40.9764L99.4239 40.9772Z" fill="#F07162"/>
<path d="M158.726 79.2095L158.777 86.8987C158.768 86.9681 158.757 87.0255 158.744 87.0669C158.527 87.7926 158.065 87.559 158.065 87.559L155.127 83.2662L155.981 81.2614C155.981 81.2614 156.451 77.9949 155.517 77.5499L157.932 77.5611C157.932 77.5611 158.7 77.3067 158.725 79.2087L158.726 79.2095Z" fill="#49809E"/>
<path d="M158.776 88.1954C159.065 88.1954 159.299 87.9618 159.299 87.6731V77.845C159.299 77.5564 159.065 77.3227 158.776 77.3227C158.488 77.3227 158.254 77.5564 158.254 77.845V87.6731C158.254 87.9618 158.488 88.1954 158.776 88.1954Z" fill="#B7BEB8"/>
<path d="M118.654 101.862C118.654 102.15 118.888 102.384 119.177 102.384H129.005C129.293 102.384 129.527 102.15 129.527 101.862C129.527 101.573 129.293 101.339 129.005 101.339H119.177C118.888 101.339 118.654 101.573 118.654 101.862Z" fill="#B7BEB8"/>
</svg>
