<svg width="375" height="337" viewBox="0 0 375 337" fill="none" xmlns="http://www.w3.org/2000/svg">
<g filter="url(#filter0_d_37_3807)">
<rect x="25" y="72" width="326" height="145" rx="10" fill="white"/>
<rect x="25.5" y="72.5" width="325" height="144" rx="9.5" stroke="#FD8236"/>
</g>
<path d="M48.792 106V96.512H45.16V94.48H54.6V96.512H50.968V106H48.792ZM57.4806 106.24C56.862 106.24 56.3366 106.123 55.9046 105.888C55.478 105.648 55.1526 105.331 54.9286 104.936C54.71 104.536 54.6006 104.096 54.6006 103.616C54.6006 103.216 54.662 102.851 54.7846 102.52C54.9073 102.189 55.1046 101.899 55.3766 101.648C55.654 101.392 56.0246 101.179 56.4886 101.008C56.8086 100.891 57.19 100.787 57.6326 100.696C58.0753 100.605 58.5766 100.52 59.1366 100.44C59.6966 100.355 60.3126 100.261 60.9846 100.16L60.2006 100.592C60.2006 100.08 60.078 99.704 59.8326 99.464C59.5873 99.224 59.1766 99.104 58.6006 99.104C58.2806 99.104 57.9473 99.1813 57.6006 99.336C57.254 99.4907 57.0113 99.7653 56.8726 100.16L54.9046 99.536C55.1233 98.8213 55.534 98.24 56.1366 97.792C56.7393 97.344 57.5606 97.12 58.6006 97.12C59.3633 97.12 60.0406 97.2373 60.6326 97.472C61.2246 97.7067 61.6726 98.112 61.9766 98.688C62.1473 99.008 62.2486 99.328 62.2806 99.648C62.3126 99.968 62.3286 100.325 62.3286 100.72V106H60.4246V104.224L60.6966 104.592C60.2753 105.173 59.8193 105.595 59.3286 105.856C58.8433 106.112 58.2273 106.24 57.4806 106.24ZM57.9446 104.528C58.3446 104.528 58.6806 104.459 58.9526 104.32C59.23 104.176 59.4486 104.013 59.6086 103.832C59.774 103.651 59.886 103.499 59.9446 103.376C60.0566 103.141 60.1206 102.869 60.1366 102.56C60.158 102.245 60.1686 101.984 60.1686 101.776L60.8086 101.936C60.1633 102.043 59.6406 102.133 59.2406 102.208C58.8406 102.277 58.518 102.341 58.2726 102.4C58.0273 102.459 57.8113 102.523 57.6246 102.592C57.4113 102.677 57.238 102.771 57.1046 102.872C56.9766 102.968 56.8806 103.075 56.8166 103.192C56.758 103.309 56.7286 103.44 56.7286 103.584C56.7286 103.781 56.7766 103.952 56.8726 104.096C56.974 104.235 57.1153 104.341 57.2966 104.416C57.478 104.491 57.694 104.528 57.9446 104.528ZM64.7127 106L64.7287 94.48H66.9367V101.52L69.8647 97.36H72.5527L69.4327 101.68L72.7607 106H69.9287L66.9367 101.84V106H64.7127ZM77.7366 106.24C76.8513 106.24 76.07 106.051 75.3926 105.672C74.7206 105.288 74.1926 104.763 73.8086 104.096C73.43 103.424 73.2406 102.656 73.2406 101.792C73.2406 100.848 73.4273 100.027 73.8006 99.328C74.174 98.6293 74.6886 98.088 75.3446 97.704C76.0006 97.3147 76.7553 97.12 77.6086 97.12C78.5153 97.12 79.286 97.3333 79.9206 97.76C80.5553 98.1867 81.0246 98.7867 81.3286 99.56C81.6326 100.333 81.7393 101.243 81.6486 102.288H79.4966V101.488C79.4966 100.608 79.3553 99.976 79.0726 99.592C78.7953 99.2027 78.3393 99.008 77.7046 99.008C76.9633 99.008 76.4166 99.2347 76.0646 99.688C75.718 100.136 75.5446 100.8 75.5446 101.68C75.5446 102.485 75.718 103.109 76.0646 103.552C76.4166 103.989 76.9313 104.208 77.6086 104.208C78.0353 104.208 78.4006 104.115 78.7046 103.928C79.0086 103.741 79.2406 103.472 79.4006 103.12L81.5766 103.744C81.2513 104.533 80.7366 105.147 80.0326 105.584C79.334 106.021 78.5686 106.24 77.7366 106.24ZM74.8726 102.288V100.672H80.6006V102.288H74.8726ZM91.1861 106.24C90.3168 106.24 89.5541 106.045 88.8981 105.656C88.2421 105.267 87.7301 104.731 87.3621 104.048C86.9995 103.36 86.8181 102.571 86.8181 101.68C86.8181 100.779 87.0048 99.9867 87.3781 99.304C87.7515 98.616 88.2661 98.08 88.9221 97.696C89.5781 97.312 90.3328 97.12 91.1861 97.12C92.0555 97.12 92.8181 97.3147 93.4741 97.704C94.1355 98.0933 94.6501 98.632 95.0181 99.32C95.3861 100.003 95.5701 100.789 95.5701 101.68C95.5701 102.576 95.3835 103.368 95.0101 104.056C94.6421 104.739 94.1275 105.275 93.4661 105.664C92.8101 106.048 92.0501 106.24 91.1861 106.24ZM91.1861 104.208C91.8848 104.208 92.4048 103.973 92.7461 103.504C93.0928 103.029 93.2661 102.421 93.2661 101.68C93.2661 100.912 93.0901 100.299 92.7381 99.84C92.3915 99.3813 91.8741 99.152 91.1861 99.152C90.7115 99.152 90.3221 99.2587 90.0181 99.472C89.7141 99.6853 89.4875 99.9813 89.3381 100.36C89.1941 100.739 89.1221 101.179 89.1221 101.68C89.1221 102.453 89.2955 103.069 89.6421 103.528C89.9941 103.981 90.5088 104.208 91.1861 104.208ZM103.537 106V101.92C103.537 101.723 103.527 101.472 103.505 101.168C103.484 100.859 103.417 100.549 103.305 100.24C103.193 99.9307 103.009 99.672 102.753 99.464C102.503 99.256 102.145 99.152 101.681 99.152C101.495 99.152 101.295 99.1813 101.081 99.24C100.868 99.2987 100.668 99.4133 100.481 99.584C100.295 99.7493 100.14 99.9947 100.017 100.32C99.9 100.645 99.8414 101.077 99.8414 101.616L98.5934 101.024C98.5934 100.341 98.732 99.7013 99.0094 99.104C99.2867 98.5067 99.7027 98.024 100.257 97.656C100.817 97.288 101.521 97.104 102.369 97.104C103.047 97.104 103.599 97.2187 104.025 97.448C104.452 97.6773 104.783 97.968 105.017 98.32C105.257 98.672 105.428 99.04 105.529 99.424C105.631 99.8027 105.692 100.149 105.713 100.464C105.735 100.779 105.745 101.008 105.745 101.152V106H103.537ZM97.6334 106V97.36H99.5694V100.224H99.8414V106H97.6334ZM111.664 106V94.48H116.528C116.64 94.48 116.79 94.4853 116.976 94.496C117.168 94.5013 117.339 94.5173 117.488 94.544C118.176 94.6507 118.739 94.8773 119.176 95.224C119.619 95.5707 119.944 96.008 120.152 96.536C120.36 97.0587 120.464 97.6427 120.464 98.288C120.464 99.2533 120.224 100.08 119.744 100.768C119.264 101.451 118.512 101.872 117.488 102.032L116.528 102.096H113.84V106H111.664ZM118.16 106L115.888 101.312L118.128 100.88L120.624 106H118.16ZM113.84 100.064H116.432C116.544 100.064 116.667 100.059 116.8 100.048C116.934 100.037 117.056 100.016 117.168 99.984C117.462 99.904 117.688 99.7707 117.848 99.584C118.008 99.392 118.118 99.1813 118.176 98.952C118.24 98.7173 118.272 98.496 118.272 98.288C118.272 98.08 118.24 97.8613 118.176 97.632C118.118 97.3973 118.008 97.1867 117.848 97C117.688 96.808 117.462 96.672 117.168 96.592C117.056 96.56 116.934 96.5387 116.8 96.528C116.667 96.5173 116.544 96.512 116.432 96.512H113.84V100.064ZM126.719 106.24C125.834 106.24 125.052 106.051 124.375 105.672C123.703 105.288 123.175 104.763 122.791 104.096C122.412 103.424 122.223 102.656 122.223 101.792C122.223 100.848 122.41 100.027 122.783 99.328C123.156 98.6293 123.671 98.088 124.327 97.704C124.983 97.3147 125.738 97.12 126.591 97.12C127.498 97.12 128.268 97.3333 128.903 97.76C129.538 98.1867 130.007 98.7867 130.311 99.56C130.615 100.333 130.722 101.243 130.631 102.288H128.479V101.488C128.479 100.608 128.338 99.976 128.055 99.592C127.778 99.2027 127.322 99.008 126.687 99.008C125.946 99.008 125.399 99.2347 125.047 99.688C124.7 100.136 124.527 100.8 124.527 101.68C124.527 102.485 124.7 103.109 125.047 103.552C125.399 103.989 125.914 104.208 126.591 104.208C127.018 104.208 127.383 104.115 127.687 103.928C127.991 103.741 128.223 103.472 128.383 103.12L130.559 103.744C130.234 104.533 129.719 105.147 129.015 105.584C128.316 106.021 127.551 106.24 126.719 106.24ZM123.855 102.288V100.672H129.583V102.288H123.855ZM138.411 106V101.92C138.411 101.723 138.4 101.472 138.379 101.168C138.358 100.859 138.291 100.549 138.179 100.24C138.067 99.9307 137.883 99.672 137.627 99.464C137.376 99.256 137.019 99.152 136.555 99.152C136.368 99.152 136.168 99.1813 135.955 99.24C135.742 99.2987 135.542 99.4133 135.355 99.584C135.168 99.7493 135.014 99.9947 134.891 100.32C134.774 100.645 134.715 101.077 134.715 101.616L133.467 101.024C133.467 100.341 133.606 99.7013 133.883 99.104C134.16 98.5067 134.576 98.024 135.131 97.656C135.691 97.288 136.395 97.104 137.243 97.104C137.92 97.104 138.472 97.2187 138.899 97.448C139.326 97.6773 139.656 97.968 139.891 98.32C140.131 98.672 140.302 99.04 140.403 99.424C140.504 99.8027 140.566 100.149 140.587 100.464C140.608 100.779 140.619 101.008 140.619 101.152V106H138.411ZM132.507 106V97.36H134.443V100.224H134.715V106H132.507ZM148.199 106C147.602 106.112 147.015 106.16 146.439 106.144C145.868 106.133 145.356 106.035 144.903 105.848C144.455 105.656 144.114 105.349 143.879 104.928C143.666 104.533 143.554 104.133 143.543 103.728C143.532 103.317 143.527 102.853 143.527 102.336V94.96H145.703V102.208C145.703 102.544 145.706 102.848 145.711 103.12C145.722 103.387 145.778 103.6 145.879 103.76C146.071 104.064 146.378 104.229 146.799 104.256C147.22 104.283 147.687 104.261 148.199 104.192V106ZM142.055 99.04V97.36H148.199V99.04H142.055Z" fill="#222831"/>
<path d="M45.7 125V117.8H48.48C48.55 117.8 48.6283 117.803 48.715 117.81C48.805 117.813 48.895 117.823 48.985 117.84C49.3617 117.897 49.68 118.028 49.94 118.235C50.2033 118.438 50.4017 118.695 50.535 119.005C50.6717 119.315 50.74 119.658 50.74 120.035C50.74 120.578 50.5967 121.05 50.31 121.45C50.0233 121.85 49.6133 122.102 49.08 122.205L48.825 122.265H46.435V125H45.7ZM50.06 125L48.64 122.07L49.345 121.8L50.905 125H50.06ZM46.435 121.565H48.46C48.52 121.565 48.59 121.562 48.67 121.555C48.75 121.548 48.8283 121.537 48.905 121.52C49.1517 121.467 49.3533 121.365 49.51 121.215C49.67 121.065 49.7883 120.887 49.865 120.68C49.945 120.473 49.985 120.258 49.985 120.035C49.985 119.812 49.945 119.597 49.865 119.39C49.7883 119.18 49.67 119 49.51 118.85C49.3533 118.7 49.1517 118.598 48.905 118.545C48.8283 118.528 48.75 118.518 48.67 118.515C48.59 118.508 48.52 118.505 48.46 118.505H46.435V121.565ZM54.4936 125.15C53.9669 125.15 53.5103 125.033 53.1236 124.8C52.7403 124.567 52.4419 124.238 52.2286 123.815C52.0153 123.392 51.9086 122.895 51.9086 122.325C51.9086 121.735 52.0136 121.225 52.2236 120.795C52.4336 120.365 52.7286 120.033 53.1086 119.8C53.4919 119.567 53.9436 119.45 54.4636 119.45C54.9969 119.45 55.4519 119.573 55.8286 119.82C56.2053 120.063 56.4903 120.413 56.6836 120.87C56.8769 121.327 56.9653 121.872 56.9486 122.505H56.1986V122.245C56.1853 121.545 56.0336 121.017 55.7436 120.66C55.4569 120.303 55.0369 120.125 54.4836 120.125C53.9036 120.125 53.4586 120.313 53.1486 120.69C52.8419 121.067 52.6886 121.603 52.6886 122.3C52.6886 122.98 52.8419 123.508 53.1486 123.885C53.4586 124.258 53.8969 124.445 54.4636 124.445C54.8503 124.445 55.1869 124.357 55.4736 124.18C55.7636 124 55.9919 123.742 56.1586 123.405L56.8436 123.67C56.6303 124.14 56.3153 124.505 55.8986 124.765C55.4853 125.022 55.0169 125.15 54.4936 125.15ZM52.4286 122.505V121.89H56.5536V122.505H52.4286ZM62.0117 125V122.245C62.0117 121.945 61.9834 121.67 61.9267 121.42C61.8701 121.167 61.7784 120.947 61.6517 120.76C61.5284 120.57 61.3667 120.423 61.1667 120.32C60.9701 120.217 60.7301 120.165 60.4467 120.165C60.1867 120.165 59.9567 120.21 59.7567 120.3C59.5601 120.39 59.3934 120.52 59.2567 120.69C59.1234 120.857 59.0217 121.06 58.9517 121.3C58.8817 121.54 58.8467 121.813 58.8467 122.12L58.3267 122.005C58.3267 121.452 58.4234 120.987 58.6167 120.61C58.8101 120.233 59.0767 119.948 59.4167 119.755C59.7567 119.562 60.1467 119.465 60.5867 119.465C60.9101 119.465 61.1917 119.515 61.4317 119.615C61.6751 119.715 61.8801 119.85 62.0467 120.02C62.2167 120.19 62.3534 120.385 62.4567 120.605C62.5601 120.822 62.6351 121.053 62.6817 121.3C62.7284 121.543 62.7517 121.787 62.7517 122.03V125H62.0117ZM58.1067 125V119.6H58.7717V120.93H58.8467V125H58.1067ZM67.1892 125C66.8859 125.063 66.5859 125.088 66.2892 125.075C65.9959 125.062 65.7326 124.998 65.4992 124.885C65.2692 124.772 65.0942 124.595 64.9742 124.355C64.8776 124.155 64.8242 123.953 64.8142 123.75C64.8076 123.543 64.8042 123.308 64.8042 123.045V118.1H65.5342V123.015C65.5342 123.242 65.5359 123.432 65.5392 123.585C65.5459 123.735 65.5809 123.868 65.6442 123.985C65.7642 124.208 65.9542 124.342 66.2142 124.385C66.4776 124.428 66.8026 124.418 67.1892 124.355V125ZM63.6492 120.23V119.6H67.1892V120.23H63.6492ZM73.5951 125C73.2917 125.063 72.9917 125.088 72.6951 125.075C72.4017 125.062 72.1384 124.998 71.9051 124.885C71.6751 124.772 71.5001 124.595 71.3801 124.355C71.2834 124.155 71.2301 123.953 71.2201 123.75C71.2134 123.543 71.2101 123.308 71.2101 123.045V118.1H71.9401V123.015C71.9401 123.242 71.9417 123.432 71.9451 123.585C71.9517 123.735 71.9867 123.868 72.0501 123.985C72.1701 124.208 72.3601 124.342 72.6201 124.385C72.8834 124.428 73.2084 124.418 73.5951 124.355V125ZM70.0551 120.23V119.6H73.5951V120.23H70.0551ZM78.759 125V122.245C78.759 121.945 78.7307 121.67 78.674 121.42C78.6173 121.167 78.5257 120.947 78.399 120.76C78.2757 120.57 78.114 120.423 77.914 120.32C77.7173 120.217 77.4773 120.165 77.194 120.165C76.934 120.165 76.704 120.21 76.504 120.3C76.3073 120.39 76.1407 120.52 76.004 120.69C75.8707 120.857 75.769 121.06 75.699 121.3C75.629 121.54 75.594 121.813 75.594 122.12L75.074 122.005C75.074 121.452 75.1707 120.987 75.364 120.61C75.5573 120.233 75.824 119.948 76.164 119.755C76.504 119.562 76.894 119.465 77.334 119.465C77.6573 119.465 77.939 119.515 78.179 119.615C78.4223 119.715 78.6273 119.85 78.794 120.02C78.964 120.19 79.1007 120.385 79.204 120.605C79.3073 120.822 79.3823 121.053 79.429 121.3C79.4757 121.543 79.499 121.787 79.499 122.03V125H78.759ZM74.854 125V117.8H75.519V121.865H75.594V125H74.854ZM83.2815 125.15C82.7548 125.15 82.2982 125.033 81.9115 124.8C81.5282 124.567 81.2298 124.238 81.0165 123.815C80.8032 123.392 80.6965 122.895 80.6965 122.325C80.6965 121.735 80.8015 121.225 81.0115 120.795C81.2215 120.365 81.5165 120.033 81.8965 119.8C82.2798 119.567 82.7315 119.45 83.2515 119.45C83.7848 119.45 84.2398 119.573 84.6165 119.82C84.9932 120.063 85.2782 120.413 85.4715 120.87C85.6648 121.327 85.7532 121.872 85.7365 122.505H84.9865V122.245C84.9732 121.545 84.8215 121.017 84.5315 120.66C84.2448 120.303 83.8248 120.125 83.2715 120.125C82.6915 120.125 82.2465 120.313 81.9365 120.69C81.6298 121.067 81.4765 121.603 81.4765 122.3C81.4765 122.98 81.6298 123.508 81.9365 123.885C82.2465 124.258 82.6848 124.445 83.2515 124.445C83.6382 124.445 83.9748 124.357 84.2615 124.18C84.5515 124 84.7798 123.742 84.9465 123.405L85.6315 123.67C85.4182 124.14 85.1032 124.505 84.6865 124.765C84.2732 125.022 83.8048 125.15 83.2815 125.15ZM81.2165 122.505V121.89H85.3415V122.505H81.2165ZM89.348 118.575V117.75H90.083V118.575H89.348ZM89.348 125V119.6H90.083V125H89.348ZM94.722 125C94.4187 125.063 94.1187 125.088 93.822 125.075C93.5287 125.062 93.2654 124.998 93.032 124.885C92.802 124.772 92.627 124.595 92.507 124.355C92.4104 124.155 92.357 123.953 92.347 123.75C92.3404 123.543 92.337 123.308 92.337 123.045V118.1H93.067V123.015C93.067 123.242 93.0687 123.432 93.072 123.585C93.0787 123.735 93.1137 123.868 93.177 123.985C93.297 124.208 93.487 124.342 93.747 124.385C94.0104 124.428 94.3354 124.418 94.722 124.355V125ZM91.182 120.23V119.6H94.722V120.23H91.182ZM98.0756 125.15C97.549 125.15 97.0923 125.033 96.7056 124.8C96.3223 124.567 96.024 124.238 95.8106 123.815C95.5973 123.392 95.4906 122.895 95.4906 122.325C95.4906 121.735 95.5956 121.225 95.8056 120.795C96.0156 120.365 96.3106 120.033 96.6906 119.8C97.074 119.567 97.5256 119.45 98.0456 119.45C98.579 119.45 99.034 119.573 99.4106 119.82C99.7873 120.063 100.072 120.413 100.266 120.87C100.459 121.327 100.547 121.872 100.531 122.505H99.7806V122.245C99.7673 121.545 99.6156 121.017 99.3256 120.66C99.039 120.303 98.619 120.125 98.0656 120.125C97.4856 120.125 97.0406 120.313 96.7306 120.69C96.424 121.067 96.2706 121.603 96.2706 122.3C96.2706 122.98 96.424 123.508 96.7306 123.885C97.0406 124.258 97.479 124.445 98.0456 124.445C98.4323 124.445 98.769 124.357 99.0556 124.18C99.3456 124 99.574 123.742 99.7406 123.405L100.426 123.67C100.212 124.14 99.8973 124.505 99.4806 124.765C99.0673 125.022 98.599 125.15 98.0756 125.15ZM96.0106 122.505V121.89H100.136V122.505H96.0106ZM108.134 125L108.139 121.455C108.139 121.038 108.022 120.712 107.789 120.475C107.559 120.235 107.265 120.115 106.909 120.115C106.705 120.115 106.507 120.162 106.314 120.255C106.12 120.348 105.96 120.498 105.834 120.705C105.71 120.912 105.649 121.182 105.649 121.515L105.214 121.39C105.204 121.003 105.279 120.665 105.439 120.375C105.602 120.085 105.825 119.86 106.109 119.7C106.395 119.537 106.719 119.455 107.079 119.455C107.622 119.455 108.057 119.623 108.384 119.96C108.71 120.293 108.874 120.745 108.874 121.315L108.869 125H108.134ZM101.689 125V119.6H102.349V120.93H102.429V125H101.689ZM104.919 125L104.924 121.505C104.924 121.075 104.809 120.737 104.579 120.49C104.352 120.24 104.052 120.115 103.679 120.115C103.305 120.115 103.004 120.243 102.774 120.5C102.544 120.753 102.429 121.092 102.429 121.515L101.989 121.275C101.989 120.928 102.07 120.618 102.234 120.345C102.397 120.068 102.62 119.852 102.904 119.695C103.187 119.535 103.509 119.455 103.869 119.455C104.212 119.455 104.517 119.528 104.784 119.675C105.054 119.822 105.265 120.035 105.419 120.315C105.572 120.595 105.649 120.935 105.649 121.335L105.644 125H104.919ZM112.385 125.145C111.752 125.145 111.23 125.008 110.82 124.735C110.414 124.462 110.164 124.082 110.07 123.595L110.82 123.47C110.9 123.777 111.082 124.022 111.365 124.205C111.652 124.385 112.005 124.475 112.425 124.475C112.835 124.475 113.159 124.39 113.395 124.22C113.632 124.047 113.75 123.812 113.75 123.515C113.75 123.348 113.712 123.213 113.635 123.11C113.562 123.003 113.41 122.905 113.18 122.815C112.95 122.725 112.607 122.618 112.15 122.495C111.66 122.362 111.277 122.228 111 122.095C110.724 121.962 110.527 121.808 110.41 121.635C110.294 121.458 110.235 121.243 110.235 120.99C110.235 120.683 110.322 120.415 110.495 120.185C110.669 119.952 110.909 119.772 111.215 119.645C111.522 119.515 111.879 119.45 112.285 119.45C112.692 119.45 113.055 119.517 113.375 119.65C113.699 119.78 113.959 119.963 114.155 120.2C114.352 120.437 114.469 120.712 114.505 121.025L113.755 121.16C113.705 120.843 113.547 120.593 113.28 120.41C113.017 120.223 112.682 120.127 112.275 120.12C111.892 120.11 111.58 120.183 111.34 120.34C111.1 120.493 110.98 120.698 110.98 120.955C110.98 121.098 111.024 121.222 111.11 121.325C111.197 121.425 111.354 121.52 111.58 121.61C111.81 121.7 112.137 121.798 112.56 121.905C113.057 122.032 113.447 122.165 113.73 122.305C114.014 122.445 114.215 122.61 114.335 122.8C114.455 122.99 114.515 123.225 114.515 123.505C114.515 124.015 114.325 124.417 113.945 124.71C113.569 125 113.049 125.145 112.385 125.145ZM119.571 125.15C119.165 125.15 118.823 125.077 118.546 124.93C118.273 124.783 118.068 124.588 117.931 124.345C117.795 124.102 117.726 123.837 117.726 123.55C117.726 123.257 117.785 123.007 117.901 122.8C118.021 122.59 118.183 122.418 118.386 122.285C118.593 122.152 118.831 122.05 119.101 121.98C119.375 121.913 119.676 121.855 120.006 121.805C120.34 121.752 120.665 121.707 120.981 121.67C121.301 121.63 121.581 121.592 121.821 121.555L121.561 121.715C121.571 121.182 121.468 120.787 121.251 120.53C121.035 120.273 120.658 120.145 120.121 120.145C119.751 120.145 119.438 120.228 119.181 120.395C118.928 120.562 118.75 120.825 118.646 121.185L117.931 120.975C118.055 120.492 118.303 120.117 118.676 119.85C119.05 119.583 119.535 119.45 120.131 119.45C120.625 119.45 121.043 119.543 121.386 119.73C121.733 119.913 121.978 120.18 122.121 120.53C122.188 120.687 122.231 120.862 122.251 121.055C122.271 121.248 122.281 121.445 122.281 121.645V125H121.626V123.645L121.816 123.725C121.633 124.188 121.348 124.542 120.961 124.785C120.575 125.028 120.111 125.15 119.571 125.15ZM119.656 124.515C120 124.515 120.3 124.453 120.556 124.33C120.813 124.207 121.02 124.038 121.176 123.825C121.333 123.608 121.435 123.365 121.481 123.095C121.521 122.922 121.543 122.732 121.546 122.525C121.55 122.315 121.551 122.158 121.551 122.055L121.831 122.2C121.581 122.233 121.31 122.267 121.016 122.3C120.726 122.333 120.44 122.372 120.156 122.415C119.876 122.458 119.623 122.51 119.396 122.57C119.243 122.613 119.095 122.675 118.951 122.755C118.808 122.832 118.69 122.935 118.596 123.065C118.506 123.195 118.461 123.357 118.461 123.55C118.461 123.707 118.5 123.858 118.576 124.005C118.656 124.152 118.783 124.273 118.956 124.37C119.133 124.467 119.366 124.515 119.656 124.515ZM127.683 125V122.245C127.683 121.945 127.654 121.67 127.598 121.42C127.541 121.167 127.449 120.947 127.323 120.76C127.199 120.57 127.038 120.423 126.838 120.32C126.641 120.217 126.401 120.165 126.118 120.165C125.858 120.165 125.628 120.21 125.428 120.3C125.231 120.39 125.064 120.52 124.928 120.69C124.794 120.857 124.693 121.06 124.623 121.3C124.553 121.54 124.518 121.813 124.518 122.12L123.998 122.005C123.998 121.452 124.094 120.987 124.288 120.61C124.481 120.233 124.748 119.948 125.088 119.755C125.428 119.562 125.818 119.465 126.258 119.465C126.581 119.465 126.863 119.515 127.103 119.615C127.346 119.715 127.551 119.85 127.718 120.02C127.888 120.19 128.024 120.385 128.128 120.605C128.231 120.822 128.306 121.053 128.353 121.3C128.399 121.543 128.423 121.787 128.423 122.03V125H127.683ZM123.778 125V119.6H124.443V120.93H124.518V125H123.778ZM131.986 125.15C131.483 125.15 131.053 125.025 130.696 124.775C130.339 124.522 130.066 124.18 129.876 123.75C129.686 123.32 129.591 122.835 129.591 122.295C129.591 121.758 129.684 121.275 129.871 120.845C130.061 120.415 130.333 120.075 130.686 119.825C131.039 119.575 131.463 119.45 131.956 119.45C132.463 119.45 132.889 119.573 133.236 119.82C133.583 120.067 133.844 120.405 134.021 120.835C134.201 121.262 134.291 121.748 134.291 122.295C134.291 122.832 134.203 123.317 134.026 123.75C133.849 124.18 133.589 124.522 133.246 124.775C132.903 125.025 132.483 125.15 131.986 125.15ZM132.061 124.465C132.444 124.465 132.761 124.372 133.011 124.185C133.261 123.998 133.448 123.742 133.571 123.415C133.694 123.085 133.756 122.712 133.756 122.295C133.756 121.872 133.694 121.498 133.571 121.175C133.448 120.848 133.261 120.593 133.011 120.41C132.764 120.227 132.453 120.135 132.076 120.135C131.689 120.135 131.369 120.23 131.116 120.42C130.863 120.61 130.674 120.868 130.551 121.195C130.431 121.522 130.371 121.888 130.371 122.295C130.371 122.705 130.433 123.075 130.556 123.405C130.683 123.732 130.871 123.99 131.121 124.18C131.371 124.37 131.684 124.465 132.061 124.465ZM133.756 125V120.935H133.676V117.8H134.416V125H133.756ZM144.661 125L144.666 121.455C144.666 121.038 144.549 120.712 144.316 120.475C144.086 120.235 143.792 120.115 143.436 120.115C143.232 120.115 143.034 120.162 142.841 120.255C142.647 120.348 142.487 120.498 142.361 120.705C142.237 120.912 142.176 121.182 142.176 121.515L141.741 121.39C141.731 121.003 141.806 120.665 141.966 120.375C142.129 120.085 142.352 119.86 142.636 119.7C142.922 119.537 143.246 119.455 143.606 119.455C144.149 119.455 144.584 119.623 144.911 119.96C145.237 120.293 145.401 120.745 145.401 121.315L145.396 125H144.661ZM138.216 125V119.6H138.876V120.93H138.956V125H138.216ZM141.446 125L141.451 121.505C141.451 121.075 141.336 120.737 141.106 120.49C140.879 120.24 140.579 120.115 140.206 120.115C139.832 120.115 139.531 120.243 139.301 120.5C139.071 120.753 138.956 121.092 138.956 121.515L138.516 121.275C138.516 120.928 138.597 120.618 138.761 120.345C138.924 120.068 139.147 119.852 139.431 119.695C139.714 119.535 140.036 119.455 140.396 119.455C140.739 119.455 141.044 119.528 141.311 119.675C141.581 119.822 141.792 120.035 141.946 120.315C142.099 120.595 142.176 120.935 142.176 121.335L142.171 125H141.446ZM148.442 125.15C148.036 125.15 147.694 125.077 147.417 124.93C147.144 124.783 146.939 124.588 146.802 124.345C146.666 124.102 146.597 123.837 146.597 123.55C146.597 123.257 146.656 123.007 146.772 122.8C146.892 122.59 147.054 122.418 147.257 122.285C147.464 122.152 147.702 122.05 147.972 121.98C148.246 121.913 148.547 121.855 148.877 121.805C149.211 121.752 149.536 121.707 149.852 121.67C150.172 121.63 150.452 121.592 150.692 121.555L150.432 121.715C150.442 121.182 150.339 120.787 150.122 120.53C149.906 120.273 149.529 120.145 148.992 120.145C148.622 120.145 148.309 120.228 148.052 120.395C147.799 120.562 147.621 120.825 147.517 121.185L146.802 120.975C146.926 120.492 147.174 120.117 147.547 119.85C147.921 119.583 148.406 119.45 149.002 119.45C149.496 119.45 149.914 119.543 150.257 119.73C150.604 119.913 150.849 120.18 150.992 120.53C151.059 120.687 151.102 120.862 151.122 121.055C151.142 121.248 151.152 121.445 151.152 121.645V125H150.497V123.645L150.687 123.725C150.504 124.188 150.219 124.542 149.832 124.785C149.446 125.028 148.982 125.15 148.442 125.15ZM148.527 124.515C148.871 124.515 149.171 124.453 149.427 124.33C149.684 124.207 149.891 124.038 150.047 123.825C150.204 123.608 150.306 123.365 150.352 123.095C150.392 122.922 150.414 122.732 150.417 122.525C150.421 122.315 150.422 122.158 150.422 122.055L150.702 122.2C150.452 122.233 150.181 122.267 149.887 122.3C149.597 122.333 149.311 122.372 149.027 122.415C148.747 122.458 148.494 122.51 148.267 122.57C148.114 122.613 147.966 122.675 147.822 122.755C147.679 122.832 147.561 122.935 147.467 123.065C147.377 123.195 147.332 123.357 147.332 123.55C147.332 123.707 147.371 123.858 147.447 124.005C147.527 124.152 147.654 124.273 147.827 124.37C148.004 124.467 148.237 124.515 148.527 124.515ZM152.649 125L152.654 117.8H153.394V122.2L155.804 119.6H156.784L154.254 122.3L157.114 125H156.044L153.394 122.4V125H152.649ZM160.002 125.15C159.476 125.15 159.019 125.033 158.632 124.8C158.249 124.567 157.951 124.238 157.737 123.815C157.524 123.392 157.417 122.895 157.417 122.325C157.417 121.735 157.522 121.225 157.732 120.795C157.942 120.365 158.237 120.033 158.617 119.8C159.001 119.567 159.452 119.45 159.972 119.45C160.506 119.45 160.961 119.573 161.337 119.82C161.714 120.063 161.999 120.413 162.192 120.87C162.386 121.327 162.474 121.872 162.457 122.505H161.707V122.245C161.694 121.545 161.542 121.017 161.252 120.66C160.966 120.303 160.546 120.125 159.992 120.125C159.412 120.125 158.967 120.313 158.657 120.69C158.351 121.067 158.197 121.603 158.197 122.3C158.197 122.98 158.351 123.508 158.657 123.885C158.967 124.258 159.406 124.445 159.972 124.445C160.359 124.445 160.696 124.357 160.982 124.18C161.272 124 161.501 123.742 161.667 123.405L162.352 123.67C162.139 124.14 161.824 124.505 161.407 124.765C160.994 125.022 160.526 125.15 160.002 125.15ZM157.937 122.505V121.89H162.062V122.505H157.937ZM166.069 118.575V117.75H166.804V118.575H166.069ZM166.069 125V119.6H166.804V125H166.069ZM171.443 125C171.139 125.063 170.839 125.088 170.543 125.075C170.249 125.062 169.986 124.998 169.753 124.885C169.523 124.772 169.348 124.595 169.228 124.355C169.131 124.155 169.078 123.953 169.068 123.75C169.061 123.543 169.058 123.308 169.058 123.045V118.1H169.788V123.015C169.788 123.242 169.789 123.432 169.793 123.585C169.799 123.735 169.834 123.868 169.898 123.985C170.018 124.208 170.208 124.342 170.468 124.385C170.731 124.428 171.056 124.418 171.443 124.355V125ZM167.903 120.23V119.6H171.443V120.23H167.903ZM52.14 139L52.145 135.455C52.145 135.038 52.0283 134.712 51.795 134.475C51.565 134.235 51.2717 134.115 50.915 134.115C50.7117 134.115 50.5133 134.162 50.32 134.255C50.1267 134.348 49.9667 134.498 49.84 134.705C49.7167 134.912 49.655 135.182 49.655 135.515L49.22 135.39C49.21 135.003 49.285 134.665 49.445 134.375C49.6083 134.085 49.8317 133.86 50.115 133.7C50.4017 133.537 50.725 133.455 51.085 133.455C51.6283 133.455 52.0633 133.623 52.39 133.96C52.7167 134.293 52.88 134.745 52.88 135.315L52.875 139H52.14ZM45.695 139V133.6H46.355V134.93H46.435V139H45.695ZM48.925 139L48.93 135.505C48.93 135.075 48.815 134.737 48.585 134.49C48.3583 134.24 48.0583 134.115 47.685 134.115C47.3117 134.115 47.01 134.243 46.78 134.5C46.55 134.753 46.435 135.092 46.435 135.515L45.995 135.275C45.995 134.928 46.0767 134.618 46.24 134.345C46.4033 134.068 46.6267 133.852 46.91 133.695C47.1933 133.535 47.515 133.455 47.875 133.455C48.2183 133.455 48.5233 133.528 48.79 133.675C49.06 133.822 49.2717 134.035 49.425 134.315C49.5783 134.595 49.655 134.935 49.655 135.335L49.65 139H48.925ZM56.6023 139.15C56.0656 139.15 55.6073 139.028 55.2273 138.785C54.8473 138.542 54.5556 138.205 54.3523 137.775C54.1489 137.345 54.0473 136.852 54.0473 136.295C54.0473 135.728 54.1506 135.232 54.3573 134.805C54.5639 134.378 54.8573 134.047 55.2373 133.81C55.6206 133.57 56.0756 133.45 56.6023 133.45C57.1423 133.45 57.6023 133.572 57.9823 133.815C58.3656 134.055 58.6573 134.39 58.8573 134.82C59.0606 135.247 59.1623 135.738 59.1623 136.295C59.1623 136.862 59.0606 137.36 58.8573 137.79C58.6539 138.217 58.3606 138.55 57.9773 138.79C57.5939 139.03 57.1356 139.15 56.6023 139.15ZM56.6023 138.445C57.2023 138.445 57.6489 138.247 57.9423 137.85C58.2356 137.45 58.3823 136.932 58.3823 136.295C58.3823 135.642 58.2339 135.122 57.9373 134.735C57.6439 134.348 57.1989 134.155 56.6023 134.155C56.1989 134.155 55.8656 134.247 55.6023 134.43C55.3423 134.61 55.1473 134.862 55.0173 135.185C54.8906 135.505 54.8273 135.875 54.8273 136.295C54.8273 136.945 54.9773 137.467 55.2773 137.86C55.5773 138.25 56.0189 138.445 56.6023 138.445ZM60.4652 139V133.6H61.1252V134.9L60.9952 134.73C61.0552 134.57 61.1336 134.423 61.2302 134.29C61.3269 134.153 61.4319 134.042 61.5452 133.955C61.6852 133.832 61.8486 133.738 62.0352 133.675C62.2219 133.608 62.4102 133.57 62.6002 133.56C62.7902 133.547 62.9636 133.56 63.1202 133.6V134.29C62.9236 134.24 62.7086 134.228 62.4752 134.255C62.2419 134.282 62.0269 134.375 61.8302 134.535C61.6502 134.675 61.5152 134.843 61.4252 135.04C61.3352 135.233 61.2752 135.44 61.2452 135.66C61.2152 135.877 61.2002 136.092 61.2002 136.305V139H60.4652ZM66.4561 139.15C65.9294 139.15 65.4728 139.033 65.0861 138.8C64.7028 138.567 64.4044 138.238 64.1911 137.815C63.9778 137.392 63.8711 136.895 63.8711 136.325C63.8711 135.735 63.9761 135.225 64.1861 134.795C64.3961 134.365 64.6911 134.033 65.0711 133.8C65.4544 133.567 65.9061 133.45 66.4261 133.45C66.9594 133.45 67.4144 133.573 67.7911 133.82C68.1678 134.063 68.4528 134.413 68.6461 134.87C68.8394 135.327 68.9278 135.872 68.9111 136.505H68.1611V136.245C68.1478 135.545 67.9961 135.017 67.7061 134.66C67.4194 134.303 66.9994 134.125 66.4461 134.125C65.8661 134.125 65.4211 134.313 65.1111 134.69C64.8044 135.067 64.6511 135.603 64.6511 136.3C64.6511 136.98 64.8044 137.508 65.1111 137.885C65.4211 138.258 65.8594 138.445 66.4261 138.445C66.8128 138.445 67.1494 138.357 67.4361 138.18C67.7261 138 67.9544 137.742 68.1211 137.405L68.8061 137.67C68.5928 138.14 68.2778 138.505 67.8611 138.765C67.4478 139.022 66.9794 139.15 66.4561 139.15ZM64.3911 136.505V135.89H68.5161V136.505H64.3911ZM74.7077 139.15C74.181 139.15 73.7243 139.033 73.3377 138.8C72.9543 138.567 72.656 138.238 72.4427 137.815C72.2293 137.392 72.1227 136.895 72.1227 136.325C72.1227 135.735 72.2277 135.225 72.4377 134.795C72.6477 134.365 72.9427 134.033 73.3227 133.8C73.706 133.567 74.1577 133.45 74.6777 133.45C75.211 133.45 75.666 133.573 76.0427 133.82C76.4193 134.063 76.7043 134.413 76.8977 134.87C77.091 135.327 77.1793 135.872 77.1627 136.505H76.4127V136.245C76.3993 135.545 76.2477 135.017 75.9577 134.66C75.671 134.303 75.251 134.125 74.6977 134.125C74.1177 134.125 73.6727 134.313 73.3627 134.69C73.056 135.067 72.9027 135.603 72.9027 136.3C72.9027 136.98 73.056 137.508 73.3627 137.885C73.6727 138.258 74.111 138.445 74.6777 138.445C75.0643 138.445 75.401 138.357 75.6877 138.18C75.9777 138 76.206 137.742 76.3727 137.405L77.0577 137.67C76.8443 138.14 76.5293 138.505 76.1127 138.765C75.6993 139.022 75.231 139.15 74.7077 139.15ZM72.6427 136.505V135.89H76.7677V136.505H72.6427ZM79.9196 139.15C79.5129 139.15 79.1713 139.077 78.8946 138.93C78.6213 138.783 78.4163 138.588 78.2796 138.345C78.1429 138.102 78.0746 137.837 78.0746 137.55C78.0746 137.257 78.1329 137.007 78.2496 136.8C78.3696 136.59 78.5313 136.418 78.7346 136.285C78.9413 136.152 79.1796 136.05 79.4496 135.98C79.7229 135.913 80.0246 135.855 80.3546 135.805C80.6879 135.752 81.0129 135.707 81.3296 135.67C81.6496 135.63 81.9296 135.592 82.1696 135.555L81.9096 135.715C81.9196 135.182 81.8163 134.787 81.5996 134.53C81.3829 134.273 81.0063 134.145 80.4696 134.145C80.0996 134.145 79.7863 134.228 79.5296 134.395C79.2763 134.562 79.0979 134.825 78.9946 135.185L78.2796 134.975C78.4029 134.492 78.6513 134.117 79.0246 133.85C79.3979 133.583 79.8829 133.45 80.4796 133.45C80.9729 133.45 81.3913 133.543 81.7346 133.73C82.0813 133.913 82.3263 134.18 82.4696 134.53C82.5363 134.687 82.5796 134.862 82.5996 135.055C82.6196 135.248 82.6296 135.445 82.6296 135.645V139H81.9746V137.645L82.1646 137.725C81.9813 138.188 81.6963 138.542 81.3096 138.785C80.9229 139.028 80.4596 139.15 79.9196 139.15ZM80.0046 138.515C80.3479 138.515 80.6479 138.453 80.9046 138.33C81.1613 138.207 81.3679 138.038 81.5246 137.825C81.6813 137.608 81.7829 137.365 81.8296 137.095C81.8696 136.922 81.8913 136.732 81.8946 136.525C81.8979 136.315 81.8996 136.158 81.8996 136.055L82.1796 136.2C81.9296 136.233 81.6579 136.267 81.3646 136.3C81.0746 136.333 80.7879 136.372 80.5046 136.415C80.2246 136.458 79.9713 136.51 79.7446 136.57C79.5913 136.613 79.4429 136.675 79.2996 136.755C79.1563 136.832 79.0379 136.935 78.9446 137.065C78.8546 137.195 78.8096 137.357 78.8096 137.55C78.8096 137.707 78.8479 137.858 78.9246 138.005C79.0046 138.152 79.1313 138.273 79.3046 138.37C79.4813 138.467 79.7146 138.515 80.0046 138.515ZM86.1463 139.145C85.5129 139.145 84.9913 139.008 84.5813 138.735C84.1746 138.462 83.9246 138.082 83.8313 137.595L84.5813 137.47C84.6613 137.777 84.8429 138.022 85.1263 138.205C85.4129 138.385 85.7663 138.475 86.1863 138.475C86.5963 138.475 86.9196 138.39 87.1563 138.22C87.3929 138.047 87.5113 137.812 87.5113 137.515C87.5113 137.348 87.4729 137.213 87.3963 137.11C87.3229 137.003 87.1713 136.905 86.9413 136.815C86.7113 136.725 86.3679 136.618 85.9113 136.495C85.4213 136.362 85.0379 136.228 84.7613 136.095C84.4846 135.962 84.2879 135.808 84.1713 135.635C84.0546 135.458 83.9963 135.243 83.9963 134.99C83.9963 134.683 84.0829 134.415 84.2563 134.185C84.4296 133.952 84.6696 133.772 84.9763 133.645C85.2829 133.515 85.6396 133.45 86.0463 133.45C86.4529 133.45 86.8163 133.517 87.1363 133.65C87.4596 133.78 87.7196 133.963 87.9163 134.2C88.1129 134.437 88.2296 134.712 88.2663 135.025L87.5163 135.16C87.4663 134.843 87.3079 134.593 87.0413 134.41C86.7779 134.223 86.4429 134.127 86.0363 134.12C85.6529 134.11 85.3413 134.183 85.1013 134.34C84.8613 134.493 84.7413 134.698 84.7413 134.955C84.7413 135.098 84.7846 135.222 84.8713 135.325C84.9579 135.425 85.1146 135.52 85.3413 135.61C85.5713 135.7 85.8979 135.798 86.3213 135.905C86.8179 136.032 87.2079 136.165 87.4913 136.305C87.7746 136.445 87.9763 136.61 88.0963 136.8C88.2163 136.99 88.2763 137.225 88.2763 137.505C88.2763 138.015 88.0863 138.417 87.7063 138.71C87.3296 139 86.8096 139.145 86.1463 139.145ZM90.1598 141.4L91.2048 138.565L91.2198 139.405L88.8548 133.6H89.6348L91.5748 138.455H91.2548L93.0448 133.6H93.7948L90.8948 141.4H90.1598Z" fill="#7D7F88"/>
<g filter="url(#filter1_d_37_3807)">
<rect x="45" y="156" width="84" height="25" rx="12.5" fill="#FD8236"/>
<path d="M59.4755 171.467C59.0529 171.467 58.6723 171.397 58.3337 171.257C57.9979 171.114 57.7195 170.913 57.4984 170.652C57.2802 170.392 57.1375 170.083 57.0703 169.725L57.6999 169.62C57.8007 170.012 58.0133 170.319 58.3379 170.543C58.6626 170.764 59.0501 170.875 59.5007 170.875C59.7973 170.875 60.0631 170.829 60.2982 170.736C60.5332 170.641 60.7179 170.507 60.8523 170.333C60.9866 170.16 61.0537 169.954 61.0537 169.716C61.0537 169.56 61.0258 169.427 60.9698 169.318C60.9138 169.206 60.8397 169.113 60.7473 169.041C60.655 168.968 60.5542 168.908 60.4451 168.86C60.336 168.81 60.2296 168.769 60.1261 168.738L58.594 168.281C58.4093 168.228 58.2386 168.161 58.0819 168.079C57.9252 167.995 57.7881 167.896 57.6705 167.781C57.5558 167.664 57.4663 167.527 57.4019 167.37C57.3375 167.213 57.3054 167.034 57.3054 166.833C57.3054 166.491 57.3949 166.196 57.574 165.947C57.7531 165.698 57.9979 165.506 58.3086 165.372C58.6192 165.238 58.9732 165.172 59.3705 165.175C59.7735 165.175 60.1331 165.246 60.4493 165.389C60.7683 165.531 61.0314 165.736 61.2384 166.002C61.4455 166.265 61.5826 166.577 61.6498 166.938L61.0034 167.055C60.9614 166.792 60.8649 166.564 60.7137 166.371C60.5626 166.178 60.3695 166.03 60.1345 165.926C59.9022 165.82 59.6462 165.765 59.3663 165.762C59.0949 165.762 58.8528 165.808 58.6402 165.901C58.4303 165.99 58.2638 166.114 58.1407 166.27C58.0175 166.427 57.956 166.606 57.956 166.808C57.956 167.012 58.0119 167.175 58.1239 167.299C58.2386 167.422 58.3785 167.518 58.5436 167.588C58.7115 167.658 58.8738 167.716 59.0305 167.76L60.2142 168.109C60.3374 168.142 60.4815 168.191 60.6466 168.256C60.8145 168.317 60.9768 168.407 61.1335 168.524C61.293 168.639 61.4245 168.79 61.5281 168.978C61.6316 169.165 61.6834 169.403 61.6834 169.691C61.6834 169.971 61.6274 170.221 61.5155 170.443C61.4063 170.664 61.251 170.85 61.0495 171.001C60.8509 171.152 60.6172 171.267 60.3486 171.345C60.0827 171.426 59.7917 171.467 59.4755 171.467ZM65.1271 171.341C64.8725 171.394 64.6206 171.415 64.3715 171.404C64.1253 171.393 63.9042 171.339 63.7083 171.244C63.5153 171.149 63.3683 171.001 63.2676 170.799C63.1864 170.631 63.1417 170.462 63.1333 170.291C63.1277 170.118 63.1249 169.921 63.1249 169.7V165.548H63.7377V169.674C63.7377 169.865 63.7391 170.024 63.7419 170.153C63.7475 170.279 63.7769 170.391 63.8301 170.489C63.9308 170.676 64.0903 170.788 64.3086 170.825C64.5297 170.861 64.8025 170.853 65.1271 170.799V171.341ZM62.1553 167.336V166.808H65.1271V167.336H62.1553ZM67.4264 171.467C67.085 171.467 66.7982 171.405 66.5659 171.282C66.3365 171.159 66.1644 170.995 66.0496 170.791C65.9349 170.587 65.8775 170.364 65.8775 170.124C65.8775 169.877 65.9265 169.667 66.0244 169.494C66.1252 169.318 66.2609 169.174 66.4316 169.062C66.6051 168.95 66.8052 168.864 67.0319 168.806C67.2613 168.75 67.5146 168.701 67.7916 168.659C68.0714 168.614 68.3443 168.576 68.6101 168.545C68.8788 168.512 69.1138 168.48 69.3153 168.449L69.097 168.583C69.1054 168.135 69.0187 167.804 68.8368 167.588C68.6549 167.373 68.3387 167.265 67.8881 167.265C67.5775 167.265 67.3145 167.335 67.099 167.475C66.8863 167.615 66.7366 167.836 66.6499 168.138L66.0496 167.962C66.1532 167.556 66.3617 167.241 66.6751 167.017C66.9885 166.794 67.3956 166.682 67.8965 166.682C68.3107 166.682 68.6619 166.76 68.9501 166.917C69.2411 167.071 69.4468 167.294 69.5672 167.588C69.6231 167.72 69.6595 167.867 69.6763 168.029C69.6931 168.191 69.7015 168.356 69.7015 168.524V171.341H69.1516V170.203L69.3111 170.27C69.1572 170.659 68.9179 170.956 68.5933 171.16C68.2687 171.365 67.8798 171.467 67.4264 171.467ZM67.4978 170.934C67.786 170.934 68.0379 170.882 68.2533 170.778C68.4688 170.675 68.6423 170.533 68.7738 170.354C68.9053 170.173 68.9907 169.968 69.0299 169.742C69.0635 169.596 69.0816 169.437 69.0844 169.263C69.0872 169.087 69.0886 168.955 69.0886 168.868L69.3237 168.99C69.1138 169.018 68.8858 169.046 68.6395 169.074C68.396 169.102 68.1554 169.134 67.9175 169.171C67.6825 169.207 67.4698 169.25 67.2795 169.301C67.1508 169.337 67.0263 169.389 66.9059 169.456C66.7856 169.52 66.6863 169.607 66.6079 169.716C66.5323 169.826 66.4946 169.961 66.4946 170.124C66.4946 170.255 66.5268 170.382 66.5911 170.506C66.6583 170.629 66.7646 170.731 66.9101 170.812C67.0584 170.893 67.2543 170.934 67.4978 170.934ZM70.9033 171.341V166.808H71.4574V167.899L71.3483 167.756C71.3986 167.622 71.4644 167.499 71.5456 167.387C71.6267 167.272 71.7149 167.178 71.81 167.106C71.9275 167.002 72.0647 166.924 72.2214 166.87C72.3781 166.814 72.5362 166.782 72.6957 166.774C72.8552 166.763 73.0007 166.774 73.1322 166.808V167.387C72.9671 167.345 72.7866 167.335 72.5907 167.357C72.3949 167.38 72.2144 167.458 72.0493 167.592C71.8982 167.71 71.7848 167.851 71.7093 168.016C71.6337 168.179 71.5833 168.352 71.5582 168.537C71.533 168.719 71.5204 168.899 71.5204 169.078V171.341H70.9033ZM76.5058 171.341C76.2511 171.394 75.9993 171.415 75.7502 171.404C75.504 171.393 75.2829 171.339 75.087 171.244C74.8939 171.149 74.747 171.001 74.6463 170.799C74.5651 170.631 74.5204 170.462 74.512 170.291C74.5064 170.118 74.5036 169.921 74.5036 169.7V165.548H75.1164V169.674C75.1164 169.865 75.1178 170.024 75.1206 170.153C75.1262 170.279 75.1556 170.391 75.2087 170.489C75.3095 170.676 75.469 170.788 75.6873 170.825C75.9083 170.861 76.1812 170.853 76.5058 170.799V171.341ZM73.5339 167.336V166.808H76.5058V167.336H73.5339ZM79.3818 171.341V165.296H79.9988V170.749H82.8699V171.341H79.3818ZM85.6129 171.467C85.1708 171.467 84.7874 171.369 84.4628 171.173C84.141 170.977 83.8906 170.701 83.7115 170.346C83.5324 169.991 83.4428 169.574 83.4428 169.095C83.4428 168.6 83.531 168.172 83.7073 167.811C83.8836 167.45 84.1312 167.171 84.4502 166.975C84.772 166.78 85.1512 166.682 85.5878 166.682C86.0355 166.682 86.4175 166.785 86.7337 166.992C87.0499 167.196 87.2892 167.49 87.4515 167.874C87.6138 168.257 87.6879 168.715 87.6739 169.246H87.0443V169.028C87.0331 168.44 86.9058 167.997 86.6623 167.697C86.4217 167.398 86.0691 167.248 85.6046 167.248C85.1176 167.248 84.7441 167.406 84.4838 167.723C84.2264 168.039 84.0976 168.489 84.0976 169.074C84.0976 169.645 84.2264 170.089 84.4838 170.405C84.7441 170.718 85.112 170.875 85.5878 170.875C85.9124 170.875 86.195 170.801 86.4357 170.652C86.6791 170.501 86.8708 170.284 87.0107 170.002L87.5858 170.224C87.4067 170.619 87.1422 170.925 86.7924 171.144C86.4455 171.359 86.0523 171.467 85.6129 171.467ZM83.8794 169.246V168.73H87.3423V169.246H83.8794ZM91.8657 171.341V169.028C91.8657 168.776 91.8419 168.545 91.7943 168.335C91.7467 168.123 91.6698 167.938 91.5634 167.781C91.4599 167.622 91.3242 167.499 91.1563 167.412C90.9912 167.325 90.7897 167.282 90.5518 167.282C90.3336 167.282 90.1405 167.32 89.9726 167.395C89.8075 167.471 89.6676 167.58 89.5528 167.723C89.4409 167.862 89.3556 168.033 89.2968 168.235C89.238 168.436 89.2086 168.666 89.2086 168.923L88.7721 168.827C88.7721 168.362 88.8533 167.972 89.0156 167.655C89.1779 167.339 89.4017 167.1 89.6872 166.938C89.9726 166.775 90.3 166.694 90.6694 166.694C90.9408 166.694 91.1773 166.736 91.3788 166.82C91.583 166.904 91.7551 167.017 91.8951 167.16C92.0378 167.303 92.1525 167.467 92.2392 167.651C92.326 167.833 92.389 168.028 92.4281 168.235C92.4673 168.439 92.4869 168.643 92.4869 168.847V171.341H91.8657ZM88.5874 171.341V166.808H89.1457V167.924H89.2086V171.341H88.5874ZM95.4195 171.467C94.9969 171.467 94.6359 171.362 94.3365 171.152C94.0371 170.939 93.8076 170.652 93.6481 170.291C93.4886 169.93 93.4088 169.523 93.4088 169.07C93.4088 168.619 93.4872 168.214 93.6439 167.853C93.8034 167.492 94.0315 167.206 94.3281 166.996C94.6247 166.787 94.9801 166.682 95.3943 166.682C95.8196 166.682 96.1778 166.785 96.4688 166.992C96.7599 167.199 96.9795 167.483 97.1278 167.844C97.279 168.202 97.3545 168.611 97.3545 169.07C97.3545 169.52 97.2804 169.928 97.132 170.291C96.9837 170.652 96.7655 170.939 96.4772 171.152C96.189 171.362 95.8364 171.467 95.4195 171.467ZM95.4824 170.892C95.8042 170.892 96.0701 170.813 96.28 170.657C96.4898 170.5 96.6465 170.284 96.7501 170.01C96.8536 169.733 96.9054 169.42 96.9054 169.07C96.9054 168.715 96.8536 168.401 96.7501 168.13C96.6465 167.855 96.4898 167.641 96.28 167.488C96.0729 167.334 95.8112 167.257 95.495 167.257C95.1704 167.257 94.9018 167.336 94.6891 167.496C94.4764 167.655 94.3183 167.872 94.2148 168.147C94.114 168.421 94.0637 168.729 94.0637 169.07C94.0637 169.414 94.1154 169.725 94.219 170.002C94.3253 170.276 94.4834 170.493 94.6933 170.652C94.9032 170.812 95.1662 170.892 95.4824 170.892ZM96.9054 171.341V167.928H96.8382V165.296H97.4595V171.341H96.9054ZM98.8301 165.947V165.254H99.4472V165.947H98.8301ZM98.8301 171.341V166.808H99.4472V171.341H98.8301ZM104.089 171.341V169.028C104.089 168.776 104.065 168.545 104.017 168.335C103.97 168.123 103.893 167.938 103.787 167.781C103.683 167.622 103.547 167.499 103.379 167.412C103.214 167.325 103.013 167.282 102.775 167.282C102.557 167.282 102.364 167.32 102.196 167.395C102.031 167.471 101.891 167.58 101.776 167.723C101.664 167.862 101.579 168.033 101.52 168.235C101.461 168.436 101.432 168.666 101.432 168.923L100.995 168.827C100.995 168.362 101.076 167.972 101.239 167.655C101.401 167.339 101.625 167.1 101.91 166.938C102.196 166.775 102.523 166.694 102.892 166.694C103.164 166.694 103.4 166.736 103.602 166.82C103.806 166.904 103.978 167.017 104.118 167.16C104.261 167.303 104.376 167.467 104.462 167.651C104.549 167.833 104.612 168.028 104.651 168.235C104.69 168.439 104.71 168.643 104.71 168.847V171.341H104.089ZM100.811 171.341V166.808H101.369V167.924H101.432V171.341H100.811ZM107.709 173.482C107.477 173.482 107.247 173.447 107.021 173.377C106.797 173.309 106.59 173.202 106.4 173.053C106.209 172.908 106.05 172.718 105.921 172.483L106.479 172.172C106.605 172.424 106.781 172.604 107.008 172.713C107.238 172.825 107.471 172.881 107.709 172.881C108.037 172.881 108.301 172.82 108.502 172.697C108.707 172.576 108.855 172.397 108.947 172.159C109.04 171.921 109.085 171.625 109.082 171.269V170.061H109.153V166.808H109.703V171.278C109.703 171.407 109.699 171.53 109.69 171.647C109.685 171.768 109.672 171.885 109.653 172C109.599 172.338 109.489 172.617 109.321 172.835C109.156 173.053 108.938 173.216 108.666 173.322C108.398 173.428 108.079 173.482 107.709 173.482ZM107.667 171.467C107.245 171.467 106.884 171.362 106.584 171.152C106.285 170.939 106.055 170.652 105.896 170.291C105.736 169.93 105.657 169.523 105.657 169.07C105.657 168.619 105.735 168.214 105.892 167.853C106.051 167.492 106.279 167.206 106.576 166.996C106.872 166.787 107.228 166.682 107.642 166.682C108.067 166.682 108.426 166.785 108.717 166.992C109.008 167.199 109.227 167.483 109.376 167.844C109.527 168.202 109.602 168.611 109.602 169.07C109.602 169.52 109.528 169.928 109.38 170.291C109.231 170.652 109.013 170.939 108.725 171.152C108.437 171.362 108.084 171.467 107.667 171.467ZM107.73 170.892C108.052 170.892 108.318 170.813 108.528 170.657C108.738 170.5 108.894 170.284 108.998 170.01C109.101 169.733 109.153 169.42 109.153 169.07C109.153 168.715 109.101 168.401 108.998 168.13C108.894 167.855 108.738 167.641 108.528 167.488C108.321 167.334 108.059 167.257 107.743 167.257C107.418 167.257 107.149 167.336 106.937 167.496C106.724 167.655 106.566 167.872 106.462 168.147C106.362 168.421 106.311 168.729 106.311 169.07C106.311 169.414 106.363 169.725 106.467 170.002C106.573 170.276 106.731 170.493 106.941 170.652C107.151 170.812 107.414 170.892 107.73 170.892Z" fill="white"/>
</g>
<defs>
<filter id="filter0_d_37_3807" x="-71" y="0" width="518" height="337" filterUnits="userSpaceOnUse" color-interpolation-filters="sRGB">
<feFlood flood-opacity="0" result="BackgroundImageFix"/>
<feColorMatrix in="SourceAlpha" type="matrix" values="0 0 0 0 0 0 0 0 0 0 0 0 0 0 0 0 0 0 127 0" result="hardAlpha"/>
<feOffset dy="24"/>
<feGaussianBlur stdDeviation="48"/>
<feComposite in2="hardAlpha" operator="out"/>
<feColorMatrix type="matrix" values="0 0 0 0 0.2625 0 0 0 0 0.2625 0 0 0 0 0.2625 0 0 0 0.15 0"/>
<feBlend mode="normal" in2="BackgroundImageFix" result="effect1_dropShadow_37_3807"/>
<feBlend mode="normal" in="SourceGraphic" in2="effect1_dropShadow_37_3807" result="shape"/>
</filter>
<filter id="filter1_d_37_3807" x="13.5186" y="135.012" width="146.963" height="87.9627" filterUnits="userSpaceOnUse" color-interpolation-filters="sRGB">
<feFlood flood-opacity="0" result="BackgroundImageFix"/>
<feColorMatrix in="SourceAlpha" type="matrix" values="0 0 0 0 0 0 0 0 0 0 0 0 0 0 0 0 0 0 127 0" result="hardAlpha"/>
<feOffset dy="10.4938"/>
<feGaussianBlur stdDeviation="15.7407"/>
<feComposite in2="hardAlpha" operator="out"/>
<feColorMatrix type="matrix" values="0 0 0 0 0.15 0 0 0 0 0.15 0 0 0 0 0.15 0 0 0 0.16 0"/>
<feBlend mode="normal" in2="BackgroundImageFix" result="effect1_dropShadow_37_3807"/>
<feBlend mode="normal" in="SourceGraphic" in2="effect1_dropShadow_37_3807" result="shape"/>
</filter>
</defs>
</svg>
