<svg width="21" height="23" viewBox="0 0 21 23" fill="none" xmlns="http://www.w3.org/2000/svg">
<path d="M19.2432 19.2448L17.5272 19.7047L16.5142 15.9237C17.3155 15.5225 17.9538 14.8571 18.3217 14.04C18.6895 13.2228 18.7643 12.3038 18.5335 11.4379C17.3085 6.86845 14.7632 2.86095 14.6553 2.69275C14.5675 2.5555 14.4388 2.44928 14.2874 2.3891C14.136 2.32891 13.9695 2.3178 13.8114 2.35734L11.6861 2.88914C11.6861 2.08706 11.6686 1.58345 11.6657 1.52025C11.6579 1.35317 11.5965 1.19304 11.4906 1.06361C11.3846 0.934189 11.2398 0.84237 11.0775 0.80178L7.96639 0.0240019C7.80832 -0.0155289 7.64183 -0.00441887 7.49041 0.0557637C7.33899 0.115946 7.2103 0.222162 7.1225 0.359419C7.01458 0.527613 4.46931 4.53317 3.24431 9.10942C3.01344 9.97531 3.08823 10.8943 3.45608 11.7115C3.82393 12.5287 4.46233 13.194 5.26361 13.5953L4.25056 17.3714L2.53458 16.9115C2.33527 16.8581 2.12291 16.8861 1.94423 16.9893C1.76555 17.0925 1.63518 17.2625 1.58181 17.4618C1.52843 17.6611 1.55642 17.8735 1.65962 18.0521C1.76281 18.2308 1.93277 18.3612 2.13208 18.4146L6.79875 19.6648C6.86445 19.6821 6.93207 19.6909 7 19.6911C7.18886 19.6913 7.37134 19.6228 7.5134 19.4984C7.65545 19.3739 7.74738 19.202 7.77202 19.0148C7.79666 18.8275 7.75233 18.6377 7.64731 18.4808C7.54228 18.3238 7.38373 18.2104 7.20125 18.1618L5.75264 17.7729L6.76569 13.9919C6.84444 13.9968 6.92222 13.9997 7 13.9997C7.77162 13.9975 8.52526 13.7665 9.16557 13.336C9.80589 12.9054 10.3041 12.2946 10.5972 11.5808C10.7119 12.2001 10.85 12.8272 11.0162 13.4494C11.2388 14.2769 11.728 15.008 12.4079 15.5295C13.0879 16.0509 13.9209 16.3337 14.7778 16.334C14.8556 16.334 14.9333 16.334 15.0121 16.3262L16.0251 20.1072L14.5765 20.4961C14.3949 20.5454 14.2373 20.659 14.133 20.8157C14.0287 20.9724 13.9848 21.1616 14.0094 21.3482C14.0339 21.5348 14.1253 21.7062 14.2666 21.8305C14.408 21.9549 14.5896 22.0238 14.7778 22.0244C14.8457 22.0242 14.9133 22.0154 14.979 21.9982L19.6457 20.7479C19.845 20.6945 20.015 20.5641 20.1182 20.3855C20.2214 20.2068 20.2493 19.9944 20.196 19.7951C20.1426 19.5958 20.0122 19.4258 19.8335 19.3226C19.6549 19.2195 19.4425 19.1915 19.2432 19.2448ZM13.6325 4.00525C13.9028 4.4622 14.3354 5.22442 14.8186 6.18886L11.6667 6.97831C11.6258 6.00608 11.6297 5.204 11.6424 4.66539C11.6424 4.61095 11.6472 4.5565 11.6501 4.50206L13.6325 4.00525ZM8.14528 1.67192L10.1257 2.16678C10.1315 2.58289 10.1257 3.20414 10.1053 3.96247C10.0994 4.08011 10.0897 4.27261 10.0829 4.53025C10.0829 4.62747 10.0732 4.7247 10.0674 4.82192L6.87264 4.02859C7.38889 2.98247 7.85944 2.15511 8.14528 1.67192ZM9.25264 10.7223C9.08544 11.313 8.69224 11.8139 8.15825 12.1166C7.62426 12.4193 6.99249 12.4994 6.39985 12.3396C5.80721 12.1797 5.30143 11.7928 4.99211 11.2626C4.6828 10.7324 4.59486 10.1016 4.74736 9.50706C5.13032 8.12423 5.61784 6.77251 6.20569 5.46359L9.95653 6.40081C9.82564 7.85631 9.5904 9.30053 9.25264 10.7223ZM12.5232 13.0479C12.1423 11.5751 11.8883 10.0724 11.7639 8.55622L15.4982 7.62289C16.1187 8.9866 16.6307 10.3971 17.0294 11.8414C17.1138 12.1389 17.1383 12.4503 17.1012 12.7574C17.0642 13.0644 16.9665 13.3611 16.8138 13.63C16.6611 13.899 16.4565 14.135 16.2118 14.3241C15.9671 14.5133 15.6872 14.6519 15.3885 14.732C15.0897 14.812 14.778 14.8318 14.4715 14.7903C14.1651 14.7488 13.8699 14.6468 13.6032 14.4902C13.3364 14.3336 13.1035 14.1255 12.918 13.8781C12.7324 13.6306 12.5979 13.3488 12.5222 13.0489L12.5232 13.0479ZM16.4121 2.68206C16.3663 2.59066 16.339 2.49113 16.3317 2.38916C16.3244 2.2872 16.3373 2.1848 16.3697 2.08782C16.402 1.99085 16.4531 1.90119 16.5201 1.82399C16.5871 1.74679 16.6687 1.68355 16.7601 1.63789L18.3157 0.860113C18.4071 0.814406 18.5066 0.787152 18.6086 0.779906C18.7105 0.772661 18.8129 0.785567 18.9099 0.817887C19.0068 0.850207 19.0965 0.901308 19.1737 0.968273C19.2509 1.03524 19.3142 1.11675 19.3599 1.20817C19.4056 1.29958 19.4328 1.39911 19.4401 1.50105C19.4473 1.603 19.4344 1.70538 19.4021 1.80234C19.3698 1.8993 19.3187 1.98894 19.2517 2.06615C19.1847 2.14336 19.1032 2.20663 19.0118 2.25234L17.4563 3.03011C17.3648 3.07589 17.2653 3.10319 17.1634 3.11047C17.0614 3.11775 16.959 3.10486 16.862 3.07254C16.765 3.04021 16.6754 2.98908 16.5982 2.92208C16.521 2.85508 16.4577 2.77352 16.4121 2.68206ZM21 5.44511C21 5.65139 20.9181 5.84922 20.7722 5.99509C20.6263 6.14095 20.4285 6.22289 20.2222 6.22289H18.6667C18.4604 6.22289 18.2626 6.14095 18.1167 5.99509C17.9708 5.84922 17.8889 5.65139 17.8889 5.44511C17.8889 5.23883 17.9708 5.041 18.1167 4.89514C18.2626 4.74928 18.4604 4.66734 18.6667 4.66734H20.2222C20.4285 4.66734 20.6263 4.74928 20.7722 4.89514C20.9181 5.041 21 5.23883 21 5.44511ZM1.63722 0.430391C1.68288 0.33893 1.74612 0.257367 1.82332 0.190366C1.90052 0.123364 1.99018 0.0722389 2.08716 0.0399131C2.18413 0.00758736 2.28653 -0.00530469 2.38849 0.00197447C2.49046 0.00925362 2.58999 0.0365612 2.68139 0.0823353L4.23694 0.860113C4.32836 0.90582 4.40988 0.969086 4.47684 1.0463C4.54381 1.12351 4.59491 1.21315 4.62723 1.31011C4.65955 1.40707 4.67245 1.50945 4.66521 1.6114C4.65796 1.71334 4.63071 1.81287 4.585 1.90428C4.53929 1.99569 4.47603 2.07721 4.39882 2.14418C4.32161 2.21114 4.23196 2.26224 4.135 2.29456C3.93918 2.35983 3.72545 2.34465 3.54083 2.25234L1.98528 1.47456C1.89382 1.4289 1.81225 1.36566 1.74525 1.28846C1.67825 1.21126 1.62713 1.1216 1.5948 1.02462C1.56247 0.927647 1.54958 0.825248 1.55686 0.723285C1.56414 0.621321 1.59145 0.521793 1.63722 0.430391ZM2.33333 5.44511H0.777778C0.571498 5.44511 0.373667 5.36317 0.227806 5.21731C0.0819442 5.07145 0 4.87361 0 4.66734C0 4.46106 0.0819442 4.26323 0.227806 4.11736C0.373667 3.9715 0.571498 3.88956 0.777778 3.88956H2.33333C2.53961 3.88956 2.73744 3.9715 2.88331 4.11736C3.02917 4.26323 3.11111 4.46106 3.11111 4.66734C3.11111 4.87361 3.02917 5.07145 2.88331 5.21731C2.73744 5.36317 2.53961 5.44511 2.33333 5.44511Z" fill="#ECA73C"/>
</svg>
