<svg width="23" height="23" viewBox="0 0 23 23" fill="none" xmlns="http://www.w3.org/2000/svg">
<path d="M11.5056 1.00297C9.11045 1.00297 6.92128 2.26872 5.58996 4.2754C5.47508 4.2671 5.35916 4.25875 5.24271 4.25875C2.64312 4.25875 0.527356 6.38078 0.527344 8.97989C0.52736 10.9987 1.81621 12.7761 3.69736 13.4288L4.59971 20.76C4.5976 21.3451 4.96189 21.8751 5.51706 22.078C5.54858 22.0904 5.58255 22.0987 5.61564 22.1029C9.40468 22.7522 13.2749 22.7729 17.0697 22.1584C17.7659 22.0423 18.3124 21.4745 18.3986 20.7741L19.2945 13.4321C21.1812 12.7832 22.4731 11.0028 22.4731 8.98096C22.4731 6.38185 20.3509 4.25781 17.7513 4.25781C17.6385 4.25781 17.5245 4.26191 17.4126 4.27021C16.081 2.26399 13.8989 1.00297 11.5056 1.00297ZM11.5056 2.09806C13.3662 2.09806 15.0845 3.00831 16.236 4.51321C15.8461 4.64634 15.4722 4.82964 15.1257 5.0618C14.8726 5.22935 14.8032 5.57207 14.9714 5.82472C15.1415 6.07522 15.4816 6.13996 15.7323 5.97034C16.3291 5.57013 17.0326 5.36169 17.7513 5.36169C19.7579 5.36169 21.38 6.97727 21.38 8.98337C21.38 10.6371 20.2591 12.0713 18.658 12.483C18.4389 12.541 18.2779 12.7272 18.2529 12.9523L17.5198 18.9078C16.7561 18.9994 15.9861 19.0712 15.2114 19.1243L15.7816 15.8261C15.8316 15.5263 15.6274 15.2425 15.3272 15.194C15.0299 15.1438 14.7495 15.3429 14.697 15.6397L14.084 19.1885C13.4074 19.2175 12.7281 19.2346 12.0479 19.2358V15.2991C12.0491 14.9943 11.8017 14.7471 11.497 14.7483C11.1954 14.7516 10.9536 14.9976 10.9548 15.2991V19.2273C10.2721 19.2148 9.59217 19.1829 8.91429 19.1393L8.30558 15.6398C8.25311 15.3428 7.97052 15.1438 7.67329 15.1941C7.37639 15.2463 7.17718 15.5291 7.22747 15.8262L7.78045 19.0515C7.00376 18.9826 6.23249 18.8955 5.46992 18.7877C5.23743 16.841 4.98689 14.8883 4.74761 12.9437C4.71817 12.7193 4.55585 12.5368 4.33609 12.4829C2.7339 12.0694 1.62047 10.6371 1.62046 8.98337C1.62047 6.97727 3.23617 5.36163 5.24272 5.36163C5.94857 5.36163 6.63407 5.59433 7.24247 6.00242C7.49309 6.17204 7.83539 6.1073 8.0055 5.85681C8.1752 5.60631 8.11005 5.26626 7.85977 5.0961C7.51468 4.86468 7.14166 4.67174 6.74951 4.53036C7.90145 3.01351 9.63484 2.09806 11.5056 2.09806ZM5.60067 19.9129C7.68117 20.1925 9.81591 20.3309 11.9579 20.3309C13.7824 20.3309 15.5975 20.2297 17.3827 20.0265L17.3055 20.6458C17.2782 20.8685 17.1131 21.0398 16.8918 21.0766C13.2434 21.6673 9.52762 21.6426 5.8836 21.0272C5.77241 20.9733 5.68914 20.8708 5.69714 20.7443C5.66604 20.4677 5.63277 20.1899 5.60067 19.9129Z" fill="#FE8235" stroke="#FE8235" stroke-width="0.3"/>
</svg>
