<svg width="20" height="24" viewBox="0 0 20 24" fill="none" xmlns="http://www.w3.org/2000/svg">
<path d="M11.75 19C11.75 19.2321 11.6578 19.4546 11.4937 19.6187C11.3296 19.7828 11.1071 19.875 10.875 19.875H9.125C8.89294 19.875 8.67038 19.7828 8.50628 19.6187C8.34219 19.4546 8.25 19.2321 8.25 19C8.25 18.7679 8.34219 18.5454 8.50628 18.3813C8.67038 18.2172 8.89294 18.125 9.125 18.125H10.875C11.1071 18.125 11.3296 18.2172 11.4937 18.3813C11.6578 18.5454 11.75 18.7679 11.75 19ZM9.125 5.875H10.875C11.1071 5.875 11.3296 5.78281 11.4937 5.61872C11.6578 5.45462 11.75 5.23206 11.75 5C11.75 4.76794 11.6578 4.54538 11.4937 4.38128C11.3296 4.21719 11.1071 4.125 10.875 4.125H9.125C8.89294 4.125 8.67038 4.21719 8.50628 4.38128C8.34219 4.54538 8.25 4.76794 8.25 5C8.25 5.23206 8.34219 5.45462 8.50628 5.61872C8.67038 5.78281 8.89294 5.875 9.125 5.875ZM10.875 11.125H9.125C8.89294 11.125 8.67038 11.2172 8.50628 11.3813C8.34219 11.5454 8.25 11.7679 8.25 12C8.25 12.2321 8.34219 12.4546 8.50628 12.6187C8.67038 12.7828 8.89294 12.875 9.125 12.875H10.875C11.1071 12.875 11.3296 12.7828 11.4937 12.6187C11.6578 12.4546 11.75 12.2321 11.75 12C11.75 11.7679 11.6578 11.5454 11.4937 11.3813C11.3296 11.2172 11.1071 11.125 10.875 11.125ZM19.625 2.375V21.625C19.625 22.0891 19.4406 22.5342 19.1124 22.8624C18.7842 23.1906 18.3391 23.375 17.875 23.375H2.125C1.66087 23.375 1.21575 23.1906 0.887563 22.8624C0.559374 22.5342 0.375 22.0891 0.375 21.625V2.375C0.375 1.91087 0.559374 1.46575 0.887563 1.13756C1.21575 0.809374 1.66087 0.625 2.125 0.625H17.875C18.3391 0.625 18.7842 0.809374 19.1124 1.13756C19.4406 1.46575 19.625 1.91087 19.625 2.375ZM2.125 14.625H17.875V9.375H2.125V14.625ZM2.125 2.375V7.625H17.875V2.375H2.125ZM17.875 21.625V16.375H2.125V21.625H17.875Z" fill="#ECA73C"/>
</svg>
