<svg width="23" height="23" viewBox="0 0 23 23" fill="none" xmlns="http://www.w3.org/2000/svg">
<path d="M11.5054 1.00297C9.11021 1.00297 6.92104 2.26872 5.58971 4.2754C5.47484 4.2671 5.35892 4.25875 5.24247 4.25875C2.64287 4.25875 0.527112 6.38078 0.5271 8.97989C0.527116 10.9987 1.81597 12.7761 3.69711 13.4288L4.59946 20.76C4.59736 21.3451 4.96164 21.8751 5.51682 22.078C5.54834 22.0904 5.5823 22.0987 5.6154 22.1029C9.40444 22.7522 13.2746 22.7729 17.0695 22.1584C17.7656 22.0423 18.3122 21.4745 18.3983 20.7741L19.2943 13.4321C21.1809 12.7832 22.4728 11.0028 22.4729 8.98096C22.4728 6.38185 20.3506 4.25781 17.751 4.25781C17.6383 4.25781 17.5243 4.26191 17.4124 4.27021C16.0808 2.26399 13.8986 1.00297 11.5054 1.00297ZM11.5054 2.09806C13.3659 2.09806 15.0842 3.00831 16.2357 4.51321C15.8458 4.64634 15.472 4.82964 15.1255 5.0618C14.8724 5.22935 14.803 5.57207 14.9712 5.82472C15.1412 6.07522 15.4814 6.13996 15.732 5.97034C16.3288 5.57013 17.0324 5.36169 17.7511 5.36169C19.7576 5.36169 21.3798 6.97727 21.3798 8.98337C21.3798 10.6371 20.2589 12.0713 18.6577 12.483C18.4387 12.541 18.2777 12.7272 18.2526 12.9523L17.5196 18.9078C16.7559 18.9994 15.9859 19.0712 15.2112 19.1243L15.7813 15.8261C15.8313 15.5263 15.6271 15.2425 15.3269 15.194C15.0297 15.1438 14.7493 15.3429 14.6968 15.6397L14.0838 19.1885C13.4072 19.2175 12.7278 19.2346 12.0476 19.2358V15.2991C12.0488 14.9943 11.8015 14.7471 11.4968 14.7483C11.1952 14.7516 10.9533 14.9976 10.9545 15.2991V19.2273C10.2719 19.2148 9.59192 19.1829 8.91404 19.1393L8.30533 15.6398C8.25287 15.3428 7.97028 15.1438 7.67304 15.1941C7.37614 15.2463 7.17694 15.5291 7.22722 15.8262L7.78021 19.0515C7.00351 18.9826 6.23225 18.8955 5.46968 18.7877C5.23718 16.841 4.98665 14.8883 4.74737 12.9437C4.71793 12.7193 4.5556 12.5368 4.33584 12.4829C2.73365 12.0694 1.62023 10.6371 1.62022 8.98337C1.62023 6.97727 3.23593 5.36163 5.24248 5.36163C5.94832 5.36163 6.63382 5.59433 7.24223 6.00242C7.49284 6.17204 7.83515 6.1073 8.00526 5.85681C8.17496 5.60631 8.10981 5.26626 7.85952 5.0961C7.51443 4.86468 7.14142 4.67174 6.74927 4.53036C7.90121 3.01351 9.63459 2.09806 11.5054 2.09806ZM5.60043 19.9129C7.68093 20.1925 9.81566 20.3309 11.9576 20.3309C13.7822 20.3309 15.5973 20.2297 17.3824 20.0265L17.3053 20.6458C17.2779 20.8685 17.1129 21.0398 16.8916 21.0766C13.2431 21.6673 9.52737 21.6426 5.88335 21.0272C5.77217 20.9733 5.68889 20.8708 5.6969 20.7443C5.66579 20.4677 5.63253 20.1899 5.60043 19.9129Z" fill="#AAAEBB" stroke="#AAAEBB" stroke-width="0.3"/>
</svg>
