<svg width="12" height="12" viewBox="0 0 12 12" fill="none" xmlns="http://www.w3.org/2000/svg">
<path d="M9.5 2H0.5C0.367392 2 0.240215 2.05268 0.146447 2.14645C0.0526785 2.24021 0 2.36739 0 2.5V11.5C0 11.6326 0.0526785 11.7598 0.146447 11.8536C0.240215 11.9473 0.367392 12 0.5 12H9.5C9.63261 12 9.75979 11.9473 9.85355 11.8536C9.94732 11.7598 10 11.6326 10 11.5V2.5C10 2.36739 9.94732 2.24021 9.85355 2.14645C9.75979 2.05268 9.63261 2 9.5 2ZM9 11H1V3H9V11ZM12 0.5V9.5C12 9.63261 11.9473 9.75979 11.8536 9.85355C11.7598 9.94732 11.6326 10 11.5 10C11.3674 10 11.2402 9.94732 11.1464 9.85355C11.0527 9.75979 11 9.63261 11 9.5V1H2.5C2.36739 1 2.24021 0.947321 2.14645 0.853553C2.05268 0.759785 2 0.632608 2 0.5C2 0.367392 2.05268 0.240215 2.14645 0.146447C2.24021 0.0526785 2.36739 0 2.5 0H11.5C11.6326 0 11.7598 0.0526785 11.8536 0.146447C11.9473 0.240215 12 0.367392 12 0.5Z" fill="#FD813B"/>
</svg>
