<svg width="22" height="27" viewBox="0 0 22 27" fill="none" xmlns="http://www.w3.org/2000/svg">
<path d="M16 16.9998C16 17.265 15.8946 17.5194 15.7071 17.7069C15.5196 17.8945 15.2652 17.9998 15 17.9998H7C6.73478 17.9998 6.48043 17.8945 6.29289 17.7069C6.10536 17.5194 6 17.265 6 16.9998C6 16.7346 6.10536 16.4802 6.29289 16.2927C6.48043 16.1052 6.73478 15.9998 7 15.9998H15C15.2652 15.9998 15.5196 16.1052 15.7071 16.2927C15.8946 16.4802 16 16.7346 16 16.9998ZM15 11.9998H7C6.73478 11.9998 6.48043 12.1052 6.29289 12.2927C6.10536 12.4802 6 12.7346 6 12.9998C6 13.265 6.10536 13.5194 6.29289 13.7069C6.48043 13.8945 6.73478 13.9998 7 13.9998H15C15.2652 13.9998 15.5196 13.8945 15.7071 13.7069C15.8946 13.5194 16 13.265 16 12.9998C16 12.7346 15.8946 12.4802 15.7071 12.2927C15.5196 12.1052 15.2652 11.9998 15 11.9998ZM22 3.99982V24.9998C22 25.5303 21.7893 26.039 21.4142 26.414C21.0391 26.7891 20.5304 26.9998 20 26.9998H2C1.46957 26.9998 0.960859 26.7891 0.585786 26.414C0.210714 26.039 0 25.5303 0 24.9998V3.99982C0 3.46939 0.210714 2.96068 0.585786 2.58561C0.960859 2.21053 1.46957 1.99982 2 1.99982H6.5325C7.09438 1.37072 7.78279 0.86739 8.55266 0.522767C9.32254 0.178143 10.1565 0 11 0C11.8435 0 12.6775 0.178143 13.4473 0.522767C14.2172 0.86739 14.9056 1.37072 15.4675 1.99982H20C20.5304 1.99982 21.0391 2.21053 21.4142 2.58561C21.7893 2.96068 22 3.46939 22 3.99982ZM7 5.99982H15C15 4.93895 14.5786 3.92154 13.8284 3.17139C13.0783 2.42125 12.0609 1.99982 11 1.99982C9.93913 1.99982 8.92172 2.42125 8.17157 3.17139C7.42143 3.92154 7 4.93895 7 5.99982ZM20 3.99982H16.6562C16.8837 4.64209 17 5.31846 17 5.99982V6.99982C17 7.26504 16.8946 7.51939 16.7071 7.70693C16.5196 7.89446 16.2652 7.99982 16 7.99982H6C5.73478 7.99982 5.48043 7.89446 5.29289 7.70693C5.10536 7.51939 5 7.26504 5 6.99982V5.99982C5.00002 5.31846 5.11627 4.64209 5.34375 3.99982H2V24.9998H20V3.99982Z" fill="#FFF2CF"/>
</svg>
