<svg width="32" height="32" viewBox="0 0 32 32" fill="none" xmlns="http://www.w3.org/2000/svg">
<path d="M20.9997 27.9984C20.9997 28.2636 20.8943 28.5179 20.7068 28.7055C20.5193 28.893 20.2649 28.9984 19.9997 28.9984H11.9997C11.7345 28.9984 11.4801 28.893 11.2926 28.7055C11.1051 28.5179 10.9997 28.2636 10.9997 27.9984C10.9997 27.7331 11.1051 27.4788 11.2926 27.2913C11.4801 27.1037 11.7345 26.9984 11.9997 26.9984H19.9997C20.2649 26.9984 20.5193 27.1037 20.7068 27.2913C20.8943 27.4788 20.9997 27.7331 20.9997 27.9984ZM28.4234 7.53836C27.2995 5.34168 25.6119 3.48322 23.5334 2.15336C23.4224 2.08242 23.2984 2.03413 23.1686 2.01126C23.0389 1.9884 22.9058 1.99141 22.7772 2.02012C22.6486 2.04883 22.527 2.10268 22.4192 2.17857C22.3115 2.25447 22.2198 2.3509 22.1495 2.46234C22.0791 2.57377 22.0315 2.69801 22.0094 2.82791C21.9872 2.95781 21.9909 3.09081 22.0203 3.21926C22.0498 3.34772 22.1043 3.46909 22.1807 3.57641C22.2572 3.68373 22.3541 3.77487 22.4659 3.84461C24.2492 4.97898 25.6939 6.57272 26.6484 8.45836C26.7746 8.68628 26.9847 8.85598 27.234 8.93136C27.4834 9.00674 27.7523 8.98185 27.9836 8.86198C28.2148 8.7421 28.3902 8.53672 28.4724 8.28952C28.5545 8.04232 28.537 7.77282 28.4234 7.53836ZM4.46345 8.99836C4.64665 8.99828 4.82631 8.94788 4.98282 8.85265C5.13933 8.75742 5.26667 8.62103 5.35095 8.45836C6.30545 6.57272 7.75022 4.97898 9.53345 3.84461C9.64526 3.77487 9.74219 3.68373 9.81867 3.57641C9.89514 3.46909 9.94965 3.34772 9.97906 3.21926C10.0085 3.09081 10.0122 2.95781 9.99003 2.82791C9.96787 2.69801 9.92025 2.57377 9.84991 2.46234C9.77958 2.3509 9.68791 2.25447 9.58018 2.17857C9.47245 2.10268 9.35078 2.04883 9.22217 2.02012C9.09356 1.99141 8.96054 1.9884 8.83076 2.01126C8.70098 2.03413 8.577 2.08242 8.46595 2.15336C6.38748 3.48322 4.69986 5.34168 3.57595 7.53836C3.497 7.69076 3.4586 7.86091 3.46445 8.03245C3.4703 8.20399 3.5202 8.37113 3.60936 8.51779C3.69851 8.66446 3.82392 8.78571 3.9735 8.86987C4.12308 8.95404 4.29181 8.99829 4.46345 8.99836ZM27.7259 21.9909C27.9031 22.2947 27.997 22.6398 27.9982 22.9915C27.9994 23.3432 27.9079 23.689 27.7328 23.994C27.5578 24.299 27.3053 24.5524 27.0011 24.7288C26.6968 24.9051 26.3514 24.9981 25.9997 24.9984H5.9997C5.64822 24.9977 5.30314 24.9044 4.99921 24.7278C4.69527 24.5513 4.44322 24.2978 4.26845 23.9929C4.09367 23.688 4.00234 23.3423 4.00366 22.9909C4.00498 22.6394 4.09889 22.2945 4.27595 21.9909C5.4022 20.0471 5.9997 17.2834 5.9997 13.9984C5.9997 11.3462 7.05327 8.80265 8.92863 6.92729C10.804 5.05193 13.3475 3.99836 15.9997 3.99836C18.6519 3.99836 21.1954 5.05193 23.0708 6.92729C24.9461 8.80265 25.9997 11.3462 25.9997 13.9984C25.9997 17.2821 26.5972 20.0459 27.7259 21.9909ZM25.9997 22.9984C24.6697 20.7146 23.9997 17.6871 23.9997 13.9984C23.9997 11.8766 23.1568 9.84179 21.6566 8.3415C20.1563 6.84121 18.1214 5.99836 15.9997 5.99836C13.878 5.99836 11.8431 6.84121 10.3428 8.3415C8.84255 9.84179 7.9997 11.8766 7.9997 13.9984C7.9997 17.6884 7.3272 20.7159 5.9997 22.9984H25.9997Z" fill="#FD813B"/>
</svg>
