<svg width="30" height="20" viewBox="0 0 30 20" fill="none" xmlns="http://www.w3.org/2000/svg">
<path d="M29.53 1.50113C29.386 1.41128 29.2216 1.35955 29.0521 1.3508C28.8826 1.34205 28.7137 1.37658 28.5613 1.45113C23.195 4.07613 19.3625 2.84613 15.3113 1.54863C11.0613 0.187381 6.655 -1.21887 0.5675 1.75363C0.397413 1.83522 0.253872 1.96325 0.153454 2.12295C0.0530361 2.28264 -0.000162969 2.46749 3.75023e-07 2.65613V17.6474C-2.35206e-05 17.817 0.0431234 17.9839 0.125381 18.1323C0.207638 18.2807 0.3263 18.4058 0.4702 18.4956C0.6141 18.5855 0.778506 18.6373 0.947945 18.6462C1.11738 18.655 1.28628 18.6206 1.43875 18.5461C6.805 15.9211 10.6375 17.1511 14.695 18.4486C17.1 19.2174 19.55 20.0011 22.32 20.0011C24.4562 20.0011 26.7863 19.5361 29.4338 18.2436C29.6019 18.1615 29.7437 18.0339 29.8429 17.8752C29.9421 17.7166 29.9948 17.5333 29.995 17.3461V2.35488C29.9965 2.18477 29.9546 2.01709 29.8732 1.8677C29.7919 1.7183 29.6737 1.59214 29.53 1.50113ZM28 16.7099C22.925 18.9811 19.2188 17.7961 15.305 16.5449C12.9 15.7761 10.45 14.9924 7.68 14.9924C5.73388 15.0018 3.80755 15.3837 2.005 16.1174V3.29238C7.08 1.02113 10.7863 2.20613 14.7 3.45738C18.6138 4.70863 22.6425 6.00113 28 3.88738V16.7099ZM15 6.00113C14.2089 6.00113 13.4355 6.23573 12.7777 6.67525C12.1199 7.11478 11.6072 7.73949 11.3045 8.4704C11.0017 9.2013 10.9225 10.0056 11.0769 10.7815C11.2312 11.5574 11.6122 12.2701 12.1716 12.8296C12.731 13.389 13.4437 13.7699 14.2196 13.9243C14.9956 14.0786 15.7998 13.9994 16.5307 13.6966C17.2616 13.3939 17.8864 12.8812 18.3259 12.2234C18.7654 11.5656 19 10.7923 19 10.0011C19 8.94026 18.5786 7.92285 17.8284 7.1727C17.0783 6.42256 16.0609 6.00113 15 6.00113ZM15 12.0011C14.6044 12.0011 14.2178 11.8838 13.8889 11.6641C13.56 11.4443 13.3036 11.132 13.1522 10.7665C13.0009 10.401 12.9613 9.99891 13.0384 9.61095C13.1156 9.22299 13.3061 8.86662 13.5858 8.58692C13.8655 8.30721 14.2219 8.11673 14.6098 8.03956C14.9978 7.96239 15.3999 8.002 15.7654 8.15337C16.1308 8.30475 16.4432 8.56109 16.6629 8.88999C16.8827 9.21889 17 9.60557 17 10.0011C17 10.5316 16.7893 11.0403 16.4142 11.4153C16.0391 11.7904 15.5304 12.0011 15 12.0011ZM6 6.00113V12.0011C6 12.2663 5.89464 12.5207 5.70711 12.7082C5.51957 12.8958 5.26522 13.0011 5 13.0011C4.73478 13.0011 4.48043 12.8958 4.29289 12.7082C4.10536 12.5207 4 12.2663 4 12.0011V6.00113C4 5.73591 4.10536 5.48156 4.29289 5.29402C4.48043 5.10649 4.73478 5.00113 5 5.00113C5.26522 5.00113 5.51957 5.10649 5.70711 5.29402C5.89464 5.48156 6 5.73591 6 6.00113ZM24 14.0011V8.00113C24 7.73591 24.1054 7.48156 24.2929 7.29402C24.4804 7.10649 24.7348 7.00113 25 7.00113C25.2652 7.00113 25.5196 7.10649 25.7071 7.29402C25.8946 7.48156 26 7.73591 26 8.00113V14.0011C26 14.2663 25.8946 14.5207 25.7071 14.7082C25.5196 14.8958 25.2652 15.0011 25 15.0011C24.7348 15.0011 24.4804 14.8958 24.2929 14.7082C24.1054 14.5207 24 14.2663 24 14.0011Z" fill="#FD813B"/>
</svg>
