<svg width="22" height="26" viewBox="0 0 22 26" fill="none" xmlns="http://www.w3.org/2000/svg">
<path d="M21.7075 7.2925L14.7075 0.2925C14.6146 0.199666 14.5042 0.126052 14.3829 0.0758639C14.2615 0.0256758 14.1314 -0.000102986 14 3.09198e-07H2C1.46957 3.09198e-07 0.960859 0.210714 0.585786 0.585787C0.210714 0.960859 0 1.46957 0 2V24C0 24.5304 0.210714 25.0391 0.585786 25.4142C0.960859 25.7893 1.46957 26 2 26H20C20.5304 26 21.0391 25.7893 21.4142 25.4142C21.7893 25.0391 22 24.5304 22 24V8C22.0001 7.86864 21.9743 7.73855 21.9241 7.61715C21.8739 7.49576 21.8003 7.38544 21.7075 7.2925ZM15 3.41375L18.5863 7H15V3.41375ZM20 24H2V2H13V8C13 8.26522 13.1054 8.51957 13.2929 8.70711C13.4804 8.89464 13.7348 9 14 9H20V24Z" fill="#FD813B"/>
</svg>
