<svg width="24" height="25" viewBox="0 0 24 25" fill="none" xmlns="http://www.w3.org/2000/svg">
<path d="M23.9562 21.3177L19.8075 1.59269C19.7538 1.33474 19.6497 1.08994 19.5012 0.872338C19.3526 0.654741 19.1626 0.46864 18.9419 0.324726C18.7212 0.180812 18.4742 0.081921 18.2152 0.0337343C17.9562 -0.0144524 17.6902 -0.010985 17.4325 0.0439372L11.5812 1.30144C11.0637 1.41476 10.6118 1.72785 10.3239 2.17262C10.036 2.61738 9.93528 3.15784 10.0437 3.67644L14.1925 23.4014C14.285 23.8515 14.5295 24.2559 14.8851 24.5469C15.2407 24.8378 15.6856 24.9974 16.145 24.9989C16.287 24.9987 16.4286 24.9837 16.5675 24.9539L22.4188 23.6964C22.9369 23.5828 23.3893 23.2691 23.6772 22.8236C23.9652 22.3781 24.0655 21.8368 23.9562 21.3177ZM12 3.26769C12 3.26019 12 3.25644 12 3.25644L17.85 2.00644L18.2663 3.99019L12.4163 5.24894L12 3.26769ZM12.8275 7.20144L18.68 5.94519L19.0975 7.93269L13.25 9.19019L12.8275 7.20144ZM13.6575 11.1477L19.51 9.89019L21.1725 17.7952L15.32 19.0527L13.6575 11.1477ZM22 21.7414L16.15 22.9914L15.7337 21.0077L21.5837 19.7489L22 21.7302C22 21.7377 22 21.7414 22 21.7414ZM8 0.998937H2C1.46957 0.998937 0.960859 1.20965 0.585786 1.58472C0.210714 1.9598 0 2.4685 0 2.99894V22.9989C0 23.5294 0.210714 24.0381 0.585786 24.4132C0.960859 24.7882 1.46957 24.9989 2 24.9989H8C8.53043 24.9989 9.03914 24.7882 9.41421 24.4132C9.78929 24.0381 10 23.5294 10 22.9989V2.99894C10 2.4685 9.78929 1.9598 9.41421 1.58472C9.03914 1.20965 8.53043 0.998937 8 0.998937ZM2 2.99894H8V4.99894H2V2.99894ZM2 6.99894H8V18.9989H2V6.99894ZM8 22.9989H2V20.9989H8V22.9989Z" fill="#FD813B"/>
</svg>
