<svg width="22" height="22" viewBox="0 0 22 22" fill="none" xmlns="http://www.w3.org/2000/svg">
<path d="M9.70708 16.2933C9.80006 16.3862 9.87381 16.4964 9.92414 16.6178C9.97446 16.7392 10.0004 16.8694 10.0004 17.0008C10.0004 17.1322 9.97446 17.2623 9.92414 17.3837C9.87381 17.5051 9.80006 17.6154 9.70708 17.7083L5.70708 21.7083C5.61421 21.8013 5.50392 21.875 5.38252 21.9253C5.26112 21.9757 5.13099 22.0016 4.99958 22.0016C4.86816 22.0016 4.73804 21.9757 4.61664 21.9253C4.49524 21.875 4.38495 21.8013 4.29208 21.7083L0.292079 17.7083C0.199169 17.6154 0.125469 17.5051 0.0751863 17.3837C0.0249036 17.2623 -0.000976562 17.1322 -0.000976562 17.0008C-0.000976562 16.8694 0.0249036 16.7393 0.0751863 16.6179C0.125469 16.4965 0.199169 16.3862 0.292079 16.2933C0.47972 16.1056 0.734215 16.0002 0.999579 16.0002C1.13097 16.0002 1.26108 16.0261 1.38248 16.0764C1.50387 16.1267 1.61417 16.2004 1.70708 16.2933L3.99958 18.587V1.00079C3.99958 0.73557 4.10494 0.481217 4.29247 0.29368C4.48001 0.106144 4.73436 0.000786781 4.99958 0.000786781C5.2648 0.000786781 5.51915 0.106144 5.70669 0.29368C5.89422 0.481217 5.99958 0.73557 5.99958 1.00079V18.587L8.29208 16.2933C8.38495 16.2003 8.49524 16.1265 8.61664 16.0762C8.73804 16.0259 8.86816 16 8.99958 16C9.13099 16 9.26112 16.0259 9.38252 16.0762C9.50392 16.1265 9.61421 16.2003 9.70708 16.2933ZM21.7071 4.29329L17.7071 0.293287C17.6142 0.20031 17.5039 0.126551 17.3825 0.0762272C17.2611 0.0259029 17.131 0 16.9996 0C16.8682 0 16.738 0.0259029 16.6166 0.0762272C16.4952 0.126551 16.385 0.20031 16.2921 0.293287L12.2921 4.29329C12.1044 4.48093 11.999 4.73542 11.999 5.00079C11.999 5.26615 12.1044 5.52065 12.2921 5.70829C12.4797 5.89593 12.7342 6.00134 12.9996 6.00134C13.2649 6.00134 13.5194 5.89593 13.7071 5.70829L15.9996 3.41454V21.0008C15.9996 21.266 16.1049 21.5204 16.2925 21.7079C16.48 21.8954 16.7344 22.0008 16.9996 22.0008C17.2648 22.0008 17.5192 21.8954 17.7067 21.7079C17.8942 21.5204 17.9996 21.266 17.9996 21.0008V3.41454L20.2921 5.70829C20.4797 5.89593 20.7342 6.00134 20.9996 6.00134C21.2649 6.00134 21.5194 5.89593 21.7071 5.70829C21.8947 5.52065 22.0001 5.26615 22.0001 5.00079C22.0001 4.73542 21.8947 4.48093 21.7071 4.29329Z" fill="#FD813B"/>
</svg>
