<svg width="43" height="53" viewBox="0 0 43 53" fill="none" xmlns="http://www.w3.org/2000/svg">
<path d="M31.0312 33.2184C31.0312 33.724 30.8304 34.2088 30.4729 34.5663C30.1154 34.9238 29.6306 35.1247 29.125 35.1247H13.875C13.3694 35.1247 12.8846 34.9238 12.5271 34.5663C12.1696 34.2088 11.9688 33.724 11.9688 33.2184C11.9688 32.7128 12.1696 32.228 12.5271 31.8705C12.8846 31.513 13.3694 31.3122 13.875 31.3122H29.125C29.6306 31.3122 30.1154 31.513 30.4729 31.8705C30.8304 32.228 31.0312 32.7128 31.0312 33.2184ZM29.125 23.6872H13.875C13.3694 23.6872 12.8846 23.888 12.5271 24.2455C12.1696 24.603 11.9688 25.0878 11.9688 25.5934C11.9688 26.099 12.1696 26.5838 12.5271 26.9413C12.8846 27.2988 13.3694 27.4997 13.875 27.4997H29.125C29.6306 27.4997 30.1154 27.2988 30.4729 26.9413C30.8304 26.5838 31.0312 26.099 31.0312 25.5934C31.0312 25.0878 30.8304 24.603 30.4729 24.2455C30.1154 23.888 29.6306 23.6872 29.125 23.6872ZM42.4688 8.43715V48.4684C42.4688 49.4795 42.0671 50.4493 41.3521 51.1642C40.6371 51.8792 39.6674 52.2809 38.6562 52.2809H4.34375C3.33261 52.2809 2.36289 51.8792 1.64791 51.1642C0.932923 50.4493 0.53125 49.4795 0.53125 48.4684V8.43715C0.53125 7.42602 0.932923 6.45629 1.64791 5.74131C2.36289 5.02633 3.33261 4.62465 4.34375 4.62465H12.9838C14.0549 3.42544 15.3672 2.46596 16.8348 1.80902C18.3023 1.15208 19.8921 0.8125 21.5 0.8125C23.1079 0.8125 24.6977 1.15208 26.1652 1.80902C27.6328 2.46596 28.9451 3.42544 30.0162 4.62465H38.6562C39.6674 4.62465 40.6371 5.02633 41.3521 5.74131C42.0671 6.45629 42.4688 7.42602 42.4688 8.43715ZM13.875 12.2497H29.125C29.125 10.2274 28.3217 8.28793 26.8917 6.85796C25.4617 5.428 23.5223 4.62465 21.5 4.62465C19.4777 4.62465 17.5383 5.428 16.1083 6.85796C14.6783 8.28793 13.875 10.2274 13.875 12.2497ZM38.6562 8.43715H32.2822C32.7159 9.66148 32.9375 10.9508 32.9375 12.2497V14.1559C32.9375 14.6615 32.7367 15.1463 32.3792 15.5038C32.0217 15.8613 31.5368 16.0622 31.0312 16.0622H11.9688C11.4632 16.0622 10.9783 15.8613 10.6208 15.5038C10.2633 15.1463 10.0625 14.6615 10.0625 14.1559V12.2497C10.0625 10.9508 10.2841 9.66148 10.7178 8.43715H4.34375V48.4684H38.6562V8.43715Z" fill="white"/>
</svg>
