<svg width="25" height="25" viewBox="0 0 25 25" fill="none" xmlns="http://www.w3.org/2000/svg">
<g clip-path="url(#clip0_895_24566)">
<path d="M23.7041 18.4834L23.3841 17.0216L21.6196 17.4079L19.6217 16.1277L21.9916 15.6088L21.6715 14.1471L17.8399 14.986L16.2405 13.9612V11.0358L17.8362 9.99999L21.6728 10.8163L21.9842 9.35266L19.6112 8.84778L21.6016 7.55577L23.3683 7.93166L23.6797 6.46806L22.3416 6.18335L22.6263 4.84529L21.1626 4.5339L20.7867 6.30066L18.7964 7.59268L19.3013 5.21969L17.8377 4.90829L17.0214 8.74489L15.4439 9.76885L13.2477 8.67072V6.82444L16.0212 4.05082L14.9632 2.99274L13.2477 4.70828V2.33533L14.5249 1.05808L13.4668 0L12.4995 0.967303L11.5322 0L10.4741 1.05808L11.7513 2.33533V4.70828L10.0358 2.99274L8.97773 4.05082L11.7513 6.82444V8.67076L9.55244 9.7702L7.96649 8.75401L7.12752 4.92231L5.66577 5.24233L6.18466 7.61228L4.18671 6.33209L3.80034 4.56762L2.33869 4.88764L2.63128 6.224L1.29492 6.51659L1.61495 7.97834L3.37942 7.59203L5.37737 8.87223L3.00742 9.39112L3.32749 10.8529L7.15915 10.014L8.75852 11.0388V13.9642L7.16284 15L3.32619 14.1837L3.0148 15.6473L5.38779 16.1522L3.39752 17.4442L1.63081 17.0683L1.31941 18.5319L2.65747 18.8166L2.37281 20.1547L3.83646 20.466L4.21234 18.6993L6.20267 17.4073L5.69779 19.7803L7.16139 20.0917L7.97766 16.2551L9.55513 15.2311L11.7514 16.3292V18.1756L8.97773 20.9492L10.0358 22.0073L11.7514 20.2918V22.6647L10.4741 23.9419L11.5322 25L12.4995 24.0327L13.4668 25L14.5249 23.9419L13.2477 22.6647V20.2918L14.9632 22.0073L16.0213 20.9492L13.2477 18.1756V16.3292L15.4466 15.2298L17.0325 16.246L17.8715 20.0777L19.3333 19.7577L18.8144 17.3878L20.8123 18.668L21.1987 20.4324L22.6604 20.1124L22.3678 18.776L23.7041 18.4834ZM14.744 13.9081L12.4995 15.0303L10.2549 13.9081V11.0919L12.4995 9.96966L14.744 11.0919V13.9081Z" fill="#FE8235"/>
</g>
<defs>
<clipPath id="clip0_895_24566">
<rect width="25" height="25" fill="white"/>
</clipPath>
</defs>
</svg>
