<svg width="13" height="13" viewBox="0 0 13 13" fill="none" xmlns="http://www.w3.org/2000/svg">
<path d="M11.2099 5.20562H7.47492V1.47062C7.47492 1.01231 7.10324 0.640625 6.64492 0.640625H5.81492C5.35661 0.640625 4.98492 1.01231 4.98492 1.47062V5.20562H1.24992C0.791606 5.20562 0.419922 5.57731 0.419922 6.03562V6.86562C0.419922 7.32394 0.791606 7.69562 1.24992 7.69562H4.98492V11.4306C4.98492 11.8889 5.35661 12.2606 5.81492 12.2606H6.64492C7.10324 12.2606 7.47492 11.8889 7.47492 11.4306V7.69562H11.2099C11.6682 7.69562 12.0399 7.32394 12.0399 6.86562V6.03562C12.0399 5.57731 11.6682 5.20562 11.2099 5.20562Z" fill="#4E7B10"/>
</svg>
