<svg width="19" height="18" viewBox="0 0 19 18" fill="none" xmlns="http://www.w3.org/2000/svg">
<path d="M2.91711 5.96854V5.9698C2.57079 5.96854 2.28995 6.24938 2.28995 6.59571C2.28995 6.94203 2.57079 7.22287 2.91711 7.22287H16.1003C16.4453 7.22287 16.7262 6.94203 16.7262 6.59571C16.7262 6.24938 16.4453 5.96855 16.1003 5.96855L2.91711 5.96854ZM7.34363 9.00614V9.0074C7.22147 9.00614 7.10435 9.05526 7.01872 9.14089C6.93183 9.22779 6.88271 9.34491 6.88271 9.46706V10.2932C6.88271 10.4154 6.93182 10.5325 7.01872 10.6194C7.10436 10.7063 7.22148 10.7541 7.34363 10.7541V10.7554L8.16978 10.7541C8.42417 10.7541 8.63071 10.5476 8.63071 10.2932V9.46706C8.63071 9.21392 8.42418 9.00738 8.16978 9.00738L7.34363 9.00614ZM10.8458 9.00614V9.0074C10.7237 9.00614 10.6066 9.05526 10.5197 9.14089C10.434 9.22779 10.3849 9.34491 10.3849 9.46706V10.2932C10.3849 10.4154 10.434 10.5325 10.5197 10.6194C10.6066 10.7063 10.7237 10.7541 10.8458 10.7541V10.7554L11.672 10.7541C11.9264 10.7541 12.1329 10.5476 12.1329 10.2932V9.46706C12.1329 9.21392 11.9264 9.00738 11.672 9.00738L10.8458 9.00614ZM14.3481 9.00614V9.0074C14.2259 9.00614 14.1088 9.05526 14.0219 9.14089C13.9362 9.22779 13.8871 9.34491 13.8871 9.46706V10.2932C13.8871 10.4154 13.9362 10.5325 14.0219 10.6194C14.1088 10.7063 14.2259 10.7541 14.3481 10.7541V10.7554L15.1742 10.7541C15.4286 10.7541 15.6339 10.5476 15.6339 10.2932V9.46706C15.6339 9.21392 15.4286 9.00738 15.1742 9.00738L14.3481 9.00614ZM3.8411 12.9378C3.71894 12.9378 3.60182 12.9856 3.51619 13.0725C3.4293 13.1582 3.38144 13.2766 3.38144 13.3987V14.2249C3.38144 14.347 3.4293 14.4641 3.51619 14.551C3.60183 14.6367 3.71895 14.6858 3.8411 14.6858H3.84236L4.66725 14.6845C4.92164 14.6845 5.12818 14.478 5.12818 14.2236V13.3987C5.12818 13.1443 4.92165 12.9378 4.66725 12.9378L3.8411 12.9378ZM10.8458 12.9378C10.7237 12.9378 10.6066 12.9856 10.5197 13.0725C10.434 13.1582 10.3849 13.2766 10.3849 13.3987V14.2249C10.3849 14.347 10.434 14.4641 10.5197 14.551C10.6066 14.6367 10.7237 14.6858 10.8458 14.6858L11.672 14.6845C11.9264 14.6845 12.1329 14.478 12.1329 14.2236V13.3987C12.1329 13.1443 11.9264 12.9378 11.672 12.9378L10.8458 12.9378ZM7.34363 12.9378C7.22147 12.9378 7.10435 12.9856 7.01872 13.0725C6.93183 13.1594 6.88271 13.2766 6.88271 13.3987V14.2249C6.88271 14.347 6.93182 14.4641 7.01872 14.551C7.10436 14.6367 7.22148 14.6858 7.34363 14.6858L8.16978 14.6845C8.42417 14.6845 8.63071 14.478 8.63071 14.2248V13.3987C8.63071 13.1443 8.42418 12.9378 8.16978 12.9378L7.34363 12.9378ZM14.3484 12.9378C14.2262 12.9378 14.1091 12.9856 14.0222 13.0725C13.9366 13.1594 13.8875 13.2766 13.8875 13.3987V14.2249C13.8875 14.347 13.9366 14.4641 14.0222 14.551C14.1091 14.6367 14.2262 14.6858 14.3484 14.6858L15.1745 14.6845C15.4289 14.6845 15.6342 14.478 15.6342 14.2248V13.3987C15.6342 13.1443 15.4289 12.9378 15.1745 12.9378L14.3484 12.9378ZM16.6253 2.89058C17.2449 2.89184 17.7474 3.39558 17.7474 4.0152V15.5474C17.7474 16.1682 17.2449 16.672 16.6253 16.6733H2.3908C1.77118 16.672 1.26869 16.1682 1.26869 15.5474V4.0152C1.26869 3.39558 1.77118 2.89184 2.3908 2.89058H4.78612V3.82376H4.49143V3.82502H4.49017C4.14385 3.82502 3.86426 4.10586 3.86426 4.45092C3.86426 4.79724 4.1451 5.07808 4.49142 5.07808H6.33515C6.68147 5.07808 6.96231 4.79724 6.96231 4.45092C6.96231 4.10586 6.68148 3.82502 6.33515 3.82502H6.04046V2.89058H12.9759V3.82376H12.6812V3.82502H12.6799C12.3349 3.82502 12.054 4.1046 12.054 4.45092C12.054 4.79725 12.3349 5.07808 12.6812 5.07808H14.5249C14.8712 5.07808 15.1521 4.79725 15.1521 4.45092C15.1521 4.10586 14.8712 3.82502 14.5249 3.82502H14.2302V2.89058L16.6253 2.89058ZM5.41328 0.0292969V0.0305562L5.41202 0.0292969C5.06696 0.0292969 4.78611 0.310135 4.78611 0.656458V1.63626H2.39457C1.08231 1.63626 0.0181397 2.69791 0.015625 4.01017V15.5523C0.0181436 16.8646 1.08231 17.9262 2.39457 17.9275H16.6217C17.9339 17.9262 18.9981 16.8646 19.0006 15.5523V4.01017C18.9981 2.69791 17.9339 1.63626 16.6217 1.63626H14.2301V0.656458C14.2301 0.310138 13.9493 0.0292969 13.603 0.0292969V0.0305562L13.6017 0.0292969C13.2566 0.0292969 12.9758 0.310135 12.9758 0.656458V1.63626H6.04037V0.656458C6.04037 0.310138 5.7596 0.0292969 5.41328 0.0292969Z" fill="#FE8235"/>
</svg>
