<svg width="15" height="15" viewBox="0 0 13 13" fill="none" xmlns="http://www.w3.org/2000/svg">
<path d="M6.50076 0.134766C2.99186 0.134766 0.136719 2.9899 0.136719 6.49881C0.136719 10.0077 2.99186 12.8629 6.50076 12.8629C10.0097 12.8629 12.8648 10.0077 12.8648 6.49881C12.8648 2.9899 10.0097 0.134766 6.50076 0.134766ZM6.50076 0.798828C8.93123 0.798828 11.0111 2.3285 11.8292 4.47541L8.29539 3.88705C7.91488 3.30932 7.25281 2.92615 6.50076 2.92615C5.74971 2.92615 5.08863 3.30832 4.70779 3.88406L1.17332 4.47275C1.99211 2.32717 4.07129 0.798828 6.50076 0.798828ZM7.97166 5.01795C7.97166 5.80486 7.31191 6.44535 6.50076 6.44535C5.68961 6.44535 5.02986 5.80486 5.02986 5.01795C5.02986 4.2307 5.68961 3.59021 6.50076 3.59021C7.31191 3.59021 7.97166 4.2307 7.97166 5.01795ZM0.823691 7.00615C3.18941 7.59783 4.98604 9.6385 5.27125 12.0646C2.87797 11.5364 1.04482 9.49937 0.823691 7.00615ZM6.50076 12.1988C6.31482 12.1988 6.13088 12.1895 5.94959 12.1719C5.82541 10.7667 5.24602 9.42334 4.30338 8.36781C3.381 7.33486 2.14717 6.61436 0.804102 6.31918C0.816055 5.92937 0.867519 5.54887 0.954844 5.1823L4.4073 4.60756C4.38008 4.74004 4.3658 4.8775 4.3658 5.01795C4.3658 6.17109 5.32338 7.10941 6.50076 7.10941C7.67814 7.10941 8.63572 6.17109 8.63572 5.01795C8.63572 4.87816 8.62145 4.74203 8.59488 4.60988L12.0473 5.18496C12.134 5.55086 12.1855 5.93004 12.1974 6.31918C10.8291 6.61934 9.57271 7.36375 8.64635 8.42658C7.73459 9.47248 7.17379 10.7936 7.05193 12.1719C6.87064 12.1895 6.6867 12.1988 6.50076 12.1988ZM7.72994 12.0646C8.01184 9.61492 9.77891 7.59982 12.1778 7.00582C11.957 9.49937 10.1236 11.5364 7.72994 12.0646Z" fill="#6B779A"/>
</svg>
