<svg width="32" height="32" viewBox="0 0 32 32" fill="none" xmlns="http://www.w3.org/2000/svg">
<path d="M26.7412 26.7434L24.535 27.3346L23.2325 22.4734C24.2627 21.9574 25.0835 21.102 25.5565 20.0514C26.0294 19.0008 26.1256 17.8192 25.8288 16.7059C24.2537 10.8309 20.9813 5.67836 20.8425 5.46211C20.7296 5.28564 20.5641 5.14907 20.3695 5.0717C20.1748 4.99432 19.9607 4.98003 19.7575 5.03086L17.025 5.71461C17.025 4.68336 17.0025 4.03586 16.9988 3.95461C16.9888 3.73979 16.9098 3.5339 16.7736 3.3675C16.6374 3.2011 16.4511 3.08305 16.2425 3.03086L12.2425 2.03086C12.0393 1.98003 11.8252 1.99432 11.6305 2.0717C11.4359 2.14907 11.2704 2.28564 11.1575 2.46211C11.0188 2.67836 7.74625 7.82836 6.17125 13.7121C5.87442 14.8254 5.97059 16.007 6.44353 17.0576C6.91648 18.1083 7.73728 18.9637 8.7675 19.4796L7.465 24.3346L5.25875 23.7434C5.00248 23.6747 4.72945 23.7107 4.49972 23.8434C4.26999 23.9761 4.10237 24.1946 4.03375 24.4509C3.96513 24.7071 4.00111 24.9802 4.13379 25.2099C4.26648 25.4396 4.48498 25.6072 4.74125 25.6759L10.7413 27.2834C10.8257 27.3055 10.9127 27.3169 11 27.3171C11.2428 27.3174 11.4774 27.2293 11.6601 27.0693C11.8427 26.9093 11.9609 26.6883 11.9926 26.4476C12.0243 26.2068 11.9673 25.9628 11.8323 25.761C11.6972 25.5592 11.4934 25.4134 11.2587 25.3509L9.39625 24.8509L10.6987 19.9896C10.8 19.9959 10.9 19.9996 11 19.9996C11.9921 19.9968 12.961 19.6998 13.7843 19.1463C14.6076 18.5927 15.2482 17.8073 15.625 16.8896C15.7725 17.6859 15.95 18.4921 16.1637 19.2921C16.4499 20.3561 17.0788 21.296 17.9531 21.9664C18.8273 22.6369 19.8982 23.0005 21 23.0009C21.1 23.0009 21.2 23.0009 21.3013 22.9909L22.6038 27.8521L20.7412 28.3521C20.5077 28.4156 20.3051 28.5616 20.171 28.763C20.0369 28.9645 19.9804 29.2077 20.012 29.4477C20.0436 29.6876 20.1612 29.9079 20.3428 30.0678C20.5245 30.2277 20.758 30.3163 21 30.3171C21.0873 30.3169 21.1743 30.3055 21.2588 30.2834L27.2588 28.6759C27.515 28.6072 27.7335 28.4396 27.8662 28.2099C27.9989 27.9802 28.0349 27.7071 27.9662 27.4509C27.8976 27.1946 27.73 26.9761 27.5003 26.8434C27.2705 26.7107 26.9975 26.6747 26.7412 26.7434ZM19.5275 7.14961C19.875 7.73711 20.4312 8.71711 21.0525 9.95711L17 10.9721C16.9475 9.72211 16.9525 8.69086 16.9688 7.99836C16.9688 7.92836 16.975 7.85836 16.9788 7.78836L19.5275 7.14961ZM12.4725 4.14961L15.0188 4.78586C15.0262 5.32086 15.0188 6.11961 14.9925 7.09461C14.985 7.24586 14.9725 7.49336 14.9637 7.82461C14.9637 7.94961 14.9513 8.07461 14.9438 8.19961L10.8363 7.17961C11.5 5.83461 12.105 4.77086 12.4725 4.14961ZM13.8962 15.7859C13.6813 16.5452 13.1757 17.1893 12.4892 17.5785C11.8026 17.9677 10.9903 18.0707 10.2284 17.8652C9.46641 17.6596 8.81612 17.1621 8.41843 16.4804C8.02074 15.7988 7.90768 14.9878 8.10375 14.2234C8.59613 12.4454 9.22294 10.7075 9.97875 9.02461L14.8013 10.2296C14.633 12.101 14.3305 13.9578 13.8962 15.7859ZM18.1012 18.7759C17.6115 16.8823 17.2849 14.9502 17.125 13.0009L21.9263 11.8009C22.7241 13.5542 23.3824 15.3677 23.895 17.2246C24.0035 17.6072 24.0349 18.0075 23.9873 18.4023C23.9397 18.7971 23.8141 19.1785 23.6178 19.5243C23.4215 19.8702 23.1584 20.1735 22.8438 20.4167C22.5291 20.66 22.1693 20.8382 21.7852 20.9411C21.4011 21.044 21.0003 21.0695 20.6063 21.0162C20.2122 20.9628 19.8327 20.8316 19.4898 20.6303C19.1469 20.4289 18.8474 20.1614 18.6088 19.8432C18.3702 19.5251 18.1973 19.1627 18.1 18.7771L18.1012 18.7759ZM23.1012 5.44836C23.0424 5.33084 23.0073 5.20288 22.9979 5.07178C22.9886 4.94069 23.0051 4.80903 23.0467 4.68435C23.0883 4.55966 23.154 4.44439 23.2401 4.34513C23.3263 4.24587 23.4312 4.16456 23.5487 4.10586L25.5487 3.10586C25.6663 3.04709 25.7942 3.01205 25.9253 3.00274C26.0564 2.99342 26.188 3.01001 26.3127 3.05157C26.4373 3.09312 26.5526 3.15882 26.6519 3.24492C26.7511 3.33102 26.8325 3.43583 26.8913 3.55336C26.95 3.67089 26.9851 3.79885 26.9944 3.92993C27.0037 4.061 26.9871 4.19263 26.9455 4.31729C26.904 4.44195 26.8383 4.55721 26.7522 4.65648C26.6661 4.75575 26.5613 4.83709 26.4438 4.89586L24.4438 5.89586C24.3262 5.95471 24.1983 5.98982 24.0672 5.99918C23.9361 6.00854 23.8044 5.99196 23.6797 5.9504C23.555 5.90884 23.4398 5.84311 23.3405 5.75696C23.2413 5.67082 23.16 5.56595 23.1012 5.44836ZM29 9.00086C29 9.26608 28.8946 9.52043 28.7071 9.70797C28.5196 9.8955 28.2652 10.0009 28 10.0009H26C25.7348 10.0009 25.4804 9.8955 25.2929 9.70797C25.1054 9.52043 25 9.26608 25 9.00086C25 8.73564 25.1054 8.48129 25.2929 8.29375C25.4804 8.10622 25.7348 8.00086 26 8.00086H28C28.2652 8.00086 28.5196 8.10622 28.7071 8.29375C28.8946 8.48129 29 8.73564 29 9.00086ZM4.105 2.55336C4.1637 2.43577 4.24501 2.3309 4.34427 2.24476C4.44353 2.15861 4.5588 2.09288 4.68349 2.05132C4.80817 2.00976 4.93983 1.99318 5.07092 2.00254C5.20202 2.0119 5.32998 2.04701 5.4475 2.10586L7.4475 3.10586C7.56503 3.16463 7.66984 3.24597 7.75594 3.34524C7.84203 3.44451 7.90774 3.55977 7.94929 3.68443C7.99085 3.80909 8.00744 3.94072 7.99812 4.07179C7.98881 4.20287 7.95377 4.33083 7.895 4.44836C7.83623 4.56589 7.75489 4.6707 7.65562 4.7568C7.55635 4.84289 7.44109 4.9086 7.31643 4.95015C7.06466 5.03407 6.78987 5.01454 6.5525 4.89586L4.5525 3.89586C4.43491 3.83716 4.33004 3.75585 4.2439 3.65659C4.15775 3.55733 4.09202 3.44206 4.05046 3.31737C4.0089 3.19269 3.99232 3.06103 4.00168 2.92994C4.01104 2.79884 4.04615 2.67088 4.105 2.55336ZM5 9.00086H3C2.73478 9.00086 2.48043 8.8955 2.29289 8.70797C2.10536 8.52043 2 8.26608 2 8.00086C2 7.73564 2.10536 7.48129 2.29289 7.29375C2.48043 7.10622 2.73478 7.00086 3 7.00086H5C5.26522 7.00086 5.51957 7.10622 5.70711 7.29375C5.89464 7.48129 6 7.73564 6 8.00086C6 8.26608 5.89464 8.52043 5.70711 8.70797C5.51957 8.8955 5.26522 9.00086 5 9.00086Z" fill="#ECA73C"/>
</svg>
