<svg width="16" height="17" viewBox="0 0 16 17" fill="red" xmlns="http://www.w3.org/2000/svg">
<path d="M8 16.5C12.4103 16.5 16 12.9103 16 8.5C16 4.08968 12.4103 0.5 8 0.5C3.58968 0.5 0 4.08968 0 8.5C0 12.9103 3.58968 16.5 8 16.5ZM8 2.04839C11.5587 2.04839 14.4516 4.94129 14.4516 8.5C14.4516 12.0587 11.5587 14.9516 8 14.9516C4.44129 14.9516 1.54839 12.0587 1.54839 8.5C1.54839 4.94129 4.44129 2.04839 8 2.04839Z" fill="#6B779A"/>
<path d="M8.13413 10.2584L9.42961 10.9784C9.54574 11.0429 9.67477 11.0764 9.80381 11.0764C10.0851 11.0764 10.3457 10.9242 10.4825 10.679C10.689 10.3048 10.5548 9.83256 10.1806 9.62611L8.8851 8.90611C8.498 8.68934 8.25542 8.28159 8.25542 7.83772V5.66482C8.25542 5.23901 7.90703 4.89062 7.48122 4.89062C7.05542 4.89062 6.70703 5.23901 6.70703 5.66482V7.83772C6.70703 8.84417 7.25413 9.77321 8.13155 10.2609L8.13413 10.2584Z" fill="#6B779A"/>
</svg>
