<svg width="17" height="17" viewBox="0 0 17 17" fill="none" xmlns="http://www.w3.org/2000/svg">
<path d="M11.1178 16.068H5.88375C5.2271 16.0573 4.60086 15.7894 4.13957 15.3219C3.67828 14.8545 3.41876 14.2247 3.41675 13.568L2.59375 4H14.4818L13.6597 13.563C13.6547 14.2322 13.3841 14.8721 12.9074 15.3418C12.4307 15.8116 11.787 16.0728 11.1178 16.068V16.068Z" stroke="#D97474" stroke-miterlimit="10"/>
<path d="M6.45312 7.03516V13.0312" stroke="#D97474" stroke-miterlimit="10" stroke-linecap="round"/>
<path d="M10.5508 7.03516V13.0312" stroke="#D97474" stroke-miterlimit="10" stroke-linecap="round"/>
<path d="M3.58025 4C3.54941 3.63659 3.59051 3.27066 3.70121 2.92314C3.8119 2.57562 3.99002 2.25334 4.22536 1.97471C4.46071 1.69609 4.74867 1.46658 5.07278 1.29934C5.39689 1.13209 5.7508 1.03037 6.11425 1H10.9593C11.6804 1.07856 12.3419 1.43676 12.8019 1.99766C13.2618 2.55857 13.4835 3.27747 13.4193 4H3.58025Z" stroke="#D97474" stroke-miterlimit="10"/>
<path d="M1 4H16" stroke="#D97474" stroke-miterlimit="10" stroke-linecap="round"/>
</svg>
