<svg width="24" height="24" viewBox="0 0 24 24" fill="none" xmlns="http://www.w3.org/2000/svg">
<g clip-path="url(#clip0_364_7539)">
<path d="M20.9803 4H3.72558C2.77673 4 2 4.80027 2 5.77787V18.2221C2 19.1997 2.77673 20 3.72558 20H20.9803C21.9292 20 22.7059 19.1997 22.7059 18.2221V5.77787C22.7059 4.80027 21.9292 4 20.9803 4ZM8.03913 7.55547C8.99315 7.55547 9.76471 8.35147 9.76471 9.33333C9.76471 10.3152 8.99315 11.1112 8.03913 11.1112C7.08536 11.1112 6.31381 10.3152 6.31381 9.33333C6.31381 8.35147 7.08536 7.55547 8.03913 7.55547ZM11.4903 16.4445H4.58824V14.6675C4.58837 14.196 4.77023 13.7439 5.09381 13.4106C5.4174 13.0772 5.85623 12.8899 6.31381 12.8899L9.76471 12.8888C9.99133 12.8887 10.2157 12.9347 10.4251 13.024C10.6345 13.1133 10.8248 13.2443 10.985 13.4094C11.1453 13.5745 11.2724 13.7705 11.3591 13.9862C11.4458 14.202 11.4904 14.4332 11.4903 14.6667V16.4445ZM20.1176 16.4445H13.7647V15.0151H20.1176V16.4445ZM20.1176 12.8888H14.1568V11.5294H20.1176V12.8888ZM20.1176 9.33333H12.4315V7.76471H20.1176V9.33333Z" fill="url(#paint0_linear_364_7539)"/>
</g>
<defs>
<linearGradient id="paint0_linear_364_7539" x1="22.7059" y1="11.9999" x2="-49.3916" y2="11.9999" gradientUnits="userSpaceOnUse">
<stop stop-color="#E92F48"/>
<stop offset="1" stop-color="white"/>
</linearGradient>
<clipPath id="clip0_364_7539">
<rect width="24" height="24" fill="white"/>
</clipPath>
</defs>
</svg>
