<svg width="29" height="29" viewBox="0 0 29 29" fill="none" xmlns="http://www.w3.org/2000/svg">
<circle cx="14.5" cy="14.5" r="14.5" fill="#ECA73C"/>
<circle cx="14.5" cy="14.5" r="14.5" fill="#FE8235"/>
<path d="M23.4 14.4H21.5723C21.43 12.8641 20.7552 11.4263 19.6644 10.3356C18.5737 9.24485 17.1359 8.56995 15.6 8.42775V6.6C15.6 6.44087 15.5368 6.28826 15.4243 6.17574C15.3117 6.06321 15.1591 6 15 6C14.8409 6 14.6883 6.06321 14.5757 6.17574C14.4632 6.28826 14.4 6.44087 14.4 6.6V8.42775C12.8641 8.56995 11.4263 9.24485 10.3356 10.3356C9.24485 11.4263 8.56995 12.8641 8.42775 14.4H6.6C6.44087 14.4 6.28826 14.4632 6.17574 14.5757C6.06321 14.6883 6 14.8409 6 15C6 15.1591 6.06321 15.3117 6.17574 15.4243C6.28826 15.5368 6.44087 15.6 6.6 15.6H8.42775C8.56995 17.1359 9.24485 18.5737 10.3356 19.6644C11.4263 20.7552 12.8641 21.43 14.4 21.5723V23.4C14.4 23.5591 14.4632 23.7117 14.5757 23.8243C14.6883 23.9368 14.8409 24 15 24C15.1591 24 15.3117 23.9368 15.4243 23.8243C15.5368 23.7117 15.6 23.5591 15.6 23.4V21.5723C17.1359 21.43 18.5737 20.7552 19.6644 19.6644C20.7552 18.5737 21.43 17.1359 21.5723 15.6H23.4C23.5591 15.6 23.7117 15.5368 23.8243 15.4243C23.9368 15.3117 24 15.1591 24 15C24 14.8409 23.9368 14.6883 23.8243 14.5757C23.7117 14.4632 23.5591 14.4 23.4 14.4ZM15 20.4C13.932 20.4 12.8879 20.0833 11.9999 19.4899C11.1119 18.8966 10.4198 18.0532 10.0111 17.0665C9.60234 16.0798 9.4954 14.994 9.70376 13.9465C9.91212 12.899 10.4264 11.9368 11.1816 11.1816C11.9368 10.4264 12.899 9.91212 13.9465 9.70376C14.994 9.4954 16.0798 9.60234 17.0665 10.0111C18.0532 10.4198 18.8966 11.1119 19.4899 11.9999C20.0833 12.8879 20.4 13.932 20.4 15C20.3984 16.4317 19.829 17.8043 18.8166 18.8166C17.8043 19.829 16.4317 20.3984 15 20.4ZM15 12C14.4067 12 13.8266 12.1759 13.3333 12.5056C12.8399 12.8352 12.4554 13.3038 12.2284 13.852C12.0013 14.4001 11.9419 15.0033 12.0576 15.5853C12.1734 16.1672 12.4591 16.7018 12.8787 17.1213C13.2982 17.5409 13.8328 17.8266 14.4147 17.9424C14.9967 18.0581 15.5999 17.9987 16.1481 17.7716C16.6962 17.5446 17.1648 17.1601 17.4944 16.6667C17.8241 16.1734 18 15.5933 18 15C18 14.2044 17.6839 13.4413 17.1213 12.8787C16.5587 12.3161 15.7956 12 15 12ZM15 16.8C14.644 16.8 14.296 16.6944 14 16.4966C13.704 16.2989 13.4733 16.0177 13.337 15.6888C13.2008 15.3599 13.1651 14.998 13.2346 14.6488C13.304 14.2997 13.4755 13.9789 13.7272 13.7272C13.9789 13.4755 14.2997 13.304 14.6488 13.2346C14.998 13.1651 15.3599 13.2008 15.6888 13.337C16.0177 13.4733 16.2989 13.704 16.4966 14C16.6944 14.296 16.8 14.644 16.8 15C16.8 15.4774 16.6104 15.9352 16.2728 16.2728C15.9352 16.6104 15.4774 16.8 15 16.8Z" fill="white"/>
</svg>
