<svg width="21" height="21" viewBox="0 0 21 21" fill="none" xmlns="http://www.w3.org/2000/svg">
<path d="M10.5 0.34375C8.49129 0.34375 6.52768 0.939404 4.85749 2.05539C3.18731 3.17137 1.88556 4.75756 1.11685 6.61337C0.348151 8.46918 0.147023 10.5113 0.538904 12.4814C0.930785 14.4515 1.89807 16.2612 3.31845 17.6816C4.73883 19.1019 6.5485 20.0692 8.51862 20.4611C10.4887 20.853 12.5308 20.6519 14.3866 19.8832C16.2424 19.1145 17.8286 17.8127 18.9446 16.1425C20.0606 14.4723 20.6563 12.5087 20.6563 10.5C20.6534 7.80727 19.5825 5.22564 17.6784 3.32159C15.7744 1.41754 13.1927 0.346594 10.5 0.34375ZM10.5 19.0938C8.80032 19.0938 7.13881 18.5897 5.72557 17.6454C4.31234 16.7011 3.21086 15.359 2.56041 13.7887C1.90997 12.2184 1.73979 10.4905 2.07138 8.82344C2.40297 7.15642 3.22145 5.62516 4.42331 4.4233C5.62516 3.22144 7.15642 2.40297 8.82345 2.07138C10.4905 1.73978 12.2184 1.90997 13.7887 2.56041C15.359 3.21085 16.7012 4.31233 17.6454 5.72557C18.5897 7.1388 19.0938 8.80032 19.0938 10.5C19.0912 12.7784 18.1849 14.9628 16.5739 16.5738C14.9628 18.1849 12.7784 19.0912 10.5 19.0938ZM9.71875 11.2813V5.8125C9.71875 5.6053 9.80107 5.40659 9.94758 5.26007C10.0941 5.11356 10.2928 5.03125 10.5 5.03125C10.7072 5.03125 10.9059 5.11356 11.0524 5.26007C11.1989 5.40659 11.2813 5.6053 11.2813 5.8125V11.2813C11.2813 11.4885 11.1989 11.6872 11.0524 11.8337C10.9059 11.9802 10.7072 12.0625 10.5 12.0625C10.2928 12.0625 10.0941 11.9802 9.94758 11.8337C9.80107 11.6872 9.71875 11.4885 9.71875 11.2813ZM11.6719 14.7969C11.6719 15.0287 11.6032 15.2552 11.4744 15.4479C11.3456 15.6406 11.1626 15.7909 10.9485 15.8795C10.7343 15.9682 10.4987 15.9915 10.2714 15.9462C10.0441 15.901 9.83525 15.7894 9.67136 15.6255C9.50747 15.4616 9.39586 15.2528 9.35065 15.0255C9.30543 14.7982 9.32864 14.5626 9.41733 14.3484C9.50603 14.1343 9.65623 13.9513 9.84895 13.8225C10.0417 13.6937 10.2682 13.625 10.5 13.625C10.8108 13.625 11.1089 13.7485 11.3286 13.9682C11.5484 14.188 11.6719 14.4861 11.6719 14.7969Z" fill="black"/>
<path d="M10.5 0.34375C8.49129 0.34375 6.52768 0.939404 4.85749 2.05539C3.18731 3.17137 1.88556 4.75756 1.11685 6.61337C0.348151 8.46918 0.147023 10.5113 0.538904 12.4814C0.930785 14.4515 1.89807 16.2612 3.31845 17.6816C4.73883 19.1019 6.5485 20.0692 8.51862 20.4611C10.4887 20.853 12.5308 20.6519 14.3866 19.8832C16.2424 19.1145 17.8286 17.8127 18.9446 16.1425C20.0606 14.4723 20.6563 12.5087 20.6563 10.5C20.6534 7.80727 19.5825 5.22564 17.6784 3.32159C15.7744 1.41754 13.1927 0.346594 10.5 0.34375ZM10.5 19.0938C8.80032 19.0938 7.13881 18.5897 5.72557 17.6454C4.31234 16.7011 3.21086 15.359 2.56041 13.7887C1.90997 12.2184 1.73979 10.4905 2.07138 8.82344C2.40297 7.15642 3.22145 5.62516 4.42331 4.4233C5.62516 3.22144 7.15642 2.40297 8.82345 2.07138C10.4905 1.73978 12.2184 1.90997 13.7887 2.56041C15.359 3.21085 16.7012 4.31233 17.6454 5.72557C18.5897 7.1388 19.0938 8.80032 19.0938 10.5C19.0912 12.7784 18.1849 14.9628 16.5739 16.5738C14.9628 18.1849 12.7784 19.0912 10.5 19.0938ZM9.71875 11.2813V5.8125C9.71875 5.6053 9.80107 5.40659 9.94758 5.26007C10.0941 5.11356 10.2928 5.03125 10.5 5.03125C10.7072 5.03125 10.9059 5.11356 11.0524 5.26007C11.1989 5.40659 11.2813 5.6053 11.2813 5.8125V11.2813C11.2813 11.4885 11.1989 11.6872 11.0524 11.8337C10.9059 11.9802 10.7072 12.0625 10.5 12.0625C10.2928 12.0625 10.0941 11.9802 9.94758 11.8337C9.80107 11.6872 9.71875 11.4885 9.71875 11.2813ZM11.6719 14.7969C11.6719 15.0287 11.6032 15.2552 11.4744 15.4479C11.3456 15.6406 11.1626 15.7909 10.9485 15.8795C10.7343 15.9682 10.4987 15.9915 10.2714 15.9462C10.0441 15.901 9.83525 15.7894 9.67136 15.6255C9.50747 15.4616 9.39586 15.2528 9.35065 15.0255C9.30543 14.7982 9.32864 14.5626 9.41733 14.3484C9.50603 14.1343 9.65623 13.9513 9.84895 13.8225C10.0417 13.6937 10.2682 13.625 10.5 13.625C10.8108 13.625 11.1089 13.7485 11.3286 13.9682C11.5484 14.188 11.6719 14.4861 11.6719 14.7969Z" fill="#000105"/>
</svg>
