<svg width="26" height="25" viewBox="0 0 26 25" fill="none" xmlns="http://www.w3.org/2000/svg">
<path d="M23.086 13.1834C22.8494 12.2997 22.4092 11.4836 21.8006 10.8006C21.192 10.1176 20.4319 9.58655 19.5812 9.25005C18.7305 8.91354 17.8128 8.78091 16.9017 8.86277C15.9905 8.94463 15.1112 9.23871 14.3341 9.72145L15.9347 3.33083C15.9744 3.17205 15.9632 3.00481 15.9028 2.85272C15.8423 2.70063 15.7356 2.57137 15.5977 2.48317C14.9333 2.06359 14.1912 1.78197 13.4157 1.65505C12.6401 1.52813 11.847 1.55851 11.0834 1.74438C10.3199 1.93026 9.60154 2.26783 8.97111 2.737C8.34069 3.20618 7.81109 3.79738 7.41382 4.47542C7.01655 5.15345 6.75973 5.90448 6.65864 6.6838C6.55756 7.46312 6.61427 8.25481 6.82541 9.01177C7.03655 9.76872 7.3978 10.4755 7.88766 11.09C8.37752 11.7044 8.98598 12.2141 9.67685 12.5886L3.34188 14.3982C3.1845 14.443 3.04517 14.5361 2.94354 14.6644C2.84192 14.7927 2.78313 14.9496 2.77548 15.1131C2.71535 16.447 3.11262 17.7614 3.9015 18.8387C4.69038 19.916 5.82355 20.6915 7.11337 21.0369C7.61085 21.1705 8.12366 21.2384 8.63876 21.239C9.42368 21.237 10.2002 21.0774 10.9223 20.7697C11.6445 20.4621 12.2975 20.0127 12.8428 19.4481C13.3881 18.8835 13.8145 18.2152 14.0968 17.4828C14.3792 16.7505 14.5116 15.9689 14.4864 15.1843L19.2208 19.7664C19.3385 19.8803 19.4891 19.9543 19.6512 19.978C19.8133 20.0016 19.9787 19.9737 20.1241 19.8982C21.3087 19.2836 22.248 18.283 22.7866 17.062C23.3252 15.8409 23.4308 14.4726 23.086 13.1834ZM11.2696 12.4998C11.2696 12.1907 11.3613 11.8886 11.5329 11.6317C11.7046 11.3747 11.9487 11.1745 12.2342 11.0562C12.5197 10.9379 12.8339 10.907 13.1369 10.9673C13.44 11.0276 13.7185 11.1764 13.937 11.3949C14.1555 11.6134 14.3043 11.8918 14.3646 12.1949C14.4249 12.498 14.3939 12.8122 14.2757 13.0977C14.1574 13.3832 13.9571 13.6273 13.7002 13.7989C13.4432 13.9706 13.1412 14.0623 12.8321 14.0623C12.4177 14.0623 12.0203 13.8977 11.7273 13.6046C11.4342 13.3116 11.2696 12.9142 11.2696 12.4998ZM8.14462 7.42165C8.14437 6.69762 8.32708 5.98526 8.67579 5.35074C9.02449 4.71621 9.52788 4.18009 10.1392 3.79215C10.7505 3.40421 11.45 3.17704 12.1726 3.13173C12.8952 3.08642 13.6175 3.22444 14.2725 3.53298L12.8097 9.37477C12.2499 9.37897 11.7016 9.53345 11.2219 9.82205C10.7423 10.1107 10.349 10.5228 10.0831 11.0154C9.48632 10.6251 8.99645 10.092 8.65794 9.46445C8.31942 8.83687 8.14298 8.1347 8.14462 7.42165ZM10.7813 19.0984C10.1545 19.4606 9.44621 19.6586 8.72236 19.6739C7.99852 19.6891 7.28255 19.5213 6.64093 19.1859C5.99931 18.8504 5.45285 18.3583 5.05228 17.7552C4.65172 17.1521 4.41004 16.4576 4.3497 15.7361L10.1417 14.0818C10.4171 14.5509 10.8101 14.94 11.282 15.2106C11.7538 15.4812 12.2882 15.624 12.8321 15.6248H12.921C12.8817 16.3361 12.6654 17.0264 12.2918 17.633C11.9181 18.2396 11.3989 18.7433 10.7813 19.0984ZM21.1495 16.8523C20.8334 17.4006 20.3998 17.8722 19.88 18.2332L15.5518 14.0447C15.8288 13.5582 15.9696 13.0061 15.9595 12.4465C15.9493 11.8868 15.7886 11.3401 15.4942 10.864C16.3206 10.4469 17.2595 10.3077 18.1713 10.4673C19.0831 10.6269 19.919 11.0766 20.5546 11.7496C21.1902 12.4226 21.5914 13.2828 21.6986 14.2023C21.8058 15.1217 21.6132 16.0512 21.1495 16.8523Z" fill="#FE8235"/>
</svg>
