<svg width="22" height="22" viewBox="0 0 22 22" fill="none" xmlns="http://www.w3.org/2000/svg">
<path d="M16.9656 7.56289C17.424 7.56289 17.7906 7.19622 17.7906 6.73789V2.47539C17.7906 2.01706 17.424 1.65039 16.9656 1.65039C16.5073 1.65039 16.1406 2.01706 16.1406 2.47539V6.73789C16.1406 7.18706 16.5165 7.56289 16.9656 7.56289Z" fill="#1A1E25"/>
<path d="M10.9969 14.4375C10.5385 14.4375 10.1719 14.8042 10.1719 15.2625V19.525C10.1719 19.9833 10.5385 20.35 10.9969 20.35C11.4552 20.35 11.8219 19.9833 11.8219 19.525V15.2625C11.8219 14.8133 11.4552 14.4375 10.9969 14.4375Z" fill="#1A1E25"/>
<path d="M5.03594 7.56289C5.49427 7.56289 5.86094 7.19622 5.86094 6.73789V2.47539C5.86094 2.01706 5.49427 1.65039 5.03594 1.65039C4.5776 1.65039 4.21094 2.01706 4.21094 2.47539V6.73789C4.21094 7.18706 4.5776 7.56289 5.03594 7.56289Z" fill="#1A1E25"/>
<path d="M6.735 9.32227H3.325C2.86667 9.32227 2.5 9.68893 2.5 10.1473C2.5 10.6056 2.86667 10.9723 3.325 10.9723H4.205V19.5248C4.205 19.9831 4.57167 20.3498 5.03 20.3498C5.48833 20.3498 5.855 19.9831 5.855 19.5248V10.9723H6.735C7.19333 10.9723 7.56 10.6056 7.56 10.1473C7.56 9.68893 7.18417 9.32227 6.735 9.32227Z" fill="#1A1E25"/>
<path d="M18.6725 9.32251H15.2625C14.8042 9.32251 14.4375 9.68918 14.4375 10.1475C14.4375 10.6058 14.8042 10.9725 15.2625 10.9725H16.1425V19.525C16.1425 19.9833 16.5092 20.35 16.9675 20.35C17.4258 20.35 17.7925 19.9833 17.7925 19.525V10.9725H18.6725C19.1308 10.9725 19.4975 10.6058 19.4975 10.1475C19.4975 9.68918 19.1308 9.32251 18.6725 9.32251Z" fill="#1A1E25"/>
<path d="M12.7038 11.0279H11.8238V2.47539C11.8238 2.01706 11.4571 1.65039 10.9988 1.65039C10.5404 1.65039 10.1738 2.01706 10.1738 2.47539V11.0279H9.29375C8.83542 11.0279 8.46875 11.3946 8.46875 11.8529C8.46875 12.3112 8.83542 12.6779 9.29375 12.6779H12.7038C13.1621 12.6779 13.5288 12.3112 13.5288 11.8529C13.5288 11.3946 13.1621 11.0279 12.7038 11.0279Z" fill="#1A1E25"/>
</svg>
