<svg width="21" height="21" viewBox="0 0 21 21" fill="none" xmlns="http://www.w3.org/2000/svg">
<path d="M13.7015 0.505241C9.33774 -0.940231 4.5237 0.816268 1.87868 4.49283C-0.788968 8.20089 -0.562639 13.4153 2.22051 16.9818C5.01065 20.5571 9.94509 21.9388 14.191 20.3405C18.2623 18.808 20.9701 14.8426 20.9997 10.5094C20.9687 5.96094 18.0148 1.93391 13.7015 0.505241ZM12.0388 19.4193C7.77723 20.2157 3.43918 17.6115 1.97971 13.5752C0.483375 9.4373 2.28141 4.78589 6.0751 2.6199C9.91429 0.427776 14.8011 1.51345 17.5663 4.87362C18.8604 6.44603 19.5195 8.48882 19.5335 10.5094C19.5029 14.896 16.339 18.6155 12.0388 19.4193ZM15.8203 8.02333C15.4932 8.35022 15.1661 8.67712 14.8392 9.00401C13.3706 10.4719 11.902 11.9398 10.4334 13.4076C10.0718 13.7691 9.71036 14.1305 9.3487 14.4919C9.26167 14.5789 9.16531 14.6396 9.06474 14.679C8.41026 14.9887 7.8183 14.1816 7.39901 13.7625C6.69039 13.0544 5.982 12.3462 5.27362 11.6381C4.99852 11.3634 4.62963 11.0057 4.80649 10.571C5.07599 9.90816 5.79137 9.76373 6.29536 10.2677C6.94588 10.9178 7.59594 11.5678 8.24646 12.2179C8.41049 12.3819 8.57452 12.5459 8.73855 12.71C9.91733 11.5319 11.0961 10.3536 12.2746 9.17551C12.9308 8.51962 13.5869 7.86373 14.2432 7.20785C14.6786 6.77245 15.2571 6.00644 15.9391 6.52676C15.9736 6.55312 16.0053 6.58252 16.0343 6.61332C16.0655 6.64226 16.0945 6.67399 16.1211 6.70876C16.4977 7.20178 16.1754 7.66844 15.8203 8.02333Z" fill="#1BB003"/>
</svg>
