<svg width="20" height="23" viewBox="0 0 20 23" fill="none" xmlns="http://www.w3.org/2000/svg">
<path d="M3.34568 20.7H15.8204L15.716 22.6377C15.7054 22.8409 15.5368 23 15.3336 23H3.83355C3.63039 23 3.46172 22.8409 3.45118 22.6377L3.34568 20.7ZM15.3335 4.21664C15.1677 4.21664 14.999 4.22814 14.8284 4.2521C14.3099 1.80164 12.1221 0 9.58341 0C7.04468 0 4.85679 1.80167 4.3384 4.2521C4.16781 4.22814 3.99915 4.21664 3.83335 4.21664C1.71926 4.21664 0 5.93588 0 8.04995C0 9.80754 1.18641 11.3197 2.86256 11.7557L3.30436 19.9331H6.13332V16.8665C6.13332 16.6547 6.30486 16.4831 6.51665 16.4831C6.72844 16.4831 6.89999 16.6547 6.89999 16.8665V19.9331H9.2V16.0998C9.2 15.888 9.37154 15.7165 9.58333 15.7165C9.79513 15.7165 9.96667 15.888 9.96667 16.0998V19.9331H12.2667V16.8665C12.2667 16.6547 12.4382 16.4831 12.65 16.4831C12.8618 16.4831 13.0333 16.6547 13.0333 16.8665V19.9331H15.8623L16.3041 11.7557C17.9802 11.3197 19.1667 9.80741 19.1667 8.04995C19.1667 5.93588 17.4476 4.21664 15.3335 4.21664Z" fill="url(#paint0_linear_364_7549)"/>
<defs>
<linearGradient id="paint0_linear_364_7549" x1="19.1667" y1="11.4998" x2="-47.5713" y2="11.4998" gradientUnits="userSpaceOnUse">
<stop stop-color="#E92F48"/>
<stop offset="1" stop-color="white"/>
</linearGradient>
</defs>
</svg>
