<svg width="17" height="17" viewBox="0 0 17 17" fill="none" xmlns="http://www.w3.org/2000/svg">
<path d="M8.92945 1.00215C7.19946 1.00215 5.61826 1.91638 4.65666 3.36578C4.57368 3.35979 4.48996 3.35375 4.40585 3.35375C2.52819 3.35375 1.00001 4.88646 1 6.76377C1.00001 8.22194 1.93093 9.50571 3.28966 9.97714L3.94141 15.2724C3.93989 15.695 4.20301 16.0778 4.60401 16.2244C4.62677 16.2333 4.65131 16.2393 4.67521 16.2423C7.41198 16.7113 10.2074 16.7263 12.9483 16.2824C13.4512 16.1986 13.8459 15.7884 13.9082 15.2826L14.5553 9.97952C15.918 9.51081 16.8511 8.22487 16.8511 6.76454C16.8511 4.88724 15.3183 3.35307 13.4406 3.35307C13.3592 3.35307 13.2768 3.35604 13.196 3.36203C12.2342 1.91296 10.6581 1.00215 8.92945 1.00215ZM8.92945 1.79312C10.2733 1.79312 11.5144 2.45057 12.3461 3.53754C12.0645 3.6337 11.7945 3.7661 11.5442 3.93378C11.3614 4.0548 11.3113 4.30235 11.4328 4.48483C11.5556 4.66576 11.8013 4.71252 11.9823 4.59001C12.4134 4.30094 12.9216 4.15039 13.4407 4.15039C14.89 4.15039 16.0616 5.3173 16.0616 6.76628C16.0616 7.96073 15.252 8.99663 14.0955 9.294C13.9373 9.33593 13.821 9.4704 13.8029 9.63296L13.2734 13.9345C12.7218 14.0007 12.1657 14.0526 11.6061 14.0909L12.0179 11.7087C12.054 11.4922 11.9066 11.2872 11.6897 11.2522C11.475 11.2159 11.2725 11.3597 11.2346 11.5741L10.7918 14.1373C10.3031 14.1583 9.81242 14.1706 9.32112 14.1715V11.3281C9.32198 11.1079 9.14334 10.9294 8.92325 10.9302C8.70542 10.9326 8.53071 11.1103 8.53158 11.3281V14.1653C8.03854 14.1563 7.5474 14.1332 7.05778 14.1018L6.61811 11.5741C6.58022 11.3596 6.37611 11.2159 6.16142 11.2522C5.94697 11.2899 5.80309 11.4942 5.83941 11.7088L6.23882 14.0383C5.67783 13.9886 5.12075 13.9257 4.56996 13.8478C4.40203 12.4417 4.22107 11.0313 4.04825 9.62675C4.02698 9.46469 3.90973 9.33289 3.751 9.29395C2.59377 8.9953 1.78955 7.96073 1.78954 6.76628C1.78955 5.3173 2.95655 4.15035 4.40585 4.15035C4.91568 4.15035 5.41081 4.31842 5.85025 4.61318C6.03126 4.7357 6.27851 4.68893 6.40137 4.50801C6.52395 4.32708 6.47689 4.08146 6.29611 3.95856C6.04686 3.79141 5.77743 3.65205 5.49419 3.54993C6.32622 2.45433 7.57822 1.79312 8.92945 1.79312ZM4.6644 14.6606C6.16711 14.8625 7.70901 14.9624 9.2561 14.9624C10.574 14.9624 11.885 14.8893 13.1744 14.7426L13.1187 15.1899C13.0989 15.3508 12.9797 15.4745 12.8199 15.501C10.1846 15.9277 7.50078 15.9099 4.86875 15.4654C4.78844 15.4264 4.72829 15.3524 4.73407 15.2611C4.71161 15.0613 4.68758 14.8606 4.6644 14.6606Z" fill="#6B779A" stroke="#6B779A" stroke-width="0.281933"/>
</svg>
