<svg width="10" height="15" viewBox="0 0 10 15" fill="none" xmlns="http://www.w3.org/2000/svg">
<path d="M5 0.424805C2.24299 0.424805 0 2.77152 0 5.65601C0 9.23576 4.47451 14.491 4.66502 14.713C4.84395 14.9215 5.15637 14.9211 5.33498 14.713C5.52549 14.491 10 9.23576 10 5.65601C9.99995 2.77152 7.75699 0.424805 5 0.424805ZM5 8.28798C3.61288 8.28798 2.4844 7.10729 2.4844 5.65601C2.4844 4.20474 3.6129 3.02407 5 3.02407C6.3871 3.02407 7.51557 4.20477 7.51557 5.65604C7.51557 7.10732 6.3871 8.28798 5 8.28798Z" fill="#D09602"/>
</svg>
