<svg width="21" height="21" viewBox="0 0 21 21" fill="none" xmlns="http://www.w3.org/2000/svg">
<path d="M8.74971 20.125C8.74971 20.3571 8.65753 20.5796 8.49344 20.7437C8.32935 20.9078 8.1068 21 7.87474 21H0.874971C0.642914 21 0.420362 20.9078 0.256273 20.7437C0.0921844 20.5796 0 20.3571 0 20.125V0.875C0 0.642936 0.0921844 0.420376 0.256273 0.256282C0.420362 0.0921874 0.642914 0 0.874971 0H7.87474C8.1068 0 8.32935 0.0921874 8.49344 0.256282C8.65753 0.420376 8.74971 0.642936 8.74971 0.875C8.74971 1.10706 8.65753 1.32962 8.49344 1.49372C8.32935 1.65781 8.1068 1.75 7.87474 1.75H1.74994V19.25H7.87474C8.1068 19.25 8.32935 19.3422 8.49344 19.5063C8.65753 19.6704 8.74971 19.8929 8.74971 20.125ZM20.7434 9.88094L16.3685 5.50594C16.2043 5.34175 15.9817 5.24951 15.7495 5.24951C15.5173 5.24951 15.2946 5.34175 15.1304 5.50594C14.9663 5.67012 14.874 5.89281 14.874 6.125C14.874 6.35719 14.9663 6.57988 15.1304 6.74406L18.0124 9.625H7.87474C7.64268 9.625 7.42013 9.71719 7.25604 9.88128C7.09196 10.0454 6.99977 10.2679 6.99977 10.5C6.99977 10.7321 7.09196 10.9546 7.25604 11.1187C7.42013 11.2828 7.64268 11.375 7.87474 11.375H18.0124L15.1304 14.2559C14.9663 14.4201 14.874 14.6428 14.874 14.875C14.874 15.1072 14.9663 15.3299 15.1304 15.4941C15.2946 15.6582 15.5173 15.7505 15.7495 15.7505C15.9817 15.7505 16.2043 15.6582 16.3685 15.4941L20.7434 11.1191C20.8247 11.0378 20.8893 10.9413 20.9333 10.8351C20.9773 10.7288 21 10.615 21 10.5C21 10.385 20.9773 10.2712 20.9333 10.1649C20.8893 10.0587 20.8247 9.9622 20.7434 9.88094Z" fill="#FD813B"/>
</svg>
