<svg width="32" height="32" viewBox="0 0 32 32" fill="none" xmlns="http://www.w3.org/2000/svg">
<path d="M30.53 7.49918C30.386 7.40933 30.2216 7.35759 30.0521 7.34885C29.8826 7.3401 29.7137 7.37463 29.5613 7.44918C24.195 10.0742 20.3625 8.84418 16.3113 7.54668C12.0613 6.18543 7.655 4.77918 1.5675 7.75168C1.39741 7.83327 1.25387 7.9613 1.15345 8.121C1.05304 8.28069 0.999837 8.46553 1 8.65418V23.6454C0.999976 23.8151 1.04312 23.982 1.12538 24.1304C1.20764 24.2788 1.3263 24.4038 1.4702 24.4937C1.6141 24.5836 1.77851 24.6354 1.94794 24.6442C2.11738 24.653 2.28628 24.6186 2.43875 24.5442C7.805 21.9192 11.6375 23.1492 15.695 24.4467C18.1 25.2154 20.55 25.9992 23.32 25.9992C25.4562 25.9992 27.7863 25.5342 30.4338 24.2417C30.6019 24.1596 30.7437 24.0319 30.8429 23.8733C30.9421 23.7146 30.9948 23.5313 30.995 23.3442V8.35293C30.9965 8.18282 30.9546 8.01514 30.8732 7.86574C30.7919 7.71635 30.6737 7.59018 30.53 7.49918ZM29 22.7079C23.925 24.9792 20.2188 23.7942 16.305 22.5429C13.9 21.7742 11.45 20.9904 8.68 20.9904C6.73388 20.9999 4.80755 21.3818 3.005 22.1154V9.29043C8.08 7.01918 11.7863 8.20418 15.7 9.45543C19.6138 10.7067 23.6425 11.9992 29 9.88543V22.7079ZM16 11.9992C15.2089 11.9992 14.4355 12.2338 13.7777 12.6733C13.1199 13.1128 12.6072 13.7375 12.3045 14.4684C12.0017 15.1993 11.9225 16.0036 12.0769 16.7795C12.2312 17.5555 12.6122 18.2682 13.1716 18.8276C13.731 19.387 14.4437 19.768 15.2196 19.9223C15.9956 20.0767 16.7998 19.9974 17.5307 19.6947C18.2616 19.3919 18.8864 18.8793 19.3259 18.2215C19.7654 17.5637 20 16.7903 20 15.9992C20 14.9383 19.5786 13.9209 18.8284 13.1708C18.0783 12.4206 17.0609 11.9992 16 11.9992ZM16 17.9992C15.6044 17.9992 15.2178 17.8819 14.8889 17.6621C14.56 17.4424 14.3036 17.13 14.1522 16.7645C14.0009 16.3991 13.9613 15.997 14.0384 15.609C14.1156 15.221 14.3061 14.8647 14.5858 14.585C14.8655 14.3053 15.2219 14.1148 15.6098 14.0376C15.9978 13.9604 16.3999 14 16.7654 14.1514C17.1308 14.3028 17.4432 14.5591 17.6629 14.888C17.8827 15.2169 18 15.6036 18 15.9992C18 16.5296 17.7893 17.0383 17.4142 17.4134C17.0391 17.7885 16.5304 17.9992 16 17.9992ZM7 11.9992V17.9992C7 18.2644 6.89464 18.5187 6.70711 18.7063C6.51957 18.8938 6.26522 18.9992 6 18.9992C5.73478 18.9992 5.48043 18.8938 5.29289 18.7063C5.10536 18.5187 5 18.2644 5 17.9992V11.9992C5 11.734 5.10536 11.4796 5.29289 11.2921C5.48043 11.1045 5.73478 10.9992 6 10.9992C6.26522 10.9992 6.51957 11.1045 6.70711 11.2921C6.89464 11.4796 7 11.734 7 11.9992ZM25 19.9992V13.9992C25 13.734 25.1054 13.4796 25.2929 13.2921C25.4804 13.1045 25.7348 12.9992 26 12.9992C26.2652 12.9992 26.5196 13.1045 26.7071 13.2921C26.8946 13.4796 27 13.734 27 13.9992V19.9992C27 20.2644 26.8946 20.5187 26.7071 20.7063C26.5196 20.8938 26.2652 20.9992 26 20.9992C25.7348 20.9992 25.4804 20.8938 25.2929 20.7063C25.1054 20.5187 25 20.2644 25 19.9992Z" fill="#ECA73C"/>
</svg>
