<svg width="13" height="18" viewBox="0 0 13 18" fill="none" xmlns="http://www.w3.org/2000/svg">
<path d="M6.50184 0.5C4.835 0.526197 3.23973 1.17625 2.03569 2.3199C0.831659 3.46354 0.107827 5.01628 0.00924805 6.66695C-0.0746819 8.25397 0.414819 9.81864 1.38976 11.0797L6.04044 17.271C6.09374 17.342 6.16305 17.3998 6.24284 17.4395C6.32264 17.4793 6.4107 17.5 6.5 17.5C6.5893 17.5 6.67736 17.4793 6.75716 17.4395C6.83695 17.3998 6.90626 17.342 6.95956 17.271L11.6102 11.0797C12.5852 9.81864 13.0747 8.25397 12.9908 6.66695C12.8922 5.0169 12.1689 3.46467 10.9657 2.32112C9.7624 1.17757 8.16803 0.527106 6.50184 0.5ZM4.29889 7.24116C4.30018 6.66752 4.53099 6.11785 4.94061 5.71291C5.35023 5.30796 5.90516 5.08087 6.48347 5.08151C7.06179 5.08216 7.6162 5.31049 8.0249 5.71634C8.4336 6.12219 8.66317 6.67237 8.66317 7.24602C8.66317 7.81966 8.4336 8.36984 8.0249 8.77569C7.6162 9.18155 7.06179 9.40987 6.48347 9.41052C5.90516 9.41116 5.35023 9.18407 4.94061 8.77912C4.53099 8.37418 4.30018 7.82451 4.29889 7.25087V7.24116Z" fill="#FE8235"/>
</svg>
