<svg width="26" height="25" viewBox="0 0 26 25" fill="none" xmlns="http://www.w3.org/2000/svg">
<path d="M24.4065 14.6867C24.3245 14.7482 24.2311 14.793 24.1317 14.8185C24.0323 14.8439 23.9289 14.8496 23.8273 14.8351C23.7257 14.8205 23.628 14.7862 23.5398 14.7339C23.4515 14.6816 23.3744 14.6125 23.3128 14.5304C22.8419 13.8975 22.229 13.3839 21.5234 13.0311C20.8178 12.6783 20.0392 12.4961 19.2503 12.4992C19.0967 12.4991 18.9465 12.4538 18.8184 12.3689C18.6904 12.284 18.5903 12.1632 18.5306 12.0216C18.49 11.9255 18.4691 11.8222 18.4691 11.7179C18.4691 11.6136 18.49 11.5103 18.5306 11.4142C18.5903 11.2727 18.6904 11.1519 18.8184 11.0669C18.9465 10.982 19.0967 10.9367 19.2503 10.9367C19.6887 10.9366 20.1182 10.8136 20.4902 10.5817C20.8621 10.3498 21.1616 10.0182 21.3546 9.62459C21.5475 9.23099 21.6262 8.79117 21.5817 8.35508C21.5373 7.91899 21.3714 7.50411 21.1029 7.15758C20.8345 6.81104 20.4742 6.54674 20.0631 6.39468C19.652 6.24263 19.2064 6.20892 18.7771 6.29738C18.3478 6.38585 17.9518 6.59294 17.6343 6.89514C17.3168 7.19734 17.0904 7.58254 16.9808 8.00697C16.9551 8.10636 16.9101 8.19972 16.8484 8.28173C16.7867 8.36374 16.7094 8.43279 16.621 8.48493C16.5326 8.53707 16.4348 8.57129 16.3331 8.58562C16.2315 8.59996 16.128 8.59414 16.0286 8.56849C15.9292 8.54284 15.8359 8.49787 15.7539 8.43614C15.6718 8.37441 15.6028 8.29713 15.5507 8.20871C15.4985 8.1203 15.4643 8.02248 15.45 7.92084C15.4356 7.8192 15.4414 7.71573 15.4671 7.61634C15.6192 7.02778 15.9066 6.48285 16.3063 6.02489C16.7061 5.56694 17.2072 5.2086 17.7699 4.97841C18.3325 4.74821 18.9411 4.6525 19.5472 4.69889C20.1533 4.74529 20.7403 4.93251 21.2613 5.24565C21.7823 5.5588 22.2231 5.98923 22.5485 6.50269C22.8739 7.01615 23.075 7.59848 23.1358 8.20333C23.1965 8.80819 23.1153 9.41887 22.8985 9.9868C22.6817 10.5547 22.3354 11.0642 21.887 11.4747C22.9493 11.9347 23.8728 12.6646 24.5657 13.5919C24.6273 13.6742 24.672 13.7678 24.6973 13.8674C24.7226 13.967 24.7281 14.0706 24.7133 14.1723C24.6985 14.274 24.6638 14.3718 24.6111 14.46C24.5585 14.5483 24.489 14.6253 24.4065 14.6867ZM19.1448 20.7023C19.2014 20.7912 19.2393 20.8906 19.2564 20.9946C19.2735 21.0986 19.2694 21.2049 19.2443 21.3073C19.2193 21.4096 19.1738 21.5058 19.1105 21.5901C19.0473 21.6744 18.9677 21.7451 18.8765 21.7978C18.7853 21.8505 18.6843 21.8842 18.5797 21.897C18.4751 21.9097 18.369 21.9011 18.2678 21.8717C18.1667 21.8424 18.0724 21.7928 17.9909 21.7261C17.9093 21.6594 17.8421 21.5769 17.7933 21.4835C17.3011 20.6502 16.6002 19.9596 15.7597 19.4798C14.9192 19.0001 13.9681 18.7477 13.0003 18.7477C12.0325 18.7477 11.0814 19.0001 10.2409 19.4798C9.40038 19.9596 8.69947 20.6502 8.20733 21.4835C8.15849 21.5769 8.09127 21.6594 8.00971 21.7261C7.92815 21.7928 7.83394 21.8424 7.73275 21.8717C7.63155 21.9011 7.52547 21.9097 7.42087 21.897C7.31627 21.8842 7.21533 21.8505 7.1241 21.7978C7.03288 21.7451 6.95327 21.6744 6.89005 21.5901C6.82684 21.5058 6.78133 21.4096 6.75626 21.3073C6.73119 21.2049 6.72708 21.0986 6.74418 20.9946C6.76128 20.8906 6.79924 20.7912 6.85577 20.7023C7.61319 19.4009 8.76806 18.3768 10.1507 17.7804C9.37269 17.1847 8.80091 16.3602 8.51573 15.4228C8.23054 14.4854 8.24629 13.4822 8.56076 12.5541C8.87523 11.6261 9.47261 10.82 10.2689 10.249C11.0652 9.67808 12.0204 9.37103 13.0003 9.37103C13.9801 9.37103 14.9354 9.67808 15.7317 10.249C16.528 10.82 17.1254 11.6261 17.4398 12.5541C17.7543 13.4822 17.7701 14.4854 17.4849 15.4228C17.1997 16.3602 16.6279 17.1847 15.8499 17.7804C17.2325 18.3768 18.3874 19.4009 19.1448 20.7023ZM13.0003 17.1867C13.6184 17.1867 14.2226 17.0034 14.7365 16.66C15.2504 16.3166 15.6509 15.8286 15.8874 15.2575C16.1239 14.6865 16.1858 14.0582 16.0653 13.452C15.9447 12.8458 15.647 12.289 15.21 11.8519C14.773 11.4149 14.2161 11.1173 13.61 10.9967C13.0038 10.8761 12.3754 10.938 11.8044 11.1745C11.2334 11.4111 10.7453 11.8116 10.402 12.3255C10.0586 12.8394 9.8753 13.4436 9.8753 14.0617C9.8753 14.8905 10.2045 15.6853 10.7906 16.2714C11.3766 16.8574 12.1715 17.1867 13.0003 17.1867ZM7.53155 11.7179C7.53155 11.5107 7.44924 11.312 7.30272 11.1655C7.15621 11.019 6.9575 10.9367 6.7503 10.9367C6.31195 10.9366 5.88239 10.8136 5.51042 10.5817C5.13846 10.3498 4.83899 10.0182 4.64603 9.62459C4.45308 9.23099 4.37437 8.79117 4.41885 8.35508C4.46333 7.91899 4.62922 7.50411 4.89767 7.15758C5.16612 6.81104 5.52637 6.54674 5.9375 6.39468C6.34864 6.24263 6.79417 6.20892 7.22351 6.29738C7.65284 6.38585 8.04876 6.59294 8.36629 6.89514C8.68382 7.19734 8.91024 7.58254 9.01983 8.00697C9.07163 8.20769 9.20105 8.37962 9.37961 8.48493C9.55817 8.59023 9.77125 8.62029 9.97198 8.56849C10.1727 8.51669 10.3446 8.38728 10.4499 8.20871C10.5552 8.03015 10.5853 7.81707 10.5335 7.61634C10.3814 7.02778 10.094 6.48285 9.69425 6.02489C9.29448 5.56694 8.79335 5.2086 8.23072 4.97841C7.66809 4.74821 7.05951 4.6525 6.45338 4.69889C5.84726 4.74529 5.26032 4.93251 4.73929 5.24565C4.21825 5.5588 3.77749 5.98923 3.45207 6.50269C3.12666 7.01615 2.92557 7.59848 2.86482 8.20333C2.80406 8.80819 2.88531 9.41887 3.1021 9.9868C3.31889 10.5547 3.66523 11.0642 4.11358 11.4747C3.05233 11.9351 2.1299 12.665 1.4378 13.5919C1.31335 13.7577 1.25984 13.9661 1.28905 14.1713C1.31826 14.3765 1.4278 14.5617 1.59356 14.6862C1.75932 14.8106 1.96773 14.8641 2.17294 14.8349C2.37815 14.8057 2.56335 14.6962 2.6878 14.5304C3.15868 13.8975 3.7716 13.3839 4.47721 13.0311C5.18282 12.6783 5.96141 12.4961 6.7503 12.4992C6.9575 12.4992 7.15621 12.4168 7.30272 12.2703C7.44924 12.1238 7.53155 11.9251 7.53155 11.7179Z" fill="#FE8235"/>
</svg>
