<svg width="26" height="25" viewBox="0 0 26 25" fill="none" xmlns="http://www.w3.org/2000/svg">
<g clip-path="url(#clip0_895_24562)">
<path d="M21.5938 7.03125H3.625V4.6875C3.625 4.4803 3.54269 4.28159 3.39618 4.13507C3.24966 3.98856 3.05095 3.90625 2.84375 3.90625C2.63655 3.90625 2.43784 3.98856 2.29132 4.13507C2.14481 4.28159 2.0625 4.4803 2.0625 4.6875V20.3125C2.0625 20.5197 2.14481 20.7184 2.29132 20.8649C2.43784 21.0114 2.63655 21.0938 2.84375 21.0938C3.05095 21.0938 3.24966 21.0114 3.39618 20.8649C3.54269 20.7184 3.625 20.5197 3.625 20.3125V17.1875H23.9375V20.3125C23.9375 20.5197 24.0198 20.7184 24.1663 20.8649C24.3128 21.0114 24.5115 21.0938 24.7188 21.0938C24.926 21.0938 25.1247 21.0114 25.2712 20.8649C25.4177 20.7184 25.5 20.5197 25.5 20.3125V10.9375C25.5 9.9015 25.0884 8.90793 24.3559 8.17536C23.6233 7.4428 22.6298 7.03125 21.5938 7.03125ZM3.625 8.59375H10.6562V15.625H3.625V8.59375ZM12.2188 15.625V8.59375H21.5938C22.2154 8.59375 22.8115 8.84068 23.251 9.28022C23.6906 9.71976 23.9375 10.3159 23.9375 10.9375V15.625H12.2188Z" fill="#FE8235"/>
</g>
<defs>
<clipPath id="clip0_895_24562">
<rect width="25" height="25" fill="white" transform="translate(0.5)"/>
</clipPath>
</defs>
</svg>
