<svg width="81" height="83" viewBox="0 0 81 83" fill="none" xmlns="http://www.w3.org/2000/svg">
<g filter="url(#filter0_d_609_6041)">
<rect x="4" width="72.9947" height="74.0842" rx="5" fill="white"/>
</g>
<rect x="9.94922" y="5.94727" width="62.1895" height="62.1895" rx="4.5" stroke="#ECA73C" stroke-linecap="round" stroke-dasharray="4 4"/>
<path d="M51.1066 25.5515H47.3165L45.1286 22.9258H36.7595V26.8643H33.1727V30.8028H29.5859V43.931C29.5859 45.3752 30.662 46.5567 31.9771 46.5567H51.1066C52.4218 46.5567 53.4978 45.3752 53.4978 43.931V28.1771C53.4978 26.733 52.4218 25.5515 51.1066 25.5515ZM41.5418 42.6182C38.242 42.6182 35.5639 39.6775 35.5639 36.0541C35.5639 32.4306 38.242 29.49 41.5418 29.49C44.8417 29.49 47.5198 32.4307 47.5198 36.0541C47.5198 39.6775 44.8417 42.6182 41.5418 42.6182Z" fill="#FD813B"/>
<path d="M29.5868 29.4909H31.978V25.5525H35.5648V22.9268H31.978V18.9883H29.5868V22.9268H26V25.5525H29.5868V29.4909Z" fill="#FD813B"/>
<path d="M41.5447 31.8555C39.4285 31.8555 37.7188 33.7328 37.7188 36.0565C37.7188 38.3802 39.4285 40.2576 41.5447 40.2576C43.6609 40.2576 45.3706 38.3802 45.3706 36.0565C45.3706 33.7328 43.6609 31.8555 41.5447 31.8555Z" fill="#FD813B"/>
<path d="M22.3035 58.0273L24.5085 53.1273H25.4045L27.6165 58.0273H26.6645L24.7675 53.6103H25.1315L23.2415 58.0273H22.3035ZM23.3185 56.8933L23.5635 56.1793H26.2095L26.4545 56.8933H23.3185ZM29.7035 58.0763C29.3441 58.0763 29.0198 57.997 28.7305 57.8383C28.4458 57.675 28.2218 57.451 28.0585 57.1663C27.8951 56.8817 27.8135 56.5457 27.8135 56.1583C27.8135 55.771 27.8951 55.435 28.0585 55.1503C28.2218 54.8657 28.4458 54.644 28.7305 54.4853C29.0198 54.3267 29.3441 54.2473 29.7035 54.2473C30.0161 54.2473 30.2961 54.3173 30.5435 54.4573C30.7908 54.5927 30.9868 54.8003 31.1315 55.0803C31.2761 55.3603 31.3485 55.7197 31.3485 56.1583C31.3485 56.5923 31.2785 56.9517 31.1385 57.2363C30.9985 57.5163 30.8048 57.7263 30.5575 57.8663C30.3101 58.0063 30.0255 58.0763 29.7035 58.0763ZM29.8085 57.3273C30.0185 57.3273 30.2051 57.2807 30.3685 57.1873C30.5365 57.094 30.6695 56.9587 30.7675 56.7813C30.8701 56.604 30.9215 56.3963 30.9215 56.1583C30.9215 55.9157 30.8701 55.708 30.7675 55.5353C30.6695 55.358 30.5365 55.2227 30.3685 55.1293C30.2051 55.036 30.0185 54.9893 29.8085 54.9893C29.5985 54.9893 29.4095 55.036 29.2415 55.1293C29.0781 55.2227 28.9451 55.358 28.8425 55.5353C28.7445 55.708 28.6955 55.9157 28.6955 56.1583C28.6955 56.3963 28.7445 56.604 28.8425 56.7813C28.9451 56.9587 29.0781 57.094 29.2415 57.1873C29.4095 57.2807 29.5985 57.3273 29.8085 57.3273ZM30.9425 58.0273V57.1453L30.9775 56.1513L30.9075 55.1573V52.8333H31.7755V58.0273H30.9425ZM34.5091 58.0763C34.1498 58.0763 33.8255 57.997 33.5361 57.8383C33.2515 57.675 33.0275 57.451 32.8641 57.1663C32.7008 56.8817 32.6191 56.5457 32.6191 56.1583C32.6191 55.771 32.7008 55.435 32.8641 55.1503C33.0275 54.8657 33.2515 54.644 33.5361 54.4853C33.8255 54.3267 34.1498 54.2473 34.5091 54.2473C34.8218 54.2473 35.1018 54.3173 35.3491 54.4573C35.5965 54.5927 35.7925 54.8003 35.9371 55.0803C36.0818 55.3603 36.1541 55.7197 36.1541 56.1583C36.1541 56.5923 36.0841 56.9517 35.9441 57.2363C35.8041 57.5163 35.6105 57.7263 35.3631 57.8663C35.1158 58.0063 34.8311 58.0763 34.5091 58.0763ZM34.6141 57.3273C34.8241 57.3273 35.0108 57.2807 35.1741 57.1873C35.3421 57.094 35.4751 56.9587 35.5731 56.7813C35.6758 56.604 35.7271 56.3963 35.7271 56.1583C35.7271 55.9157 35.6758 55.708 35.5731 55.5353C35.4751 55.358 35.3421 55.2227 35.1741 55.1293C35.0108 55.036 34.8241 54.9893 34.6141 54.9893C34.4041 54.9893 34.2151 55.036 34.0471 55.1293C33.8838 55.2227 33.7508 55.358 33.6481 55.5353C33.5501 55.708 33.5011 55.9157 33.5011 56.1583C33.5011 56.3963 33.5501 56.604 33.6481 56.7813C33.7508 56.9587 33.8838 57.094 34.0471 57.1873C34.2151 57.2807 34.4041 57.3273 34.6141 57.3273ZM35.7481 58.0273V57.1453L35.7831 56.1513L35.7131 55.1573V52.8333H36.5811V58.0273H35.7481ZM39.7514 58.0273V53.1273H41.7674C42.2014 53.1273 42.5724 53.1973 42.8804 53.3373C43.193 53.4773 43.4334 53.678 43.6014 53.9393C43.7694 54.2007 43.8534 54.511 43.8534 54.8703C43.8534 55.2297 43.7694 55.54 43.6014 55.8013C43.4334 56.0627 43.193 56.2633 42.8804 56.4033C42.5724 56.5433 42.2014 56.6133 41.7674 56.6133H40.2554L40.6614 56.1863V58.0273H39.7514ZM40.6614 56.2843L40.2554 55.8433H41.7254C42.1267 55.8433 42.4277 55.7593 42.6284 55.5913C42.8337 55.4187 42.9364 55.1783 42.9364 54.8703C42.9364 54.5577 42.8337 54.3173 42.6284 54.1493C42.4277 53.9813 42.1267 53.8973 41.7254 53.8973H40.2554L40.6614 53.4493V56.2843ZM46.8675 54.2473C47.1661 54.2473 47.4321 54.3057 47.6655 54.4223C47.9035 54.539 48.0901 54.7187 48.2255 54.9613C48.3608 55.1993 48.4285 55.5073 48.4285 55.8853V58.0273H47.5535V55.9973C47.5535 55.666 47.4741 55.4187 47.3155 55.2553C47.1615 55.092 46.9445 55.0103 46.6645 55.0103C46.4591 55.0103 46.2771 55.0523 46.1185 55.1363C45.9598 55.2203 45.8361 55.3463 45.7475 55.5143C45.6635 55.6777 45.6215 55.8853 45.6215 56.1373V58.0273H44.7465V52.8333H45.6215V55.2973L45.4325 54.9893C45.5631 54.7513 45.7521 54.5693 45.9995 54.4433C46.2515 54.3127 46.5408 54.2473 46.8675 54.2473ZM51.2253 58.0763C50.8426 58.0763 50.502 57.9947 50.2033 57.8313C49.9046 57.6633 49.669 57.4347 49.4963 57.1453C49.3236 56.856 49.2373 56.527 49.2373 56.1583C49.2373 55.785 49.3236 55.456 49.4963 55.1713C49.669 54.882 49.9046 54.6557 50.2033 54.4923C50.502 54.329 50.8426 54.2473 51.2253 54.2473C51.6126 54.2473 51.9556 54.329 52.2543 54.4923C52.5576 54.6557 52.7933 54.8797 52.9613 55.1643C53.134 55.449 53.2203 55.7803 53.2203 56.1583C53.2203 56.527 53.134 56.856 52.9613 57.1453C52.7933 57.4347 52.5576 57.6633 52.2543 57.8313C51.9556 57.9947 51.6126 58.0763 51.2253 58.0763ZM51.2253 57.3273C51.44 57.3273 51.6313 57.2807 51.7993 57.1873C51.9673 57.094 52.098 56.9587 52.1913 56.7813C52.2893 56.604 52.3383 56.3963 52.3383 56.1583C52.3383 55.9157 52.2893 55.708 52.1913 55.5353C52.098 55.358 51.9673 55.2227 51.7993 55.1293C51.6313 55.036 51.4423 54.9893 51.2323 54.9893C51.0176 54.9893 50.8263 55.036 50.6583 55.1293C50.495 55.2227 50.3643 55.358 50.2663 55.5353C50.1683 55.708 50.1193 55.9157 50.1193 56.1583C50.1193 56.3963 50.1683 56.604 50.2663 56.7813C50.3643 56.9587 50.495 57.094 50.6583 57.1873C50.8263 57.2807 51.0153 57.3273 51.2253 57.3273ZM55.464 58.0763C55.0534 58.0763 54.736 57.9713 54.512 57.7613C54.288 57.5467 54.176 57.2317 54.176 56.8163V53.4633H55.051V56.7953C55.051 56.9727 55.0954 57.1103 55.184 57.2083C55.2774 57.3063 55.4057 57.3553 55.569 57.3553C55.765 57.3553 55.9284 57.304 56.059 57.2013L56.304 57.8243C56.2014 57.9083 56.0754 57.9713 55.926 58.0133C55.7767 58.0553 55.6227 58.0763 55.464 58.0763ZM53.56 55.0173V54.3173H56.052V55.0173H53.56ZM58.5808 58.0763C58.1981 58.0763 57.8574 57.9947 57.5588 57.8313C57.2601 57.6633 57.0244 57.4347 56.8518 57.1453C56.6791 56.856 56.5928 56.527 56.5928 56.1583C56.5928 55.785 56.6791 55.456 56.8518 55.1713C57.0244 54.882 57.2601 54.6557 57.5588 54.4923C57.8574 54.329 58.1981 54.2473 58.5808 54.2473C58.9681 54.2473 59.3111 54.329 59.6098 54.4923C59.9131 54.6557 60.1488 54.8797 60.3168 55.1643C60.4894 55.449 60.5758 55.7803 60.5758 56.1583C60.5758 56.527 60.4894 56.856 60.3168 57.1453C60.1488 57.4347 59.9131 57.6633 59.6098 57.8313C59.3111 57.9947 58.9681 58.0763 58.5808 58.0763ZM58.5808 57.3273C58.7954 57.3273 58.9868 57.2807 59.1548 57.1873C59.3228 57.094 59.4534 56.9587 59.5468 56.7813C59.6448 56.604 59.6938 56.3963 59.6938 56.1583C59.6938 55.9157 59.6448 55.708 59.5468 55.5353C59.4534 55.358 59.3228 55.2227 59.1548 55.1293C58.9868 55.036 58.7978 54.9893 58.5878 54.9893C58.3731 54.9893 58.1818 55.036 58.0138 55.1293C57.8504 55.2227 57.7198 55.358 57.6218 55.5353C57.5238 55.708 57.4748 55.9157 57.4748 56.1583C57.4748 56.3963 57.5238 56.604 57.6218 56.7813C57.7198 56.9587 57.8504 57.094 58.0138 57.1873C58.1818 57.2807 58.3708 57.3273 58.5808 57.3273Z" fill="#707477"/>
<path d="M22.3035 58.0273L24.5085 53.1273H25.4045L27.6165 58.0273H26.6645L24.7675 53.6103H25.1315L23.2415 58.0273H22.3035ZM23.3185 56.8933L23.5635 56.1793H26.2095L26.4545 56.8933H23.3185ZM29.7035 58.0763C29.3441 58.0763 29.0198 57.997 28.7305 57.8383C28.4458 57.675 28.2218 57.451 28.0585 57.1663C27.8951 56.8817 27.8135 56.5457 27.8135 56.1583C27.8135 55.771 27.8951 55.435 28.0585 55.1503C28.2218 54.8657 28.4458 54.644 28.7305 54.4853C29.0198 54.3267 29.3441 54.2473 29.7035 54.2473C30.0161 54.2473 30.2961 54.3173 30.5435 54.4573C30.7908 54.5927 30.9868 54.8003 31.1315 55.0803C31.2761 55.3603 31.3485 55.7197 31.3485 56.1583C31.3485 56.5923 31.2785 56.9517 31.1385 57.2363C30.9985 57.5163 30.8048 57.7263 30.5575 57.8663C30.3101 58.0063 30.0255 58.0763 29.7035 58.0763ZM29.8085 57.3273C30.0185 57.3273 30.2051 57.2807 30.3685 57.1873C30.5365 57.094 30.6695 56.9587 30.7675 56.7813C30.8701 56.604 30.9215 56.3963 30.9215 56.1583C30.9215 55.9157 30.8701 55.708 30.7675 55.5353C30.6695 55.358 30.5365 55.2227 30.3685 55.1293C30.2051 55.036 30.0185 54.9893 29.8085 54.9893C29.5985 54.9893 29.4095 55.036 29.2415 55.1293C29.0781 55.2227 28.9451 55.358 28.8425 55.5353C28.7445 55.708 28.6955 55.9157 28.6955 56.1583C28.6955 56.3963 28.7445 56.604 28.8425 56.7813C28.9451 56.9587 29.0781 57.094 29.2415 57.1873C29.4095 57.2807 29.5985 57.3273 29.8085 57.3273ZM30.9425 58.0273V57.1453L30.9775 56.1513L30.9075 55.1573V52.8333H31.7755V58.0273H30.9425ZM34.5091 58.0763C34.1498 58.0763 33.8255 57.997 33.5361 57.8383C33.2515 57.675 33.0275 57.451 32.8641 57.1663C32.7008 56.8817 32.6191 56.5457 32.6191 56.1583C32.6191 55.771 32.7008 55.435 32.8641 55.1503C33.0275 54.8657 33.2515 54.644 33.5361 54.4853C33.8255 54.3267 34.1498 54.2473 34.5091 54.2473C34.8218 54.2473 35.1018 54.3173 35.3491 54.4573C35.5965 54.5927 35.7925 54.8003 35.9371 55.0803C36.0818 55.3603 36.1541 55.7197 36.1541 56.1583C36.1541 56.5923 36.0841 56.9517 35.9441 57.2363C35.8041 57.5163 35.6105 57.7263 35.3631 57.8663C35.1158 58.0063 34.8311 58.0763 34.5091 58.0763ZM34.6141 57.3273C34.8241 57.3273 35.0108 57.2807 35.1741 57.1873C35.3421 57.094 35.4751 56.9587 35.5731 56.7813C35.6758 56.604 35.7271 56.3963 35.7271 56.1583C35.7271 55.9157 35.6758 55.708 35.5731 55.5353C35.4751 55.358 35.3421 55.2227 35.1741 55.1293C35.0108 55.036 34.8241 54.9893 34.6141 54.9893C34.4041 54.9893 34.2151 55.036 34.0471 55.1293C33.8838 55.2227 33.7508 55.358 33.6481 55.5353C33.5501 55.708 33.5011 55.9157 33.5011 56.1583C33.5011 56.3963 33.5501 56.604 33.6481 56.7813C33.7508 56.9587 33.8838 57.094 34.0471 57.1873C34.2151 57.2807 34.4041 57.3273 34.6141 57.3273ZM35.7481 58.0273V57.1453L35.7831 56.1513L35.7131 55.1573V52.8333H36.5811V58.0273H35.7481ZM39.7514 58.0273V53.1273H41.7674C42.2014 53.1273 42.5724 53.1973 42.8804 53.3373C43.193 53.4773 43.4334 53.678 43.6014 53.9393C43.7694 54.2007 43.8534 54.511 43.8534 54.8703C43.8534 55.2297 43.7694 55.54 43.6014 55.8013C43.4334 56.0627 43.193 56.2633 42.8804 56.4033C42.5724 56.5433 42.2014 56.6133 41.7674 56.6133H40.2554L40.6614 56.1863V58.0273H39.7514ZM40.6614 56.2843L40.2554 55.8433H41.7254C42.1267 55.8433 42.4277 55.7593 42.6284 55.5913C42.8337 55.4187 42.9364 55.1783 42.9364 54.8703C42.9364 54.5577 42.8337 54.3173 42.6284 54.1493C42.4277 53.9813 42.1267 53.8973 41.7254 53.8973H40.2554L40.6614 53.4493V56.2843ZM46.8675 54.2473C47.1661 54.2473 47.4321 54.3057 47.6655 54.4223C47.9035 54.539 48.0901 54.7187 48.2255 54.9613C48.3608 55.1993 48.4285 55.5073 48.4285 55.8853V58.0273H47.5535V55.9973C47.5535 55.666 47.4741 55.4187 47.3155 55.2553C47.1615 55.092 46.9445 55.0103 46.6645 55.0103C46.4591 55.0103 46.2771 55.0523 46.1185 55.1363C45.9598 55.2203 45.8361 55.3463 45.7475 55.5143C45.6635 55.6777 45.6215 55.8853 45.6215 56.1373V58.0273H44.7465V52.8333H45.6215V55.2973L45.4325 54.9893C45.5631 54.7513 45.7521 54.5693 45.9995 54.4433C46.2515 54.3127 46.5408 54.2473 46.8675 54.2473ZM51.2253 58.0763C50.8426 58.0763 50.502 57.9947 50.2033 57.8313C49.9046 57.6633 49.669 57.4347 49.4963 57.1453C49.3236 56.856 49.2373 56.527 49.2373 56.1583C49.2373 55.785 49.3236 55.456 49.4963 55.1713C49.669 54.882 49.9046 54.6557 50.2033 54.4923C50.502 54.329 50.8426 54.2473 51.2253 54.2473C51.6126 54.2473 51.9556 54.329 52.2543 54.4923C52.5576 54.6557 52.7933 54.8797 52.9613 55.1643C53.134 55.449 53.2203 55.7803 53.2203 56.1583C53.2203 56.527 53.134 56.856 52.9613 57.1453C52.7933 57.4347 52.5576 57.6633 52.2543 57.8313C51.9556 57.9947 51.6126 58.0763 51.2253 58.0763ZM51.2253 57.3273C51.44 57.3273 51.6313 57.2807 51.7993 57.1873C51.9673 57.094 52.098 56.9587 52.1913 56.7813C52.2893 56.604 52.3383 56.3963 52.3383 56.1583C52.3383 55.9157 52.2893 55.708 52.1913 55.5353C52.098 55.358 51.9673 55.2227 51.7993 55.1293C51.6313 55.036 51.4423 54.9893 51.2323 54.9893C51.0176 54.9893 50.8263 55.036 50.6583 55.1293C50.495 55.2227 50.3643 55.358 50.2663 55.5353C50.1683 55.708 50.1193 55.9157 50.1193 56.1583C50.1193 56.3963 50.1683 56.604 50.2663 56.7813C50.3643 56.9587 50.495 57.094 50.6583 57.1873C50.8263 57.2807 51.0153 57.3273 51.2253 57.3273ZM55.464 58.0763C55.0534 58.0763 54.736 57.9713 54.512 57.7613C54.288 57.5467 54.176 57.2317 54.176 56.8163V53.4633H55.051V56.7953C55.051 56.9727 55.0954 57.1103 55.184 57.2083C55.2774 57.3063 55.4057 57.3553 55.569 57.3553C55.765 57.3553 55.9284 57.304 56.059 57.2013L56.304 57.8243C56.2014 57.9083 56.0754 57.9713 55.926 58.0133C55.7767 58.0553 55.6227 58.0763 55.464 58.0763ZM53.56 55.0173V54.3173H56.052V55.0173H53.56ZM58.5808 58.0763C58.1981 58.0763 57.8574 57.9947 57.5588 57.8313C57.2601 57.6633 57.0244 57.4347 56.8518 57.1453C56.6791 56.856 56.5928 56.527 56.5928 56.1583C56.5928 55.785 56.6791 55.456 56.8518 55.1713C57.0244 54.882 57.2601 54.6557 57.5588 54.4923C57.8574 54.329 58.1981 54.2473 58.5808 54.2473C58.9681 54.2473 59.3111 54.329 59.6098 54.4923C59.9131 54.6557 60.1488 54.8797 60.3168 55.1643C60.4894 55.449 60.5758 55.7803 60.5758 56.1583C60.5758 56.527 60.4894 56.856 60.3168 57.1453C60.1488 57.4347 59.9131 57.6633 59.6098 57.8313C59.3111 57.9947 58.9681 58.0763 58.5808 58.0763ZM58.5808 57.3273C58.7954 57.3273 58.9868 57.2807 59.1548 57.1873C59.3228 57.094 59.4534 56.9587 59.5468 56.7813C59.6448 56.604 59.6938 56.3963 59.6938 56.1583C59.6938 55.9157 59.6448 55.708 59.5468 55.5353C59.4534 55.358 59.3228 55.2227 59.1548 55.1293C58.9868 55.036 58.7978 54.9893 58.5878 54.9893C58.3731 54.9893 58.1818 55.036 58.0138 55.1293C57.8504 55.2227 57.7198 55.358 57.6218 55.5353C57.5238 55.708 57.4748 55.9157 57.4748 56.1583C57.4748 56.3963 57.5238 56.604 57.6218 56.7813C57.7198 56.9587 57.8504 57.094 58.0138 57.1873C58.1818 57.2807 58.3708 57.3273 58.5808 57.3273Z" fill="#707477"/>
<defs>
<filter id="filter0_d_609_6041" x="0" y="0" width="80.9946" height="82.084" filterUnits="userSpaceOnUse" color-interpolation-filters="sRGB">
<feFlood flood-opacity="0" result="BackgroundImageFix"/>
<feColorMatrix in="SourceAlpha" type="matrix" values="0 0 0 0 0 0 0 0 0 0 0 0 0 0 0 0 0 0 127 0" result="hardAlpha"/>
<feOffset dy="4"/>
<feGaussianBlur stdDeviation="2"/>
<feColorMatrix type="matrix" values="0 0 0 0 0 0 0 0 0 0 0 0 0 0 0 0 0 0 0.1 0"/>
<feBlend mode="normal" in2="BackgroundImageFix" result="effect1_dropShadow_609_6041"/>
<feBlend mode="normal" in="SourceGraphic" in2="effect1_dropShadow_609_6041" result="shape"/>
</filter>
</defs>
</svg>
