<svg width="21" height="21" viewBox="0 0 21 21" fill="none" xmlns="http://www.w3.org/2000/svg">
<path d="M10.5 21C16.2885 21 21 16.2885 21 10.5C21 4.71145 16.2885 0 10.5 0C4.71145 0 0 4.71145 0 10.5C0 16.2885 4.71145 21 10.5 21ZM10.5 2.03226C15.1708 2.03226 18.9677 5.82919 18.9677 10.5C18.9677 15.1708 15.1708 18.9677 10.5 18.9677C5.82919 18.9677 2.03226 15.1708 2.03226 10.5C2.03226 5.82919 5.82919 2.03226 10.5 2.03226Z" fill="#FE8235"/>
<path d="M10.6778 12.8069L12.3781 13.7519C12.5305 13.8366 12.6998 13.8806 12.8692 13.8806C13.2384 13.8806 13.5805 13.6808 13.76 13.359C14.031 12.8678 13.8548 12.248 13.3637 11.977L11.6634 11.032C11.1553 10.7475 10.8369 10.2124 10.8369 9.62978V6.77785C10.8369 6.21898 10.3797 5.76172 9.82082 5.76172C9.26195 5.76172 8.80469 6.21898 8.80469 6.77785V9.62978C8.80469 10.9508 9.52275 12.1701 10.6744 12.8103L10.6778 12.8069Z" fill="#FE8235"/>
</svg>
