<svg width="69" height="87" viewBox="0 0 69 87" fill="none" xmlns="http://www.w3.org/2000/svg">
<path d="M3.72925 82.3008V74.0393H0.537753V72.9408H8.07775V74.0393H4.88625V82.3008H3.72925ZM10.9837 82.4958C10.2947 82.4958 9.69233 82.3441 9.17666 82.0408C8.66533 81.7331 8.26666 81.3063 7.98066 80.7603C7.69466 80.2099 7.55166 79.5686 7.55166 78.8363C7.55166 78.0693 7.69249 77.4063 7.97416 76.8473C8.25583 76.2839 8.64799 75.8506 9.15066 75.5473C9.65766 75.2396 10.2513 75.0858 10.9317 75.0858C11.638 75.0858 12.2382 75.2483 12.7322 75.5733C13.2305 75.8983 13.6032 76.3619 13.8502 76.9643C14.1015 77.5666 14.2098 78.2838 14.1752 79.1158H13.0052V78.6998C12.9922 77.8374 12.8167 77.1939 12.4787 76.7693C12.1407 76.3403 11.638 76.1258 10.9707 76.1258C10.2557 76.1258 9.71183 76.3554 9.33916 76.8148C8.96649 77.2741 8.78016 77.9328 8.78016 78.7908C8.78016 79.6184 8.96649 80.2598 9.33916 80.7148C9.71183 81.1698 10.2427 81.3973 10.9317 81.3973C11.3953 81.3973 11.7983 81.2911 12.1407 81.0788C12.483 80.8664 12.7517 80.5609 12.9467 80.1623L14.0582 80.5458C13.7852 81.1654 13.3735 81.6464 12.8232 81.9888C12.2772 82.3268 11.664 82.4958 10.9837 82.4958ZM8.39016 79.1158V78.1863H13.5772V79.1158H8.39016ZM20.3004 82.3008V78.7843C20.3004 78.4506 20.2701 78.1299 20.2094 77.8223C20.1531 77.5146 20.0512 77.2394 19.9039 76.9968C19.7609 76.7498 19.5659 76.5548 19.3189 76.4118C19.0762 76.2688 18.7686 76.1973 18.3959 76.1973C18.1056 76.1973 17.8412 76.2471 17.6029 76.3468C17.3689 76.4421 17.1674 76.5894 16.9984 76.7888C16.8294 76.9881 16.6972 77.2394 16.6019 77.5428C16.5109 77.8418 16.4654 78.1949 16.4654 78.6023L15.7049 78.3683C15.7049 77.6879 15.8262 77.1051 16.0689 76.6198C16.3159 76.1301 16.6604 75.7553 17.1024 75.4953C17.5487 75.2309 18.0731 75.0988 18.6754 75.0988C19.1304 75.0988 19.5182 75.1703 19.8389 75.3133C20.1596 75.4563 20.4261 75.6469 20.6384 75.8853C20.8507 76.1193 21.0176 76.3836 21.1389 76.6783C21.2602 76.9686 21.3447 77.2654 21.3924 77.5688C21.4444 77.8678 21.4704 78.1516 21.4704 78.4203V82.3008H20.3004ZM15.2954 82.3008V75.2808H16.3354V77.1593H16.4654V82.3008H15.2954ZM26.9498 82.3008C26.5338 82.3831 26.1221 82.4156 25.7148 82.3983C25.3118 82.3853 24.9521 82.3051 24.6358 82.1578C24.3195 82.0061 24.079 81.7721 23.9143 81.4558C23.7756 81.1784 23.6998 80.8989 23.6868 80.6173C23.6781 80.3313 23.6738 80.0084 23.6738 79.6488V73.3308H24.8308V79.5968C24.8308 79.8828 24.833 80.1276 24.8373 80.3313C24.846 80.5349 24.8915 80.7104 24.9738 80.8578C25.1298 81.1351 25.3768 81.2976 25.7148 81.3453C26.0571 81.3929 26.4688 81.3799 26.9498 81.3063V82.3008ZM22.2503 76.2363V75.2808H26.9498V76.2363H22.2503ZM30.7176 82.3008V72.9408H31.8746V77.0683H36.8016V72.9408H37.9586V82.3008H36.8016V78.1668H31.8746V82.3008H30.7176ZM42.642 82.4958C41.9443 82.4958 41.342 82.3376 40.835 82.0213C40.3323 81.7049 39.9445 81.2673 39.6715 80.7083C39.3985 80.1493 39.262 79.5079 39.262 78.7843C39.262 78.0476 39.4007 77.4019 39.678 76.8473C39.9553 76.2926 40.3475 75.8614 40.8545 75.5538C41.3615 75.2418 41.9573 75.0858 42.642 75.0858C43.344 75.0858 43.9485 75.2439 44.4555 75.5603C44.9625 75.8723 45.3503 76.3078 45.619 76.8668C45.892 77.4214 46.0285 78.0606 46.0285 78.7843C46.0285 79.5166 45.892 80.1623 45.619 80.7213C45.346 81.2759 44.956 81.7114 44.449 82.0278C43.942 82.3398 43.3397 82.4958 42.642 82.4958ZM42.642 81.3973C43.37 81.3973 43.9117 81.1546 44.267 80.6693C44.6223 80.1839 44.8 79.5556 44.8 78.7843C44.8 77.9913 44.6202 77.3608 44.2605 76.8928C43.9008 76.4204 43.3613 76.1843 42.642 76.1843C42.1523 76.1843 41.7493 76.2948 41.433 76.5158C41.1167 76.7368 40.8805 77.0423 40.7245 77.4323C40.5685 77.8223 40.4905 78.2729 40.4905 78.7843C40.4905 79.5729 40.6725 80.2056 41.0365 80.6823C41.4005 81.1589 41.9357 81.3973 42.642 81.3973ZM49.9946 82.4828C49.544 82.4828 49.1561 82.4113 48.8311 82.2683C48.5105 82.1253 48.244 81.9346 48.0316 81.6963C47.8193 81.4579 47.6525 81.1936 47.5311 80.9033C47.4098 80.6129 47.3231 80.3161 47.2711 80.0128C47.2235 79.7094 47.1996 79.4256 47.1996 79.1613V75.2808H48.3696V78.7973C48.3696 79.1266 48.4 79.4451 48.4606 79.7528C48.5213 80.0604 48.6231 80.3378 48.7661 80.5848C48.9135 80.8318 49.1085 81.0268 49.3511 81.1698C49.5981 81.3128 49.9058 81.3843 50.2741 81.3843C50.5645 81.3843 50.8288 81.3344 51.0671 81.2348C51.3055 81.1351 51.5091 80.9878 51.6781 80.7928C51.8471 80.5934 51.9771 80.3421 52.0681 80.0388C52.1591 79.7354 52.2046 79.3823 52.2046 78.9793L52.9651 79.2133C52.9651 79.8893 52.8416 80.4721 52.5946 80.9618C52.352 81.4514 52.0075 81.8284 51.5611 82.0928C51.1191 82.3528 50.597 82.4828 49.9946 82.4828ZM52.3346 82.3008V80.4223H52.2046V75.2808H53.3681V82.3008H52.3346ZM57.71 82.4893C56.8737 82.4893 56.1869 82.3073 55.6495 81.9433C55.1165 81.5749 54.7894 81.0614 54.668 80.4028L55.851 80.2143C55.9464 80.5956 56.1652 80.8989 56.5075 81.1243C56.8499 81.3453 57.2745 81.4558 57.7815 81.4558C58.2625 81.4558 58.6395 81.3561 58.9125 81.1568C59.1855 80.9574 59.322 80.6866 59.322 80.3443C59.322 80.1449 59.2765 79.9846 59.1855 79.8633C59.0945 79.7376 58.906 79.6206 58.62 79.5123C58.3384 79.4039 57.9115 79.2739 57.3395 79.1223C56.7199 78.9576 56.2324 78.7864 55.877 78.6088C55.5217 78.4311 55.2682 78.2253 55.1165 77.9913C54.9649 77.7573 54.889 77.4734 54.889 77.1398C54.889 76.7281 55.0017 76.3684 55.227 76.0608C55.4524 75.7488 55.7665 75.5083 56.1695 75.3393C56.5769 75.1703 57.0492 75.0858 57.5865 75.0858C58.1195 75.0858 58.5962 75.1703 59.0165 75.3393C59.4369 75.5083 59.7749 75.7488 60.0305 76.0608C60.2905 76.3684 60.4444 76.7281 60.492 77.1398L59.309 77.3543C59.2527 76.9773 59.0707 76.6804 58.763 76.4638C58.4597 76.2471 58.0675 76.1323 57.5865 76.1193C57.1315 76.1019 56.761 76.1821 56.475 76.3598C56.1934 76.5374 56.0525 76.7779 56.0525 77.0813C56.0525 77.2503 56.1045 77.3954 56.2085 77.5168C56.3169 77.6381 56.514 77.7529 56.8 77.8613C57.0904 77.9696 57.5107 78.0931 58.061 78.2318C58.6807 78.3878 59.1682 78.5589 59.5235 78.7453C59.8832 78.9273 60.1389 79.1439 60.2905 79.3953C60.4422 79.6423 60.518 79.9478 60.518 80.3118C60.518 80.9878 60.2689 81.5208 59.7705 81.9108C59.2722 82.2964 58.5854 82.4893 57.71 82.4893ZM64.8636 82.4958C64.1746 82.4958 63.5722 82.3441 63.0566 82.0408C62.5452 81.7331 62.1466 81.3063 61.8606 80.7603C61.5746 80.2099 61.4316 79.5686 61.4316 78.8363C61.4316 78.0693 61.5724 77.4063 61.8541 76.8473C62.1357 76.2839 62.5279 75.8506 63.0306 75.5473C63.5376 75.2396 64.1312 75.0858 64.8116 75.0858C65.5179 75.0858 66.1181 75.2483 66.6121 75.5733C67.1104 75.8983 67.4831 76.3619 67.7301 76.9643C67.9814 77.5666 68.0897 78.2838 68.0551 79.1158H66.8851V78.6998C66.8721 77.8374 66.6966 77.1939 66.3586 76.7693C66.0206 76.3403 65.5179 76.1258 64.8506 76.1258C64.1356 76.1258 63.5917 76.3554 63.2191 76.8148C62.8464 77.2741 62.6601 77.9328 62.6601 78.7908C62.6601 79.6184 62.8464 80.2598 63.2191 80.7148C63.5917 81.1698 64.1226 81.3973 64.8116 81.3973C65.2752 81.3973 65.6782 81.2911 66.0206 81.0788C66.3629 80.8664 66.6316 80.5609 66.8266 80.1623L67.9381 80.5458C67.6651 81.1654 67.2534 81.6464 66.7031 81.9888C66.1571 82.3268 65.5439 82.4958 64.8636 82.4958ZM62.2701 79.1158V78.1863H67.4571V79.1158H62.2701Z" fill="#202020"/>
<path d="M34 60.3008C50.5685 60.3008 64 46.8693 64 30.3008C64 13.7322 50.5685 0.300781 34 0.300781C17.4315 0.300781 4 13.7322 4 30.3008C4 46.8693 17.4315 60.3008 34 60.3008Z" fill="white"/>
<mask id="mask0_364_7896" style="mask-type:alpha" maskUnits="userSpaceOnUse" x="9" y="5" width="50" height="51">
<path d="M34 55.6016C47.8071 55.6016 59 44.4087 59 30.6016C59 16.7944 47.8071 5.60156 34 5.60156C20.1929 5.60156 9 16.7944 9 30.6016C9 44.4087 20.1929 55.6016 34 55.6016Z" fill="black"/>
</mask>
<g mask="url(#mask0_364_7896)">
<rect x="9" y="-24.6992" width="50" height="110.599" fill="url(#paint0_linear_364_7896)"/>
</g>
<path d="M48.2614 39.8885H19.7383L20.9786 24.4941H47.0211L48.2614 39.8885Z" fill="#CCCCCC"/>
<path d="M47.0019 24.4941H45.0703L46.3107 39.8885H48.2423L47.0019 24.4941Z" fill="#F3F3F3"/>
<path d="M24.2813 24.4941H28.2817L27.737 39.8884H23.3555L24.2813 24.4941Z" fill="#F3F3F3"/>
<path d="M44.6449 39.8884H40.2634L39.7188 24.4941H43.7191L44.6449 39.8884Z" fill="#F3F3F3"/>
<path d="M39.7825 39.8886H28.2148C32.6425 39.8886 33.7163 29.2536 33.9436 25.937C33.9491 25.857 34.0483 25.857 34.0537 25.937C34.281 29.2536 35.3549 39.8886 39.7825 39.8886Z" fill="#BA2E3D"/>
<path d="M21.2 29.6615C19.4327 29.6615 18 28.2289 18 26.4615V25.5371H24.4V26.4615C24.4 28.2289 22.9673 29.6615 21.2 29.6615Z" fill="#E5701B"/>
<path d="M27.5984 29.6615C25.8311 29.6615 24.3984 28.2289 24.3984 26.4615V25.5371H30.7984V26.4615C30.7984 28.2289 29.3658 29.6615 27.5984 29.6615Z" fill="#E5701B"/>
<path d="M33.9591 15.002L33.6897 15.8995L30.7984 25.5363H24.3984L33.5022 15.4213L33.8653 15.0176C33.8953 15.0095 33.9266 15.0038 33.9591 15.002Z" fill="#F3F3F3"/>
<path d="M34.0008 29.6615C32.2335 29.6615 30.8008 28.2289 30.8008 26.4615V25.5371H37.2008V26.4615C37.2008 28.2289 35.7681 29.6615 34.0008 29.6615Z" fill="#E5701B"/>
<path d="M37.2008 25.5363H30.8008L33.692 15.8994L33.9614 15.0019C33.9745 15.0006 33.9877 15 34.0008 15C34.0139 15 34.027 15.0006 34.0402 15.0019L34.3095 15.8994L37.2008 25.5363Z" fill="#CCCCCC"/>
<path d="M40.3992 29.6615C38.6319 29.6615 37.1992 28.2289 37.1992 26.4615V25.5371H43.5992V26.4615C43.5992 28.2289 42.1665 29.6615 40.3992 29.6615Z" fill="#E5701B"/>
<path d="M43.5997 25.5363H37.1997L34.3084 15.8995L34.0391 15.002C34.0716 15.0038 34.1028 15.0095 34.1328 15.0176L34.4959 15.4213L43.5997 25.5363Z" fill="#F3F3F3"/>
<path d="M46.8016 29.6615C45.0342 29.6615 43.6016 28.2289 43.6016 26.4615V25.5371H50.0016V26.4615C50.0016 28.2289 48.5689 29.6615 46.8016 29.6615Z" fill="#E5701B"/>
<path d="M48.0701 25.5371V26.4615C48.0701 27.8922 47.1311 29.1033 45.8359 29.5129C46.1407 29.6092 46.4651 29.6615 46.8018 29.6615C48.5691 29.6615 50.0017 28.2289 50.0017 26.4615V25.5371H48.0701Z" fill="#CA6114"/>
<path d="M49.9997 25.5363H43.5997L34.4959 15.4213L34.1328 15.0176C34.1447 15.0213 34.1559 15.0245 34.1672 15.0288C34.1972 15.0395 34.2253 15.0526 34.2522 15.0676C34.2847 15.0932 34.3203 15.1213 34.3591 15.1513C36.0872 16.4957 43.7253 22.3357 49.9997 25.5363Z" fill="#CCCCCC"/>
<path d="M50.0005 25.5368H48.0686C44.633 24.668 36.4905 17.2024 34.4636 15.3074L34.463 15.3068C34.3417 15.193 34.243 15.0999 34.168 15.0293C34.198 15.0399 34.2261 15.053 34.253 15.068C34.2855 15.0937 34.3211 15.1218 34.3598 15.1518C36.088 16.4962 43.7261 22.3362 50.0005 25.5368Z" fill="#E4E4E4"/>
<path d="M33.8669 15.0176L33.5037 15.4213L24.4 25.5363H18C21.5606 23.7201 25.5606 21.0532 28.6706 18.8407C31.04 17.1545 32.8931 15.7326 33.6406 15.1513C33.6794 15.1213 33.715 15.0932 33.7475 15.0676C33.7844 15.0463 33.8244 15.0295 33.8669 15.0176Z" fill="#CCCCCC"/>
<defs>
<linearGradient id="paint0_linear_364_7896" x1="9" y1="30.6003" x2="59" y2="30.6003" gradientUnits="userSpaceOnUse">
<stop stop-color="#D2453B"/>
<stop offset="1" stop-color="#A0153E"/>
</linearGradient>
</defs>
</svg>
