<svg width="20" height="21" viewBox="0 0 20 21" fill="none" xmlns="http://www.w3.org/2000/svg">
<path d="M16.783 1.61538H15.3462V0.807692C15.3462 0.593479 15.2611 0.388039 15.1096 0.236568C14.9581 0.0850959 14.7527 0 14.5385 0C14.3242 0 14.1188 0.0850959 13.9673 0.236568C13.8159 0.388039 13.7308 0.593479 13.7308 0.807692V1.61538H10.5V0.807692C10.5 0.593479 10.4149 0.388039 10.2634 0.236568C10.112 0.0850959 9.90652 0 9.69231 0C9.47809 0 9.27265 0.0850959 9.12118 0.236568C8.96971 0.388039 8.88461 0.593479 8.88461 0.807692V1.61538H5.65385V0.807692C5.65385 0.593479 5.56875 0.388039 5.41728 0.236568C5.26581 0.0850959 5.06037 0 4.84615 0C4.63194 0 4.4265 0.0850959 4.27503 0.236568C4.12356 0.388039 4.03846 0.593479 4.03846 0.807692V1.61538H2.60158C1.91179 1.61603 1.25044 1.89033 0.762693 2.37808C0.274942 2.86583 0.000641561 3.52718 0 4.21696V18.3984C0.000641561 19.0882 0.274942 19.7496 0.762693 20.2373C1.25044 20.7251 1.91179 20.9994 2.60158 21H16.783C17.4728 20.9994 18.1342 20.7251 18.6219 20.2373C19.1097 19.7496 19.384 19.0882 19.3846 18.3984V4.21696C19.384 3.52718 19.1097 2.86583 18.6219 2.37808C18.1342 1.89033 17.4728 1.61603 16.783 1.61538ZM14.7057 9.45565L9.05181 15.1095C8.90034 15.2609 8.69494 15.346 8.48077 15.346C8.2666 15.346 8.0612 15.2609 7.90973 15.1095L4.67896 11.8787C4.53183 11.7264 4.45042 11.5224 4.45226 11.3106C4.4541 11.0988 4.53905 10.8962 4.6888 10.7465C4.83855 10.5967 5.04113 10.5118 5.25291 10.51C5.46468 10.5081 5.66871 10.5895 5.82104 10.7367L8.48077 13.3964L13.5636 8.31358C13.7159 8.16645 13.9199 8.08504 14.1317 8.08688C14.3435 8.08872 14.5461 8.17366 14.6958 8.32342C14.8456 8.47317 14.9305 8.67575 14.9324 8.88752C14.9342 9.0993 14.8528 9.30332 14.7057 9.45565Z" fill="url(#paint0_linear_364_7532)"/>
<defs>
<linearGradient id="paint0_linear_364_7532" x1="19.3846" y1="10.4998" x2="-48.1123" y2="10.4998" gradientUnits="userSpaceOnUse">
<stop stop-color="#E92F48"/>
<stop offset="1" stop-color="white"/>
</linearGradient>
</defs>
</svg>
