<svg width="10" height="13" viewBox="0 0 10 13" fill="none" xmlns="http://www.w3.org/2000/svg">
<path d="M5.29688 12.4721C6.05907 12.1459 9.79688 10.404 9.79688 7.62702V2.25894L5.29688 0.52832L0.796875 2.25894V7.62702C0.796875 10.4077 4.53271 12.1457 5.29688 12.4721ZM3.53249 6.23766C3.67874 6.0914 3.91687 6.0914 4.06311 6.23766L4.90124 7.07578L6.88779 4.7583C7.02279 4.6008 7.25904 4.58298 7.41653 4.71704C7.57403 4.85204 7.59184 5.0883 7.45778 5.24579L5.20778 7.87091C5.14028 7.94966 5.04184 7.99747 4.93778 8.00216H4.92278C4.82341 8.00216 4.72778 7.96279 4.65746 7.89247L3.53246 6.76747C3.38621 6.62122 3.38621 6.38309 3.53246 6.23686L3.53249 6.23766Z" fill="#B92D3D"/>
</svg>
