<svg width="12" height="15" viewBox="0 0 12 15" fill="none" xmlns="http://www.w3.org/2000/svg">
<path d="M5.65146 15C6.60868 14.5903 11.3029 12.4027 11.3029 8.91511V2.17345L5.65146 0L0 2.17345V8.91511C0 12.4073 4.69177 14.5901 5.65146 15ZM3.43561 7.17024C3.61928 6.98657 3.91835 6.98657 4.10199 7.17024L5.15458 8.22283L7.64945 5.31234C7.819 5.11454 8.11571 5.09217 8.31349 5.26054C8.5113 5.43008 8.53366 5.72679 8.3653 5.92457L5.53957 9.22141C5.4548 9.32031 5.33117 9.38036 5.20048 9.38625H5.18164C5.05684 9.38625 4.93675 9.3368 4.84843 9.24849L3.43557 7.83563C3.2519 7.65195 3.2519 7.35289 3.43557 7.16924L3.43561 7.17024Z" fill="#FD813B"/>
</svg>
