<svg width="8" height="10" viewBox="0 0 8 10" fill="none" xmlns="http://www.w3.org/2000/svg">
<path d="M3.77476 9.67826C4.37181 9.42269 7.29976 8.05822 7.29976 5.88291V1.67791L3.77476 0.322266L0.249756 1.67791V5.88291C0.249756 8.06108 3.17616 9.42257 3.77476 9.67826ZM2.39266 4.79458C2.50722 4.68002 2.69376 4.68002 2.8083 4.79458L3.46484 5.45111L5.02097 3.63575C5.12672 3.51237 5.31179 3.49842 5.43515 3.60343C5.55853 3.70918 5.57248 3.89425 5.46747 4.01762L3.70497 6.07396C3.65209 6.13565 3.57498 6.1731 3.49347 6.17677H3.48172C3.40387 6.17677 3.32897 6.14593 3.27388 6.09085L2.39263 5.2096C2.27807 5.09504 2.27807 4.9085 2.39263 4.79395L2.39266 4.79458Z" fill="#6B779A"/>
</svg>
