<svg width="64" height="64" viewBox="0 0 64 64" fill="none" xmlns="http://www.w3.org/2000/svg">
<rect x="0.949219" y="0.947266" width="62.1895" height="62.1895" rx="4.5" stroke="#DEDEDE" stroke-linecap="round" stroke-dasharray="4 4"/>
<path d="M43.1066 20.3464H39.3165L37.1286 17.7207H28.7595V21.6592H25.1727V25.5977H21.5859V38.726C21.5859 40.1701 22.662 41.3516 23.9771 41.3516H43.1066C44.4218 41.3516 45.4978 40.1701 45.4978 38.726V22.972C45.4978 21.5279 44.4218 20.3464 43.1066 20.3464ZM33.5418 37.4132C30.242 37.4132 27.5639 34.4724 27.5639 30.849C27.5639 27.2256 30.242 24.2849 33.5418 24.2849C36.8417 24.2849 39.5198 27.2256 39.5198 30.849C39.5198 34.4725 36.8417 37.4132 33.5418 37.4132Z" fill="#DEDEDE"/>
<path d="M21.5868 24.2859H23.978V20.3474H27.5648V17.7217H23.978V13.7832H21.5868V17.7217H18V20.3474H21.5868V24.2859Z" fill="#DEDEDE"/>
<path d="M33.5447 26.6504C31.4285 26.6504 29.7188 28.5278 29.7188 30.8515C29.7188 33.1752 31.4285 35.0525 33.5447 35.0525C35.6609 35.0525 37.3706 33.1752 37.3706 30.8515C37.3706 28.5278 35.6609 26.6504 33.5447 26.6504Z" fill="#DEDEDE"/>
</svg>
