<svg width="15" height="15" viewBox="0 0 15 15" fill="none" xmlns="http://www.w3.org/2000/svg">
<path d="M14.0627 6.56138C14.0618 5.69142 13.7158 4.85737 13.1006 4.24221C12.4854 3.62706 11.6514 3.28106 10.7814 3.28013C10.6777 3.28013 10.574 3.28599 10.4715 3.29536C10.2069 2.73069 9.78691 2.25309 9.26068 1.91852C8.73444 1.58394 8.12377 1.40625 7.50019 1.40625C6.8766 1.40625 6.26593 1.58394 5.73969 1.91852C5.21346 2.25309 4.79346 2.73069 4.5289 3.29536C4.42636 3.28599 4.32265 3.28013 4.21893 3.28013C3.47408 3.28031 2.75145 3.53391 2.16984 3.99924C1.58822 4.46458 1.18224 5.11395 1.01862 5.84061C0.855005 6.56728 0.943493 7.32798 1.26954 7.99769C1.59559 8.66739 2.13979 9.20623 2.81268 9.52564V12.1864C2.81268 12.435 2.91146 12.6735 3.08727 12.8493C3.26309 13.0251 3.50154 13.1239 3.75018 13.1239H11.2502C11.4988 13.1239 11.7373 13.0251 11.9131 12.8493C12.0889 12.6735 12.1877 12.435 12.1877 12.1864V9.52564C12.7483 9.25904 13.2219 8.83914 13.5537 8.31455C13.8855 7.78995 14.062 7.18211 14.0627 6.56138ZM11.2502 12.1864H3.75018V9.80865C3.90541 9.83127 4.06207 9.84262 4.21893 9.84263H10.7814C10.9383 9.84262 11.095 9.83127 11.2502 9.80865V12.1864ZM10.7814 8.90513H9.97577L10.2986 7.61255C10.3264 7.4928 10.306 7.36693 10.2419 7.26207C10.1777 7.1572 10.0749 7.08173 9.95567 7.05192C9.83642 7.0221 9.71022 7.04033 9.60427 7.10267C9.49832 7.16501 9.4211 7.26648 9.38925 7.38521L9.00897 8.90513H7.96894V7.49888C7.96894 7.37456 7.91955 7.25533 7.83164 7.16742C7.74373 7.07952 7.62451 7.03013 7.50019 7.03013C7.37586 7.03013 7.25664 7.07952 7.16873 7.16742C7.08082 7.25533 7.03144 7.37456 7.03144 7.49888V8.90513H5.9914L5.61112 7.38521C5.59707 7.32458 5.57108 7.26736 5.53467 7.21689C5.49827 7.16641 5.45218 7.12369 5.39909 7.09122C5.346 7.05874 5.28698 7.03716 5.22546 7.02774C5.16395 7.01832 5.10117 7.02124 5.0408 7.03633C4.98042 7.05142 4.92366 7.07839 4.87381 7.11565C4.82397 7.15292 4.78204 7.19973 4.75048 7.25337C4.71892 7.30701 4.69836 7.36639 4.68999 7.42806C4.68163 7.48973 4.68562 7.55244 4.70175 7.61255L5.0246 8.90513H4.21893C3.59733 8.90513 3.00119 8.6582 2.56165 8.21866C2.12211 7.77912 1.87518 7.18298 1.87518 6.56138C1.87518 5.93978 2.12211 5.34364 2.56165 4.9041C3.00119 4.46456 3.59733 4.21763 4.21893 4.21763H4.25292C4.23024 4.37285 4.21888 4.52951 4.21893 4.68638C4.21893 4.8107 4.26832 4.92993 4.35623 5.01784C4.44414 5.10574 4.56336 5.15513 4.68768 5.15513C4.812 5.15513 4.93123 5.10574 5.01914 5.01784C5.10705 4.92993 5.15644 4.8107 5.15644 4.68638C5.15644 4.06478 5.40337 3.46864 5.8429 3.0291C6.28244 2.58956 6.87858 2.34263 7.50019 2.34263C8.12179 2.34263 8.71793 2.58956 9.15747 3.0291C9.597 3.46864 9.84393 4.06478 9.84393 4.68638C9.84393 4.8107 9.89332 4.92993 9.98123 5.01784C10.0691 5.10574 10.1884 5.15513 10.3127 5.15513C10.437 5.15513 10.5562 5.10574 10.6441 5.01784C10.732 4.92993 10.7814 4.8107 10.7814 4.68638C10.7815 4.52951 10.7701 4.37285 10.7474 4.21763H10.7814C11.403 4.21763 11.9992 4.46456 12.4387 4.9041C12.8783 5.34364 13.1252 5.93978 13.1252 6.56138C13.1252 7.18298 12.8783 7.77912 12.4387 8.21866C11.9992 8.6582 11.403 8.90513 10.7814 8.90513Z" fill="#FE8235"/>
</svg>
