<svg width="15" height="15" viewBox="0 0 15 15" fill="none" xmlns="http://www.w3.org/2000/svg">
<g clip-path="url(#clip0_895_25115)">
<path d="M5.15625 2.8125V0.9375C5.15625 0.81318 5.20564 0.693951 5.29355 0.606044C5.38145 0.518136 5.50068 0.46875 5.625 0.46875C5.74932 0.46875 5.86855 0.518136 5.95646 0.606044C6.04437 0.693951 6.09375 0.81318 6.09375 0.9375V2.8125C6.09375 2.93682 6.04437 3.05605 5.95646 3.14396C5.86855 3.23186 5.74932 3.28125 5.625 3.28125C5.50068 3.28125 5.38145 3.23186 5.29355 3.14396C5.20564 3.05605 5.15625 2.93682 5.15625 2.8125ZM7.5 3.28125C7.62432 3.28125 7.74355 3.23186 7.83146 3.14396C7.91937 3.05605 7.96875 2.93682 7.96875 2.8125V0.9375C7.96875 0.81318 7.91937 0.693951 7.83146 0.606044C7.74355 0.518136 7.62432 0.46875 7.5 0.46875C7.37568 0.46875 7.25645 0.518136 7.16855 0.606044C7.08064 0.693951 7.03125 0.81318 7.03125 0.9375V2.8125C7.03125 2.93682 7.08064 3.05605 7.16855 3.14396C7.25645 3.23186 7.37568 3.28125 7.5 3.28125ZM9.375 3.28125C9.49932 3.28125 9.61855 3.23186 9.70646 3.14396C9.79437 3.05605 9.84375 2.93682 9.84375 2.8125V0.9375C9.84375 0.81318 9.79437 0.693951 9.70646 0.606044C9.61855 0.518136 9.49932 0.46875 9.375 0.46875C9.25068 0.46875 9.13145 0.518136 9.04354 0.606044C8.95564 0.693951 8.90625 0.81318 8.90625 0.9375V2.8125C8.90625 2.93682 8.95564 3.05605 9.04354 3.14396C9.13145 3.23186 9.25068 3.28125 9.375 3.28125ZM14.8125 6L13.125 7.26562V10.7812C13.125 11.2785 12.9275 11.7554 12.5758 12.1071C12.2242 12.4587 11.7473 12.6562 11.25 12.6562H3.75C3.25272 12.6562 2.77581 12.4587 2.42418 12.1071C2.07255 11.7554 1.875 11.2785 1.875 10.7812V7.26562L0.187502 6C0.0880457 5.92541 0.0222946 5.81436 0.00471309 5.69129C-0.0128684 5.56822 0.0191598 5.44321 0.0937519 5.34375C0.168344 5.24429 0.27939 5.17854 0.402461 5.16096C0.525531 5.14338 0.650546 5.17541 0.750002 5.25L1.875 6.09375V4.6875C1.875 4.56318 1.92439 4.44395 2.0123 4.35604C2.1002 4.26814 2.21943 4.21875 2.34375 4.21875H12.6563C12.7806 4.21875 12.8998 4.26814 12.9877 4.35604C13.0756 4.44395 13.125 4.56318 13.125 4.6875V6.09375L14.25 5.25C14.3495 5.17541 14.4745 5.14338 14.5975 5.16096C14.7206 5.17854 14.8317 5.24429 14.9063 5.34375C14.9808 5.44321 15.0129 5.56822 14.9953 5.69129C14.9777 5.81436 14.912 5.92541 14.8125 6ZM12.1875 5.15625H2.8125V10.7812C2.8125 11.0299 2.91127 11.2683 3.08709 11.4442C3.2629 11.62 3.50136 11.7188 3.75 11.7188H11.25C11.4986 11.7188 11.7371 11.62 11.9129 11.4442C12.0887 11.2683 12.1875 11.0299 12.1875 10.7812V5.15625Z" fill="#FE8235"/>
</g>
<defs>
<clipPath id="clip0_895_25115">
<rect width="15" height="15" fill="white"/>
</clipPath>
</defs>
</svg>
