<svg width="15" height="15" viewBox="0 0 15 15" fill="none" xmlns="http://www.w3.org/2000/svg">
<g clip-path="url(#clip0_895_25117)">
<path d="M14.5312 3.75H0.46875C0.34443 3.75 0.225201 3.79939 0.137294 3.88729C0.049386 3.9752 0 4.09443 0 4.21875C0 4.34307 0.049386 4.4623 0.137294 4.55021C0.225201 4.63811 0.34443 4.6875 0.46875 4.6875H0.9375V11.25C0.9375 11.3743 0.986886 11.4935 1.07479 11.5815C1.1627 11.6694 1.28193 11.7188 1.40625 11.7188C1.53057 11.7188 1.6498 11.6694 1.73771 11.5815C1.82561 11.4935 1.875 11.3743 1.875 11.25V8.4375H13.125V11.25C13.125 11.3743 13.1744 11.4935 13.2623 11.5815C13.3502 11.6694 13.4694 11.7188 13.5938 11.7188C13.7181 11.7188 13.8373 11.6694 13.9252 11.5815C14.0131 11.4935 14.0625 11.3743 14.0625 11.25V4.6875H14.5312C14.6556 4.6875 14.7748 4.63811 14.8627 4.55021C14.9506 4.4623 15 4.34307 15 4.21875C15 4.09443 14.9506 3.9752 14.8627 3.88729C14.7748 3.79939 14.6556 3.75 14.5312 3.75ZM1.875 4.6875H7.03125V7.5H1.875V4.6875ZM13.125 7.5H7.96875V4.6875H13.125V7.5ZM5.625 6.09375C5.625 6.21807 5.57561 6.3373 5.48771 6.42521C5.3998 6.51311 5.28057 6.5625 5.15625 6.5625H3.75C3.62568 6.5625 3.50645 6.51311 3.41854 6.42521C3.33064 6.3373 3.28125 6.21807 3.28125 6.09375C3.28125 5.96943 3.33064 5.8502 3.41854 5.76229C3.50645 5.67439 3.62568 5.625 3.75 5.625H5.15625C5.28057 5.625 5.3998 5.67439 5.48771 5.76229C5.57561 5.8502 5.625 5.96943 5.625 6.09375ZM9.375 6.09375C9.375 5.96943 9.42439 5.8502 9.51229 5.76229C9.6002 5.67439 9.71943 5.625 9.84375 5.625H11.25C11.3743 5.625 11.4935 5.67439 11.5815 5.76229C11.6694 5.8502 11.7188 5.96943 11.7188 6.09375C11.7188 6.21807 11.6694 6.3373 11.5815 6.42521C11.4935 6.51311 11.3743 6.5625 11.25 6.5625H9.84375C9.71943 6.5625 9.6002 6.51311 9.51229 6.42521C9.42439 6.3373 9.375 6.21807 9.375 6.09375Z" fill="#FE8235"/>
</g>
<defs>
<clipPath id="clip0_895_25117">
<rect width="15" height="15" fill="white"/>
</clipPath>
</defs>
</svg>
