<svg width="15" height="15" viewBox="0 0 15 15" fill="none" xmlns="http://www.w3.org/2000/svg">
<path d="M10.7812 2.85996V1.875C10.7812 1.62636 10.6825 1.3879 10.5067 1.21209C10.3308 1.03627 10.0924 0.9375 9.84375 0.9375H5.15625C4.90761 0.9375 4.66915 1.03627 4.49334 1.21209C4.31752 1.3879 4.21875 1.62636 4.21875 1.875V2.85996C3.68971 2.96851 3.21431 3.25622 2.87273 3.67454C2.53116 4.09286 2.34433 4.61619 2.34375 5.15625V11.7188C2.34375 12.3404 2.59068 12.9365 3.03022 13.376C3.46976 13.8156 4.0659 14.0625 4.6875 14.0625H10.3125C10.9341 14.0625 11.5302 13.8156 11.9698 13.376C12.4093 12.9365 12.6562 12.3404 12.6562 11.7188V5.15625C12.6557 4.61619 12.4688 4.09286 12.1273 3.67454C11.7857 3.25622 11.3103 2.96851 10.7812 2.85996ZM9.84375 2.8125H8.90625V1.875H9.84375V2.8125ZM7.03125 2.8125V1.875H7.96875V2.8125H7.03125ZM6.09375 1.875V2.8125H5.15625V1.875H6.09375ZM11.7188 11.7188C11.7188 12.0917 11.5706 12.4494 11.3069 12.7131C11.0431 12.9768 10.6855 13.125 10.3125 13.125H4.6875C4.31454 13.125 3.95685 12.9768 3.69313 12.7131C3.42941 12.4494 3.28125 12.0917 3.28125 11.7188V5.15625C3.28125 4.78329 3.42941 4.4256 3.69313 4.16188C3.95685 3.89816 4.31454 3.75 4.6875 3.75H10.3125C10.6855 3.75 11.0431 3.89816 11.3069 4.16188C11.5706 4.4256 11.7188 4.78329 11.7188 5.15625V11.7188Z" fill="#FE8235"/>
</svg>
