<svg width="15" height="15" viewBox="0 0 15 15" fill="none" xmlns="http://www.w3.org/2000/svg">
<path d="M10.3126 13.5952C10.3126 13.7196 10.2632 13.8388 10.1753 13.9267C10.0874 14.0146 9.96815 14.064 9.84383 14.064H5.15633C5.03201 14.064 4.91278 14.0146 4.82487 13.9267C4.73696 13.8388 4.68758 13.7196 4.68758 13.5952C4.68758 13.4709 4.73696 13.3517 4.82487 13.2638C4.91278 13.1759 5.03201 13.1265 5.15633 13.1265H9.84383C9.96815 13.1265 10.0874 13.1759 10.1753 13.2638C10.2632 13.3517 10.3126 13.4709 10.3126 13.5952ZM12.6563 6.09525C12.6583 6.87668 12.4818 7.64824 12.1402 8.35105C11.7986 9.05386 11.301 9.66935 10.6852 10.1505C10.5701 10.2388 10.4767 10.3522 10.4121 10.4821C10.3475 10.6119 10.3135 10.7549 10.3126 10.8999V11.2515C10.3126 11.5001 10.2138 11.7386 10.038 11.9144C9.86217 12.0902 9.62372 12.189 9.37508 12.189H5.62508C5.37644 12.189 5.13798 12.0902 4.96216 11.9144C4.78635 11.7386 4.68758 11.5001 4.68758 11.2515V10.8999C4.68748 10.7566 4.65453 10.6152 4.59124 10.4866C4.52796 10.358 4.43604 10.2457 4.32254 10.1581C3.70836 9.67981 3.21104 9.06803 2.86823 8.3691C2.52541 7.67018 2.34609 6.90242 2.34383 6.12396C2.32859 3.33138 4.58562 1.00579 7.37586 0.938997C8.06337 0.922429 8.74724 1.04356 9.38724 1.29526C10.0272 1.54695 10.6104 1.92413 11.1024 2.4046C11.5945 2.88506 11.9854 3.45909 12.2523 4.09292C12.5192 4.72674 12.6565 5.40754 12.6563 6.09525ZM11.7188 6.09525C11.719 5.53255 11.6066 4.9755 11.3882 4.4569C11.1699 3.9383 10.85 3.46862 10.4474 3.07551C10.0447 2.6824 9.56756 2.3738 9.0439 2.16789C8.52023 1.96197 7.96066 1.8629 7.39812 1.8765C5.11297 1.9304 3.26902 3.83294 3.28133 6.1181C3.28347 6.75477 3.43039 7.38262 3.71097 7.95413C3.99155 8.52565 4.39844 9.02586 4.90086 9.41693C5.1267 9.5925 5.30938 9.81741 5.43491 10.0745C5.56044 10.3315 5.62549 10.6139 5.62508 10.8999V11.2515H9.37508V10.8999C9.37573 10.6131 9.44189 10.3301 9.56852 10.0727C9.69514 9.81528 9.87889 9.59019 10.1057 9.41458C10.6097 9.02073 11.017 8.51694 11.2966 7.94167C11.5761 7.3664 11.7206 6.73485 11.7188 6.09525ZM10.7749 5.54798C10.6533 4.86905 10.3267 4.24366 9.83893 3.75601C9.35117 3.26835 8.72571 2.94184 8.04676 2.82044C7.98605 2.81021 7.92391 2.81203 7.86391 2.82581C7.8039 2.83959 7.7472 2.86505 7.69703 2.90074C7.64687 2.93644 7.60422 2.98166 7.57154 3.03383C7.53885 3.08601 7.51676 3.14411 7.50652 3.20482C7.49629 3.26553 7.49811 3.32766 7.51189 3.38767C7.52567 3.44767 7.55113 3.50438 7.58682 3.55454C7.62252 3.60471 7.66774 3.64735 7.71991 3.68004C7.77209 3.71273 7.83019 3.73482 7.8909 3.74505C8.86179 3.90853 9.68562 4.73236 9.85027 5.70501C9.86882 5.81419 9.92542 5.91327 10.01 5.9847C10.0947 6.05612 10.2018 6.09529 10.3126 6.09525C10.3391 6.09509 10.3655 6.09293 10.3917 6.0888C10.5142 6.06788 10.6234 5.99916 10.6953 5.89774C10.7671 5.79632 10.7958 5.67051 10.7749 5.54798Z" fill="#FE8235"/>
</svg>
