<svg width="15" height="15" viewBox="0 0 15 15" fill="none" xmlns="http://www.w3.org/2000/svg">
<g clip-path="url(#clip0_895_25109)">
<path d="M5.62512 12.186C5.62512 12.3103 5.57573 12.4296 5.48783 12.5175C5.39992 12.6054 5.28069 12.6548 5.15637 12.6548H2.34387C2.09709 12.6546 1.8547 12.5895 1.64105 12.466C1.42739 12.3426 1.24999 12.165 1.12666 11.9513C1.00334 11.7375 0.938439 11.4951 0.938477 11.2483C0.938514 11.0015 1.00349 10.7591 1.12688 10.5454L3.13606 7.07371L2.31282 7.29344C2.25318 7.30937 2.191 7.3134 2.12981 7.30529C2.06862 7.29718 2.00962 7.27711 1.95619 7.2462C1.84829 7.18379 1.76959 7.08106 1.73743 6.96063C1.70526 6.84019 1.72225 6.71191 1.78466 6.60401C1.84708 6.4961 1.9498 6.41741 2.07024 6.38524L3.99036 5.87137C4.04983 5.85542 4.11187 5.85135 4.17293 5.85939C4.23398 5.86743 4.29285 5.88742 4.34618 5.91822C4.3995 5.94902 4.44624 5.99002 4.48371 6.03889C4.52118 6.08775 4.54866 6.14352 4.56457 6.20301L5.07961 8.12313C5.09588 8.18288 5.10015 8.24527 5.09217 8.30668C5.08419 8.36809 5.06412 8.42731 5.03312 8.48092C5.00212 8.53453 4.9608 8.58146 4.91156 8.61901C4.86231 8.65656 4.80612 8.68398 4.74621 8.69969C4.70641 8.71005 4.66547 8.71537 4.62434 8.71551C4.52122 8.71541 4.42101 8.68132 4.33924 8.6185C4.25746 8.55569 4.19868 8.46766 4.172 8.36805L3.94934 7.53895L1.94016 11.0141C1.89911 11.0852 1.87745 11.1659 1.87736 11.248C1.87726 11.3301 1.89872 11.4107 1.9396 11.4819C1.98047 11.5531 2.03933 11.6123 2.11028 11.6536C2.18123 11.6949 2.26178 11.7169 2.34387 11.7173H5.15637C5.28069 11.7173 5.39992 11.7667 5.48783 11.8546C5.57573 11.9425 5.62512 12.0617 5.62512 12.186ZM13.871 10.5454L12.5152 8.20164C12.4503 8.09961 12.3485 8.02659 12.2311 7.99783C12.1137 7.96906 11.9897 7.98678 11.885 8.04729C11.7803 8.10779 11.7031 8.2064 11.6694 8.32251C11.6357 8.43863 11.6482 8.56327 11.7042 8.67039L13.0601 11.0141C13.1011 11.0852 13.1228 11.1659 13.1229 11.248C13.123 11.3301 13.1015 11.4107 13.0606 11.4819C13.0198 11.5531 12.9609 11.6123 12.89 11.6536C12.819 11.6949 12.7385 11.7169 12.6564 11.7173H8.63157L9.23742 11.1114C9.32538 11.0235 9.37483 10.9043 9.37488 10.78C9.37494 10.6556 9.3256 10.5364 9.23772 10.4484C9.14984 10.3605 9.03062 10.311 8.90629 10.311C8.78195 10.3109 8.66269 10.3602 8.57473 10.4481L7.16848 11.8544C7.1249 11.8979 7.09032 11.9496 7.06673 12.0065C7.04314 12.0634 7.031 12.1244 7.031 12.186C7.031 12.2476 7.04314 12.3086 7.06673 12.3655C7.09032 12.4224 7.1249 12.4741 7.16848 12.5177L8.57473 13.9239C8.61828 13.9674 8.66998 14.0019 8.72687 14.0255C8.78375 14.049 8.84472 14.0611 8.90629 14.0611C8.96785 14.061 9.02881 14.0489 9.08567 14.0253C9.14254 14.0017 9.19421 13.9672 9.23772 13.9236C9.28123 13.8801 9.31574 13.8284 9.33928 13.7715C9.36281 13.7146 9.37491 13.6536 9.37488 13.5921C9.37485 13.5305 9.3627 13.4695 9.33912 13.4127C9.31553 13.3558 9.28098 13.3041 9.23742 13.2606L8.63157 12.6548H12.6564C12.9031 12.6546 13.1455 12.5895 13.3592 12.466C13.5729 12.3426 13.7503 12.165 13.8736 11.9513C13.9969 11.7375 14.0618 11.4951 14.0618 11.2483C14.0617 11.0015 13.9968 10.7591 13.8734 10.5454H13.871ZM7.50012 1.87352C7.5825 1.87269 7.66359 1.89401 7.73492 1.93524C7.80625 1.97647 7.86519 2.0361 7.90559 2.10789L9.91477 5.57957L9.08977 5.35809C8.97116 5.33025 8.84637 5.34968 8.74185 5.41227C8.63732 5.47486 8.56127 5.57569 8.52981 5.69338C8.49834 5.81108 8.51394 5.93641 8.5733 6.0428C8.63265 6.1492 8.7311 6.22831 8.84778 6.26336L10.7685 6.7784C10.8081 6.7888 10.8488 6.79412 10.8898 6.79422C10.9929 6.79413 11.0931 6.76003 11.1749 6.69721C11.2566 6.6344 11.3154 6.54637 11.3421 6.44676L11.8572 4.52547C11.8748 4.46549 11.8803 4.40257 11.8733 4.34043C11.8663 4.27828 11.847 4.21817 11.8164 4.16363C11.7858 4.10908 11.7446 4.06121 11.6952 4.02284C11.6458 3.98446 11.5893 3.95635 11.5289 3.94016C11.4684 3.92398 11.4054 3.92004 11.3435 3.92859C11.2815 3.93713 11.2219 3.95799 11.1681 3.98993C11.1144 4.02187 11.0675 4.06424 11.0304 4.11455C10.9933 4.16487 10.9666 4.22211 10.9519 4.28289L10.7292 5.11317L8.71711 1.63914C8.59357 1.42577 8.41611 1.24862 8.20251 1.12547C7.9889 1.00233 7.74668 0.9375 7.50012 0.9375C7.25356 0.9375 7.01134 1.00233 6.79774 1.12547C6.58414 1.24862 6.40667 1.42577 6.28313 1.63914L4.9261 3.98289C4.86779 4.09027 4.85372 4.21616 4.88687 4.33376C4.92002 4.45136 4.99778 4.55137 5.10358 4.61248C5.20938 4.6736 5.33486 4.69098 5.45329 4.66094C5.57172 4.6309 5.67374 4.5558 5.73762 4.45164L7.09465 2.10789C7.13505 2.0361 7.194 1.97647 7.26532 1.93524C7.33665 1.89401 7.41774 1.87269 7.50012 1.87352Z" fill="#FE8235"/>
</g>
<defs>
<clipPath id="clip0_895_25109">
<rect width="15" height="15" fill="white"/>
</clipPath>
</defs>
</svg>
