<svg width="15" height="15" viewBox="0 0 15 15" fill="none" xmlns="http://www.w3.org/2000/svg">
<path d="M11.25 1.40625H3.75C3.50136 1.40625 3.2629 1.50502 3.08709 1.68084C2.91127 1.85665 2.8125 2.09511 2.8125 2.34375V12.6562C2.8125 12.9049 2.91127 13.1433 3.08709 13.3192C3.2629 13.495 3.50136 13.5938 3.75 13.5938H11.25C11.4986 13.5938 11.7371 13.495 11.9129 13.3192C12.0887 13.1433 12.1875 12.9049 12.1875 12.6562V2.34375C12.1875 2.09511 12.0887 1.85665 11.9129 1.68084C11.7371 1.50502 11.4986 1.40625 11.25 1.40625ZM11.25 12.6562H3.75V2.34375H11.25V12.6562ZM6.79688 4.45312C6.79688 4.31406 6.83811 4.17812 6.91537 4.06249C6.99263 3.94686 7.10245 3.85674 7.23093 3.80352C7.35941 3.7503 7.50078 3.73638 7.63717 3.76351C7.77357 3.79064 7.89885 3.85761 7.99718 3.95594C8.09552 4.05427 8.16248 4.17956 8.18961 4.31595C8.21674 4.45234 8.20282 4.59372 8.1496 4.7222C8.09638 4.85068 8.00626 4.96049 7.89064 5.03775C7.77501 5.11501 7.63906 5.15625 7.5 5.15625C7.31352 5.15625 7.13468 5.08217 7.00282 4.95031C6.87095 4.81845 6.79688 4.63961 6.79688 4.45312ZM7.5 11.25C7.96355 11.25 8.41669 11.1125 8.80212 10.855C9.18755 10.5975 9.48795 10.2314 9.66534 9.80316C9.84274 9.3749 9.88915 8.90365 9.79872 8.44901C9.70828 7.99436 9.48506 7.57675 9.15728 7.24897C8.8295 6.92119 8.41189 6.69797 7.95724 6.60753C7.5026 6.5171 7.03135 6.56351 6.60309 6.74091C6.17482 6.9183 5.80878 7.2187 5.55124 7.60413C5.29371 7.98956 5.15625 8.4427 5.15625 8.90625C5.15625 9.21404 5.21687 9.51881 5.33466 9.80316C5.45244 10.0875 5.62508 10.3459 5.84272 10.5635C6.28226 11.0031 6.8784 11.25 7.5 11.25ZM7.5 7.5C7.77813 7.5 8.05001 7.58247 8.28127 7.737C8.51253 7.89152 8.69277 8.11114 8.79921 8.3681C8.90564 8.62506 8.93349 8.90781 8.87923 9.1806C8.82497 9.45338 8.69104 9.70395 8.49437 9.90062C8.2977 10.0973 8.04713 10.2312 7.77435 10.2855C7.50156 10.3397 7.21881 10.3119 6.96185 10.2055C6.70489 10.099 6.48527 9.91878 6.33075 9.68752C6.17623 9.45626 6.09375 9.18438 6.09375 8.90625C6.09375 8.53329 6.24191 8.1756 6.50563 7.91188C6.76935 7.64816 7.12704 7.5 7.5 7.5Z" fill="#FE8235"/>
</svg>
