<svg width="15" height="15" viewBox="0 0 15 15" fill="none" xmlns="http://www.w3.org/2000/svg">
<path d="M13.6528 7.90846C13.5108 7.37823 13.2467 6.8886 12.8815 6.47879C12.5164 6.06898 12.0603 5.75037 11.5499 5.54847C11.0395 5.34656 10.4889 5.26698 9.94218 5.3161C9.39548 5.36522 8.86787 5.54166 8.40162 5.83131L9.36197 1.99693C9.38579 1.90167 9.3791 1.80133 9.34282 1.71007C9.30655 1.61882 9.24254 1.54126 9.15982 1.48834C8.76114 1.23659 8.31589 1.06762 7.85057 0.991467C7.38525 0.915315 6.90937 0.933544 6.45124 1.04507C5.99311 1.15659 5.56209 1.35913 5.18384 1.64064C4.80559 1.92215 4.48782 2.27686 4.24946 2.68369C4.0111 3.09051 3.85701 3.54112 3.79636 4.00872C3.73571 4.47631 3.76974 4.95132 3.89642 5.4055C4.0231 5.85967 4.23985 6.28372 4.53377 6.65241C4.82768 7.0211 5.19276 7.32691 5.60728 7.55162L1.8063 8.63736C1.71187 8.66426 1.62827 8.72012 1.5673 8.79708C1.50632 8.87403 1.47105 8.96819 1.46646 9.06627C1.43038 9.86661 1.66875 10.6553 2.14207 11.3016C2.6154 11.948 3.2953 12.4133 4.06919 12.6206C4.36768 12.7007 4.67537 12.7415 4.98443 12.7419C5.45538 12.7406 5.92129 12.6449 6.35457 12.4603C6.78784 12.2757 7.17967 12.0061 7.50684 11.6673C7.83401 11.3285 8.08988 10.9276 8.25927 10.4881C8.42867 10.0487 8.50815 9.57975 8.49302 9.10904L11.3336 11.8583C11.4043 11.9266 11.4946 11.971 11.5919 11.9852C11.6891 11.9994 11.7884 11.9827 11.8756 11.9374C12.5864 11.5686 13.15 10.9682 13.4731 10.2356C13.7963 9.50299 13.8597 8.682 13.6528 7.90846ZM6.56294 7.4983C6.56294 7.31288 6.61793 7.13162 6.72094 6.97745C6.82395 6.82328 6.97037 6.70312 7.14168 6.63216C7.31298 6.56121 7.50148 6.54264 7.68334 6.57881C7.8652 6.61499 8.03224 6.70428 8.16336 6.83539C8.29447 6.9665 8.38376 7.13355 8.41993 7.3154C8.4561 7.49726 8.43754 7.68576 8.36658 7.85707C8.29562 8.02837 8.17546 8.17479 8.02129 8.2778C7.86712 8.38082 7.68586 8.4358 7.50044 8.4358C7.2518 8.4358 7.01335 8.33703 6.83753 8.16121C6.66172 7.9854 6.56294 7.74694 6.56294 7.4983ZM4.68794 4.45143C4.68779 4.01701 4.79742 3.5896 5.00664 3.20888C5.21587 2.82816 5.5179 2.50649 5.8847 2.27373C6.25149 2.04096 6.67116 1.90466 7.10473 1.87747C7.53829 1.85029 7.9717 1.9331 8.3647 2.11822L7.48697 5.6233C7.15111 5.62582 6.8221 5.7185 6.53432 5.89167C6.24654 6.06483 6.01055 6.31212 5.85103 6.60768C5.49297 6.37352 5.19904 6.05365 4.99593 5.6771C4.79283 5.30056 4.68696 4.87926 4.68794 4.45143ZM6.26997 11.4575C5.89384 11.6748 5.4689 11.7936 5.03459 11.8028C4.60028 11.8119 4.1707 11.7112 3.78573 11.51C3.40076 11.3087 3.07288 11.0134 2.83254 10.6516C2.5922 10.2897 2.4472 9.87299 2.41099 9.4401L5.88619 8.44752C6.05141 8.72898 6.28724 8.96243 6.57036 9.1248C6.85348 9.28717 7.17407 9.37283 7.50044 9.3733H7.55376C7.53018 9.80011 7.40041 10.2143 7.17623 10.5782C6.95204 10.9422 6.64054 11.2444 6.26997 11.4575ZM12.4909 10.1098C12.3012 10.4388 12.0411 10.7218 11.7292 10.9383L9.13228 8.42525C9.29846 8.13338 9.38294 7.80212 9.37686 7.46631C9.37078 7.1305 9.27435 6.80252 9.09771 6.51686C9.59351 6.26656 10.1569 6.18307 10.704 6.27881C11.2511 6.37456 11.7526 6.64441 12.1339 7.0482C12.5153 7.45199 12.756 7.96813 12.8203 8.51979C12.8846 9.07146 12.7691 9.62914 12.4909 10.1098Z" fill="#FE8235"/>
</svg>
