<svg width="15" height="15" viewBox="0 0 15 15" fill="none" xmlns="http://www.w3.org/2000/svg">
<path d="M13.125 2.8125H1.875C1.75068 2.8125 1.63145 2.86189 1.54354 2.94979C1.45564 3.0377 1.40625 3.15693 1.40625 3.28125V11.7188C1.40625 11.8431 1.45564 11.9623 1.54354 12.0502C1.63145 12.1381 1.75068 12.1875 1.875 12.1875H13.125C13.2493 12.1875 13.3685 12.1381 13.4565 12.0502C13.5444 11.9623 13.5938 11.8431 13.5938 11.7188V3.28125C13.5938 3.15693 13.5444 3.0377 13.4565 2.94979C13.3685 2.86189 13.2493 2.8125 13.125 2.8125ZM5.15625 8.4375V6.5625H9.84375V8.4375H5.15625ZM2.34375 8.4375V6.5625H4.21875V8.4375H2.34375ZM10.7812 6.5625H12.6562V8.4375H10.7812V6.5625ZM12.6562 5.625H7.96875V3.75H12.6562V5.625ZM7.03125 3.75V5.625H2.34375V3.75H7.03125ZM2.34375 9.375H7.03125V11.25H2.34375V9.375ZM7.96875 11.25V9.375H12.6562V11.25H7.96875Z" fill="#FE8235"/>
</svg>
