<svg width="27" height="27" viewBox="0 0 27 27" fill="none" xmlns="http://www.w3.org/2000/svg">
<path d="M24.2934 14.5765C24.6468 14.1347 24.9196 13.6341 25.0995 13.0977C25.7548 11.1325 25.0879 8.87538 23.2216 6.74208C21.4094 4.67048 18.6655 2.94742 15.4953 1.89029C12.3251 0.833153 9.09621 0.564563 6.40333 1.13388C3.63022 1.72016 1.7421 3.12532 1.08679 5.0905C0.431496 7.05568 1.0984 9.3128 2.96463 11.4461C3.49186 12.0443 4.06973 12.5958 4.69181 13.0946C2.23498 14.5168 0.843252 16.4778 0.843252 18.5623C0.843252 20.6339 2.18991 22.5641 4.63516 23.9976C7.00962 25.3895 10.1577 26.1561 13.4995 26.1561C16.8413 26.1561 19.9894 25.3895 22.3638 23.9976C24.8091 22.5641 26.1558 20.6339 26.1558 18.5623C26.1558 17.1373 25.514 15.7683 24.2934 14.5765ZM15.2284 2.69073C17.131 3.32517 18.869 4.20641 20.3238 5.25963C21.9532 6.82844 22.6243 8.51769 22.1648 9.89556C22.0749 10.1636 21.9449 10.4165 21.7794 10.6457C20.5004 8.56914 17.846 6.67657 14.6886 5.62372C10.7356 4.30554 6.79786 4.51951 4.64599 6.12357C4.38245 5.3857 4.35154 4.67408 4.56715 4.0275C4.87358 3.1085 5.66515 2.37535 6.85623 1.90471C7.67693 1.7554 8.50962 1.68181 9.34379 1.68486C11.2155 1.68486 13.2312 2.02475 15.2284 2.69073ZM19.9117 12.0061C17.9771 11.3275 15.7617 10.9686 13.4995 10.9686C12.436 10.9679 11.3739 11.0482 10.3225 11.2087C8.5485 10.4298 7.02691 9.38447 5.94769 8.18872C5.58955 7.79782 5.27511 7.36901 5.00996 6.90991C6.87502 5.3861 10.6855 5.17824 14.4217 6.42416C17.5017 7.45118 20.0565 9.29567 21.1754 11.2813C20.7934 11.5855 20.3673 11.8299 19.9117 12.0061ZM18.3984 12.4258C16.5224 12.757 14.2942 12.558 12.0713 11.8628C12.5437 11.8299 13.0198 11.813 13.4995 11.8123C15.1519 11.8074 16.7982 12.0136 18.3984 12.4258ZM3.59968 10.8906C1.9387 8.99189 1.33053 7.02684 1.88723 5.35742C2.24874 4.27324 3.0785 3.3845 4.29153 2.75147C4.06483 3.05828 3.88773 3.3988 3.76671 3.76058C3.25312 5.30082 3.80523 7.07419 5.32132 8.75402C6.52147 10.0838 8.22049 11.2356 10.1924 12.0712L10.1944 12.0829C10.2006 12.0818 10.2069 12.081 10.2131 12.0799C10.6299 12.2559 11.0581 12.4174 11.4976 12.5645C13.2054 13.134 14.9318 13.4253 16.5314 13.4253C17.2673 13.4285 18.0018 13.3609 18.7248 13.2235C20.9457 12.7898 22.4516 11.7027 22.9652 10.1625C23.2193 9.40048 23.2079 8.57628 22.95 7.73629C24.3334 9.49652 24.813 11.2896 24.299 12.8308C23.7424 14.5002 22.0765 15.707 19.6084 16.2288C17.0601 16.7676 13.9879 16.5079 10.9579 15.4975C7.92784 14.4871 5.31465 12.851 3.59968 10.8906ZM5.30883 13.7144C5.34697 13.6933 5.38594 13.6727 5.42461 13.6519C6.48087 14.4033 7.61134 15.0445 8.79831 15.5655C6.87955 16.2152 5.38554 17.2144 4.54674 18.4168C4.06314 17.8001 3.80861 17.1347 3.80861 16.4529C3.80861 15.484 4.32739 14.5378 5.30883 13.7144ZM10.0548 16.0744C10.2649 16.1518 10.4769 16.2263 10.691 16.2979C12.7733 16.9923 14.8806 17.3464 16.8451 17.3464C17.8318 17.3511 18.8164 17.2532 19.7829 17.0543C19.9208 17.0252 20.0558 16.9934 20.1892 16.9603C20.7931 17.2577 21.3546 17.6341 21.8591 18.0798C21.4204 18.7736 20.7013 19.416 19.7329 19.9638C17.9637 20.9644 15.6023 21.5154 13.0837 21.5154C10.5652 21.5154 8.20379 20.9644 6.43461 19.9638C5.97141 19.7063 5.53766 19.3992 5.14104 19.0477C5.96554 17.7495 7.77055 16.6546 10.0548 16.0744ZM22.3589 16.4529C22.3584 16.7353 22.3152 17.0159 22.2308 17.2854C21.9381 17.0412 21.6283 16.8184 21.3037 16.6185C21.6598 16.4872 22.0067 16.3324 22.3421 16.1551C22.3531 16.254 22.3587 16.3534 22.3589 16.4529ZM21.9372 23.2696C19.6901 24.5869 16.6936 25.3123 13.4995 25.3123C10.3054 25.3123 7.3089 24.5869 5.06185 23.2696C2.88555 21.9939 1.687 20.3221 1.687 18.5623C1.687 17.4242 2.19789 16.3172 3.14173 15.3353C3.02491 15.6964 2.96523 16.0735 2.96486 16.4529C2.96486 18.0765 4.04959 19.5842 6.01923 20.6982C7.91308 21.7693 10.422 22.3592 13.0837 22.3592C15.7455 22.3592 18.2544 21.7693 20.1483 20.6982C22.1179 19.5842 23.2026 18.0765 23.2026 16.4529C23.2022 16.1924 23.1735 15.9326 23.117 15.6782C23.3273 15.5297 23.5279 15.368 23.7179 15.1942C24.7626 16.2205 25.312 17.3768 25.312 18.5623C25.312 20.3221 24.1135 21.9939 21.9372 23.2696Z" fill="black"/>
<path d="M24.2934 14.5765C24.6468 14.1347 24.9196 13.6341 25.0995 13.0977C25.7548 11.1325 25.0879 8.87538 23.2216 6.74208C21.4094 4.67048 18.6655 2.94742 15.4953 1.89029C12.3251 0.833153 9.09621 0.564563 6.40333 1.13388C3.63022 1.72016 1.7421 3.12532 1.08679 5.0905C0.431496 7.05568 1.0984 9.3128 2.96463 11.4461C3.49186 12.0443 4.06973 12.5958 4.69181 13.0946C2.23498 14.5168 0.843252 16.4778 0.843252 18.5623C0.843252 20.6339 2.18991 22.5641 4.63516 23.9976C7.00962 25.3895 10.1577 26.1561 13.4995 26.1561C16.8413 26.1561 19.9894 25.3895 22.3638 23.9976C24.8091 22.5641 26.1558 20.6339 26.1558 18.5623C26.1558 17.1373 25.514 15.7683 24.2934 14.5765ZM15.2284 2.69073C17.131 3.32517 18.869 4.20641 20.3238 5.25963C21.9532 6.82844 22.6243 8.51769 22.1648 9.89556C22.0749 10.1636 21.9449 10.4165 21.7794 10.6457C20.5004 8.56914 17.846 6.67657 14.6886 5.62372C10.7356 4.30554 6.79786 4.51951 4.64599 6.12357C4.38245 5.3857 4.35154 4.67408 4.56715 4.0275C4.87358 3.1085 5.66515 2.37535 6.85623 1.90471C7.67693 1.7554 8.50962 1.68181 9.34379 1.68486C11.2155 1.68486 13.2312 2.02475 15.2284 2.69073ZM19.9117 12.0061C17.9771 11.3275 15.7617 10.9686 13.4995 10.9686C12.436 10.9679 11.3739 11.0482 10.3225 11.2087C8.5485 10.4298 7.02691 9.38447 5.94769 8.18872C5.58955 7.79782 5.27511 7.36901 5.00996 6.90991C6.87502 5.3861 10.6855 5.17824 14.4217 6.42416C17.5017 7.45118 20.0565 9.29567 21.1754 11.2813C20.7934 11.5855 20.3673 11.8299 19.9117 12.0061ZM18.3984 12.4258C16.5224 12.757 14.2942 12.558 12.0713 11.8628C12.5437 11.8299 13.0198 11.813 13.4995 11.8123C15.1519 11.8074 16.7982 12.0136 18.3984 12.4258ZM3.59968 10.8906C1.9387 8.99189 1.33053 7.02684 1.88723 5.35742C2.24874 4.27324 3.0785 3.3845 4.29153 2.75147C4.06483 3.05828 3.88773 3.3988 3.76671 3.76058C3.25312 5.30082 3.80523 7.07419 5.32132 8.75402C6.52147 10.0838 8.22049 11.2356 10.1924 12.0712L10.1944 12.0829C10.2006 12.0818 10.2069 12.081 10.2131 12.0799C10.6299 12.2559 11.0581 12.4174 11.4976 12.5645C13.2054 13.134 14.9318 13.4253 16.5314 13.4253C17.2673 13.4285 18.0018 13.3609 18.7248 13.2235C20.9457 12.7898 22.4516 11.7027 22.9652 10.1625C23.2193 9.40048 23.2079 8.57628 22.95 7.73629C24.3334 9.49652 24.813 11.2896 24.299 12.8308C23.7424 14.5002 22.0765 15.707 19.6084 16.2288C17.0601 16.7676 13.9879 16.5079 10.9579 15.4975C7.92784 14.4871 5.31465 12.851 3.59968 10.8906ZM5.30883 13.7144C5.34697 13.6933 5.38594 13.6727 5.42461 13.6519C6.48087 14.4033 7.61134 15.0445 8.79831 15.5655C6.87955 16.2152 5.38554 17.2144 4.54674 18.4168C4.06314 17.8001 3.80861 17.1347 3.80861 16.4529C3.80861 15.484 4.32739 14.5378 5.30883 13.7144ZM10.0548 16.0744C10.2649 16.1518 10.4769 16.2263 10.691 16.2979C12.7733 16.9923 14.8806 17.3464 16.8451 17.3464C17.8318 17.3511 18.8164 17.2532 19.7829 17.0543C19.9208 17.0252 20.0558 16.9934 20.1892 16.9603C20.7931 17.2577 21.3546 17.6341 21.8591 18.0798C21.4204 18.7736 20.7013 19.416 19.7329 19.9638C17.9637 20.9644 15.6023 21.5154 13.0837 21.5154C10.5652 21.5154 8.20379 20.9644 6.43461 19.9638C5.97141 19.7063 5.53766 19.3992 5.14104 19.0477C5.96554 17.7495 7.77055 16.6546 10.0548 16.0744ZM22.3589 16.4529C22.3584 16.7353 22.3152 17.0159 22.2308 17.2854C21.9381 17.0412 21.6283 16.8184 21.3037 16.6185C21.6598 16.4872 22.0067 16.3324 22.3421 16.1551C22.3531 16.254 22.3587 16.3534 22.3589 16.4529ZM21.9372 23.2696C19.6901 24.5869 16.6936 25.3123 13.4995 25.3123C10.3054 25.3123 7.3089 24.5869 5.06185 23.2696C2.88555 21.9939 1.687 20.3221 1.687 18.5623C1.687 17.4242 2.19789 16.3172 3.14173 15.3353C3.02491 15.6964 2.96523 16.0735 2.96486 16.4529C2.96486 18.0765 4.04959 19.5842 6.01923 20.6982C7.91308 21.7693 10.422 22.3592 13.0837 22.3592C15.7455 22.3592 18.2544 21.7693 20.1483 20.6982C22.1179 19.5842 23.2026 18.0765 23.2026 16.4529C23.2022 16.1924 23.1735 15.9326 23.117 15.6782C23.3273 15.5297 23.5279 15.368 23.7179 15.1942C24.7626 16.2205 25.312 17.3768 25.312 18.5623C25.312 20.3221 24.1135 21.9939 21.9372 23.2696Z" fill="url(#paint0_linear_1198_15558)"/>
<defs>
<linearGradient id="paint0_linear_1198_15558" x1="0.841309" y1="13.4989" x2="26.1558" y2="13.4989" gradientUnits="userSpaceOnUse">
<stop stop-color="#D2453B"/>
<stop offset="1" stop-color="#A0153E"/>
</linearGradient>
</defs>
</svg>
