<svg width="27" height="27" viewBox="0 0 27 27" fill="none" xmlns="http://www.w3.org/2000/svg">
<path d="M25.7748 13.0226C26.6303 12.4844 27.1108 11.4517 26.9002 10.4003C26.6914 9.35667 25.8471 8.56934 24.8249 8.41399C25.0651 8.08118 25.2235 7.69074 25.2792 7.27388C25.3094 7.0477 25.1504 6.83977 24.9242 6.80961C24.6976 6.77928 24.4901 6.93833 24.4599 7.16451C24.3956 7.64723 24.1273 8.07776 23.724 8.3458C23.3528 8.59255 22.9082 8.6793 22.4723 8.59028C22.0345 8.50084 21.6577 8.24492 21.4113 7.86972C20.9025 7.09495 21.1149 6.04849 21.8846 5.53697C22.256 5.29028 22.7005 5.20343 23.1365 5.29255C23.5743 5.38204 23.9511 5.6379 24.1976 6.01327C24.2165 6.04206 24.2349 6.07201 24.2522 6.10212C24.3657 6.30025 24.6182 6.36891 24.8162 6.25547C25.0143 6.1421 25.0829 5.88955 24.9696 5.69148C24.9439 5.64666 24.9166 5.60215 24.8885 5.55933C24.5204 4.99887 23.957 4.61655 23.3021 4.48271C22.9398 4.40867 22.5735 4.41605 22.2243 4.50001C22.4641 3.51593 22.0933 2.43968 21.2148 1.83271C20.7966 1.54383 20.3081 1.39106 19.8022 1.39106C19.0495 1.39106 18.3425 1.73152 17.8705 2.31006C17.3321 2.09216 16.7744 1.91303 16.2 1.77544V1.21625C16.2 0.684584 15.7674 0.251953 15.2357 0.251953H11.3893C10.8576 0.251953 10.425 0.684531 10.425 1.21625V1.86652C10.3644 1.88297 10.3037 1.89895 10.2434 1.91656C10.0243 1.98063 9.89872 2.21013 9.9628 2.42924C10.0227 2.63417 10.2274 2.7573 10.4328 2.71991C10.4908 3.19647 10.8972 3.56724 11.3893 3.56724H12.7014L11.8502 5.04733C11.7746 5.03294 11.6969 5.02513 11.6173 5.02513C10.9298 5.02513 10.3706 5.58591 10.3706 6.27514C10.3706 6.96438 10.9298 7.5251 11.6173 7.5251C12.3047 7.5251 12.864 6.96438 12.864 6.27514C12.864 5.96559 12.7509 5.6821 12.5643 5.46356L13.4149 3.98448L14.2849 5.49726C14.1149 5.71089 14.0129 5.9812 14.0129 6.27514C14.0129 6.96438 14.5722 7.5251 15.2596 7.5251C15.9471 7.5251 16.5063 6.96438 16.5063 6.27514C16.5063 5.58591 15.9469 5.02519 15.2595 5.02519C15.165 5.02519 15.0731 5.03615 14.9846 5.05619L14.1283 3.5673H15.2355C15.7591 3.5673 16.1856 3.14759 16.1986 2.6271C16.6306 2.739 17.05 2.87616 17.4559 3.03642C17.073 4.08641 17.4276 5.30621 18.3857 5.96802C18.8039 6.2569 19.2924 6.40967 19.7982 6.40967C19.9972 6.40967 20.193 6.38541 20.3822 6.33974C20.2209 6.99644 20.3215 7.71616 20.7204 8.32355C21.0886 8.88406 21.652 9.26633 22.3069 9.40017C22.3488 9.40871 22.3908 9.4162 22.4328 9.42258C22.0375 9.97039 21.8617 10.6757 22.0045 11.3897C22.1477 12.1047 22.5892 12.6991 23.1816 13.0529C22.606 13.4143 22.1825 14.0071 22.0493 14.7167C21.913 15.4429 22.1046 16.1561 22.5187 16.7023C21.8362 16.8211 21.2306 17.2186 20.8481 17.8167C20.4506 18.4379 20.3617 19.1711 20.5412 19.8335C20.3697 19.7963 20.1936 19.776 20.0148 19.776C19.4981 19.776 19.001 19.9347 18.5775 20.2349C17.9777 20.66 17.6212 21.3046 17.5393 21.9852C17.5105 21.9657 17.4816 21.9463 17.4519 21.9278C16.8865 21.5759 16.2185 21.4657 15.5709 21.6174C14.8557 21.7847 14.2841 22.2476 13.9537 22.8474C13.5798 22.2857 12.9835 21.8757 12.2685 21.7623C12.1388 21.7417 12.0069 21.7313 11.8764 21.7313C11.2839 21.7313 10.7376 21.9367 10.3078 22.2856C10.1706 21.6257 9.77195 21.0226 9.15364 20.6485C8.76441 20.4129 8.31955 20.2884 7.86724 20.2884C7.61744 20.2884 7.37233 20.3278 7.13846 20.4C7.26085 19.7342 7.11747 19.0212 6.68252 18.4384C6.25157 17.861 5.61349 17.5075 4.90728 17.4455C5.26935 16.8747 5.40287 16.1598 5.21746 15.4556C5.03194 14.7504 4.55733 14.1821 3.94277 13.8645C4.26128 13.6378 4.52917 13.3357 4.71548 12.9738C4.81995 12.7708 4.74011 12.5217 4.53719 12.4171C4.33421 12.3127 4.0851 12.3926 3.98058 12.5954C3.65964 13.2189 2.97916 13.5785 2.28676 13.4899C1.37272 13.373 0.723716 12.529 0.840153 11.6084C0.896737 11.1606 1.12365 10.7623 1.47903 10.4871C1.83092 10.2146 2.26709 10.0954 2.70747 10.1517C3.41959 10.2428 3.99329 10.7799 4.13493 11.4881C4.17976 11.7119 4.39734 11.8567 4.62125 11.8122C4.84505 11.7674 4.99023 11.5497 4.9454 11.326C4.85855 10.892 4.66264 10.5013 4.38827 10.1818C5.05809 10.021 5.64329 9.58743 5.9879 8.96991C6.34734 8.32598 6.39248 7.58907 6.174 6.93891C6.29809 6.95774 6.42433 6.96823 6.55227 6.96823C7.11589 6.96823 7.66912 6.77306 8.10998 6.41874C9.03852 5.67287 9.29539 4.39079 8.79436 3.35889C8.89398 3.31027 8.99417 3.26302 9.09527 3.21778C9.30362 3.12459 9.39696 2.88012 9.30378 2.67177C9.2106 2.46347 8.96622 2.37018 8.75777 2.46331C8.60642 2.53102 8.45676 2.60242 8.30852 2.67683C7.84304 2.21187 7.2164 1.9501 6.54952 1.9501C5.9859 1.9501 5.43272 2.14522 4.99181 2.49948C4.15038 3.17538 3.86008 4.2916 4.18571 5.26281C4.06226 5.24387 3.9376 5.23312 3.81236 5.23312C2.90934 5.23312 2.07408 5.72423 1.63264 6.51498C1.10578 7.45882 1.25385 8.60246 1.91846 9.37955C1.57896 9.46066 1.25739 9.61327 0.972832 9.83365C0.442749 10.2442 0.104406 10.8377 0.0200842 11.5047C-0.115759 12.579 0.44934 13.5835 1.35647 14.0526C0.534875 14.6416 0.11701 15.7015 0.389751 16.7381C0.659961 17.7652 1.54284 18.5027 2.57938 18.596C2.03854 19.4518 2.0475 20.5914 2.68733 21.4488C3.16341 22.0867 3.89209 22.4526 4.68648 22.4526C4.93486 22.4526 5.1777 22.416 5.40994 22.3452C5.22948 23.3422 5.66396 24.3942 6.57716 24.9468C6.96628 25.1823 7.41104 25.3069 7.86329 25.3069C8.44046 25.3069 8.99439 25.1017 9.43366 24.7461C9.63838 25.7395 10.435 26.5514 11.4893 26.7186C11.6191 26.7392 11.7511 26.7497 11.8816 26.7497C12.8159 26.7497 13.6362 26.2394 14.0636 25.4594C14.259 25.7522 14.5156 26.0027 14.823 26.194C15.2228 26.4428 15.6738 26.5707 16.1327 26.5707C16.3228 26.5707 16.5142 26.5488 16.7038 26.5044C16.926 26.4524 17.064 26.23 17.0119 26.0077C16.9599 25.7855 16.7377 25.6474 16.5153 25.6996C16.0832 25.8008 15.6371 25.7271 15.2596 25.4922C14.8784 25.255 14.6124 24.8822 14.5106 24.4428C14.3015 23.5387 14.8616 22.6322 15.7592 22.422C16.1915 22.3208 16.6376 22.3944 17.0151 22.6294C17.3963 22.8666 17.6622 23.2394 17.764 23.6789C17.8741 24.155 17.7735 24.655 17.4879 25.0508C17.3543 25.2359 17.396 25.4942 17.5811 25.6278C17.7662 25.7614 18.0245 25.7196 18.1581 25.5345C18.4105 25.1847 18.5651 24.7801 18.6154 24.361C19.0241 24.6393 19.5119 24.7942 20.0186 24.7942C20.5353 24.7942 21.0323 24.6355 21.4557 24.3353C22.3356 23.7119 22.6922 22.6159 22.426 21.6271C22.5962 21.6637 22.7705 21.6825 22.9464 21.6825C23.8012 21.6825 24.587 21.2516 25.0486 20.53C25.631 19.6198 25.5515 18.4693 24.9347 17.6533C25.9426 17.4762 26.7613 16.6867 26.9565 15.6466C27.1562 14.5824 26.6521 13.5458 25.7748 13.0226ZM11.6172 6.69844C11.3855 6.69844 11.1971 6.50849 11.1971 6.27504C11.1971 6.04158 11.3856 5.85158 11.6172 5.85158C11.8489 5.85158 12.0374 6.04153 12.0374 6.27504C12.0374 6.50849 11.8488 6.69844 11.6172 6.69844ZM12.899 2.74069H11.3891C11.3144 2.74069 11.2514 2.67762 11.2514 2.60295V1.21625C11.2514 1.14153 11.3144 1.07851 11.3891 1.07851H12.899V2.74069ZM15.2596 5.85164C15.4913 5.85164 15.6797 6.04158 15.6797 6.27509C15.6797 6.50849 15.4912 6.69849 15.2596 6.69849C15.0279 6.69849 14.8394 6.50855 14.8394 6.27509C14.8394 6.04158 15.0279 5.85164 15.2596 5.85164ZM15.3733 2.60289C15.3733 2.67757 15.3102 2.74064 15.2356 2.74064H13.7256V1.07846H15.2356C15.3102 1.07846 15.3733 1.14147 15.3733 1.2162V2.60289ZM19.7983 5.58296C19.461 5.58296 19.135 5.48086 18.8555 5.28786C18.0949 4.76246 17.9014 3.71232 18.424 2.94693C18.7358 2.49031 19.251 2.21772 19.8021 2.21772C20.1394 2.21772 20.4654 2.31982 20.7448 2.51277C21.5054 3.03822 21.6989 4.08842 21.1763 4.8538C20.8645 5.31037 20.3494 5.58296 19.7983 5.58296ZM5.5095 3.14374C5.80845 2.90359 6.1681 2.7766 6.54958 2.7766C7.06062 2.7766 7.5366 3.00684 7.85538 3.40815C8.4314 4.13366 8.31343 5.1952 7.59239 5.77438C7.29344 6.01464 6.9338 6.14162 6.55237 6.14162C6.04143 6.14162 5.5655 5.91133 5.24667 5.50997C4.67055 4.78456 4.78847 3.72302 5.5095 3.14374ZM2.35441 6.91787C2.64999 6.38858 3.20866 6.05972 3.81246 6.05972C4.09617 6.05972 4.37798 6.13419 4.62731 6.27483C5.43156 6.72919 5.71822 7.75745 5.26624 8.56713C4.97087 9.09637 4.41237 9.42522 3.80872 9.42522C3.52495 9.42522 3.24304 9.35071 2.99355 9.2098C2.1892 8.75555 1.90254 7.72744 2.35441 6.91787ZM2.80218 17.7797C2.04634 17.7797 1.38295 17.2648 1.18904 16.5278C0.953004 15.6306 1.48583 14.7075 2.37683 14.4701C2.51731 14.4327 2.66138 14.4138 2.80498 14.4138C3.56087 14.4138 4.22421 14.9287 4.41817 15.6658C4.65447 16.5631 4.12159 17.486 3.23038 17.7233C3.0899 17.7607 2.94583 17.7797 2.80218 17.7797ZM5.68674 21.2898C5.39533 21.5098 5.04945 21.6261 4.68653 21.6261C4.15555 21.6261 3.66834 21.3814 3.34982 20.9545C2.7958 20.212 2.9453 19.1546 3.68316 18.5973C3.97457 18.3773 4.3204 18.261 4.68331 18.261C5.21435 18.261 5.70156 18.5058 6.02023 18.9327C6.57431 19.6752 6.4247 20.7325 5.68674 21.2898ZM9.29597 23.6658C8.9909 24.1759 8.45534 24.4803 7.86329 24.4803C7.56191 24.4803 7.26523 24.3971 7.00509 24.2397C6.21471 23.7614 5.95879 22.7248 6.43456 21.9291C6.73974 21.4191 7.27525 21.1147 7.86719 21.1147C8.16867 21.1147 8.46551 21.198 8.7257 21.3554C9.51614 21.8338 9.772 22.8702 9.29597 23.6658ZM13.5287 24.5029C13.3996 25.3259 12.7069 25.9231 11.8816 25.9231C11.7943 25.9231 11.706 25.916 11.6189 25.9022C10.7088 25.7578 10.0853 24.8945 10.229 23.9777C10.3581 23.1548 11.051 22.5577 11.8763 22.5577C11.9635 22.5577 12.0519 22.5647 12.1389 22.5784C13.0492 22.723 13.6726 23.5862 13.5287 24.5029ZM22.815 11.2274C22.633 10.3174 23.2199 9.42833 24.1233 9.24545C24.2328 9.2233 24.3443 9.21207 24.4547 9.21207C25.2457 9.21207 25.9333 9.78002 26.0897 10.5626C26.2719 11.4724 25.685 12.3615 24.7815 12.5443C24.672 12.5665 24.5605 12.5777 24.4501 12.5777C23.6592 12.5777 22.9716 12.0098 22.815 11.2274ZM20.9779 23.661C20.6948 23.8616 20.3631 23.9676 20.0186 23.9676C19.4755 23.9676 18.9646 23.7012 18.6519 23.255C18.1202 22.496 18.3012 21.4436 19.0554 20.909C19.3385 20.7083 19.6702 20.6023 20.0148 20.6023C20.5579 20.6023 21.0687 20.8687 21.3814 21.3149C21.9131 22.074 21.7322 23.1265 20.9779 23.661ZM24.3524 20.0846C24.0434 20.5677 23.5179 20.856 22.9465 20.856C22.6272 20.856 22.3156 20.7636 22.0455 20.5887C21.2696 20.0866 21.0448 19.0428 21.5443 18.2619C21.8533 17.7789 22.3789 17.4905 22.9503 17.4905C23.2696 17.4905 23.5811 17.583 23.8513 17.7578C24.6272 18.26 24.852 19.3038 24.3524 20.0846ZM26.1442 15.4941C25.9952 16.288 25.306 16.8644 24.5052 16.8644C24.4015 16.8644 24.2966 16.8544 24.1935 16.8348C23.2879 16.663 22.6905 15.7811 22.8617 14.8691C23.0107 14.0751 23.6999 13.4988 24.5004 13.4988C24.6042 13.4988 24.7091 13.5087 24.8122 13.5283C25.7179 13.7002 26.3153 14.5821 26.1442 15.4941Z" fill="#A81D3E"/>
</svg>
