<svg width="27" height="27" viewBox="0 0 27 27" fill="none" xmlns="http://www.w3.org/2000/svg">
<path d="M25.2866 13.9809C25.2866 13.538 25.1013 13.1378 24.8044 12.8531C25.1917 12.5903 25.4468 12.1464 25.4468 11.6441C25.4468 11.1804 25.2293 10.7668 24.8912 10.4991C25.1348 10.2626 25.2866 9.93217 25.2866 9.56665C25.2866 8.94713 24.8509 8.42774 24.27 8.29794L24.1017 7.8606C23.8346 7.16651 23.4937 6.49725 23.0884 5.8714C22.9698 5.68812 22.725 5.63579 22.5418 5.75447C22.3586 5.87309 22.3063 6.11782 22.4249 6.301C22.8005 6.8811 23.1164 7.50131 23.364 8.14443L23.4548 8.38052C23.0023 8.5842 22.6863 9.03904 22.6863 9.5666C22.6863 9.93211 22.8381 10.2626 23.0817 10.499C22.7437 10.7667 22.5262 11.1803 22.5262 11.644C22.5262 12.0286 22.6759 12.3787 22.9198 12.6398C22.4646 12.9135 22.1593 13.4121 22.1593 13.9809C22.1593 14.3463 22.2856 14.6825 22.4964 14.949C21.911 15.2467 21.5087 15.8548 21.5087 16.5553C21.5087 16.8836 21.5974 17.1914 21.7516 17.4568C20.9193 17.6625 20.3004 18.4151 20.3004 19.3099C20.3004 19.4624 20.3189 19.6105 20.3528 19.7528C20.2927 19.7474 20.2318 19.7441 20.1702 19.7441C19.0636 19.7441 18.1623 20.6382 18.1495 21.7418C17.9092 21.6494 17.6486 21.5982 17.3761 21.5982C16.5152 21.5982 15.7704 22.1044 15.4231 22.8346C15.139 22.5011 14.7675 22.2395 14.3351 22.0884C14.129 22.0163 13.9036 22.125 13.8316 22.331C13.7595 22.5371 13.8682 22.7625 14.0742 22.8346C14.7699 23.0777 15.2373 23.7362 15.2373 24.4732C15.2373 25.4304 14.4586 26.2091 13.5015 26.2091C12.5443 26.2091 11.7656 25.4304 11.7656 24.4732C11.7656 23.8231 12.1246 23.2327 12.7025 22.9324C12.8962 22.8317 12.9716 22.5931 12.871 22.3994C12.7703 22.2057 12.5318 22.1303 12.338 22.231C12.0428 22.3844 11.787 22.5901 11.5792 22.8332C11.2316 22.1037 10.4872 21.5982 9.62682 21.5982C9.35437 21.5982 9.09373 21.6494 8.85342 21.7418C8.84067 20.6382 7.93937 19.7441 6.83277 19.7441C6.77116 19.7441 6.71035 19.7474 6.65011 19.7528C6.68405 19.6105 6.70255 19.4624 6.70255 19.3099C6.70255 18.4151 6.08356 17.6625 5.2514 17.4568C5.40554 17.1914 5.49428 16.8836 5.49428 16.5553C5.49428 15.8547 5.09199 15.2467 4.50651 14.949C4.7173 14.6825 4.84367 14.3463 4.84367 13.9809C4.84367 13.4121 4.53839 12.9135 4.08319 12.6398C4.32707 12.3787 4.47679 12.0286 4.47679 11.644C4.47679 11.1803 4.2593 10.7667 3.9213 10.499C4.16492 10.2626 4.31669 9.93211 4.31669 9.5666C4.31669 9.03904 4.00066 8.58415 3.54814 8.38052L3.63899 8.14443C4.30847 6.4046 5.44965 4.88964 6.93921 3.76327C7.11333 3.63163 7.14774 3.38374 7.0161 3.20962C6.88441 3.03556 6.63657 3.00104 6.46246 3.13273C4.85516 4.34811 3.62371 5.98302 2.90122 7.86055L2.73295 8.29789C2.15201 8.42763 1.7163 8.94703 1.7163 9.5666C1.7163 9.93211 1.86813 10.2626 2.1117 10.499C1.77364 10.7667 1.55615 11.1803 1.55615 11.644C1.55615 12.1463 1.81116 12.5902 2.19849 12.8531C1.90164 13.1378 1.7163 13.538 1.7163 13.9808C1.7163 14.5246 1.99544 15.0042 2.41782 15.2845C2.09299 15.6104 1.89184 16.0597 1.89184 16.5552C1.89184 17.3722 2.43879 18.0634 3.18558 18.2831C2.9955 18.5798 2.88473 18.932 2.88473 19.3098C2.88473 20.3624 3.74107 21.2187 4.79366 21.2187C4.82528 21.2187 4.85669 21.2178 4.88794 21.2164C4.83856 21.3911 4.81153 21.5751 4.81153 21.7653C4.81153 22.8798 5.71825 23.7866 6.83277 23.7866C7.05441 23.7866 7.26763 23.7502 7.46736 23.684C7.46651 23.7091 7.46546 23.7341 7.46546 23.7595C7.46546 24.9512 8.43505 25.9209 9.62682 25.9209C10.2062 25.9209 10.7327 25.6913 11.1212 25.3188C11.4698 26.2972 12.405 26.9996 13.5015 26.9996C14.598 26.9996 15.5332 26.2972 15.8818 25.3188C16.2703 25.6912 16.7968 25.9209 17.3762 25.9209C18.568 25.9209 19.5375 24.9513 19.5375 23.7595C19.5375 23.7342 19.5365 23.7091 19.5357 23.684C19.7354 23.7502 19.9486 23.7866 20.1702 23.7866C21.2848 23.7866 22.1915 22.8798 22.1915 21.7653C22.1915 21.575 22.1645 21.391 22.1151 21.2164C22.1463 21.2179 22.1777 21.2187 22.2093 21.2187C23.2619 21.2187 24.1183 20.3624 24.1183 19.3098C24.1183 18.932 24.0075 18.5798 23.8174 18.2831C24.5643 18.0634 25.1112 17.3722 25.1112 16.5552C25.1112 16.0597 24.91 15.6104 24.5852 15.2845C25.0074 15.0043 25.2866 14.5246 25.2866 13.9809ZM4.05304 13.9809C4.05304 14.4072 3.70618 14.7541 3.27986 14.7541C2.85353 14.7541 2.50667 14.4072 2.50667 13.9809C2.50667 13.5545 2.85353 13.2077 3.27986 13.2077C3.70618 13.2077 4.05304 13.5545 4.05304 13.9809ZM3.01637 12.3138C2.647 12.3138 2.34657 12.0133 2.34657 11.644C2.34657 11.2747 2.64706 10.9742 3.01637 10.9742C3.38567 10.9742 3.68616 11.2747 3.68616 11.644C3.68616 12.0133 3.38573 12.3138 3.01637 12.3138ZM3.01526 9.0569C3.01563 9.0569 3.01594 9.05695 3.01631 9.05695C3.01658 9.05695 3.01689 9.0569 3.01716 9.0569C3.29788 9.05732 3.52611 9.28577 3.52611 9.5666C3.52611 9.84764 3.29746 10.0763 3.01642 10.0763C2.73538 10.0763 2.50672 9.84764 2.50672 9.5666C2.50667 9.28588 2.73469 9.05753 3.01526 9.0569ZM2.68221 16.5553C2.68221 15.9979 3.13562 15.5445 3.69296 15.5445C4.25029 15.5445 4.70371 15.9979 4.70371 16.5553C4.70371 17.1126 4.25029 17.566 3.69296 17.566C3.13562 17.566 2.68221 17.1126 2.68221 16.5553ZM3.67509 19.3099C3.67509 18.6932 4.17683 18.1914 4.79356 18.1914C5.41028 18.1914 5.91202 18.6932 5.91202 19.3099C5.91202 19.9266 5.41028 20.4284 4.79356 20.4284C4.17683 20.4283 3.67509 19.9266 3.67509 19.3099ZM5.60189 21.7654C5.60189 21.0867 6.15401 20.5346 6.83266 20.5346C7.51131 20.5346 8.06342 21.0868 8.06342 21.7654C8.06342 22.444 7.51131 22.9961 6.83266 22.9961C6.15401 22.9961 5.60189 22.444 5.60189 21.7654ZM9.62671 25.1305C8.87081 25.1305 8.25583 24.5155 8.25583 23.7595C8.25583 23.0036 8.87081 22.3886 9.62671 22.3886C10.3826 22.3886 10.9976 23.0036 10.9976 23.7595C10.9977 24.5155 10.3827 25.1305 9.62671 25.1305ZM23.7229 14.754C23.2966 14.754 22.9498 14.4072 22.9498 13.9808C22.9498 13.5545 23.2966 13.2076 23.7229 13.2076C24.1493 13.2076 24.4961 13.5545 24.4961 13.9808C24.4961 14.4072 24.1493 14.754 23.7229 14.754ZM23.9864 12.3138C23.6171 12.3138 23.3166 12.0133 23.3166 11.644C23.3166 11.2747 23.6171 10.9742 23.9864 10.9742C24.3557 10.9742 24.6562 11.2747 24.6562 11.644C24.6562 12.0133 24.3557 12.3138 23.9864 12.3138ZM23.9864 10.0763C23.7054 10.0763 23.4767 9.84764 23.4767 9.5666C23.4767 9.28577 23.705 9.05732 23.9857 9.0569C23.986 9.0569 23.9863 9.05695 23.9865 9.05695C23.9869 9.05695 23.9872 9.0569 23.9876 9.0569C24.2681 9.05753 24.4962 9.28588 24.4962 9.5666C24.4961 9.84764 24.2675 10.0763 23.9864 10.0763ZM17.376 25.1305C16.6201 25.1305 16.0051 24.5155 16.0051 23.7595C16.0051 23.0036 16.6201 22.3886 17.376 22.3886C18.1319 22.3886 18.7469 23.0036 18.7469 23.7595C18.7469 24.5155 18.1319 25.1305 17.376 25.1305ZM20.1701 22.9962C19.4914 22.9962 18.9393 22.444 18.9393 21.7654C18.9393 21.0868 19.4914 20.5347 20.1701 20.5347C20.8487 20.5347 21.4009 21.0868 21.4009 21.7654C21.4009 22.444 20.8488 22.9962 20.1701 22.9962ZM22.2092 20.4283C21.5925 20.4283 21.0908 19.9266 21.0908 19.3099C21.0908 18.6931 21.5925 18.1914 22.2092 18.1914C22.826 18.1914 23.3277 18.6931 23.3277 19.3099C23.3277 19.9266 22.826 20.4283 22.2092 20.4283ZM23.3098 17.566C22.7525 17.566 22.299 17.1126 22.299 16.5553C22.299 15.9979 22.7525 15.5445 23.3098 15.5445C23.8671 15.5445 24.3205 15.9979 24.3205 16.5553C24.3205 17.1126 23.8671 17.566 23.3098 17.566Z" fill="black"/>
<path d="M25.2866 13.9809C25.2866 13.538 25.1013 13.1378 24.8044 12.8531C25.1917 12.5903 25.4468 12.1464 25.4468 11.6441C25.4468 11.1804 25.2293 10.7668 24.8912 10.4991C25.1348 10.2626 25.2866 9.93217 25.2866 9.56665C25.2866 8.94713 24.8509 8.42774 24.27 8.29794L24.1017 7.8606C23.8346 7.16651 23.4937 6.49725 23.0884 5.8714C22.9698 5.68812 22.725 5.63579 22.5418 5.75447C22.3586 5.87309 22.3063 6.11782 22.4249 6.301C22.8005 6.8811 23.1164 7.50131 23.364 8.14443L23.4548 8.38052C23.0023 8.5842 22.6863 9.03904 22.6863 9.5666C22.6863 9.93211 22.8381 10.2626 23.0817 10.499C22.7437 10.7667 22.5262 11.1803 22.5262 11.644C22.5262 12.0286 22.6759 12.3787 22.9198 12.6398C22.4646 12.9135 22.1593 13.4121 22.1593 13.9809C22.1593 14.3463 22.2856 14.6825 22.4964 14.949C21.911 15.2467 21.5087 15.8548 21.5087 16.5553C21.5087 16.8836 21.5974 17.1914 21.7516 17.4568C20.9193 17.6625 20.3004 18.4151 20.3004 19.3099C20.3004 19.4624 20.3189 19.6105 20.3528 19.7528C20.2927 19.7474 20.2318 19.7441 20.1702 19.7441C19.0636 19.7441 18.1623 20.6382 18.1495 21.7418C17.9092 21.6494 17.6486 21.5982 17.3761 21.5982C16.5152 21.5982 15.7704 22.1044 15.4231 22.8346C15.139 22.5011 14.7675 22.2395 14.3351 22.0884C14.129 22.0163 13.9036 22.125 13.8316 22.331C13.7595 22.5371 13.8682 22.7625 14.0742 22.8346C14.7699 23.0777 15.2373 23.7362 15.2373 24.4732C15.2373 25.4304 14.4586 26.2091 13.5015 26.2091C12.5443 26.2091 11.7656 25.4304 11.7656 24.4732C11.7656 23.8231 12.1246 23.2327 12.7025 22.9324C12.8962 22.8317 12.9716 22.5931 12.871 22.3994C12.7703 22.2057 12.5318 22.1303 12.338 22.231C12.0428 22.3844 11.787 22.5901 11.5792 22.8332C11.2316 22.1037 10.4872 21.5982 9.62682 21.5982C9.35437 21.5982 9.09373 21.6494 8.85342 21.7418C8.84067 20.6382 7.93937 19.7441 6.83277 19.7441C6.77116 19.7441 6.71035 19.7474 6.65011 19.7528C6.68405 19.6105 6.70255 19.4624 6.70255 19.3099C6.70255 18.4151 6.08356 17.6625 5.2514 17.4568C5.40554 17.1914 5.49428 16.8836 5.49428 16.5553C5.49428 15.8547 5.09199 15.2467 4.50651 14.949C4.7173 14.6825 4.84367 14.3463 4.84367 13.9809C4.84367 13.4121 4.53839 12.9135 4.08319 12.6398C4.32707 12.3787 4.47679 12.0286 4.47679 11.644C4.47679 11.1803 4.2593 10.7667 3.9213 10.499C4.16492 10.2626 4.31669 9.93211 4.31669 9.5666C4.31669 9.03904 4.00066 8.58415 3.54814 8.38052L3.63899 8.14443C4.30847 6.4046 5.44965 4.88964 6.93921 3.76327C7.11333 3.63163 7.14774 3.38374 7.0161 3.20962C6.88441 3.03556 6.63657 3.00104 6.46246 3.13273C4.85516 4.34811 3.62371 5.98302 2.90122 7.86055L2.73295 8.29789C2.15201 8.42763 1.7163 8.94703 1.7163 9.5666C1.7163 9.93211 1.86813 10.2626 2.1117 10.499C1.77364 10.7667 1.55615 11.1803 1.55615 11.644C1.55615 12.1463 1.81116 12.5902 2.19849 12.8531C1.90164 13.1378 1.7163 13.538 1.7163 13.9808C1.7163 14.5246 1.99544 15.0042 2.41782 15.2845C2.09299 15.6104 1.89184 16.0597 1.89184 16.5552C1.89184 17.3722 2.43879 18.0634 3.18558 18.2831C2.9955 18.5798 2.88473 18.932 2.88473 19.3098C2.88473 20.3624 3.74107 21.2187 4.79366 21.2187C4.82528 21.2187 4.85669 21.2178 4.88794 21.2164C4.83856 21.3911 4.81153 21.5751 4.81153 21.7653C4.81153 22.8798 5.71825 23.7866 6.83277 23.7866C7.05441 23.7866 7.26763 23.7502 7.46736 23.684C7.46651 23.7091 7.46546 23.7341 7.46546 23.7595C7.46546 24.9512 8.43505 25.9209 9.62682 25.9209C10.2062 25.9209 10.7327 25.6913 11.1212 25.3188C11.4698 26.2972 12.405 26.9996 13.5015 26.9996C14.598 26.9996 15.5332 26.2972 15.8818 25.3188C16.2703 25.6912 16.7968 25.9209 17.3762 25.9209C18.568 25.9209 19.5375 24.9513 19.5375 23.7595C19.5375 23.7342 19.5365 23.7091 19.5357 23.684C19.7354 23.7502 19.9486 23.7866 20.1702 23.7866C21.2848 23.7866 22.1915 22.8798 22.1915 21.7653C22.1915 21.575 22.1645 21.391 22.1151 21.2164C22.1463 21.2179 22.1777 21.2187 22.2093 21.2187C23.2619 21.2187 24.1183 20.3624 24.1183 19.3098C24.1183 18.932 24.0075 18.5798 23.8174 18.2831C24.5643 18.0634 25.1112 17.3722 25.1112 16.5552C25.1112 16.0597 24.91 15.6104 24.5852 15.2845C25.0074 15.0043 25.2866 14.5246 25.2866 13.9809ZM4.05304 13.9809C4.05304 14.4072 3.70618 14.7541 3.27986 14.7541C2.85353 14.7541 2.50667 14.4072 2.50667 13.9809C2.50667 13.5545 2.85353 13.2077 3.27986 13.2077C3.70618 13.2077 4.05304 13.5545 4.05304 13.9809ZM3.01637 12.3138C2.647 12.3138 2.34657 12.0133 2.34657 11.644C2.34657 11.2747 2.64706 10.9742 3.01637 10.9742C3.38567 10.9742 3.68616 11.2747 3.68616 11.644C3.68616 12.0133 3.38573 12.3138 3.01637 12.3138ZM3.01526 9.0569C3.01563 9.0569 3.01594 9.05695 3.01631 9.05695C3.01658 9.05695 3.01689 9.0569 3.01716 9.0569C3.29788 9.05732 3.52611 9.28577 3.52611 9.5666C3.52611 9.84764 3.29746 10.0763 3.01642 10.0763C2.73538 10.0763 2.50672 9.84764 2.50672 9.5666C2.50667 9.28588 2.73469 9.05753 3.01526 9.0569ZM2.68221 16.5553C2.68221 15.9979 3.13562 15.5445 3.69296 15.5445C4.25029 15.5445 4.70371 15.9979 4.70371 16.5553C4.70371 17.1126 4.25029 17.566 3.69296 17.566C3.13562 17.566 2.68221 17.1126 2.68221 16.5553ZM3.67509 19.3099C3.67509 18.6932 4.17683 18.1914 4.79356 18.1914C5.41028 18.1914 5.91202 18.6932 5.91202 19.3099C5.91202 19.9266 5.41028 20.4284 4.79356 20.4284C4.17683 20.4283 3.67509 19.9266 3.67509 19.3099ZM5.60189 21.7654C5.60189 21.0867 6.15401 20.5346 6.83266 20.5346C7.51131 20.5346 8.06342 21.0868 8.06342 21.7654C8.06342 22.444 7.51131 22.9961 6.83266 22.9961C6.15401 22.9961 5.60189 22.444 5.60189 21.7654ZM9.62671 25.1305C8.87081 25.1305 8.25583 24.5155 8.25583 23.7595C8.25583 23.0036 8.87081 22.3886 9.62671 22.3886C10.3826 22.3886 10.9976 23.0036 10.9976 23.7595C10.9977 24.5155 10.3827 25.1305 9.62671 25.1305ZM23.7229 14.754C23.2966 14.754 22.9498 14.4072 22.9498 13.9808C22.9498 13.5545 23.2966 13.2076 23.7229 13.2076C24.1493 13.2076 24.4961 13.5545 24.4961 13.9808C24.4961 14.4072 24.1493 14.754 23.7229 14.754ZM23.9864 12.3138C23.6171 12.3138 23.3166 12.0133 23.3166 11.644C23.3166 11.2747 23.6171 10.9742 23.9864 10.9742C24.3557 10.9742 24.6562 11.2747 24.6562 11.644C24.6562 12.0133 24.3557 12.3138 23.9864 12.3138ZM23.9864 10.0763C23.7054 10.0763 23.4767 9.84764 23.4767 9.5666C23.4767 9.28577 23.705 9.05732 23.9857 9.0569C23.986 9.0569 23.9863 9.05695 23.9865 9.05695C23.9869 9.05695 23.9872 9.0569 23.9876 9.0569C24.2681 9.05753 24.4962 9.28588 24.4962 9.5666C24.4961 9.84764 24.2675 10.0763 23.9864 10.0763ZM17.376 25.1305C16.6201 25.1305 16.0051 24.5155 16.0051 23.7595C16.0051 23.0036 16.6201 22.3886 17.376 22.3886C18.1319 22.3886 18.7469 23.0036 18.7469 23.7595C18.7469 24.5155 18.1319 25.1305 17.376 25.1305ZM20.1701 22.9962C19.4914 22.9962 18.9393 22.444 18.9393 21.7654C18.9393 21.0868 19.4914 20.5347 20.1701 20.5347C20.8487 20.5347 21.4009 21.0868 21.4009 21.7654C21.4009 22.444 20.8488 22.9962 20.1701 22.9962ZM22.2092 20.4283C21.5925 20.4283 21.0908 19.9266 21.0908 19.3099C21.0908 18.6931 21.5925 18.1914 22.2092 18.1914C22.826 18.1914 23.3277 18.6931 23.3277 19.3099C23.3277 19.9266 22.826 20.4283 22.2092 20.4283ZM23.3098 17.566C22.7525 17.566 22.299 17.1126 22.299 16.5553C22.299 15.9979 22.7525 15.5445 23.3098 15.5445C23.8671 15.5445 24.3205 15.9979 24.3205 16.5553C24.3205 17.1126 23.8671 17.566 23.3098 17.566Z" fill="url(#paint0_linear_973_3485)"/>
<path d="M8.12809 2.93682C8.19017 2.93682 8.25315 2.92216 8.31191 2.89123C9.37088 2.33368 10.5079 1.97381 11.6914 1.82167L11.9562 1.78763V2.38301C11.9562 3.23493 12.6493 3.92796 13.5012 3.92796C14.3531 3.92796 15.0462 3.23493 15.0462 2.38301V1.78768L15.311 1.82172C17.6603 2.12374 19.8326 3.25495 21.4277 5.00706C21.5057 5.09275 21.6127 5.13622 21.7201 5.13622C21.815 5.13622 21.9103 5.10218 21.986 5.03325C22.1474 4.88633 22.1592 4.63633 22.0122 4.47492C20.291 2.58426 17.9469 1.36356 15.4117 1.03768L14.9374 0.976707C14.7106 0.405301 14.1525 0 13.5013 0C12.85 0 12.2919 0.405301 12.065 0.97676L11.5907 1.03773C10.3133 1.20189 9.08631 1.59017 7.9436 2.19177C7.75046 2.29348 7.67631 2.53251 7.77802 2.72565C7.84885 2.86003 7.98607 2.93682 8.12809 2.93682ZM12.7467 1.54495C12.7467 1.1289 13.0852 0.790472 13.5013 0.790472C13.9173 0.790472 14.2558 1.12895 14.2558 1.54495V2.38301C14.2558 2.79906 13.9173 3.13749 13.5013 3.13749C13.0852 3.13749 12.7467 2.79901 12.7467 2.38301V1.54495Z" fill="black"/>
<path d="M8.12809 2.93682C8.19017 2.93682 8.25315 2.92216 8.31191 2.89123C9.37088 2.33368 10.5079 1.97381 11.6914 1.82167L11.9562 1.78763V2.38301C11.9562 3.23493 12.6493 3.92796 13.5012 3.92796C14.3531 3.92796 15.0462 3.23493 15.0462 2.38301V1.78768L15.311 1.82172C17.6603 2.12374 19.8326 3.25495 21.4277 5.00706C21.5057 5.09275 21.6127 5.13622 21.7201 5.13622C21.815 5.13622 21.9103 5.10218 21.986 5.03325C22.1474 4.88633 22.1592 4.63633 22.0122 4.47492C20.291 2.58426 17.9469 1.36356 15.4117 1.03768L14.9374 0.976707C14.7106 0.405301 14.1525 0 13.5013 0C12.85 0 12.2919 0.405301 12.065 0.97676L11.5907 1.03773C10.3133 1.20189 9.08631 1.59017 7.9436 2.19177C7.75046 2.29348 7.67631 2.53251 7.77802 2.72565C7.84885 2.86003 7.98607 2.93682 8.12809 2.93682ZM12.7467 1.54495C12.7467 1.1289 13.0852 0.790472 13.5013 0.790472C13.9173 0.790472 14.2558 1.12895 14.2558 1.54495V2.38301C14.2558 2.79906 13.9173 3.13749 13.5013 3.13749C13.0852 3.13749 12.7467 2.79901 12.7467 2.38301V1.54495Z" fill="url(#paint1_linear_973_3485)"/>
<defs>
<linearGradient id="paint0_linear_973_3485" x1="1.55615" y1="15.0262" x2="25.4468" y2="15.0262" gradientUnits="userSpaceOnUse">
<stop stop-color="#D2453B"/>
<stop offset="1" stop-color="#A0153E"/>
</linearGradient>
<linearGradient id="paint1_linear_973_3485" x1="7.73242" y1="2.56811" x2="22.1152" y2="2.56811" gradientUnits="userSpaceOnUse">
<stop stop-color="#D2453B"/>
<stop offset="1" stop-color="#A0153E"/>
</linearGradient>
</defs>
</svg>
