<svg width="27" height="27" viewBox="0 0 27 27" fill="none" xmlns="http://www.w3.org/2000/svg">
<path d="M7.98456 11.8458C7.89741 11.7571 7.77823 11.707 7.65387 11.707C7.52946 11.707 7.41033 11.757 7.32318 11.8458C7.17111 12.0105 3.60449 15.9123 3.60449 18.5435C3.63315 20.7529 5.44446 22.5223 7.65387 22.4993C9.86333 22.5223 11.6746 20.7529 11.7032 18.5435C11.7032 15.9123 8.13663 12.0105 7.98456 11.8458ZM7.65387 21.5994C5.94127 21.6227 4.53271 20.256 4.50432 18.5435C4.50432 16.688 6.78415 13.8476 7.65387 12.8325C8.52359 13.8476 10.8034 16.688 10.8034 18.5435C10.775 20.256 9.36643 21.6227 7.65387 21.5994Z" fill="black"/>
<path d="M7.98456 11.8458C7.89741 11.7571 7.77823 11.707 7.65387 11.707C7.52946 11.707 7.41033 11.757 7.32318 11.8458C7.17111 12.0105 3.60449 15.9123 3.60449 18.5435C3.63315 20.7529 5.44446 22.5223 7.65387 22.4993C9.86333 22.5223 11.6746 20.7529 11.7032 18.5435C11.7032 15.9123 8.13663 12.0105 7.98456 11.8458ZM7.65387 21.5994C5.94127 21.6227 4.53271 20.256 4.50432 18.5435C4.50432 16.688 6.78415 13.8476 7.65387 12.8325C8.52359 13.8476 10.8034 16.688 10.8034 18.5435C10.775 20.256 9.36643 21.6227 7.65387 21.5994Z" fill="url(#paint0_linear_973_3541)"/>
<path d="M7.65402 24.7494C7.9025 24.7494 8.10393 24.548 8.10393 24.2995C8.10393 24.051 7.9025 23.8496 7.65402 23.8496C7.40554 23.8496 7.2041 24.051 7.2041 24.2995C7.2041 24.548 7.40554 24.7494 7.65402 24.7494Z" fill="black"/>
<path d="M7.65402 24.7494C7.9025 24.7494 8.10393 24.548 8.10393 24.2995C8.10393 24.051 7.9025 23.8496 7.65402 23.8496C7.40554 23.8496 7.2041 24.051 7.2041 24.2995C7.2041 24.548 7.40554 24.7494 7.65402 24.7494Z" fill="url(#paint1_linear_973_3541)"/>
<path d="M5.40451 24.3002C5.65299 24.3002 5.85442 24.0988 5.85442 23.8503C5.85442 23.6018 5.65299 23.4004 5.40451 23.4004C5.15602 23.4004 4.95459 23.6018 4.95459 23.8503C4.95459 24.0988 5.15602 24.3002 5.40451 24.3002Z" fill="black"/>
<path d="M5.40451 24.3002C5.65299 24.3002 5.85442 24.0988 5.85442 23.8503C5.85442 23.6018 5.65299 23.4004 5.40451 23.4004C5.15602 23.4004 4.95459 23.6018 4.95459 23.8503C4.95459 24.0988 5.15602 24.3002 5.40451 24.3002Z" fill="url(#paint2_linear_973_3541)"/>
<path d="M3.6047 22.9506C3.85318 22.9506 4.05462 22.7492 4.05462 22.5007C4.05462 22.2522 3.85318 22.0508 3.6047 22.0508C3.35622 22.0508 3.15479 22.2522 3.15479 22.5007C3.15479 22.7492 3.35622 22.9506 3.6047 22.9506Z" fill="black"/>
<path d="M3.6047 22.9506C3.85318 22.9506 4.05462 22.7492 4.05462 22.5007C4.05462 22.2522 3.85318 22.0508 3.6047 22.0508C3.35622 22.0508 3.15479 22.2522 3.15479 22.5007C3.15479 22.7492 3.35622 22.9506 3.6047 22.9506Z" fill="url(#paint3_linear_973_3541)"/>
<path d="M2.7048 21.1498C2.95328 21.1498 3.15471 20.9484 3.15471 20.6999C3.15471 20.4514 2.95328 20.25 2.7048 20.25C2.45632 20.25 2.25488 20.4514 2.25488 20.6999C2.25488 20.9484 2.45632 21.1498 2.7048 21.1498Z" fill="black"/>
<path d="M2.7048 21.1498C2.95328 21.1498 3.15471 20.9484 3.15471 20.6999C3.15471 20.4514 2.95328 20.25 2.7048 20.25C2.45632 20.25 2.25488 20.4514 2.25488 20.6999C2.25488 20.9484 2.45632 21.1498 2.7048 21.1498Z" fill="url(#paint4_linear_973_3541)"/>
<path d="M9.90353 24.3002C10.152 24.3002 10.3534 24.0988 10.3534 23.8503C10.3534 23.6018 10.152 23.4004 9.90353 23.4004C9.65505 23.4004 9.45361 23.6018 9.45361 23.8503C9.45361 24.0988 9.65505 24.3002 9.90353 24.3002Z" fill="black"/>
<path d="M9.90353 24.3002C10.152 24.3002 10.3534 24.0988 10.3534 23.8503C10.3534 23.6018 10.152 23.4004 9.90353 23.4004C9.65505 23.4004 9.45361 23.6018 9.45361 23.8503C9.45361 24.0988 9.65505 24.3002 9.90353 24.3002Z" fill="url(#paint5_linear_973_3541)"/>
<path d="M11.7033 22.9506C11.9518 22.9506 12.1532 22.7492 12.1532 22.5007C12.1532 22.2522 11.9518 22.0508 11.7033 22.0508C11.4549 22.0508 11.2534 22.2522 11.2534 22.5007C11.2534 22.7492 11.4549 22.9506 11.7033 22.9506Z" fill="black"/>
<path d="M11.7033 22.9506C11.9518 22.9506 12.1532 22.7492 12.1532 22.5007C12.1532 22.2522 11.9518 22.0508 11.7033 22.0508C11.4549 22.0508 11.2534 22.2522 11.2534 22.5007C11.2534 22.7492 11.4549 22.9506 11.7033 22.9506Z" fill="url(#paint6_linear_973_3541)"/>
<path d="M19.0214 11.8458C18.8694 12.0105 15.3027 15.9123 15.3027 18.5435C15.3027 20.7799 17.1157 22.5929 19.3521 22.5929C21.5885 22.5929 23.4015 20.7799 23.4015 18.5435C23.4015 15.9123 19.8349 12.0105 19.6828 11.8458C19.5957 11.7571 19.4765 11.707 19.3521 11.707C19.2277 11.707 19.1086 11.757 19.0214 11.8458ZM22.5017 18.5435C22.5017 20.283 21.0915 21.6931 19.3521 21.6931C17.6127 21.6931 16.2026 20.283 16.2026 18.5435C16.2026 16.688 18.4824 13.8476 19.3521 12.8325C20.2218 13.8476 22.5017 16.688 22.5017 18.5435Z" fill="black"/>
<path d="M19.0214 11.8458C18.8694 12.0105 15.3027 15.9123 15.3027 18.5435C15.3027 20.7799 17.1157 22.5929 19.3521 22.5929C21.5885 22.5929 23.4015 20.7799 23.4015 18.5435C23.4015 15.9123 19.8349 12.0105 19.6828 11.8458C19.5957 11.7571 19.4765 11.707 19.3521 11.707C19.2277 11.707 19.1086 11.757 19.0214 11.8458ZM22.5017 18.5435C22.5017 20.283 21.0915 21.6931 19.3521 21.6931C17.6127 21.6931 16.2026 20.283 16.2026 18.5435C16.2026 16.688 18.4824 13.8476 19.3521 12.8325C20.2218 13.8476 22.5017 16.688 22.5017 18.5435Z" fill="url(#paint7_linear_973_3541)"/>
<path d="M21.152 6.75233C21.1501 6.13047 20.8267 5.55383 20.2971 5.22796C21.5197 4.7704 22.2398 3.50344 22.0073 2.21883C21.7748 0.934175 20.6564 0 19.3509 0C18.0454 0 16.927 0.934175 16.6945 2.21883C16.462 3.50348 17.182 4.7704 18.4047 5.22796C17.8526 5.56593 17.5266 6.17619 17.5526 6.82302C17.5785 7.46985 17.9524 8.052 18.5298 8.34466C16.5881 10.5309 14.9017 12.9312 13.5031 15.4991C12.1034 12.9319 10.4167 10.5319 8.4756 8.34512C9.05306 8.05254 9.42701 7.47044 9.45308 6.82361C9.47914 6.17678 9.15318 5.56648 8.60114 5.22841C9.8238 4.77085 10.5439 3.50389 10.3114 2.21928C10.0788 0.93463 8.9604 0.000454874 7.65487 0.000454874C6.34934 0.000454874 5.23094 0.93463 4.99845 2.21928C4.76596 3.50389 5.48598 4.77085 6.70869 5.22841C6.15661 5.56638 5.83055 6.17664 5.85653 6.82347C5.8825 7.4703 6.25636 8.05245 6.83378 8.34512C5.25313 10.1475 0.455078 15.9566 0.455078 20.0164C0.519943 23.9303 3.73991 27.0537 7.654 26.9993C9.95694 27.0031 12.1264 25.9189 13.5058 24.0748C14.8803 25.9219 17.0498 27.0072 19.3523 26.9993C23.2665 27.0535 26.4863 23.93 26.5512 20.0159C26.5512 15.9571 21.7531 10.1475 20.1734 8.34466C20.7719 8.0389 21.1496 7.42441 21.152 6.75233ZM17.5525 2.70291C17.549 1.76678 18.2638 0.984302 19.1963 0.903198C20.129 0.822094 20.968 1.46952 21.1261 2.39218C21.2842 3.31485 20.7086 4.20467 19.8022 4.43871V4.05265C19.8022 3.80416 19.6007 3.60274 19.3523 3.60274C19.1038 3.60274 18.9024 3.8042 18.9024 4.05265V4.43871C18.1101 4.23424 17.5556 3.52109 17.5525 2.70291ZM18.9023 5.97754V6.30242C18.9023 6.55091 19.1038 6.75233 19.3522 6.75233C19.6007 6.75233 19.8021 6.55087 19.8021 6.30242V5.97754C20.1549 6.18119 20.3268 6.59636 20.2214 6.98978C20.116 7.3832 19.7595 7.65676 19.3522 7.65676C18.9449 7.65676 18.5884 7.3832 18.483 6.98978C18.3776 6.59636 18.5496 6.18119 18.9023 5.97754ZM5.85425 2.70291C5.85075 1.76678 6.56549 0.984302 7.49807 0.903198C8.4307 0.822094 9.26972 1.46952 9.42783 2.39218C9.58595 3.31485 9.0103 4.20467 8.10392 4.43871V4.05265C8.10392 3.80416 7.90246 3.60274 7.654 3.60274C7.40551 3.60274 7.20409 3.8042 7.20409 4.05265V4.43871C6.41188 4.23424 5.85734 3.52109 5.85425 2.70291ZM7.20404 5.97754V6.30242C7.20404 6.55091 7.40551 6.75233 7.65396 6.75233C7.90246 6.75233 8.10388 6.55087 8.10388 6.30242V5.97754C8.45658 6.18119 8.62857 6.59636 8.52313 6.98978C8.41769 7.3832 8.06121 7.65676 7.65391 7.65676C7.24662 7.65676 6.89014 7.3832 6.7847 6.98978C6.67939 6.59636 6.85133 6.18119 7.20404 5.97754ZM7.654 26.0994C4.23672 26.1541 1.41946 23.4335 1.35496 20.0164C1.35496 16.1879 6.31367 10.2978 7.654 8.77702C8.62721 9.88073 11.5041 13.2854 13.0082 16.5465C12.4962 17.6349 12.2056 18.8142 12.1533 20.0159C12.1539 21.1479 12.4382 22.2616 12.9803 23.2554C11.7953 25.0379 9.79441 26.1063 7.654 26.0994ZM19.3522 26.0994C15.9348 26.1541 13.1175 23.4332 13.0532 20.0159C13.0532 16.1888 18.0119 10.2973 19.3522 8.77657C20.6926 10.2983 25.6513 16.1888 25.6513 20.0159C25.587 23.4332 22.7697 26.1541 19.3522 26.0994Z" fill="black"/>
<path d="M21.152 6.75233C21.1501 6.13047 20.8267 5.55383 20.2971 5.22796C21.5197 4.7704 22.2398 3.50344 22.0073 2.21883C21.7748 0.934175 20.6564 0 19.3509 0C18.0454 0 16.927 0.934175 16.6945 2.21883C16.462 3.50348 17.182 4.7704 18.4047 5.22796C17.8526 5.56593 17.5266 6.17619 17.5526 6.82302C17.5785 7.46985 17.9524 8.052 18.5298 8.34466C16.5881 10.5309 14.9017 12.9312 13.5031 15.4991C12.1034 12.9319 10.4167 10.5319 8.4756 8.34512C9.05306 8.05254 9.42701 7.47044 9.45308 6.82361C9.47914 6.17678 9.15318 5.56648 8.60114 5.22841C9.8238 4.77085 10.5439 3.50389 10.3114 2.21928C10.0788 0.93463 8.9604 0.000454874 7.65487 0.000454874C6.34934 0.000454874 5.23094 0.93463 4.99845 2.21928C4.76596 3.50389 5.48598 4.77085 6.70869 5.22841C6.15661 5.56638 5.83055 6.17664 5.85653 6.82347C5.8825 7.4703 6.25636 8.05245 6.83378 8.34512C5.25313 10.1475 0.455078 15.9566 0.455078 20.0164C0.519943 23.9303 3.73991 27.0537 7.654 26.9993C9.95694 27.0031 12.1264 25.9189 13.5058 24.0748C14.8803 25.9219 17.0498 27.0072 19.3523 26.9993C23.2665 27.0535 26.4863 23.93 26.5512 20.0159C26.5512 15.9571 21.7531 10.1475 20.1734 8.34466C20.7719 8.0389 21.1496 7.42441 21.152 6.75233ZM17.5525 2.70291C17.549 1.76678 18.2638 0.984302 19.1963 0.903198C20.129 0.822094 20.968 1.46952 21.1261 2.39218C21.2842 3.31485 20.7086 4.20467 19.8022 4.43871V4.05265C19.8022 3.80416 19.6007 3.60274 19.3523 3.60274C19.1038 3.60274 18.9024 3.8042 18.9024 4.05265V4.43871C18.1101 4.23424 17.5556 3.52109 17.5525 2.70291ZM18.9023 5.97754V6.30242C18.9023 6.55091 19.1038 6.75233 19.3522 6.75233C19.6007 6.75233 19.8021 6.55087 19.8021 6.30242V5.97754C20.1549 6.18119 20.3268 6.59636 20.2214 6.98978C20.116 7.3832 19.7595 7.65676 19.3522 7.65676C18.9449 7.65676 18.5884 7.3832 18.483 6.98978C18.3776 6.59636 18.5496 6.18119 18.9023 5.97754ZM5.85425 2.70291C5.85075 1.76678 6.56549 0.984302 7.49807 0.903198C8.4307 0.822094 9.26972 1.46952 9.42783 2.39218C9.58595 3.31485 9.0103 4.20467 8.10392 4.43871V4.05265C8.10392 3.80416 7.90246 3.60274 7.654 3.60274C7.40551 3.60274 7.20409 3.8042 7.20409 4.05265V4.43871C6.41188 4.23424 5.85734 3.52109 5.85425 2.70291ZM7.20404 5.97754V6.30242C7.20404 6.55091 7.40551 6.75233 7.65396 6.75233C7.90246 6.75233 8.10388 6.55087 8.10388 6.30242V5.97754C8.45658 6.18119 8.62857 6.59636 8.52313 6.98978C8.41769 7.3832 8.06121 7.65676 7.65391 7.65676C7.24662 7.65676 6.89014 7.3832 6.7847 6.98978C6.67939 6.59636 6.85133 6.18119 7.20404 5.97754ZM7.654 26.0994C4.23672 26.1541 1.41946 23.4335 1.35496 20.0164C1.35496 16.1879 6.31367 10.2978 7.654 8.77702C8.62721 9.88073 11.5041 13.2854 13.0082 16.5465C12.4962 17.6349 12.2056 18.8142 12.1533 20.0159C12.1539 21.1479 12.4382 22.2616 12.9803 23.2554C11.7953 25.0379 9.79441 26.1063 7.654 26.0994ZM19.3522 26.0994C15.9348 26.1541 13.1175 23.4332 13.0532 20.0159C13.0532 16.1888 18.0119 10.2973 19.3522 8.77657C20.6926 10.2983 25.6513 16.1888 25.6513 20.0159C25.587 23.4332 22.7697 26.1541 19.3522 26.0994Z" fill="url(#paint8_linear_973_3541)"/>
<path d="M19.3513 24.7494C19.5998 24.7494 19.8012 24.548 19.8012 24.2995C19.8012 24.051 19.5998 23.8496 19.3513 23.8496C19.1028 23.8496 18.9014 24.051 18.9014 24.2995C18.9014 24.548 19.1028 24.7494 19.3513 24.7494Z" fill="black"/>
<path d="M19.3513 24.7494C19.5998 24.7494 19.8012 24.548 19.8012 24.2995C19.8012 24.051 19.5998 23.8496 19.3513 23.8496C19.1028 23.8496 18.9014 24.051 18.9014 24.2995C18.9014 24.548 19.1028 24.7494 19.3513 24.7494Z" fill="url(#paint9_linear_973_3541)"/>
<path d="M17.1018 24.3002C17.3503 24.3002 17.5517 24.0988 17.5517 23.8503C17.5517 23.6018 17.3503 23.4004 17.1018 23.4004C16.8533 23.4004 16.6519 23.6018 16.6519 23.8503C16.6519 24.0988 16.8533 24.3002 17.1018 24.3002Z" fill="black"/>
<path d="M17.1018 24.3002C17.3503 24.3002 17.5517 24.0988 17.5517 23.8503C17.5517 23.6018 17.3503 23.4004 17.1018 23.4004C16.8533 23.4004 16.6519 23.6018 16.6519 23.8503C16.6519 24.0988 16.8533 24.3002 17.1018 24.3002Z" fill="url(#paint10_linear_973_3541)"/>
<path d="M15.302 22.9487C15.5504 22.9487 15.7519 22.7472 15.7519 22.4987C15.7519 22.2503 15.5504 22.0488 15.302 22.0488C15.0535 22.0488 14.8521 22.2503 14.8521 22.4987C14.8521 22.7472 15.0535 22.9487 15.302 22.9487Z" fill="black"/>
<path d="M15.302 22.9487C15.5504 22.9487 15.7519 22.7472 15.7519 22.4987C15.7519 22.2503 15.5504 22.0488 15.302 22.0488C15.0535 22.0488 14.8521 22.2503 14.8521 22.4987C14.8521 22.7472 15.0535 22.9487 15.302 22.9487Z" fill="url(#paint11_linear_973_3541)"/>
<path d="M14.4021 21.1498C14.6505 21.1498 14.852 20.9484 14.852 20.6999C14.852 20.4514 14.6505 20.25 14.4021 20.25C14.1536 20.25 13.9521 20.4514 13.9521 20.6999C13.9521 20.9484 14.1536 21.1498 14.4021 21.1498Z" fill="black"/>
<path d="M14.4021 21.1498C14.6505 21.1498 14.852 20.9484 14.852 20.6999C14.852 20.4514 14.6505 20.25 14.4021 20.25C14.1536 20.25 13.9521 20.4514 13.9521 20.6999C13.9521 20.9484 14.1536 21.1498 14.4021 21.1498Z" fill="url(#paint12_linear_973_3541)"/>
<path d="M21.6008 24.3002C21.8493 24.3002 22.0507 24.0988 22.0507 23.8503C22.0507 23.6018 21.8493 23.4004 21.6008 23.4004C21.3523 23.4004 21.1509 23.6018 21.1509 23.8503C21.1509 24.0988 21.3523 24.3002 21.6008 24.3002Z" fill="black"/>
<path d="M21.6008 24.3002C21.8493 24.3002 22.0507 24.0988 22.0507 23.8503C22.0507 23.6018 21.8493 23.4004 21.6008 23.4004C21.3523 23.4004 21.1509 23.6018 21.1509 23.8503C21.1509 24.0988 21.3523 24.3002 21.6008 24.3002Z" fill="url(#paint13_linear_973_3541)"/>
<path d="M23.4006 22.9487C23.6491 22.9487 23.8505 22.7472 23.8505 22.4987C23.8505 22.2503 23.6491 22.0488 23.4006 22.0488C23.1521 22.0488 22.9507 22.2503 22.9507 22.4987C22.9507 22.7472 23.1521 22.9487 23.4006 22.9487Z" fill="black"/>
<path d="M23.4006 22.9487C23.6491 22.9487 23.8505 22.7472 23.8505 22.4987C23.8505 22.2503 23.6491 22.0488 23.4006 22.0488C23.1521 22.0488 22.9507 22.2503 22.9507 22.4987C22.9507 22.7472 23.1521 22.9487 23.4006 22.9487Z" fill="url(#paint14_linear_973_3541)"/>
<path d="M24.3005 21.1498C24.549 21.1498 24.7504 20.9484 24.7504 20.6999C24.7504 20.4514 24.549 20.25 24.3005 20.25C24.052 20.25 23.8506 20.4514 23.8506 20.6999C23.8506 20.9484 24.052 21.1498 24.3005 21.1498Z" fill="black"/>
<path d="M24.3005 21.1498C24.549 21.1498 24.7504 20.9484 24.7504 20.6999C24.7504 20.4514 24.549 20.25 24.3005 20.25C24.052 20.25 23.8506 20.4514 23.8506 20.6999C23.8506 20.9484 24.052 21.1498 24.3005 21.1498Z" fill="url(#paint15_linear_973_3541)"/>
<defs>
<linearGradient id="paint0_linear_973_3541" x1="3.60449" y1="17.1033" x2="11.7032" y2="17.1033" gradientUnits="userSpaceOnUse">
<stop stop-color="#D2453B"/>
<stop offset="1" stop-color="#A0153E"/>
</linearGradient>
<linearGradient id="paint1_linear_973_3541" x1="7.2041" y1="24.2995" x2="8.10393" y2="24.2995" gradientUnits="userSpaceOnUse">
<stop stop-color="#D2453B"/>
<stop offset="1" stop-color="#A0153E"/>
</linearGradient>
<linearGradient id="paint2_linear_973_3541" x1="4.95459" y1="23.8503" x2="5.85442" y2="23.8503" gradientUnits="userSpaceOnUse">
<stop stop-color="#D2453B"/>
<stop offset="1" stop-color="#A0153E"/>
</linearGradient>
<linearGradient id="paint3_linear_973_3541" x1="3.15479" y1="22.5007" x2="4.05462" y2="22.5007" gradientUnits="userSpaceOnUse">
<stop stop-color="#D2453B"/>
<stop offset="1" stop-color="#A0153E"/>
</linearGradient>
<linearGradient id="paint4_linear_973_3541" x1="2.25488" y1="20.6999" x2="3.15471" y2="20.6999" gradientUnits="userSpaceOnUse">
<stop stop-color="#D2453B"/>
<stop offset="1" stop-color="#A0153E"/>
</linearGradient>
<linearGradient id="paint5_linear_973_3541" x1="9.45361" y1="23.8503" x2="10.3534" y2="23.8503" gradientUnits="userSpaceOnUse">
<stop stop-color="#D2453B"/>
<stop offset="1" stop-color="#A0153E"/>
</linearGradient>
<linearGradient id="paint6_linear_973_3541" x1="11.2534" y1="22.5007" x2="12.1532" y2="22.5007" gradientUnits="userSpaceOnUse">
<stop stop-color="#D2453B"/>
<stop offset="1" stop-color="#A0153E"/>
</linearGradient>
<linearGradient id="paint7_linear_973_3541" x1="15.3027" y1="17.15" x2="23.4015" y2="17.15" gradientUnits="userSpaceOnUse">
<stop stop-color="#D2453B"/>
<stop offset="1" stop-color="#A0153E"/>
</linearGradient>
<linearGradient id="paint8_linear_973_3541" x1="0.455078" y1="13.5" x2="26.5512" y2="13.5" gradientUnits="userSpaceOnUse">
<stop stop-color="#D2453B"/>
<stop offset="1" stop-color="#A0153E"/>
</linearGradient>
<linearGradient id="paint9_linear_973_3541" x1="18.9014" y1="24.2995" x2="19.8012" y2="24.2995" gradientUnits="userSpaceOnUse">
<stop stop-color="#D2453B"/>
<stop offset="1" stop-color="#A0153E"/>
</linearGradient>
<linearGradient id="paint10_linear_973_3541" x1="16.6519" y1="23.8503" x2="17.5517" y2="23.8503" gradientUnits="userSpaceOnUse">
<stop stop-color="#D2453B"/>
<stop offset="1" stop-color="#A0153E"/>
</linearGradient>
<linearGradient id="paint11_linear_973_3541" x1="14.8521" y1="22.4987" x2="15.7519" y2="22.4987" gradientUnits="userSpaceOnUse">
<stop stop-color="#D2453B"/>
<stop offset="1" stop-color="#A0153E"/>
</linearGradient>
<linearGradient id="paint12_linear_973_3541" x1="13.9521" y1="20.6999" x2="14.852" y2="20.6999" gradientUnits="userSpaceOnUse">
<stop stop-color="#D2453B"/>
<stop offset="1" stop-color="#A0153E"/>
</linearGradient>
<linearGradient id="paint13_linear_973_3541" x1="21.1509" y1="23.8503" x2="22.0507" y2="23.8503" gradientUnits="userSpaceOnUse">
<stop stop-color="#D2453B"/>
<stop offset="1" stop-color="#A0153E"/>
</linearGradient>
<linearGradient id="paint14_linear_973_3541" x1="22.9507" y1="22.4987" x2="23.8505" y2="22.4987" gradientUnits="userSpaceOnUse">
<stop stop-color="#D2453B"/>
<stop offset="1" stop-color="#A0153E"/>
</linearGradient>
<linearGradient id="paint15_linear_973_3541" x1="23.8506" y1="20.6999" x2="24.7504" y2="20.6999" gradientUnits="userSpaceOnUse">
<stop stop-color="#D2453B"/>
<stop offset="1" stop-color="#A0153E"/>
</linearGradient>
</defs>
</svg>
