<svg width="27" height="27" viewBox="0 0 27 27" fill="none" xmlns="http://www.w3.org/2000/svg">
<g clip-path="url(#clip0_1198_15615)">
<path d="M13.5372 26.9999C8.41179 26.9999 4.24219 22.8303 4.24219 17.7048C4.24219 13.4633 7.10719 9.76173 11.2094 8.70357C11.4462 8.64253 11.6876 8.78512 11.7486 9.02168C11.8097 9.25849 11.6673 9.49985 11.4305 9.56089C7.71934 10.518 5.12737 13.8667 5.12737 17.7048C5.12737 22.342 8.90009 26.1147 13.5372 26.1147C18.1744 26.1147 21.9471 22.342 21.9471 17.7048C21.9471 13.8999 19.383 10.5585 15.7116 9.57862C15.4753 9.51556 15.3352 9.27318 15.398 9.03687C15.4608 8.80082 15.7027 8.66077 15.9398 8.72332C19.9979 9.80631 22.8323 13.4998 22.8323 17.7048C22.8323 22.8303 18.6624 26.9999 13.5372 26.9999ZM13.5372 24.3848C9.85366 24.3848 6.85721 21.3881 6.85721 17.7048C6.85721 14.0215 9.85366 11.0248 13.5372 11.0248C17.2205 11.0248 20.2172 14.0215 20.2172 17.7048C20.2172 21.3881 17.2205 24.3848 13.5372 24.3848ZM13.5372 11.9102C10.342 11.9102 7.74239 14.5096 7.74239 17.7048C7.74239 20.9001 10.342 23.4997 13.5372 23.4997C16.7322 23.4997 19.3318 20.9001 19.3318 17.7048C19.3318 14.5096 16.7322 11.9102 13.5372 11.9102Z" fill="black"/>
<path d="M13.5372 26.9999C8.41179 26.9999 4.24219 22.8303 4.24219 17.7048C4.24219 13.4633 7.10719 9.76173 11.2094 8.70357C11.4462 8.64253 11.6876 8.78512 11.7486 9.02168C11.8097 9.25849 11.6673 9.49985 11.4305 9.56089C7.71934 10.518 5.12737 13.8667 5.12737 17.7048C5.12737 22.342 8.90009 26.1147 13.5372 26.1147C18.1744 26.1147 21.9471 22.342 21.9471 17.7048C21.9471 13.8999 19.383 10.5585 15.7116 9.57862C15.4753 9.51556 15.3352 9.27318 15.398 9.03687C15.4608 8.80082 15.7027 8.66077 15.9398 8.72332C19.9979 9.80631 22.8323 13.4998 22.8323 17.7048C22.8323 22.8303 18.6624 26.9999 13.5372 26.9999ZM13.5372 24.3848C9.85366 24.3848 6.85721 21.3881 6.85721 17.7048C6.85721 14.0215 9.85366 11.0248 13.5372 11.0248C17.2205 11.0248 20.2172 14.0215 20.2172 17.7048C20.2172 21.3881 17.2205 24.3848 13.5372 24.3848ZM13.5372 11.9102C10.342 11.9102 7.74239 14.5096 7.74239 17.7048C7.74239 20.9001 10.342 23.4997 13.5372 23.4997C16.7322 23.4997 19.3318 20.9001 19.3318 17.7048C19.3318 14.5096 16.7322 11.9102 13.5372 11.9102Z" fill="url(#paint0_linear_1198_15615)"/>
<path d="M13.5372 11.7304C13.4139 11.7304 13.2956 11.6787 13.212 11.5883L8.09976 6.05534C7.98073 5.92618 7.94907 5.7385 8.01948 5.57767C8.08989 5.41659 8.24894 5.3125 8.42496 5.3125H18.6493C18.8253 5.3125 18.9843 5.41659 19.0547 5.57742C19.1254 5.7385 19.0937 5.92618 18.9745 6.05534L13.8622 11.588C13.7786 11.6787 13.6606 11.7304 13.5372 11.7304ZM9.43653 6.19768L13.5372 10.6355L17.6377 6.19768H9.43653Z" fill="black"/>
<path d="M13.5372 11.7304C13.4139 11.7304 13.2956 11.6787 13.212 11.5883L8.09976 6.05534C7.98073 5.92618 7.94907 5.7385 8.01948 5.57767C8.08989 5.41659 8.24894 5.3125 8.42496 5.3125H18.6493C18.8253 5.3125 18.9843 5.41659 19.0547 5.57742C19.1254 5.7385 19.0937 5.92618 18.9745 6.05534L13.8622 11.588C13.7786 11.6787 13.6606 11.7304 13.5372 11.7304ZM9.43653 6.19768L13.5372 10.6355L17.6377 6.19768H9.43653Z" fill="url(#paint1_linear_1198_15615)"/>
<path d="M18.6492 6.19723H8.42492C8.26257 6.19723 8.11339 6.10833 8.03589 5.96549C7.95865 5.8229 7.96548 5.64941 8.05388 5.51315L9.78144 2.85735C9.86324 2.73172 10.0028 2.65625 10.1527 2.65625H16.9216C17.0716 2.65625 17.2111 2.73198 17.2927 2.85735L19.0205 5.51315C19.1089 5.64915 19.1157 5.8229 19.0385 5.96549C18.961 6.10833 18.8116 6.19723 18.6492 6.19723ZM9.24096 5.31205H17.8332L16.6815 3.54143H10.3928L9.24096 5.31205Z" fill="black"/>
<path d="M18.6492 6.19723H8.42492C8.26257 6.19723 8.11339 6.10833 8.03589 5.96549C7.95865 5.8229 7.96548 5.64941 8.05388 5.51315L9.78144 2.85735C9.86324 2.73172 10.0028 2.65625 10.1527 2.65625H16.9216C17.0716 2.65625 17.2111 2.73198 17.2927 2.85735L19.0205 5.51315C19.1089 5.64915 19.1157 5.8229 19.0385 5.96549C18.961 6.10833 18.8116 6.19723 18.6492 6.19723ZM9.24096 5.31205H17.8332L16.6815 3.54143H10.3928L9.24096 5.31205Z" fill="url(#paint2_linear_1198_15615)"/>
<path d="M13.5374 11.7302C13.3505 11.7302 13.1836 11.6129 13.1205 11.4366L11.184 6.01434C11.1356 5.87935 11.1561 5.72916 11.2382 5.61164L13.1747 2.84541C13.2591 2.72486 13.3961 2.65166 13.5445 2.65647C13.6914 2.65875 13.8276 2.73397 13.9077 2.85681L15.7153 5.62329C15.7892 5.73625 15.8075 5.87707 15.7647 6.00547L13.9571 11.4275C13.8976 11.6066 13.7306 11.7281 13.542 11.7302C13.5404 11.7302 13.5389 11.7302 13.5374 11.7302ZM12.0948 5.93203L13.523 9.93117L14.8572 5.92848L13.5247 3.88889L12.0948 5.93203Z" fill="black"/>
<path d="M13.5374 11.7302C13.3505 11.7302 13.1836 11.6129 13.1205 11.4366L11.184 6.01434C11.1356 5.87935 11.1561 5.72916 11.2382 5.61164L13.1747 2.84541C13.2591 2.72486 13.3961 2.65166 13.5445 2.65647C13.6914 2.65875 13.8276 2.73397 13.9077 2.85681L15.7153 5.62329C15.7892 5.73625 15.8075 5.87707 15.7647 6.00547L13.9571 11.4275C13.8976 11.6066 13.7306 11.7281 13.542 11.7302C13.5404 11.7302 13.5389 11.7302 13.5374 11.7302ZM12.0948 5.93203L13.523 9.93117L14.8572 5.92848L13.5247 3.88889L12.0948 5.93203Z" fill="url(#paint3_linear_1198_15615)"/>
<path d="M13.5374 1.81469C13.293 1.81469 13.0947 1.61663 13.0947 1.37222V0.442717C13.0947 0.198058 13.293 0 13.5374 0C13.7819 0 13.9799 0.198058 13.9799 0.442717V1.37222C13.9799 1.61663 13.7819 1.81469 13.5374 1.81469Z" fill="black"/>
<path d="M13.5374 1.81469C13.293 1.81469 13.0947 1.61663 13.0947 1.37222V0.442717C13.0947 0.198058 13.293 0 13.5374 0C13.7819 0 13.9799 0.198058 13.9799 0.442717V1.37222C13.9799 1.61663 13.7819 1.81469 13.5374 1.81469Z" fill="url(#paint4_linear_1198_15615)"/>
<path d="M17.5425 1.83765C17.4647 1.83765 17.3865 1.81714 17.315 1.77459C17.1053 1.64871 17.0375 1.3767 17.1633 1.16724L17.6281 0.392742C17.7537 0.182781 18.0257 0.115157 18.2354 0.241033C18.4451 0.366655 18.513 0.638668 18.3871 0.848123L17.9224 1.62288C17.8393 1.76091 17.6929 1.83765 17.5425 1.83765Z" fill="black"/>
<path d="M17.5425 1.83765C17.4647 1.83765 17.3865 1.81714 17.315 1.77459C17.1053 1.64871 17.0375 1.3767 17.1633 1.16724L17.6281 0.392742C17.7537 0.182781 18.0257 0.115157 18.2354 0.241033C18.4451 0.366655 18.513 0.638668 18.3871 0.848123L17.9224 1.62288C17.8393 1.76091 17.6929 1.83765 17.5425 1.83765Z" fill="url(#paint5_linear_1198_15615)"/>
<path d="M19.5568 4.29269C19.4595 4.29269 19.362 4.26103 19.2804 4.19568C19.0895 4.04321 19.0586 3.76462 19.2113 3.57365L19.831 2.79915C19.9835 2.60767 20.2626 2.57728 20.4531 2.73C20.644 2.88247 20.6749 3.16107 20.5222 3.35204L19.9025 4.12654C19.8151 4.23595 19.6864 4.29269 19.5568 4.29269Z" fill="black"/>
<path d="M19.5568 4.29269C19.4595 4.29269 19.362 4.26103 19.2804 4.19568C19.0895 4.04321 19.0586 3.76462 19.2113 3.57365L19.831 2.79915C19.9835 2.60767 20.2626 2.57728 20.4531 2.73C20.644 2.88247 20.6749 3.16107 20.5222 3.35204L19.9025 4.12654C19.8151 4.23595 19.6864 4.29269 19.5568 4.29269Z" fill="url(#paint6_linear_1198_15615)"/>
<path d="M9.53212 1.83742C9.38167 1.83742 9.23503 1.76094 9.15221 1.62265L8.68721 0.847895C8.56133 0.638186 8.62946 0.366427 8.83892 0.240804C9.04862 0.115182 9.32064 0.183059 9.44626 0.392514L9.91101 1.16702C10.0369 1.37672 9.96901 1.64848 9.7593 1.77436C9.68813 1.81691 9.60962 1.83742 9.53212 1.83742Z" fill="black"/>
<path d="M9.53212 1.83742C9.38167 1.83742 9.23503 1.76094 9.15221 1.62265L8.68721 0.847895C8.56133 0.638186 8.62946 0.366427 8.83892 0.240804C9.04862 0.115182 9.32064 0.183059 9.44626 0.392514L9.91101 1.16702C10.0369 1.37672 9.96901 1.64848 9.7593 1.77436C9.68813 1.81691 9.60962 1.83742 9.53212 1.83742Z" fill="url(#paint7_linear_1198_15615)"/>
<path d="M7.51766 4.29253C7.38773 4.29253 7.25907 4.23579 7.17194 4.12638L6.55219 3.35188C6.39947 3.16091 6.43011 2.88231 6.62133 2.72985C6.81205 2.57712 7.09064 2.60802 7.24337 2.79899L7.86312 3.57349C8.01584 3.76446 7.98494 4.04305 7.79372 4.19552C7.71217 4.26087 7.61466 4.29253 7.51766 4.29253Z" fill="black"/>
<path d="M7.51766 4.29253C7.38773 4.29253 7.25907 4.23579 7.17194 4.12638L6.55219 3.35188C6.39947 3.16091 6.43011 2.88231 6.62133 2.72985C6.81205 2.57712 7.09064 2.60802 7.24337 2.79899L7.86312 3.57349C8.01584 3.76446 7.98494 4.04305 7.79372 4.19552C7.71217 4.26087 7.61466 4.29253 7.51766 4.29253Z" fill="url(#paint8_linear_1198_15615)"/>
</g>
<defs>
<linearGradient id="paint0_linear_1198_15615" x1="4.24219" y1="17.8447" x2="22.8323" y2="17.8447" gradientUnits="userSpaceOnUse">
<stop stop-color="#D2453B"/>
<stop offset="1" stop-color="#A0153E"/>
</linearGradient>
<linearGradient id="paint1_linear_1198_15615" x1="7.98242" y1="8.52144" x2="19.092" y2="8.52144" gradientUnits="userSpaceOnUse">
<stop stop-color="#D2453B"/>
<stop offset="1" stop-color="#A0153E"/>
</linearGradient>
<linearGradient id="paint2_linear_1198_15615" x1="7.98242" y1="4.42674" x2="19.092" y2="4.42674" gradientUnits="userSpaceOnUse">
<stop stop-color="#D2453B"/>
<stop offset="1" stop-color="#A0153E"/>
</linearGradient>
<linearGradient id="paint3_linear_1198_15615" x1="11.1582" y1="7.1932" x2="15.7874" y2="7.1932" gradientUnits="userSpaceOnUse">
<stop stop-color="#D2453B"/>
<stop offset="1" stop-color="#A0153E"/>
</linearGradient>
<linearGradient id="paint4_linear_1198_15615" x1="13.0947" y1="0.907343" x2="13.9799" y2="0.907343" gradientUnits="userSpaceOnUse">
<stop stop-color="#D2453B"/>
<stop offset="1" stop-color="#A0153E"/>
</linearGradient>
<linearGradient id="paint5_linear_1198_15615" x1="17.1001" y1="1.00769" x2="18.4504" y2="1.00769" gradientUnits="userSpaceOnUse">
<stop stop-color="#D2453B"/>
<stop offset="1" stop-color="#A0153E"/>
</linearGradient>
<linearGradient id="paint6_linear_1198_15615" x1="19.1143" y1="3.46275" x2="20.6193" y2="3.46275" gradientUnits="userSpaceOnUse">
<stop stop-color="#D2453B"/>
<stop offset="1" stop-color="#A0153E"/>
</linearGradient>
<linearGradient id="paint7_linear_1198_15615" x1="8.62402" y1="1.00758" x2="9.97425" y2="1.00758" gradientUnits="userSpaceOnUse">
<stop stop-color="#D2453B"/>
<stop offset="1" stop-color="#A0153E"/>
</linearGradient>
<linearGradient id="paint8_linear_1198_15615" x1="6.45508" y1="3.46267" x2="7.96013" y2="3.46267" gradientUnits="userSpaceOnUse">
<stop stop-color="#D2453B"/>
<stop offset="1" stop-color="#A0153E"/>
</linearGradient>
<clipPath id="clip0_1198_15615">
<rect width="27" height="27" fill="white"/>
</clipPath>
</defs>
</svg>
