<svg width="18" height="18" viewBox="0 0 18 18" fill="none" xmlns="http://www.w3.org/2000/svg">
<path d="M14.7417 6.73351C13.991 3.43053 11.1099 1.94348 8.57903 1.94348C8.57903 1.94348 8.57902 1.94348 8.57188 1.94348C6.04818 1.94348 3.15986 3.42339 2.40919 6.72636C1.57272 10.4154 3.83189 13.5396 5.87659 15.5057C6.63442 16.2349 7.60672 16.5995 8.57903 16.5995C9.55133 16.5995 10.5236 16.2349 11.2743 15.5057C13.319 13.5396 15.5782 10.4225 14.7417 6.73351ZM8.57903 10.3153C7.33505 10.3153 6.327 9.30725 6.327 8.06328C6.327 6.8193 7.33505 5.81125 8.57903 5.81125C9.823 5.81125 10.8311 6.8193 10.8311 8.06328C10.8311 9.30725 9.823 10.3153 8.57903 10.3153Z" fill="#FEB622"/>
</svg>
