<svg width="30" height="30" viewBox="0 0 30 30" fill="none" xmlns="http://www.w3.org/2000/svg">
<path d="M15 30C23.2843 30 30 23.2843 30 15C30 6.71573 23.2843 0 15 0C6.71573 0 0 6.71573 0 15C0 23.2843 6.71573 30 15 30Z" fill="#ECA73C"/>
<path fill-rule="evenodd" clip-rule="evenodd" d="M8.7002 18.6892V21.5016H11.5126L19.8075 13.2068L16.995 10.3943L8.7002 18.6892ZM21.9825 11.0318C22.275 10.7393 22.275 10.2668 21.9825 9.97434L20.2275 8.21937C19.935 7.92688 19.4625 7.92688 19.17 8.21937L17.7975 9.59185L20.61 12.4043L21.9825 11.0318H21.9825Z" fill="white"/>
</svg>
